G04 #@! TF.GenerationSoftware,KiCad,Pcbnew,5.1.5-52549c5~84~ubuntu19.04.1*
G04 #@! TF.CreationDate,2020-02-11T15:19:44+02:00*
G04 #@! TF.ProjectId,switch-control-hat,73776974-6368-42d6-936f-6e74726f6c2d,rev?*
G04 #@! TF.SameCoordinates,Original*
G04 #@! TF.FileFunction,Legend,Top*
G04 #@! TF.FilePolarity,Positive*
%FSLAX46Y46*%
G04 Gerber Fmt 4.6, Leading zero omitted, Abs format (unit mm)*
G04 Created by KiCad (PCBNEW 5.1.5-52549c5~84~ubuntu19.04.1) date 2020-02-11 15:19:44*
%MOMM*%
%LPD*%
G04 APERTURE LIST*
%ADD10C,0.150000*%
%ADD11C,0.120000*%
G04 APERTURE END LIST*
D10*
X252705095Y-143403880D02*
X252705095Y-142403880D01*
X253276523Y-143403880D01*
X253276523Y-142403880D01*
X253705095Y-143356261D02*
X253847952Y-143403880D01*
X254086047Y-143403880D01*
X254181285Y-143356261D01*
X254228904Y-143308642D01*
X254276523Y-143213404D01*
X254276523Y-143118166D01*
X254228904Y-143022928D01*
X254181285Y-142975309D01*
X254086047Y-142927690D01*
X253895571Y-142880071D01*
X253800333Y-142832452D01*
X253752714Y-142784833D01*
X253705095Y-142689595D01*
X253705095Y-142594357D01*
X253752714Y-142499119D01*
X253800333Y-142451500D01*
X253895571Y-142403880D01*
X254133666Y-142403880D01*
X254276523Y-142451500D01*
X248371285Y-142403880D02*
X248704619Y-143403880D01*
X249037952Y-142403880D01*
X249371285Y-143403880D02*
X249371285Y-142403880D01*
X249942714Y-143403880D01*
X249942714Y-142403880D01*
X250371285Y-143118166D02*
X250847476Y-143118166D01*
X250276047Y-143403880D02*
X250609380Y-142403880D01*
X250942714Y-143403880D01*
X244704142Y-143118166D02*
X245180333Y-143118166D01*
X244608904Y-143403880D02*
X244942238Y-142403880D01*
X245275571Y-143403880D01*
X245608904Y-143403880D02*
X245608904Y-142403880D01*
X246180333Y-143403880D01*
X246180333Y-142403880D01*
X246513666Y-142403880D02*
X247085095Y-142403880D01*
X246799380Y-143403880D02*
X246799380Y-142403880D01*
X241489380Y-143403880D02*
X241156047Y-142927690D01*
X240917952Y-143403880D02*
X240917952Y-142403880D01*
X241298904Y-142403880D01*
X241394142Y-142451500D01*
X241441761Y-142499119D01*
X241489380Y-142594357D01*
X241489380Y-142737214D01*
X241441761Y-142832452D01*
X241394142Y-142880071D01*
X241298904Y-142927690D01*
X240917952Y-142927690D01*
X241870333Y-143356261D02*
X242013190Y-143403880D01*
X242251285Y-143403880D01*
X242346523Y-143356261D01*
X242394142Y-143308642D01*
X242441761Y-143213404D01*
X242441761Y-143118166D01*
X242394142Y-143022928D01*
X242346523Y-142975309D01*
X242251285Y-142927690D01*
X242060809Y-142880071D01*
X241965571Y-142832452D01*
X241917952Y-142784833D01*
X241870333Y-142689595D01*
X241870333Y-142594357D01*
X241917952Y-142499119D01*
X241965571Y-142451500D01*
X242060809Y-142403880D01*
X242298904Y-142403880D01*
X242441761Y-142451500D01*
X242727476Y-142403880D02*
X243298904Y-142403880D01*
X243013190Y-143403880D02*
X243013190Y-142403880D01*
X237465095Y-142451500D02*
X237369857Y-142403880D01*
X237227000Y-142403880D01*
X237084142Y-142451500D01*
X236988904Y-142546738D01*
X236941285Y-142641976D01*
X236893666Y-142832452D01*
X236893666Y-142975309D01*
X236941285Y-143165785D01*
X236988904Y-143261023D01*
X237084142Y-143356261D01*
X237227000Y-143403880D01*
X237322238Y-143403880D01*
X237465095Y-143356261D01*
X237512714Y-143308642D01*
X237512714Y-142975309D01*
X237322238Y-142975309D01*
X237941285Y-143403880D02*
X237941285Y-142403880D01*
X238512714Y-143403880D01*
X238512714Y-142403880D01*
X238988904Y-143403880D02*
X238988904Y-142403880D01*
X239227000Y-142403880D01*
X239369857Y-142451500D01*
X239465095Y-142546738D01*
X239512714Y-142641976D01*
X239560333Y-142832452D01*
X239560333Y-142975309D01*
X239512714Y-143165785D01*
X239465095Y-143261023D01*
X239369857Y-143356261D01*
X239227000Y-143403880D01*
X238988904Y-143403880D01*
X233678904Y-143403880D02*
X233678904Y-142403880D01*
X234059857Y-142403880D01*
X234155095Y-142451500D01*
X234202714Y-142499119D01*
X234250333Y-142594357D01*
X234250333Y-142737214D01*
X234202714Y-142832452D01*
X234155095Y-142880071D01*
X234059857Y-142927690D01*
X233678904Y-142927690D01*
X235107476Y-142403880D02*
X234917000Y-142403880D01*
X234821761Y-142451500D01*
X234774142Y-142499119D01*
X234678904Y-142641976D01*
X234631285Y-142832452D01*
X234631285Y-143213404D01*
X234678904Y-143308642D01*
X234726523Y-143356261D01*
X234821761Y-143403880D01*
X235012238Y-143403880D01*
X235107476Y-143356261D01*
X235155095Y-143308642D01*
X235202714Y-143213404D01*
X235202714Y-142975309D01*
X235155095Y-142880071D01*
X235107476Y-142832452D01*
X235012238Y-142784833D01*
X234821761Y-142784833D01*
X234726523Y-142832452D01*
X234678904Y-142880071D01*
X234631285Y-142975309D01*
X229868904Y-143403880D02*
X229868904Y-142403880D01*
X230249857Y-142403880D01*
X230345095Y-142451500D01*
X230392714Y-142499119D01*
X230440333Y-142594357D01*
X230440333Y-142737214D01*
X230392714Y-142832452D01*
X230345095Y-142880071D01*
X230249857Y-142927690D01*
X229868904Y-142927690D01*
X231345095Y-142403880D02*
X230868904Y-142403880D01*
X230821285Y-142880071D01*
X230868904Y-142832452D01*
X230964142Y-142784833D01*
X231202238Y-142784833D01*
X231297476Y-142832452D01*
X231345095Y-142880071D01*
X231392714Y-142975309D01*
X231392714Y-143213404D01*
X231345095Y-143308642D01*
X231297476Y-143356261D01*
X231202238Y-143403880D01*
X230964142Y-143403880D01*
X230868904Y-143356261D01*
X230821285Y-143308642D01*
X210818904Y-143467380D02*
X210818904Y-142467380D01*
X211199857Y-142467380D01*
X211295095Y-142515000D01*
X211342714Y-142562619D01*
X211390333Y-142657857D01*
X211390333Y-142800714D01*
X211342714Y-142895952D01*
X211295095Y-142943571D01*
X211199857Y-142991190D01*
X210818904Y-142991190D01*
X212342714Y-143467380D02*
X211771285Y-143467380D01*
X212057000Y-143467380D02*
X212057000Y-142467380D01*
X211961761Y-142610238D01*
X211866523Y-142705476D01*
X211771285Y-142753095D01*
X214628904Y-143403880D02*
X214628904Y-142403880D01*
X215009857Y-142403880D01*
X215105095Y-142451500D01*
X215152714Y-142499119D01*
X215200333Y-142594357D01*
X215200333Y-142737214D01*
X215152714Y-142832452D01*
X215105095Y-142880071D01*
X215009857Y-142927690D01*
X214628904Y-142927690D01*
X215581285Y-142499119D02*
X215628904Y-142451500D01*
X215724142Y-142403880D01*
X215962238Y-142403880D01*
X216057476Y-142451500D01*
X216105095Y-142499119D01*
X216152714Y-142594357D01*
X216152714Y-142689595D01*
X216105095Y-142832452D01*
X215533666Y-143403880D01*
X216152714Y-143403880D01*
X218438904Y-143403880D02*
X218438904Y-142403880D01*
X218819857Y-142403880D01*
X218915095Y-142451500D01*
X218962714Y-142499119D01*
X219010333Y-142594357D01*
X219010333Y-142737214D01*
X218962714Y-142832452D01*
X218915095Y-142880071D01*
X218819857Y-142927690D01*
X218438904Y-142927690D01*
X219343666Y-142403880D02*
X219962714Y-142403880D01*
X219629380Y-142784833D01*
X219772238Y-142784833D01*
X219867476Y-142832452D01*
X219915095Y-142880071D01*
X219962714Y-142975309D01*
X219962714Y-143213404D01*
X219915095Y-143308642D01*
X219867476Y-143356261D01*
X219772238Y-143403880D01*
X219486523Y-143403880D01*
X219391285Y-143356261D01*
X219343666Y-143308642D01*
X222248904Y-143403880D02*
X222248904Y-142403880D01*
X222629857Y-142403880D01*
X222725095Y-142451500D01*
X222772714Y-142499119D01*
X222820333Y-142594357D01*
X222820333Y-142737214D01*
X222772714Y-142832452D01*
X222725095Y-142880071D01*
X222629857Y-142927690D01*
X222248904Y-142927690D01*
X223677476Y-142737214D02*
X223677476Y-143403880D01*
X223439380Y-142356261D02*
X223201285Y-143070547D01*
X223820333Y-143070547D01*
X224987476Y-142403880D02*
X225558904Y-142403880D01*
X225273190Y-143403880D02*
X225273190Y-142403880D01*
X225892238Y-142880071D02*
X226225571Y-142880071D01*
X226368428Y-143403880D02*
X225892238Y-143403880D01*
X225892238Y-142403880D01*
X226368428Y-142403880D01*
X226797000Y-143403880D02*
X226797000Y-142403880D01*
X227130333Y-143118166D01*
X227463666Y-142403880D01*
X227463666Y-143403880D01*
X227939857Y-143403880D02*
X227939857Y-142403880D01*
X228320809Y-142403880D01*
X228416047Y-142451500D01*
X228463666Y-142499119D01*
X228511285Y-142594357D01*
X228511285Y-142737214D01*
X228463666Y-142832452D01*
X228416047Y-142880071D01*
X228320809Y-142927690D01*
X227939857Y-142927690D01*
X279192380Y-141466666D02*
X278192380Y-141466666D01*
X279192380Y-140895238D01*
X278192380Y-140895238D01*
X279192380Y-140419047D02*
X278525714Y-140419047D01*
X278192380Y-140419047D02*
X278240000Y-140466666D01*
X278287619Y-140419047D01*
X278240000Y-140371428D01*
X278192380Y-140419047D01*
X278287619Y-140419047D01*
X278525714Y-140038095D02*
X279192380Y-139800000D01*
X278525714Y-139561904D01*
X279144761Y-138800000D02*
X279192380Y-138895238D01*
X279192380Y-139085714D01*
X279144761Y-139180952D01*
X279049523Y-139228571D01*
X278668571Y-139228571D01*
X278573333Y-139180952D01*
X278525714Y-139085714D01*
X278525714Y-138895238D01*
X278573333Y-138800000D01*
X278668571Y-138752380D01*
X278763809Y-138752380D01*
X278859047Y-139228571D01*
X279192380Y-138323809D02*
X278192380Y-138323809D01*
X278811428Y-138228571D02*
X279192380Y-137942857D01*
X278525714Y-137942857D02*
X278906666Y-138323809D01*
X278240000Y-136228571D02*
X278192380Y-136323809D01*
X278192380Y-136466666D01*
X278240000Y-136609523D01*
X278335238Y-136704761D01*
X278430476Y-136752380D01*
X278620952Y-136800000D01*
X278763809Y-136800000D01*
X278954285Y-136752380D01*
X279049523Y-136704761D01*
X279144761Y-136609523D01*
X279192380Y-136466666D01*
X279192380Y-136371428D01*
X279144761Y-136228571D01*
X279097142Y-136180952D01*
X278763809Y-136180952D01*
X278763809Y-136371428D01*
X279192380Y-135752380D02*
X278192380Y-135752380D01*
X279192380Y-135323809D02*
X278668571Y-135323809D01*
X278573333Y-135371428D01*
X278525714Y-135466666D01*
X278525714Y-135609523D01*
X278573333Y-135704761D01*
X278620952Y-135752380D01*
X279192380Y-134419047D02*
X278668571Y-134419047D01*
X278573333Y-134466666D01*
X278525714Y-134561904D01*
X278525714Y-134752380D01*
X278573333Y-134847619D01*
X279144761Y-134419047D02*
X279192380Y-134514285D01*
X279192380Y-134752380D01*
X279144761Y-134847619D01*
X279049523Y-134895238D01*
X278954285Y-134895238D01*
X278859047Y-134847619D01*
X278811428Y-134752380D01*
X278811428Y-134514285D01*
X278763809Y-134419047D01*
X278525714Y-134038095D02*
X278525714Y-133514285D01*
X279192380Y-134038095D01*
X279192380Y-133514285D01*
X279192380Y-133133333D02*
X278525714Y-133133333D01*
X278192380Y-133133333D02*
X278240000Y-133180952D01*
X278287619Y-133133333D01*
X278240000Y-133085714D01*
X278192380Y-133133333D01*
X278287619Y-133133333D01*
X235235809Y-103208380D02*
X235235809Y-102208380D01*
X235616761Y-102208380D01*
X235712000Y-102256000D01*
X235759619Y-102303619D01*
X235807238Y-102398857D01*
X235807238Y-102541714D01*
X235759619Y-102636952D01*
X235712000Y-102684571D01*
X235616761Y-102732190D01*
X235235809Y-102732190D01*
X236807238Y-103208380D02*
X236473904Y-102732190D01*
X236235809Y-103208380D02*
X236235809Y-102208380D01*
X236616761Y-102208380D01*
X236712000Y-102256000D01*
X236759619Y-102303619D01*
X236807238Y-102398857D01*
X236807238Y-102541714D01*
X236759619Y-102636952D01*
X236712000Y-102684571D01*
X236616761Y-102732190D01*
X236235809Y-102732190D01*
X237235809Y-103208380D02*
X237235809Y-102208380D01*
X237616761Y-102208380D02*
X238283428Y-102208380D01*
X237616761Y-103208380D01*
X238283428Y-103208380D01*
X238664380Y-103208380D02*
X238664380Y-102208380D01*
X238997714Y-102922666D01*
X239331047Y-102208380D01*
X239331047Y-103208380D01*
X241140571Y-103113142D02*
X241092952Y-103160761D01*
X240950095Y-103208380D01*
X240854857Y-103208380D01*
X240712000Y-103160761D01*
X240616761Y-103065523D01*
X240569142Y-102970285D01*
X240521523Y-102779809D01*
X240521523Y-102636952D01*
X240569142Y-102446476D01*
X240616761Y-102351238D01*
X240712000Y-102256000D01*
X240854857Y-102208380D01*
X240950095Y-102208380D01*
X241092952Y-102256000D01*
X241140571Y-102303619D01*
X241712000Y-103208380D02*
X241616761Y-103160761D01*
X241569142Y-103113142D01*
X241521523Y-103017904D01*
X241521523Y-102732190D01*
X241569142Y-102636952D01*
X241616761Y-102589333D01*
X241712000Y-102541714D01*
X241854857Y-102541714D01*
X241950095Y-102589333D01*
X241997714Y-102636952D01*
X242045333Y-102732190D01*
X242045333Y-103017904D01*
X241997714Y-103113142D01*
X241950095Y-103160761D01*
X241854857Y-103208380D01*
X241712000Y-103208380D01*
X242473904Y-102541714D02*
X242473904Y-103208380D01*
X242473904Y-102636952D02*
X242521523Y-102589333D01*
X242616761Y-102541714D01*
X242759619Y-102541714D01*
X242854857Y-102589333D01*
X242902476Y-102684571D01*
X242902476Y-103208380D01*
X243235809Y-102541714D02*
X243616761Y-102541714D01*
X243378666Y-102208380D02*
X243378666Y-103065523D01*
X243426285Y-103160761D01*
X243521523Y-103208380D01*
X243616761Y-103208380D01*
X243950095Y-103208380D02*
X243950095Y-102541714D01*
X243950095Y-102732190D02*
X243997714Y-102636952D01*
X244045333Y-102589333D01*
X244140571Y-102541714D01*
X244235809Y-102541714D01*
X244712000Y-103208380D02*
X244616761Y-103160761D01*
X244569142Y-103113142D01*
X244521523Y-103017904D01*
X244521523Y-102732190D01*
X244569142Y-102636952D01*
X244616761Y-102589333D01*
X244712000Y-102541714D01*
X244854857Y-102541714D01*
X244950095Y-102589333D01*
X244997714Y-102636952D01*
X245045333Y-102732190D01*
X245045333Y-103017904D01*
X244997714Y-103113142D01*
X244950095Y-103160761D01*
X244854857Y-103208380D01*
X244712000Y-103208380D01*
X245616761Y-103208380D02*
X245521523Y-103160761D01*
X245473904Y-103065523D01*
X245473904Y-102208380D01*
X247331047Y-103113142D02*
X247283428Y-103160761D01*
X247140571Y-103208380D01*
X247045333Y-103208380D01*
X246902476Y-103160761D01*
X246807238Y-103065523D01*
X246759619Y-102970285D01*
X246712000Y-102779809D01*
X246712000Y-102636952D01*
X246759619Y-102446476D01*
X246807238Y-102351238D01*
X246902476Y-102256000D01*
X247045333Y-102208380D01*
X247140571Y-102208380D01*
X247283428Y-102256000D01*
X247331047Y-102303619D01*
X247759619Y-103208380D02*
X247759619Y-102541714D01*
X247759619Y-102208380D02*
X247712000Y-102256000D01*
X247759619Y-102303619D01*
X247807238Y-102256000D01*
X247759619Y-102208380D01*
X247759619Y-102303619D01*
X248235809Y-103208380D02*
X248235809Y-102541714D01*
X248235809Y-102732190D02*
X248283428Y-102636952D01*
X248331047Y-102589333D01*
X248426285Y-102541714D01*
X248521523Y-102541714D01*
X249283428Y-103160761D02*
X249188190Y-103208380D01*
X248997714Y-103208380D01*
X248902476Y-103160761D01*
X248854857Y-103113142D01*
X248807238Y-103017904D01*
X248807238Y-102732190D01*
X248854857Y-102636952D01*
X248902476Y-102589333D01*
X248997714Y-102541714D01*
X249188190Y-102541714D01*
X249283428Y-102589333D01*
X250140571Y-102541714D02*
X250140571Y-103208380D01*
X249712000Y-102541714D02*
X249712000Y-103065523D01*
X249759619Y-103160761D01*
X249854857Y-103208380D01*
X249997714Y-103208380D01*
X250092952Y-103160761D01*
X250140571Y-103113142D01*
X250616761Y-103208380D02*
X250616761Y-102541714D01*
X250616761Y-102208380D02*
X250569142Y-102256000D01*
X250616761Y-102303619D01*
X250664380Y-102256000D01*
X250616761Y-102208380D01*
X250616761Y-102303619D01*
X250950095Y-102541714D02*
X251331047Y-102541714D01*
X251092952Y-102208380D02*
X251092952Y-103065523D01*
X251140571Y-103160761D01*
X251235809Y-103208380D01*
X251331047Y-103208380D01*
X252283428Y-102208380D02*
X252616761Y-103208380D01*
X252950095Y-102208380D01*
X253807238Y-103208380D02*
X253235809Y-103208380D01*
X253521523Y-103208380D02*
X253521523Y-102208380D01*
X253426285Y-102351238D01*
X253331047Y-102446476D01*
X253235809Y-102494095D01*
X254235809Y-103113142D02*
X254283428Y-103160761D01*
X254235809Y-103208380D01*
X254188190Y-103160761D01*
X254235809Y-103113142D01*
X254235809Y-103208380D01*
X255235809Y-103208380D02*
X254664380Y-103208380D01*
X254950095Y-103208380D02*
X254950095Y-102208380D01*
X254854857Y-102351238D01*
X254759619Y-102446476D01*
X254664380Y-102494095D01*
D11*
X265480000Y-106870000D02*
X265480000Y-108685000D01*
X265235000Y-106870000D02*
X265480000Y-106870000D01*
X265235000Y-103010000D02*
X265235000Y-106870000D01*
X265235000Y-99150000D02*
X265480000Y-99150000D01*
X265235000Y-103010000D02*
X265235000Y-99150000D01*
X283355000Y-106870000D02*
X283110000Y-106870000D01*
X283355000Y-103010000D02*
X283355000Y-106870000D01*
X283355000Y-99150000D02*
X283110000Y-99150000D01*
X283355000Y-103010000D02*
X283355000Y-99150000D01*
X224452733Y-104028000D02*
X224795267Y-104028000D01*
X224452733Y-103008000D02*
X224795267Y-103008000D01*
X224452733Y-101484000D02*
X224795267Y-101484000D01*
X224452733Y-102504000D02*
X224795267Y-102504000D01*
X274226267Y-109993000D02*
X273883733Y-109993000D01*
X274226267Y-111013000D02*
X273883733Y-111013000D01*
X275163000Y-114294000D02*
X276613000Y-114294000D01*
X272563000Y-116894000D02*
X275163000Y-114294000D01*
X271763000Y-116894000D02*
X272563000Y-116894000D01*
X271763000Y-125194000D02*
X271763000Y-116894000D01*
X272563000Y-125194000D02*
X271763000Y-125194000D01*
X275163000Y-127794000D02*
X272563000Y-125194000D01*
X276613000Y-127794000D02*
X275163000Y-127794000D01*
X280613000Y-127794000D02*
X282713000Y-127794000D01*
X280613000Y-114294000D02*
X282713000Y-114294000D01*
X282663000Y-127794000D02*
G75*
G03X284213000Y-126344000I50000J1500000D01*
G01*
X282663000Y-114294000D02*
G75*
G02X284213000Y-115744000I50000J-1500000D01*
G01*
X284197160Y-126458615D02*
G75*
G03X283813000Y-125544000I-984160J124615D01*
G01*
X284197160Y-115629385D02*
G75*
G02X283813000Y-116544000I-984160J-124615D01*
G01*
X211257000Y-143844000D02*
X211857000Y-143844000D01*
X211557000Y-144444000D02*
X211257000Y-143844000D01*
X211857000Y-143844000D02*
X211557000Y-144444000D01*
X208847000Y-151244000D02*
X256177000Y-151244000D01*
X250707000Y-145134000D02*
X252417000Y-145134000D01*
X246897000Y-145134000D02*
X248607000Y-145134000D01*
X243087000Y-145134000D02*
X244797000Y-145134000D01*
X239277000Y-145134000D02*
X240987000Y-145134000D01*
X235467000Y-145134000D02*
X237177000Y-145134000D01*
X231657000Y-145134000D02*
X233367000Y-145134000D01*
X227847000Y-145134000D02*
X229557000Y-145134000D01*
X224037000Y-145134000D02*
X225747000Y-145134000D01*
X220227000Y-145134000D02*
X221937000Y-145134000D01*
X216417000Y-145134000D02*
X218127000Y-145134000D01*
X212607000Y-145134000D02*
X214317000Y-145134000D01*
X256177000Y-145134000D02*
X254517000Y-145134000D01*
X208847000Y-145134000D02*
X210507000Y-145134000D01*
X256177000Y-154554000D02*
X256177000Y-145134000D01*
X208847000Y-154554000D02*
X256177000Y-154554000D01*
X208847000Y-145134000D02*
X208847000Y-154554000D01*
X225372635Y-139332000D02*
G75*
G03X225372635Y-139332000I-1750635J0D01*
G01*
X223622000Y-137581365D02*
X223622000Y-136922000D01*
X267260000Y-132295000D02*
X265445000Y-132295000D01*
X267260000Y-132040000D02*
X267260000Y-132295000D01*
X271120000Y-132040000D02*
X267260000Y-132040000D01*
X274980000Y-132040000D02*
X274980000Y-132295000D01*
X271120000Y-132040000D02*
X274980000Y-132040000D01*
X267260000Y-142560000D02*
X267260000Y-142305000D01*
X271120000Y-142560000D02*
X267260000Y-142560000D01*
X274980000Y-142560000D02*
X274980000Y-142305000D01*
X271120000Y-142560000D02*
X274980000Y-142560000D01*
X217048267Y-103008000D02*
X216705733Y-103008000D01*
X217048267Y-104028000D02*
X216705733Y-104028000D01*
X268511267Y-127900000D02*
X268168733Y-127900000D01*
X268511267Y-128920000D02*
X268168733Y-128920000D01*
X220812000Y-110570000D02*
G75*
G02X218812000Y-110570000I-1000000J0D01*
G01*
X218812000Y-110570000D02*
X217162000Y-110570000D01*
X217162000Y-110570000D02*
X217162000Y-118310000D01*
X217162000Y-118310000D02*
X222462000Y-118310000D01*
X222462000Y-118310000D02*
X222462000Y-110570000D01*
X222462000Y-110570000D02*
X220812000Y-110570000D01*
X254805733Y-107580000D02*
X255148267Y-107580000D01*
X254805733Y-108600000D02*
X255148267Y-108600000D01*
X254805733Y-123840000D02*
X255148267Y-123840000D01*
X254805733Y-122820000D02*
X255148267Y-122820000D01*
X261722000Y-137581365D02*
X261722000Y-136922000D01*
X263472635Y-139332000D02*
G75*
G03X263472635Y-139332000I-1750635J0D01*
G01*
X229405733Y-123840000D02*
X229748267Y-123840000D01*
X229405733Y-122820000D02*
X229748267Y-122820000D01*
X210922000Y-137581365D02*
X210922000Y-136922000D01*
X212672635Y-139332000D02*
G75*
G03X212672635Y-139332000I-1750635J0D01*
G01*
X203302000Y-137581365D02*
X203302000Y-136922000D01*
X205052635Y-139332000D02*
G75*
G03X205052635Y-139332000I-1750635J0D01*
G01*
X270566000Y-143844000D02*
X271166000Y-143844000D01*
X270866000Y-144444000D02*
X270566000Y-143844000D01*
X271166000Y-143844000D02*
X270866000Y-144444000D01*
X268156000Y-151244000D02*
X281196000Y-151244000D01*
X275726000Y-145134000D02*
X277436000Y-145134000D01*
X271916000Y-145134000D02*
X273626000Y-145134000D01*
X281196000Y-145134000D02*
X279536000Y-145134000D01*
X268156000Y-145134000D02*
X269816000Y-145134000D01*
X281196000Y-154554000D02*
X281196000Y-145134000D01*
X268156000Y-154554000D02*
X281196000Y-154554000D01*
X268156000Y-145134000D02*
X268156000Y-154554000D01*
X254102000Y-137581365D02*
X254102000Y-136922000D01*
X255852635Y-139332000D02*
G75*
G03X255852635Y-139332000I-1750635J0D01*
G01*
X249022000Y-137581365D02*
X249022000Y-136922000D01*
X250772635Y-139332000D02*
G75*
G03X250772635Y-139332000I-1750635J0D01*
G01*
X241402000Y-137581365D02*
X241402000Y-136922000D01*
X243152635Y-139332000D02*
G75*
G03X243152635Y-139332000I-1750635J0D01*
G01*
X236322000Y-137581365D02*
X236322000Y-136922000D01*
X238072635Y-139332000D02*
G75*
G03X238072635Y-139332000I-1750635J0D01*
G01*
X228702000Y-137581365D02*
X228702000Y-136922000D01*
X230452635Y-139332000D02*
G75*
G03X230452635Y-139332000I-1750635J0D01*
G01*
X216002000Y-137581365D02*
X216002000Y-136922000D01*
X217752635Y-139332000D02*
G75*
G03X217752635Y-139332000I-1750635J0D01*
G01*
X260562000Y-125810000D02*
X258912000Y-125810000D01*
X260562000Y-133550000D02*
X260562000Y-125810000D01*
X255262000Y-133550000D02*
X260562000Y-133550000D01*
X255262000Y-125810000D02*
X255262000Y-133550000D01*
X256912000Y-125810000D02*
X255262000Y-125810000D01*
X258912000Y-125810000D02*
G75*
G02X256912000Y-125810000I-1000000J0D01*
G01*
X258912000Y-110570000D02*
G75*
G02X256912000Y-110570000I-1000000J0D01*
G01*
X256912000Y-110570000D02*
X255262000Y-110570000D01*
X255262000Y-110570000D02*
X255262000Y-118310000D01*
X255262000Y-118310000D02*
X260562000Y-118310000D01*
X260562000Y-118310000D02*
X260562000Y-110570000D01*
X260562000Y-110570000D02*
X258912000Y-110570000D01*
X247862000Y-125810000D02*
X246212000Y-125810000D01*
X247862000Y-133550000D02*
X247862000Y-125810000D01*
X242562000Y-133550000D02*
X247862000Y-133550000D01*
X242562000Y-125810000D02*
X242562000Y-133550000D01*
X244212000Y-125810000D02*
X242562000Y-125810000D01*
X246212000Y-125810000D02*
G75*
G02X244212000Y-125810000I-1000000J0D01*
G01*
X242105733Y-107580000D02*
X242448267Y-107580000D01*
X242105733Y-108600000D02*
X242448267Y-108600000D01*
X242105733Y-123840000D02*
X242448267Y-123840000D01*
X242105733Y-122820000D02*
X242448267Y-122820000D01*
X246212000Y-110570000D02*
G75*
G02X244212000Y-110570000I-1000000J0D01*
G01*
X244212000Y-110570000D02*
X242562000Y-110570000D01*
X242562000Y-110570000D02*
X242562000Y-118310000D01*
X242562000Y-118310000D02*
X247862000Y-118310000D01*
X247862000Y-118310000D02*
X247862000Y-110570000D01*
X247862000Y-110570000D02*
X246212000Y-110570000D01*
X235162000Y-125810000D02*
X233512000Y-125810000D01*
X235162000Y-133550000D02*
X235162000Y-125810000D01*
X229862000Y-133550000D02*
X235162000Y-133550000D01*
X229862000Y-125810000D02*
X229862000Y-133550000D01*
X231512000Y-125810000D02*
X229862000Y-125810000D01*
X233512000Y-125810000D02*
G75*
G02X231512000Y-125810000I-1000000J0D01*
G01*
X229405733Y-107580000D02*
X229748267Y-107580000D01*
X229405733Y-108600000D02*
X229748267Y-108600000D01*
X233512000Y-110570000D02*
G75*
G02X231512000Y-110570000I-1000000J0D01*
G01*
X231512000Y-110570000D02*
X229862000Y-110570000D01*
X229862000Y-110570000D02*
X229862000Y-118310000D01*
X229862000Y-118310000D02*
X235162000Y-118310000D01*
X235162000Y-118310000D02*
X235162000Y-110570000D01*
X235162000Y-110570000D02*
X233512000Y-110570000D01*
X222462000Y-125810000D02*
X220812000Y-125810000D01*
X222462000Y-133550000D02*
X222462000Y-125810000D01*
X217162000Y-133550000D02*
X222462000Y-133550000D01*
X217162000Y-125810000D02*
X217162000Y-133550000D01*
X218812000Y-125810000D02*
X217162000Y-125810000D01*
X220812000Y-125810000D02*
G75*
G02X218812000Y-125810000I-1000000J0D01*
G01*
X216705733Y-107580000D02*
X217048267Y-107580000D01*
X216705733Y-108600000D02*
X217048267Y-108600000D01*
X216705733Y-123840000D02*
X217048267Y-123840000D01*
X216705733Y-122820000D02*
X217048267Y-122820000D01*
X204005733Y-122820000D02*
X204348267Y-122820000D01*
X204005733Y-123840000D02*
X204348267Y-123840000D01*
X208112000Y-125810000D02*
G75*
G02X206112000Y-125810000I-1000000J0D01*
G01*
X206112000Y-125810000D02*
X204462000Y-125810000D01*
X204462000Y-125810000D02*
X204462000Y-133550000D01*
X204462000Y-133550000D02*
X209762000Y-133550000D01*
X209762000Y-133550000D02*
X209762000Y-125810000D01*
X209762000Y-125810000D02*
X208112000Y-125810000D01*
X209762000Y-110570000D02*
X208112000Y-110570000D01*
X209762000Y-118310000D02*
X209762000Y-110570000D01*
X204462000Y-118310000D02*
X209762000Y-118310000D01*
X204462000Y-110570000D02*
X204462000Y-118310000D01*
X206112000Y-110570000D02*
X204462000Y-110570000D01*
X208112000Y-110570000D02*
G75*
G02X206112000Y-110570000I-1000000J0D01*
G01*
X204005733Y-108600000D02*
X204348267Y-108600000D01*
X204005733Y-107580000D02*
X204348267Y-107580000D01*
D10*
X263847380Y-103771904D02*
X264656904Y-103771904D01*
X264752142Y-103724285D01*
X264799761Y-103676666D01*
X264847380Y-103581428D01*
X264847380Y-103390952D01*
X264799761Y-103295714D01*
X264752142Y-103248095D01*
X264656904Y-103200476D01*
X263847380Y-103200476D01*
X264847380Y-102200476D02*
X264847380Y-102771904D01*
X264847380Y-102486190D02*
X263847380Y-102486190D01*
X263990238Y-102581428D01*
X264085476Y-102676666D01*
X264133095Y-102771904D01*
X226997333Y-104000380D02*
X226664000Y-103524190D01*
X226425904Y-104000380D02*
X226425904Y-103000380D01*
X226806857Y-103000380D01*
X226902095Y-103048000D01*
X226949714Y-103095619D01*
X226997333Y-103190857D01*
X226997333Y-103333714D01*
X226949714Y-103428952D01*
X226902095Y-103476571D01*
X226806857Y-103524190D01*
X226425904Y-103524190D01*
X227949714Y-104000380D02*
X227378285Y-104000380D01*
X227664000Y-104000380D02*
X227664000Y-103000380D01*
X227568761Y-103143238D01*
X227473523Y-103238476D01*
X227378285Y-103286095D01*
X226997333Y-102446380D02*
X226664000Y-101970190D01*
X226425904Y-102446380D02*
X226425904Y-101446380D01*
X226806857Y-101446380D01*
X226902095Y-101494000D01*
X226949714Y-101541619D01*
X226997333Y-101636857D01*
X226997333Y-101779714D01*
X226949714Y-101874952D01*
X226902095Y-101922571D01*
X226806857Y-101970190D01*
X226425904Y-101970190D01*
X227378285Y-101541619D02*
X227425904Y-101494000D01*
X227521142Y-101446380D01*
X227759238Y-101446380D01*
X227854476Y-101494000D01*
X227902095Y-101541619D01*
X227949714Y-101636857D01*
X227949714Y-101732095D01*
X227902095Y-101874952D01*
X227330666Y-102446380D01*
X227949714Y-102446380D01*
X273888333Y-112290142D02*
X273840714Y-112337761D01*
X273697857Y-112385380D01*
X273602619Y-112385380D01*
X273459761Y-112337761D01*
X273364523Y-112242523D01*
X273316904Y-112147285D01*
X273269285Y-111956809D01*
X273269285Y-111813952D01*
X273316904Y-111623476D01*
X273364523Y-111528238D01*
X273459761Y-111433000D01*
X273602619Y-111385380D01*
X273697857Y-111385380D01*
X273840714Y-111433000D01*
X273888333Y-111480619D01*
X274840714Y-112385380D02*
X274269285Y-112385380D01*
X274555000Y-112385380D02*
X274555000Y-111385380D01*
X274459761Y-111528238D01*
X274364523Y-111623476D01*
X274269285Y-111671095D01*
X270541571Y-121829714D02*
X270589190Y-121686857D01*
X270636809Y-121639238D01*
X270732047Y-121591619D01*
X270874904Y-121591619D01*
X270970142Y-121639238D01*
X271017761Y-121686857D01*
X271065380Y-121782095D01*
X271065380Y-122163047D01*
X270065380Y-122163047D01*
X270065380Y-121829714D01*
X270113000Y-121734476D01*
X270160619Y-121686857D01*
X270255857Y-121639238D01*
X270351095Y-121639238D01*
X270446333Y-121686857D01*
X270493952Y-121734476D01*
X270541571Y-121829714D01*
X270541571Y-122163047D01*
X270065380Y-121305904D02*
X270065380Y-120734476D01*
X271065380Y-121020190D02*
X270065380Y-121020190D01*
X271065380Y-119877333D02*
X271065380Y-120448761D01*
X271065380Y-120163047D02*
X270065380Y-120163047D01*
X270208238Y-120258285D01*
X270303476Y-120353523D01*
X270351095Y-120448761D01*
X207604166Y-143737380D02*
X207604166Y-144451666D01*
X207556547Y-144594523D01*
X207461309Y-144689761D01*
X207318452Y-144737380D01*
X207223214Y-144737380D01*
X208032738Y-143832619D02*
X208080357Y-143785000D01*
X208175595Y-143737380D01*
X208413690Y-143737380D01*
X208508928Y-143785000D01*
X208556547Y-143832619D01*
X208604166Y-143927857D01*
X208604166Y-144023095D01*
X208556547Y-144165952D01*
X207985119Y-144737380D01*
X208604166Y-144737380D01*
X221788380Y-138165095D02*
X220788380Y-138165095D01*
X220788380Y-137927000D01*
X220836000Y-137784142D01*
X220931238Y-137688904D01*
X221026476Y-137641285D01*
X221216952Y-137593666D01*
X221359809Y-137593666D01*
X221550285Y-137641285D01*
X221645523Y-137688904D01*
X221740761Y-137784142D01*
X221788380Y-137927000D01*
X221788380Y-138165095D01*
X221121714Y-136736523D02*
X221788380Y-136736523D01*
X220740761Y-136974619D02*
X221455047Y-137212714D01*
X221455047Y-136593666D01*
X224888666Y-137560095D02*
X224888666Y-137083904D01*
X225174380Y-137655333D02*
X224174380Y-137322000D01*
X225174380Y-136988666D01*
X270358095Y-130652380D02*
X270358095Y-131461904D01*
X270405714Y-131557142D01*
X270453333Y-131604761D01*
X270548571Y-131652380D01*
X270739047Y-131652380D01*
X270834285Y-131604761D01*
X270881904Y-131557142D01*
X270929523Y-131461904D01*
X270929523Y-130652380D01*
X271358095Y-130747619D02*
X271405714Y-130700000D01*
X271500952Y-130652380D01*
X271739047Y-130652380D01*
X271834285Y-130700000D01*
X271881904Y-130747619D01*
X271929523Y-130842857D01*
X271929523Y-130938095D01*
X271881904Y-131080952D01*
X271310476Y-131652380D01*
X271929523Y-131652380D01*
X213200142Y-103970380D02*
X212866809Y-103494190D01*
X212628714Y-103970380D02*
X212628714Y-102970380D01*
X213009666Y-102970380D01*
X213104904Y-103018000D01*
X213152523Y-103065619D01*
X213200142Y-103160857D01*
X213200142Y-103303714D01*
X213152523Y-103398952D01*
X213104904Y-103446571D01*
X213009666Y-103494190D01*
X212628714Y-103494190D01*
X214152523Y-103970380D02*
X213581095Y-103970380D01*
X213866809Y-103970380D02*
X213866809Y-102970380D01*
X213771571Y-103113238D01*
X213676333Y-103208476D01*
X213581095Y-103256095D01*
X214485857Y-102970380D02*
X215104904Y-102970380D01*
X214771571Y-103351333D01*
X214914428Y-103351333D01*
X215009666Y-103398952D01*
X215057285Y-103446571D01*
X215104904Y-103541809D01*
X215104904Y-103779904D01*
X215057285Y-103875142D01*
X215009666Y-103922761D01*
X214914428Y-103970380D01*
X214628714Y-103970380D01*
X214533476Y-103922761D01*
X214485857Y-103875142D01*
X268173333Y-130197142D02*
X268125714Y-130244761D01*
X267982857Y-130292380D01*
X267887619Y-130292380D01*
X267744761Y-130244761D01*
X267649523Y-130149523D01*
X267601904Y-130054285D01*
X267554285Y-129863809D01*
X267554285Y-129720952D01*
X267601904Y-129530476D01*
X267649523Y-129435238D01*
X267744761Y-129340000D01*
X267887619Y-129292380D01*
X267982857Y-129292380D01*
X268125714Y-129340000D01*
X268173333Y-129387619D01*
X268554285Y-129387619D02*
X268601904Y-129340000D01*
X268697142Y-129292380D01*
X268935238Y-129292380D01*
X269030476Y-129340000D01*
X269078095Y-129387619D01*
X269125714Y-129482857D01*
X269125714Y-129578095D01*
X269078095Y-129720952D01*
X268506666Y-130292380D01*
X269125714Y-130292380D01*
X219050095Y-109022380D02*
X219050095Y-109831904D01*
X219097714Y-109927142D01*
X219145333Y-109974761D01*
X219240571Y-110022380D01*
X219431047Y-110022380D01*
X219526285Y-109974761D01*
X219573904Y-109927142D01*
X219621523Y-109831904D01*
X219621523Y-109022380D01*
X220573904Y-109022380D02*
X220097714Y-109022380D01*
X220050095Y-109498571D01*
X220097714Y-109450952D01*
X220192952Y-109403333D01*
X220431047Y-109403333D01*
X220526285Y-109450952D01*
X220573904Y-109498571D01*
X220621523Y-109593809D01*
X220621523Y-109831904D01*
X220573904Y-109927142D01*
X220526285Y-109974761D01*
X220431047Y-110022380D01*
X220192952Y-110022380D01*
X220097714Y-109974761D01*
X220050095Y-109927142D01*
X254334142Y-107112380D02*
X254000809Y-106636190D01*
X253762714Y-107112380D02*
X253762714Y-106112380D01*
X254143666Y-106112380D01*
X254238904Y-106160000D01*
X254286523Y-106207619D01*
X254334142Y-106302857D01*
X254334142Y-106445714D01*
X254286523Y-106540952D01*
X254238904Y-106588571D01*
X254143666Y-106636190D01*
X253762714Y-106636190D01*
X255286523Y-107112380D02*
X254715095Y-107112380D01*
X255000809Y-107112380D02*
X255000809Y-106112380D01*
X254905571Y-106255238D01*
X254810333Y-106350476D01*
X254715095Y-106398095D01*
X256238904Y-107112380D02*
X255667476Y-107112380D01*
X255953190Y-107112380D02*
X255953190Y-106112380D01*
X255857952Y-106255238D01*
X255762714Y-106350476D01*
X255667476Y-106398095D01*
X254334142Y-122352380D02*
X254000809Y-121876190D01*
X253762714Y-122352380D02*
X253762714Y-121352380D01*
X254143666Y-121352380D01*
X254238904Y-121400000D01*
X254286523Y-121447619D01*
X254334142Y-121542857D01*
X254334142Y-121685714D01*
X254286523Y-121780952D01*
X254238904Y-121828571D01*
X254143666Y-121876190D01*
X253762714Y-121876190D01*
X255286523Y-122352380D02*
X254715095Y-122352380D01*
X255000809Y-122352380D02*
X255000809Y-121352380D01*
X254905571Y-121495238D01*
X254810333Y-121590476D01*
X254715095Y-121638095D01*
X255667476Y-121447619D02*
X255715095Y-121400000D01*
X255810333Y-121352380D01*
X256048428Y-121352380D01*
X256143666Y-121400000D01*
X256191285Y-121447619D01*
X256238904Y-121542857D01*
X256238904Y-121638095D01*
X256191285Y-121780952D01*
X255619857Y-122352380D01*
X256238904Y-122352380D01*
X259888380Y-138133285D02*
X258888380Y-138133285D01*
X258888380Y-137895190D01*
X258936000Y-137752333D01*
X259031238Y-137657095D01*
X259126476Y-137609476D01*
X259316952Y-137561857D01*
X259459809Y-137561857D01*
X259650285Y-137609476D01*
X259745523Y-137657095D01*
X259840761Y-137752333D01*
X259888380Y-137895190D01*
X259888380Y-138133285D01*
X259888380Y-136609476D02*
X259888380Y-137180904D01*
X259888380Y-136895190D02*
X258888380Y-136895190D01*
X259031238Y-136990428D01*
X259126476Y-137085666D01*
X259174095Y-137180904D01*
X258888380Y-135990428D02*
X258888380Y-135895190D01*
X258936000Y-135799952D01*
X258983619Y-135752333D01*
X259078857Y-135704714D01*
X259269333Y-135657095D01*
X259507428Y-135657095D01*
X259697904Y-135704714D01*
X259793142Y-135752333D01*
X259840761Y-135799952D01*
X259888380Y-135895190D01*
X259888380Y-135990428D01*
X259840761Y-136085666D01*
X259793142Y-136133285D01*
X259697904Y-136180904D01*
X259507428Y-136228523D01*
X259269333Y-136228523D01*
X259078857Y-136180904D01*
X258983619Y-136133285D01*
X258936000Y-136085666D01*
X258888380Y-135990428D01*
X262988666Y-137560095D02*
X262988666Y-137083904D01*
X263274380Y-137655333D02*
X262274380Y-137322000D01*
X263274380Y-136988666D01*
X229410333Y-122352380D02*
X229077000Y-121876190D01*
X228838904Y-122352380D02*
X228838904Y-121352380D01*
X229219857Y-121352380D01*
X229315095Y-121400000D01*
X229362714Y-121447619D01*
X229410333Y-121542857D01*
X229410333Y-121685714D01*
X229362714Y-121780952D01*
X229315095Y-121828571D01*
X229219857Y-121876190D01*
X228838904Y-121876190D01*
X229981761Y-121780952D02*
X229886523Y-121733333D01*
X229838904Y-121685714D01*
X229791285Y-121590476D01*
X229791285Y-121542857D01*
X229838904Y-121447619D01*
X229886523Y-121400000D01*
X229981761Y-121352380D01*
X230172238Y-121352380D01*
X230267476Y-121400000D01*
X230315095Y-121447619D01*
X230362714Y-121542857D01*
X230362714Y-121590476D01*
X230315095Y-121685714D01*
X230267476Y-121733333D01*
X230172238Y-121780952D01*
X229981761Y-121780952D01*
X229886523Y-121828571D01*
X229838904Y-121876190D01*
X229791285Y-121971428D01*
X229791285Y-122161904D01*
X229838904Y-122257142D01*
X229886523Y-122304761D01*
X229981761Y-122352380D01*
X230172238Y-122352380D01*
X230267476Y-122304761D01*
X230315095Y-122257142D01*
X230362714Y-122161904D01*
X230362714Y-121971428D01*
X230315095Y-121876190D01*
X230267476Y-121828571D01*
X230172238Y-121780952D01*
X209088380Y-138165095D02*
X208088380Y-138165095D01*
X208088380Y-137927000D01*
X208136000Y-137784142D01*
X208231238Y-137688904D01*
X208326476Y-137641285D01*
X208516952Y-137593666D01*
X208659809Y-137593666D01*
X208850285Y-137641285D01*
X208945523Y-137688904D01*
X209040761Y-137784142D01*
X209088380Y-137927000D01*
X209088380Y-138165095D01*
X208183619Y-137212714D02*
X208136000Y-137165095D01*
X208088380Y-137069857D01*
X208088380Y-136831761D01*
X208136000Y-136736523D01*
X208183619Y-136688904D01*
X208278857Y-136641285D01*
X208374095Y-136641285D01*
X208516952Y-136688904D01*
X209088380Y-137260333D01*
X209088380Y-136641285D01*
X212188666Y-137560095D02*
X212188666Y-137083904D01*
X212474380Y-137655333D02*
X211474380Y-137322000D01*
X212474380Y-136988666D01*
X201595380Y-138038095D02*
X200595380Y-138038095D01*
X200595380Y-137800000D01*
X200643000Y-137657142D01*
X200738238Y-137561904D01*
X200833476Y-137514285D01*
X201023952Y-137466666D01*
X201166809Y-137466666D01*
X201357285Y-137514285D01*
X201452523Y-137561904D01*
X201547761Y-137657142D01*
X201595380Y-137800000D01*
X201595380Y-138038095D01*
X201595380Y-136514285D02*
X201595380Y-137085714D01*
X201595380Y-136800000D02*
X200595380Y-136800000D01*
X200738238Y-136895238D01*
X200833476Y-136990476D01*
X200881095Y-137085714D01*
X204568666Y-137560095D02*
X204568666Y-137083904D01*
X204854380Y-137655333D02*
X203854380Y-137322000D01*
X204854380Y-136988666D01*
X265960666Y-145896380D02*
X265960666Y-146610666D01*
X265913047Y-146753523D01*
X265817809Y-146848761D01*
X265674952Y-146896380D01*
X265579714Y-146896380D01*
X266960666Y-146896380D02*
X266389238Y-146896380D01*
X266674952Y-146896380D02*
X266674952Y-145896380D01*
X266579714Y-146039238D01*
X266484476Y-146134476D01*
X266389238Y-146182095D01*
X251803745Y-138165095D02*
X250803745Y-138165095D01*
X250803745Y-137927000D01*
X250851365Y-137784142D01*
X250946603Y-137688904D01*
X251041841Y-137641285D01*
X251232317Y-137593666D01*
X251375174Y-137593666D01*
X251565650Y-137641285D01*
X251660888Y-137688904D01*
X251756126Y-137784142D01*
X251803745Y-137927000D01*
X251803745Y-138165095D01*
X251803745Y-137117476D02*
X251803745Y-136927000D01*
X251756126Y-136831761D01*
X251708507Y-136784142D01*
X251565650Y-136688904D01*
X251375174Y-136641285D01*
X250994222Y-136641285D01*
X250898984Y-136688904D01*
X250851365Y-136736523D01*
X250803745Y-136831761D01*
X250803745Y-137022238D01*
X250851365Y-137117476D01*
X250898984Y-137165095D01*
X250994222Y-137212714D01*
X251232317Y-137212714D01*
X251327555Y-137165095D01*
X251375174Y-137117476D01*
X251422793Y-137022238D01*
X251422793Y-136831761D01*
X251375174Y-136736523D01*
X251327555Y-136688904D01*
X251232317Y-136641285D01*
X255368666Y-137560095D02*
X255368666Y-137083904D01*
X255654380Y-137655333D02*
X254654380Y-137322000D01*
X255654380Y-136988666D01*
X247188380Y-138165095D02*
X246188380Y-138165095D01*
X246188380Y-137927000D01*
X246236000Y-137784142D01*
X246331238Y-137688904D01*
X246426476Y-137641285D01*
X246616952Y-137593666D01*
X246759809Y-137593666D01*
X246950285Y-137641285D01*
X247045523Y-137688904D01*
X247140761Y-137784142D01*
X247188380Y-137927000D01*
X247188380Y-138165095D01*
X246616952Y-137022238D02*
X246569333Y-137117476D01*
X246521714Y-137165095D01*
X246426476Y-137212714D01*
X246378857Y-137212714D01*
X246283619Y-137165095D01*
X246236000Y-137117476D01*
X246188380Y-137022238D01*
X246188380Y-136831761D01*
X246236000Y-136736523D01*
X246283619Y-136688904D01*
X246378857Y-136641285D01*
X246426476Y-136641285D01*
X246521714Y-136688904D01*
X246569333Y-136736523D01*
X246616952Y-136831761D01*
X246616952Y-137022238D01*
X246664571Y-137117476D01*
X246712190Y-137165095D01*
X246807428Y-137212714D01*
X246997904Y-137212714D01*
X247093142Y-137165095D01*
X247140761Y-137117476D01*
X247188380Y-137022238D01*
X247188380Y-136831761D01*
X247140761Y-136736523D01*
X247093142Y-136688904D01*
X246997904Y-136641285D01*
X246807428Y-136641285D01*
X246712190Y-136688904D01*
X246664571Y-136736523D01*
X246616952Y-136831761D01*
X250288666Y-137560095D02*
X250288666Y-137083904D01*
X250574380Y-137655333D02*
X249574380Y-137322000D01*
X250574380Y-136988666D01*
X239568380Y-138165095D02*
X238568380Y-138165095D01*
X238568380Y-137927000D01*
X238616000Y-137784142D01*
X238711238Y-137688904D01*
X238806476Y-137641285D01*
X238996952Y-137593666D01*
X239139809Y-137593666D01*
X239330285Y-137641285D01*
X239425523Y-137688904D01*
X239520761Y-137784142D01*
X239568380Y-137927000D01*
X239568380Y-138165095D01*
X238568380Y-137260333D02*
X238568380Y-136593666D01*
X239568380Y-137022238D01*
X242668666Y-137560095D02*
X242668666Y-137083904D01*
X242954380Y-137655333D02*
X241954380Y-137322000D01*
X242954380Y-136988666D01*
X234488380Y-138165095D02*
X233488380Y-138165095D01*
X233488380Y-137927000D01*
X233536000Y-137784142D01*
X233631238Y-137688904D01*
X233726476Y-137641285D01*
X233916952Y-137593666D01*
X234059809Y-137593666D01*
X234250285Y-137641285D01*
X234345523Y-137688904D01*
X234440761Y-137784142D01*
X234488380Y-137927000D01*
X234488380Y-138165095D01*
X233488380Y-136736523D02*
X233488380Y-136927000D01*
X233536000Y-137022238D01*
X233583619Y-137069857D01*
X233726476Y-137165095D01*
X233916952Y-137212714D01*
X234297904Y-137212714D01*
X234393142Y-137165095D01*
X234440761Y-137117476D01*
X234488380Y-137022238D01*
X234488380Y-136831761D01*
X234440761Y-136736523D01*
X234393142Y-136688904D01*
X234297904Y-136641285D01*
X234059809Y-136641285D01*
X233964571Y-136688904D01*
X233916952Y-136736523D01*
X233869333Y-136831761D01*
X233869333Y-137022238D01*
X233916952Y-137117476D01*
X233964571Y-137165095D01*
X234059809Y-137212714D01*
X237588666Y-137560095D02*
X237588666Y-137083904D01*
X237874380Y-137655333D02*
X236874380Y-137322000D01*
X237874380Y-136988666D01*
X226868380Y-138165095D02*
X225868380Y-138165095D01*
X225868380Y-137927000D01*
X225916000Y-137784142D01*
X226011238Y-137688904D01*
X226106476Y-137641285D01*
X226296952Y-137593666D01*
X226439809Y-137593666D01*
X226630285Y-137641285D01*
X226725523Y-137688904D01*
X226820761Y-137784142D01*
X226868380Y-137927000D01*
X226868380Y-138165095D01*
X225868380Y-136688904D02*
X225868380Y-137165095D01*
X226344571Y-137212714D01*
X226296952Y-137165095D01*
X226249333Y-137069857D01*
X226249333Y-136831761D01*
X226296952Y-136736523D01*
X226344571Y-136688904D01*
X226439809Y-136641285D01*
X226677904Y-136641285D01*
X226773142Y-136688904D01*
X226820761Y-136736523D01*
X226868380Y-136831761D01*
X226868380Y-137069857D01*
X226820761Y-137165095D01*
X226773142Y-137212714D01*
X229968666Y-137560095D02*
X229968666Y-137083904D01*
X230254380Y-137655333D02*
X229254380Y-137322000D01*
X230254380Y-136988666D01*
X214168380Y-138165095D02*
X213168380Y-138165095D01*
X213168380Y-137927000D01*
X213216000Y-137784142D01*
X213311238Y-137688904D01*
X213406476Y-137641285D01*
X213596952Y-137593666D01*
X213739809Y-137593666D01*
X213930285Y-137641285D01*
X214025523Y-137688904D01*
X214120761Y-137784142D01*
X214168380Y-137927000D01*
X214168380Y-138165095D01*
X213168380Y-137260333D02*
X213168380Y-136641285D01*
X213549333Y-136974619D01*
X213549333Y-136831761D01*
X213596952Y-136736523D01*
X213644571Y-136688904D01*
X213739809Y-136641285D01*
X213977904Y-136641285D01*
X214073142Y-136688904D01*
X214120761Y-136736523D01*
X214168380Y-136831761D01*
X214168380Y-137117476D01*
X214120761Y-137212714D01*
X214073142Y-137260333D01*
X217268666Y-137560095D02*
X217268666Y-137083904D01*
X217554380Y-137655333D02*
X216554380Y-137322000D01*
X217554380Y-136988666D01*
X256673904Y-124262380D02*
X256673904Y-125071904D01*
X256721523Y-125167142D01*
X256769142Y-125214761D01*
X256864380Y-125262380D01*
X257054857Y-125262380D01*
X257150095Y-125214761D01*
X257197714Y-125167142D01*
X257245333Y-125071904D01*
X257245333Y-124262380D01*
X258245333Y-125262380D02*
X257673904Y-125262380D01*
X257959619Y-125262380D02*
X257959619Y-124262380D01*
X257864380Y-124405238D01*
X257769142Y-124500476D01*
X257673904Y-124548095D01*
X258626285Y-124357619D02*
X258673904Y-124310000D01*
X258769142Y-124262380D01*
X259007238Y-124262380D01*
X259102476Y-124310000D01*
X259150095Y-124357619D01*
X259197714Y-124452857D01*
X259197714Y-124548095D01*
X259150095Y-124690952D01*
X258578666Y-125262380D01*
X259197714Y-125262380D01*
X256673904Y-109022380D02*
X256673904Y-109831904D01*
X256721523Y-109927142D01*
X256769142Y-109974761D01*
X256864380Y-110022380D01*
X257054857Y-110022380D01*
X257150095Y-109974761D01*
X257197714Y-109927142D01*
X257245333Y-109831904D01*
X257245333Y-109022380D01*
X258245333Y-110022380D02*
X257673904Y-110022380D01*
X257959619Y-110022380D02*
X257959619Y-109022380D01*
X257864380Y-109165238D01*
X257769142Y-109260476D01*
X257673904Y-109308095D01*
X259197714Y-110022380D02*
X258626285Y-110022380D01*
X258912000Y-110022380D02*
X258912000Y-109022380D01*
X258816761Y-109165238D01*
X258721523Y-109260476D01*
X258626285Y-109308095D01*
X243973904Y-124262380D02*
X243973904Y-125071904D01*
X244021523Y-125167142D01*
X244069142Y-125214761D01*
X244164380Y-125262380D01*
X244354857Y-125262380D01*
X244450095Y-125214761D01*
X244497714Y-125167142D01*
X244545333Y-125071904D01*
X244545333Y-124262380D01*
X245545333Y-125262380D02*
X244973904Y-125262380D01*
X245259619Y-125262380D02*
X245259619Y-124262380D01*
X245164380Y-124405238D01*
X245069142Y-124500476D01*
X244973904Y-124548095D01*
X246164380Y-124262380D02*
X246259619Y-124262380D01*
X246354857Y-124310000D01*
X246402476Y-124357619D01*
X246450095Y-124452857D01*
X246497714Y-124643333D01*
X246497714Y-124881428D01*
X246450095Y-125071904D01*
X246402476Y-125167142D01*
X246354857Y-125214761D01*
X246259619Y-125262380D01*
X246164380Y-125262380D01*
X246069142Y-125214761D01*
X246021523Y-125167142D01*
X245973904Y-125071904D01*
X245926285Y-124881428D01*
X245926285Y-124643333D01*
X245973904Y-124452857D01*
X246021523Y-124357619D01*
X246069142Y-124310000D01*
X246164380Y-124262380D01*
X242110333Y-107112380D02*
X241777000Y-106636190D01*
X241538904Y-107112380D02*
X241538904Y-106112380D01*
X241919857Y-106112380D01*
X242015095Y-106160000D01*
X242062714Y-106207619D01*
X242110333Y-106302857D01*
X242110333Y-106445714D01*
X242062714Y-106540952D01*
X242015095Y-106588571D01*
X241919857Y-106636190D01*
X241538904Y-106636190D01*
X242586523Y-107112380D02*
X242777000Y-107112380D01*
X242872238Y-107064761D01*
X242919857Y-107017142D01*
X243015095Y-106874285D01*
X243062714Y-106683809D01*
X243062714Y-106302857D01*
X243015095Y-106207619D01*
X242967476Y-106160000D01*
X242872238Y-106112380D01*
X242681761Y-106112380D01*
X242586523Y-106160000D01*
X242538904Y-106207619D01*
X242491285Y-106302857D01*
X242491285Y-106540952D01*
X242538904Y-106636190D01*
X242586523Y-106683809D01*
X242681761Y-106731428D01*
X242872238Y-106731428D01*
X242967476Y-106683809D01*
X243015095Y-106636190D01*
X243062714Y-106540952D01*
X241634142Y-122352380D02*
X241300809Y-121876190D01*
X241062714Y-122352380D02*
X241062714Y-121352380D01*
X241443666Y-121352380D01*
X241538904Y-121400000D01*
X241586523Y-121447619D01*
X241634142Y-121542857D01*
X241634142Y-121685714D01*
X241586523Y-121780952D01*
X241538904Y-121828571D01*
X241443666Y-121876190D01*
X241062714Y-121876190D01*
X242586523Y-122352380D02*
X242015095Y-122352380D01*
X242300809Y-122352380D02*
X242300809Y-121352380D01*
X242205571Y-121495238D01*
X242110333Y-121590476D01*
X242015095Y-121638095D01*
X243205571Y-121352380D02*
X243300809Y-121352380D01*
X243396047Y-121400000D01*
X243443666Y-121447619D01*
X243491285Y-121542857D01*
X243538904Y-121733333D01*
X243538904Y-121971428D01*
X243491285Y-122161904D01*
X243443666Y-122257142D01*
X243396047Y-122304761D01*
X243300809Y-122352380D01*
X243205571Y-122352380D01*
X243110333Y-122304761D01*
X243062714Y-122257142D01*
X243015095Y-122161904D01*
X242967476Y-121971428D01*
X242967476Y-121733333D01*
X243015095Y-121542857D01*
X243062714Y-121447619D01*
X243110333Y-121400000D01*
X243205571Y-121352380D01*
X244450095Y-109022380D02*
X244450095Y-109831904D01*
X244497714Y-109927142D01*
X244545333Y-109974761D01*
X244640571Y-110022380D01*
X244831047Y-110022380D01*
X244926285Y-109974761D01*
X244973904Y-109927142D01*
X245021523Y-109831904D01*
X245021523Y-109022380D01*
X245545333Y-110022380D02*
X245735809Y-110022380D01*
X245831047Y-109974761D01*
X245878666Y-109927142D01*
X245973904Y-109784285D01*
X246021523Y-109593809D01*
X246021523Y-109212857D01*
X245973904Y-109117619D01*
X245926285Y-109070000D01*
X245831047Y-109022380D01*
X245640571Y-109022380D01*
X245545333Y-109070000D01*
X245497714Y-109117619D01*
X245450095Y-109212857D01*
X245450095Y-109450952D01*
X245497714Y-109546190D01*
X245545333Y-109593809D01*
X245640571Y-109641428D01*
X245831047Y-109641428D01*
X245926285Y-109593809D01*
X245973904Y-109546190D01*
X246021523Y-109450952D01*
X231750095Y-124262380D02*
X231750095Y-125071904D01*
X231797714Y-125167142D01*
X231845333Y-125214761D01*
X231940571Y-125262380D01*
X232131047Y-125262380D01*
X232226285Y-125214761D01*
X232273904Y-125167142D01*
X232321523Y-125071904D01*
X232321523Y-124262380D01*
X232940571Y-124690952D02*
X232845333Y-124643333D01*
X232797714Y-124595714D01*
X232750095Y-124500476D01*
X232750095Y-124452857D01*
X232797714Y-124357619D01*
X232845333Y-124310000D01*
X232940571Y-124262380D01*
X233131047Y-124262380D01*
X233226285Y-124310000D01*
X233273904Y-124357619D01*
X233321523Y-124452857D01*
X233321523Y-124500476D01*
X233273904Y-124595714D01*
X233226285Y-124643333D01*
X233131047Y-124690952D01*
X232940571Y-124690952D01*
X232845333Y-124738571D01*
X232797714Y-124786190D01*
X232750095Y-124881428D01*
X232750095Y-125071904D01*
X232797714Y-125167142D01*
X232845333Y-125214761D01*
X232940571Y-125262380D01*
X233131047Y-125262380D01*
X233226285Y-125214761D01*
X233273904Y-125167142D01*
X233321523Y-125071904D01*
X233321523Y-124881428D01*
X233273904Y-124786190D01*
X233226285Y-124738571D01*
X233131047Y-124690952D01*
X229410333Y-107112380D02*
X229077000Y-106636190D01*
X228838904Y-107112380D02*
X228838904Y-106112380D01*
X229219857Y-106112380D01*
X229315095Y-106160000D01*
X229362714Y-106207619D01*
X229410333Y-106302857D01*
X229410333Y-106445714D01*
X229362714Y-106540952D01*
X229315095Y-106588571D01*
X229219857Y-106636190D01*
X228838904Y-106636190D01*
X229743666Y-106112380D02*
X230410333Y-106112380D01*
X229981761Y-107112380D01*
X231750095Y-109022380D02*
X231750095Y-109831904D01*
X231797714Y-109927142D01*
X231845333Y-109974761D01*
X231940571Y-110022380D01*
X232131047Y-110022380D01*
X232226285Y-109974761D01*
X232273904Y-109927142D01*
X232321523Y-109831904D01*
X232321523Y-109022380D01*
X232702476Y-109022380D02*
X233369142Y-109022380D01*
X232940571Y-110022380D01*
X219050095Y-124262380D02*
X219050095Y-125071904D01*
X219097714Y-125167142D01*
X219145333Y-125214761D01*
X219240571Y-125262380D01*
X219431047Y-125262380D01*
X219526285Y-125214761D01*
X219573904Y-125167142D01*
X219621523Y-125071904D01*
X219621523Y-124262380D01*
X220526285Y-124262380D02*
X220335809Y-124262380D01*
X220240571Y-124310000D01*
X220192952Y-124357619D01*
X220097714Y-124500476D01*
X220050095Y-124690952D01*
X220050095Y-125071904D01*
X220097714Y-125167142D01*
X220145333Y-125214761D01*
X220240571Y-125262380D01*
X220431047Y-125262380D01*
X220526285Y-125214761D01*
X220573904Y-125167142D01*
X220621523Y-125071904D01*
X220621523Y-124833809D01*
X220573904Y-124738571D01*
X220526285Y-124690952D01*
X220431047Y-124643333D01*
X220240571Y-124643333D01*
X220145333Y-124690952D01*
X220097714Y-124738571D01*
X220050095Y-124833809D01*
X216710333Y-107112380D02*
X216377000Y-106636190D01*
X216138904Y-107112380D02*
X216138904Y-106112380D01*
X216519857Y-106112380D01*
X216615095Y-106160000D01*
X216662714Y-106207619D01*
X216710333Y-106302857D01*
X216710333Y-106445714D01*
X216662714Y-106540952D01*
X216615095Y-106588571D01*
X216519857Y-106636190D01*
X216138904Y-106636190D01*
X217615095Y-106112380D02*
X217138904Y-106112380D01*
X217091285Y-106588571D01*
X217138904Y-106540952D01*
X217234142Y-106493333D01*
X217472238Y-106493333D01*
X217567476Y-106540952D01*
X217615095Y-106588571D01*
X217662714Y-106683809D01*
X217662714Y-106921904D01*
X217615095Y-107017142D01*
X217567476Y-107064761D01*
X217472238Y-107112380D01*
X217234142Y-107112380D01*
X217138904Y-107064761D01*
X217091285Y-107017142D01*
X216710333Y-122352380D02*
X216377000Y-121876190D01*
X216138904Y-122352380D02*
X216138904Y-121352380D01*
X216519857Y-121352380D01*
X216615095Y-121400000D01*
X216662714Y-121447619D01*
X216710333Y-121542857D01*
X216710333Y-121685714D01*
X216662714Y-121780952D01*
X216615095Y-121828571D01*
X216519857Y-121876190D01*
X216138904Y-121876190D01*
X217567476Y-121352380D02*
X217377000Y-121352380D01*
X217281761Y-121400000D01*
X217234142Y-121447619D01*
X217138904Y-121590476D01*
X217091285Y-121780952D01*
X217091285Y-122161904D01*
X217138904Y-122257142D01*
X217186523Y-122304761D01*
X217281761Y-122352380D01*
X217472238Y-122352380D01*
X217567476Y-122304761D01*
X217615095Y-122257142D01*
X217662714Y-122161904D01*
X217662714Y-121923809D01*
X217615095Y-121828571D01*
X217567476Y-121780952D01*
X217472238Y-121733333D01*
X217281761Y-121733333D01*
X217186523Y-121780952D01*
X217138904Y-121828571D01*
X217091285Y-121923809D01*
X204010333Y-122352380D02*
X203677000Y-121876190D01*
X203438904Y-122352380D02*
X203438904Y-121352380D01*
X203819857Y-121352380D01*
X203915095Y-121400000D01*
X203962714Y-121447619D01*
X204010333Y-121542857D01*
X204010333Y-121685714D01*
X203962714Y-121780952D01*
X203915095Y-121828571D01*
X203819857Y-121876190D01*
X203438904Y-121876190D01*
X204867476Y-121685714D02*
X204867476Y-122352380D01*
X204629380Y-121304761D02*
X204391285Y-122019047D01*
X205010333Y-122019047D01*
X206350095Y-124262380D02*
X206350095Y-125071904D01*
X206397714Y-125167142D01*
X206445333Y-125214761D01*
X206540571Y-125262380D01*
X206731047Y-125262380D01*
X206826285Y-125214761D01*
X206873904Y-125167142D01*
X206921523Y-125071904D01*
X206921523Y-124262380D01*
X207826285Y-124595714D02*
X207826285Y-125262380D01*
X207588190Y-124214761D02*
X207350095Y-124929047D01*
X207969142Y-124929047D01*
X206350095Y-109022380D02*
X206350095Y-109831904D01*
X206397714Y-109927142D01*
X206445333Y-109974761D01*
X206540571Y-110022380D01*
X206731047Y-110022380D01*
X206826285Y-109974761D01*
X206873904Y-109927142D01*
X206921523Y-109831904D01*
X206921523Y-109022380D01*
X207302476Y-109022380D02*
X207921523Y-109022380D01*
X207588190Y-109403333D01*
X207731047Y-109403333D01*
X207826285Y-109450952D01*
X207873904Y-109498571D01*
X207921523Y-109593809D01*
X207921523Y-109831904D01*
X207873904Y-109927142D01*
X207826285Y-109974761D01*
X207731047Y-110022380D01*
X207445333Y-110022380D01*
X207350095Y-109974761D01*
X207302476Y-109927142D01*
X204010333Y-107112380D02*
X203677000Y-106636190D01*
X203438904Y-107112380D02*
X203438904Y-106112380D01*
X203819857Y-106112380D01*
X203915095Y-106160000D01*
X203962714Y-106207619D01*
X204010333Y-106302857D01*
X204010333Y-106445714D01*
X203962714Y-106540952D01*
X203915095Y-106588571D01*
X203819857Y-106636190D01*
X203438904Y-106636190D01*
X204343666Y-106112380D02*
X204962714Y-106112380D01*
X204629380Y-106493333D01*
X204772238Y-106493333D01*
X204867476Y-106540952D01*
X204915095Y-106588571D01*
X204962714Y-106683809D01*
X204962714Y-106921904D01*
X204915095Y-107017142D01*
X204867476Y-107064761D01*
X204772238Y-107112380D01*
X204486523Y-107112380D01*
X204391285Y-107064761D01*
X204343666Y-107017142D01*
M02*
