M48
METRIC,TZ
T1C0.600
T2C0.800
T3C1.000
T4C1.100
T5C1.200
%
G90
G05
T1
X220955Y-103518
X228702Y-102756
X230226Y-101994
X269215Y-126505
X270485Y-126505
X271755Y-126505
X273660Y-103645
X274803Y-121044
X274930Y-112408
X275565Y-104407
X278613Y-117234
X278613Y-121044
X278613Y-124854
X278740Y-101232
X281280Y-132220
X281280Y-137300
X281280Y-142380
X282423Y-121044
T2
X254102Y-127140
X254102Y-129680
X254102Y-132220
X261722Y-127140
X261722Y-129680
X261722Y-132220
X241402Y-111900
X241402Y-114440
X241402Y-116980
X249022Y-111900
X249022Y-114440
X249022Y-116980
X241402Y-127140
X241402Y-129680
X241402Y-132220
X249022Y-127140
X249022Y-129680
X249022Y-132220
X228702Y-111900
X228702Y-114440
X228702Y-116980
X236322Y-111900
X236322Y-114440
X236322Y-116980
X216002Y-111900
X216002Y-114440
X216002Y-116980
X223622Y-111900
X223622Y-114440
X223622Y-116980
X228702Y-127140
X228702Y-129680
X228702Y-132220
X236322Y-127140
X236322Y-129680
X236322Y-132220
X203302Y-111900
X203302Y-114440
X203302Y-116980
X210922Y-111900
X210922Y-114440
X210922Y-116980
X216002Y-127140
X216002Y-129680
X216002Y-132220
X223622Y-127140
X223622Y-129680
X223622Y-132220
X254102Y-111900
X254102Y-114440
X254102Y-116980
X261722Y-111900
X261722Y-114440
X261722Y-116980
X203302Y-127140
X203302Y-129680
X203302Y-132220
X210922Y-127140
X210922Y-129680
X210922Y-132220
T3
X208370Y-96230
X208370Y-98770
X210910Y-96230
X210910Y-98770
X213450Y-96230
X213450Y-98770
X215990Y-96230
X215990Y-98770
X218530Y-96230
X218530Y-98770
X221070Y-96230
X221070Y-98770
X223610Y-96230
X223610Y-98770
X226150Y-96230
X226150Y-98770
X228690Y-96230
X228690Y-98770
X231230Y-96230
X231230Y-98770
X233770Y-96230
X233770Y-98770
X236310Y-96230
X236310Y-98770
X238850Y-96230
X238850Y-98770
X241390Y-96230
X241390Y-98770
X243930Y-96230
X243930Y-98770
X246470Y-96230
X246470Y-98770
X249010Y-96230
X249010Y-98770
X251550Y-96230
X251550Y-98770
X254090Y-96230
X254090Y-98770
X256630Y-96230
X256630Y-98770
T4
X254102Y-135522
X254102Y-139332
X223622Y-135522
X223622Y-139332
X261722Y-135522
X261722Y-139332
X249022Y-135522
X249022Y-139332
X241402Y-135522
X241402Y-139332
X210922Y-135522
X210922Y-139332
X216002Y-135522
X216002Y-139332
X203302Y-135522
X203302Y-139332
X236322Y-135522
X236322Y-139332
X228702Y-135522
X228702Y-139332
T5
X211557Y-146444
X215367Y-146444
X219177Y-146444
X222987Y-146444
X226797Y-146444
X230607Y-146444
X234417Y-146444
X238227Y-146444
X242037Y-146444
X245847Y-146444
X249657Y-146444
X253467Y-146444
X270866Y-146444
X274676Y-146444
X278486Y-146444
T0
M30
