G04 #@! TF.GenerationSoftware,KiCad,Pcbnew,5.1.5-52549c5~84~ubuntu19.04.1*
G04 #@! TF.CreationDate,2020-02-11T15:19:44+02:00*
G04 #@! TF.ProjectId,switch-control-hat,73776974-6368-42d6-936f-6e74726f6c2d,rev?*
G04 #@! TF.SameCoordinates,Original*
G04 #@! TF.FileFunction,Soldermask,Bot*
G04 #@! TF.FilePolarity,Negative*
%FSLAX46Y46*%
G04 Gerber Fmt 4.6, Leading zero omitted, Abs format (unit mm)*
G04 Created by KiCad (PCBNEW 5.1.5-52549c5~84~ubuntu19.04.1) date 2020-02-11 15:19:44*
%MOMM*%
%LPD*%
G04 APERTURE LIST*
%ADD10R,1.700000X1.700000*%
%ADD11O,1.700000X1.700000*%
%ADD12O,1.800000X3.600000*%
%ADD13C,0.100000*%
%ADD14R,2.200000X2.200000*%
%ADD15O,2.200000X2.200000*%
%ADD16R,1.600000X1.600000*%
%ADD17O,1.600000X1.600000*%
%ADD18C,2.700000*%
G04 APERTURE END LIST*
D10*
X208370000Y-98770000D03*
D11*
X208370000Y-96230000D03*
X210910000Y-98770000D03*
X210910000Y-96230000D03*
X213450000Y-98770000D03*
X213450000Y-96230000D03*
X215990000Y-98770000D03*
X215990000Y-96230000D03*
X218530000Y-98770000D03*
X218530000Y-96230000D03*
X221070000Y-98770000D03*
X221070000Y-96230000D03*
X223610000Y-98770000D03*
X223610000Y-96230000D03*
X226150000Y-98770000D03*
X226150000Y-96230000D03*
X228690000Y-98770000D03*
X228690000Y-96230000D03*
X231230000Y-98770000D03*
X231230000Y-96230000D03*
X233770000Y-98770000D03*
X233770000Y-96230000D03*
X236310000Y-98770000D03*
X236310000Y-96230000D03*
X238850000Y-98770000D03*
X238850000Y-96230000D03*
X241390000Y-98770000D03*
X241390000Y-96230000D03*
X243930000Y-98770000D03*
X243930000Y-96230000D03*
X246470000Y-98770000D03*
X246470000Y-96230000D03*
X249010000Y-98770000D03*
X249010000Y-96230000D03*
X251550000Y-98770000D03*
X251550000Y-96230000D03*
X254090000Y-98770000D03*
X254090000Y-96230000D03*
X256630000Y-98770000D03*
X256630000Y-96230000D03*
D12*
X253467000Y-146444000D03*
X249657000Y-146444000D03*
X245847000Y-146444000D03*
X242037000Y-146444000D03*
X238227000Y-146444000D03*
X234417000Y-146444000D03*
X230607000Y-146444000D03*
X226797000Y-146444000D03*
X222987000Y-146444000D03*
X219177000Y-146444000D03*
X215367000Y-146444000D03*
D13*
G36*
X212231504Y-144645204D02*
G01*
X212255773Y-144648804D01*
X212279571Y-144654765D01*
X212302671Y-144663030D01*
X212324849Y-144673520D01*
X212345893Y-144686133D01*
X212365598Y-144700747D01*
X212383777Y-144717223D01*
X212400253Y-144735402D01*
X212414867Y-144755107D01*
X212427480Y-144776151D01*
X212437970Y-144798329D01*
X212446235Y-144821429D01*
X212452196Y-144845227D01*
X212455796Y-144869496D01*
X212457000Y-144894000D01*
X212457000Y-147994000D01*
X212455796Y-148018504D01*
X212452196Y-148042773D01*
X212446235Y-148066571D01*
X212437970Y-148089671D01*
X212427480Y-148111849D01*
X212414867Y-148132893D01*
X212400253Y-148152598D01*
X212383777Y-148170777D01*
X212365598Y-148187253D01*
X212345893Y-148201867D01*
X212324849Y-148214480D01*
X212302671Y-148224970D01*
X212279571Y-148233235D01*
X212255773Y-148239196D01*
X212231504Y-148242796D01*
X212207000Y-148244000D01*
X210907000Y-148244000D01*
X210882496Y-148242796D01*
X210858227Y-148239196D01*
X210834429Y-148233235D01*
X210811329Y-148224970D01*
X210789151Y-148214480D01*
X210768107Y-148201867D01*
X210748402Y-148187253D01*
X210730223Y-148170777D01*
X210713747Y-148152598D01*
X210699133Y-148132893D01*
X210686520Y-148111849D01*
X210676030Y-148089671D01*
X210667765Y-148066571D01*
X210661804Y-148042773D01*
X210658204Y-148018504D01*
X210657000Y-147994000D01*
X210657000Y-144894000D01*
X210658204Y-144869496D01*
X210661804Y-144845227D01*
X210667765Y-144821429D01*
X210676030Y-144798329D01*
X210686520Y-144776151D01*
X210699133Y-144755107D01*
X210713747Y-144735402D01*
X210730223Y-144717223D01*
X210748402Y-144700747D01*
X210768107Y-144686133D01*
X210789151Y-144673520D01*
X210811329Y-144663030D01*
X210834429Y-144654765D01*
X210858227Y-144648804D01*
X210882496Y-144645204D01*
X210907000Y-144644000D01*
X212207000Y-144644000D01*
X212231504Y-144645204D01*
G37*
D14*
X223622000Y-139332000D03*
D15*
X223622000Y-135522000D03*
D16*
X216002000Y-111900000D03*
D17*
X223622000Y-116980000D03*
X216002000Y-114440000D03*
X223622000Y-114440000D03*
X216002000Y-116980000D03*
X223622000Y-111900000D03*
D15*
X261722000Y-135522000D03*
D14*
X261722000Y-139332000D03*
D15*
X210922000Y-135522000D03*
D14*
X210922000Y-139332000D03*
D15*
X203302000Y-135522000D03*
D14*
X203302000Y-139332000D03*
D12*
X278486000Y-146444000D03*
X274676000Y-146444000D03*
D13*
G36*
X271540504Y-144645204D02*
G01*
X271564773Y-144648804D01*
X271588571Y-144654765D01*
X271611671Y-144663030D01*
X271633849Y-144673520D01*
X271654893Y-144686133D01*
X271674598Y-144700747D01*
X271692777Y-144717223D01*
X271709253Y-144735402D01*
X271723867Y-144755107D01*
X271736480Y-144776151D01*
X271746970Y-144798329D01*
X271755235Y-144821429D01*
X271761196Y-144845227D01*
X271764796Y-144869496D01*
X271766000Y-144894000D01*
X271766000Y-147994000D01*
X271764796Y-148018504D01*
X271761196Y-148042773D01*
X271755235Y-148066571D01*
X271746970Y-148089671D01*
X271736480Y-148111849D01*
X271723867Y-148132893D01*
X271709253Y-148152598D01*
X271692777Y-148170777D01*
X271674598Y-148187253D01*
X271654893Y-148201867D01*
X271633849Y-148214480D01*
X271611671Y-148224970D01*
X271588571Y-148233235D01*
X271564773Y-148239196D01*
X271540504Y-148242796D01*
X271516000Y-148244000D01*
X270216000Y-148244000D01*
X270191496Y-148242796D01*
X270167227Y-148239196D01*
X270143429Y-148233235D01*
X270120329Y-148224970D01*
X270098151Y-148214480D01*
X270077107Y-148201867D01*
X270057402Y-148187253D01*
X270039223Y-148170777D01*
X270022747Y-148152598D01*
X270008133Y-148132893D01*
X269995520Y-148111849D01*
X269985030Y-148089671D01*
X269976765Y-148066571D01*
X269970804Y-148042773D01*
X269967204Y-148018504D01*
X269966000Y-147994000D01*
X269966000Y-144894000D01*
X269967204Y-144869496D01*
X269970804Y-144845227D01*
X269976765Y-144821429D01*
X269985030Y-144798329D01*
X269995520Y-144776151D01*
X270008133Y-144755107D01*
X270022747Y-144735402D01*
X270039223Y-144717223D01*
X270057402Y-144700747D01*
X270077107Y-144686133D01*
X270098151Y-144673520D01*
X270120329Y-144663030D01*
X270143429Y-144654765D01*
X270167227Y-144648804D01*
X270191496Y-144645204D01*
X270216000Y-144644000D01*
X271516000Y-144644000D01*
X271540504Y-144645204D01*
G37*
D15*
X254102000Y-135522000D03*
D14*
X254102000Y-139332000D03*
D15*
X249022000Y-135522000D03*
D14*
X249022000Y-139332000D03*
D15*
X241402000Y-135522000D03*
D14*
X241402000Y-139332000D03*
D15*
X236322000Y-135522000D03*
D14*
X236322000Y-139332000D03*
D15*
X228702000Y-135522000D03*
D14*
X228702000Y-139332000D03*
D15*
X216002000Y-135522000D03*
D14*
X216002000Y-139332000D03*
D17*
X261722000Y-127140000D03*
X254102000Y-132220000D03*
X261722000Y-129680000D03*
X254102000Y-129680000D03*
X261722000Y-132220000D03*
D16*
X254102000Y-127140000D03*
X254102000Y-111900000D03*
D17*
X261722000Y-116980000D03*
X254102000Y-114440000D03*
X261722000Y-114440000D03*
X254102000Y-116980000D03*
X261722000Y-111900000D03*
X249022000Y-127140000D03*
X241402000Y-132220000D03*
X249022000Y-129680000D03*
X241402000Y-129680000D03*
X249022000Y-132220000D03*
D16*
X241402000Y-127140000D03*
X241402000Y-111900000D03*
D17*
X249022000Y-116980000D03*
X241402000Y-114440000D03*
X249022000Y-114440000D03*
X241402000Y-116980000D03*
X249022000Y-111900000D03*
X236322000Y-127140000D03*
X228702000Y-132220000D03*
X236322000Y-129680000D03*
X228702000Y-129680000D03*
X236322000Y-132220000D03*
D16*
X228702000Y-127140000D03*
X228702000Y-111900000D03*
D17*
X236322000Y-116980000D03*
X228702000Y-114440000D03*
X236322000Y-114440000D03*
X228702000Y-116980000D03*
X236322000Y-111900000D03*
X223622000Y-127140000D03*
X216002000Y-132220000D03*
X223622000Y-129680000D03*
X216002000Y-129680000D03*
X223622000Y-132220000D03*
D16*
X216002000Y-127140000D03*
X203302000Y-127140000D03*
D17*
X210922000Y-132220000D03*
X203302000Y-129680000D03*
X210922000Y-129680000D03*
X203302000Y-132220000D03*
X210922000Y-127140000D03*
X210922000Y-111900000D03*
X203302000Y-116980000D03*
X210922000Y-114440000D03*
X203302000Y-114440000D03*
X210922000Y-116980000D03*
D16*
X203302000Y-111900000D03*
D18*
X261500000Y-146500000D03*
X203500000Y-146500000D03*
X261500000Y-97500000D03*
X203500000Y-97500000D03*
M02*
