G04 #@! TF.GenerationSoftware,KiCad,Pcbnew,5.1.5-52549c5~84~ubuntu19.04.1*
G04 #@! TF.CreationDate,2020-02-11T15:19:44+02:00*
G04 #@! TF.ProjectId,switch-control-hat,73776974-6368-42d6-936f-6e74726f6c2d,rev?*
G04 #@! TF.SameCoordinates,Original*
G04 #@! TF.FileFunction,Soldermask,Top*
G04 #@! TF.FilePolarity,Negative*
%FSLAX46Y46*%
G04 Gerber Fmt 4.6, Leading zero omitted, Abs format (unit mm)*
G04 Created by KiCad (PCBNEW 5.1.5-52549c5~84~ubuntu19.04.1) date 2020-02-11 15:19:44*
%MOMM*%
%LPD*%
G04 APERTURE LIST*
%ADD10C,0.100000*%
%ADD11C,10.200000*%
%ADD12R,3.300000X3.500000*%
%ADD13R,1.700000X1.700000*%
%ADD14O,1.700000X1.700000*%
%ADD15O,1.800000X3.600000*%
%ADD16R,2.200000X2.200000*%
%ADD17O,2.200000X2.200000*%
%ADD18R,1.600000X1.600000*%
%ADD19O,1.600000X1.600000*%
%ADD20C,2.700000*%
G04 APERTURE END LIST*
D10*
G36*
X266204703Y-97335722D02*
G01*
X266219264Y-97337882D01*
X266233543Y-97341459D01*
X266247403Y-97346418D01*
X266260710Y-97352712D01*
X266273336Y-97360280D01*
X266285159Y-97369048D01*
X266296066Y-97378934D01*
X266305952Y-97389841D01*
X266314720Y-97401664D01*
X266322288Y-97414290D01*
X266328582Y-97427597D01*
X266333541Y-97441457D01*
X266337118Y-97455736D01*
X266339278Y-97470297D01*
X266340000Y-97485000D01*
X266340000Y-99235000D01*
X266339278Y-99249703D01*
X266337118Y-99264264D01*
X266333541Y-99278543D01*
X266328582Y-99292403D01*
X266322288Y-99305710D01*
X266314720Y-99318336D01*
X266305952Y-99330159D01*
X266296066Y-99341066D01*
X266285159Y-99350952D01*
X266273336Y-99359720D01*
X266260710Y-99367288D01*
X266247403Y-99373582D01*
X266233543Y-99378541D01*
X266219264Y-99382118D01*
X266204703Y-99384278D01*
X266190000Y-99385000D01*
X265890000Y-99385000D01*
X265875297Y-99384278D01*
X265860736Y-99382118D01*
X265846457Y-99378541D01*
X265832597Y-99373582D01*
X265819290Y-99367288D01*
X265806664Y-99359720D01*
X265794841Y-99350952D01*
X265783934Y-99341066D01*
X265774048Y-99330159D01*
X265765280Y-99318336D01*
X265757712Y-99305710D01*
X265751418Y-99292403D01*
X265746459Y-99278543D01*
X265742882Y-99264264D01*
X265740722Y-99249703D01*
X265740000Y-99235000D01*
X265740000Y-97485000D01*
X265740722Y-97470297D01*
X265742882Y-97455736D01*
X265746459Y-97441457D01*
X265751418Y-97427597D01*
X265757712Y-97414290D01*
X265765280Y-97401664D01*
X265774048Y-97389841D01*
X265783934Y-97378934D01*
X265794841Y-97369048D01*
X265806664Y-97360280D01*
X265819290Y-97352712D01*
X265832597Y-97346418D01*
X265846457Y-97341459D01*
X265860736Y-97337882D01*
X265875297Y-97335722D01*
X265890000Y-97335000D01*
X266190000Y-97335000D01*
X266204703Y-97335722D01*
G37*
G36*
X267474703Y-97335722D02*
G01*
X267489264Y-97337882D01*
X267503543Y-97341459D01*
X267517403Y-97346418D01*
X267530710Y-97352712D01*
X267543336Y-97360280D01*
X267555159Y-97369048D01*
X267566066Y-97378934D01*
X267575952Y-97389841D01*
X267584720Y-97401664D01*
X267592288Y-97414290D01*
X267598582Y-97427597D01*
X267603541Y-97441457D01*
X267607118Y-97455736D01*
X267609278Y-97470297D01*
X267610000Y-97485000D01*
X267610000Y-99235000D01*
X267609278Y-99249703D01*
X267607118Y-99264264D01*
X267603541Y-99278543D01*
X267598582Y-99292403D01*
X267592288Y-99305710D01*
X267584720Y-99318336D01*
X267575952Y-99330159D01*
X267566066Y-99341066D01*
X267555159Y-99350952D01*
X267543336Y-99359720D01*
X267530710Y-99367288D01*
X267517403Y-99373582D01*
X267503543Y-99378541D01*
X267489264Y-99382118D01*
X267474703Y-99384278D01*
X267460000Y-99385000D01*
X267160000Y-99385000D01*
X267145297Y-99384278D01*
X267130736Y-99382118D01*
X267116457Y-99378541D01*
X267102597Y-99373582D01*
X267089290Y-99367288D01*
X267076664Y-99359720D01*
X267064841Y-99350952D01*
X267053934Y-99341066D01*
X267044048Y-99330159D01*
X267035280Y-99318336D01*
X267027712Y-99305710D01*
X267021418Y-99292403D01*
X267016459Y-99278543D01*
X267012882Y-99264264D01*
X267010722Y-99249703D01*
X267010000Y-99235000D01*
X267010000Y-97485000D01*
X267010722Y-97470297D01*
X267012882Y-97455736D01*
X267016459Y-97441457D01*
X267021418Y-97427597D01*
X267027712Y-97414290D01*
X267035280Y-97401664D01*
X267044048Y-97389841D01*
X267053934Y-97378934D01*
X267064841Y-97369048D01*
X267076664Y-97360280D01*
X267089290Y-97352712D01*
X267102597Y-97346418D01*
X267116457Y-97341459D01*
X267130736Y-97337882D01*
X267145297Y-97335722D01*
X267160000Y-97335000D01*
X267460000Y-97335000D01*
X267474703Y-97335722D01*
G37*
G36*
X268744703Y-97335722D02*
G01*
X268759264Y-97337882D01*
X268773543Y-97341459D01*
X268787403Y-97346418D01*
X268800710Y-97352712D01*
X268813336Y-97360280D01*
X268825159Y-97369048D01*
X268836066Y-97378934D01*
X268845952Y-97389841D01*
X268854720Y-97401664D01*
X268862288Y-97414290D01*
X268868582Y-97427597D01*
X268873541Y-97441457D01*
X268877118Y-97455736D01*
X268879278Y-97470297D01*
X268880000Y-97485000D01*
X268880000Y-99235000D01*
X268879278Y-99249703D01*
X268877118Y-99264264D01*
X268873541Y-99278543D01*
X268868582Y-99292403D01*
X268862288Y-99305710D01*
X268854720Y-99318336D01*
X268845952Y-99330159D01*
X268836066Y-99341066D01*
X268825159Y-99350952D01*
X268813336Y-99359720D01*
X268800710Y-99367288D01*
X268787403Y-99373582D01*
X268773543Y-99378541D01*
X268759264Y-99382118D01*
X268744703Y-99384278D01*
X268730000Y-99385000D01*
X268430000Y-99385000D01*
X268415297Y-99384278D01*
X268400736Y-99382118D01*
X268386457Y-99378541D01*
X268372597Y-99373582D01*
X268359290Y-99367288D01*
X268346664Y-99359720D01*
X268334841Y-99350952D01*
X268323934Y-99341066D01*
X268314048Y-99330159D01*
X268305280Y-99318336D01*
X268297712Y-99305710D01*
X268291418Y-99292403D01*
X268286459Y-99278543D01*
X268282882Y-99264264D01*
X268280722Y-99249703D01*
X268280000Y-99235000D01*
X268280000Y-97485000D01*
X268280722Y-97470297D01*
X268282882Y-97455736D01*
X268286459Y-97441457D01*
X268291418Y-97427597D01*
X268297712Y-97414290D01*
X268305280Y-97401664D01*
X268314048Y-97389841D01*
X268323934Y-97378934D01*
X268334841Y-97369048D01*
X268346664Y-97360280D01*
X268359290Y-97352712D01*
X268372597Y-97346418D01*
X268386457Y-97341459D01*
X268400736Y-97337882D01*
X268415297Y-97335722D01*
X268430000Y-97335000D01*
X268730000Y-97335000D01*
X268744703Y-97335722D01*
G37*
G36*
X270014703Y-97335722D02*
G01*
X270029264Y-97337882D01*
X270043543Y-97341459D01*
X270057403Y-97346418D01*
X270070710Y-97352712D01*
X270083336Y-97360280D01*
X270095159Y-97369048D01*
X270106066Y-97378934D01*
X270115952Y-97389841D01*
X270124720Y-97401664D01*
X270132288Y-97414290D01*
X270138582Y-97427597D01*
X270143541Y-97441457D01*
X270147118Y-97455736D01*
X270149278Y-97470297D01*
X270150000Y-97485000D01*
X270150000Y-99235000D01*
X270149278Y-99249703D01*
X270147118Y-99264264D01*
X270143541Y-99278543D01*
X270138582Y-99292403D01*
X270132288Y-99305710D01*
X270124720Y-99318336D01*
X270115952Y-99330159D01*
X270106066Y-99341066D01*
X270095159Y-99350952D01*
X270083336Y-99359720D01*
X270070710Y-99367288D01*
X270057403Y-99373582D01*
X270043543Y-99378541D01*
X270029264Y-99382118D01*
X270014703Y-99384278D01*
X270000000Y-99385000D01*
X269700000Y-99385000D01*
X269685297Y-99384278D01*
X269670736Y-99382118D01*
X269656457Y-99378541D01*
X269642597Y-99373582D01*
X269629290Y-99367288D01*
X269616664Y-99359720D01*
X269604841Y-99350952D01*
X269593934Y-99341066D01*
X269584048Y-99330159D01*
X269575280Y-99318336D01*
X269567712Y-99305710D01*
X269561418Y-99292403D01*
X269556459Y-99278543D01*
X269552882Y-99264264D01*
X269550722Y-99249703D01*
X269550000Y-99235000D01*
X269550000Y-97485000D01*
X269550722Y-97470297D01*
X269552882Y-97455736D01*
X269556459Y-97441457D01*
X269561418Y-97427597D01*
X269567712Y-97414290D01*
X269575280Y-97401664D01*
X269584048Y-97389841D01*
X269593934Y-97378934D01*
X269604841Y-97369048D01*
X269616664Y-97360280D01*
X269629290Y-97352712D01*
X269642597Y-97346418D01*
X269656457Y-97341459D01*
X269670736Y-97337882D01*
X269685297Y-97335722D01*
X269700000Y-97335000D01*
X270000000Y-97335000D01*
X270014703Y-97335722D01*
G37*
G36*
X271284703Y-97335722D02*
G01*
X271299264Y-97337882D01*
X271313543Y-97341459D01*
X271327403Y-97346418D01*
X271340710Y-97352712D01*
X271353336Y-97360280D01*
X271365159Y-97369048D01*
X271376066Y-97378934D01*
X271385952Y-97389841D01*
X271394720Y-97401664D01*
X271402288Y-97414290D01*
X271408582Y-97427597D01*
X271413541Y-97441457D01*
X271417118Y-97455736D01*
X271419278Y-97470297D01*
X271420000Y-97485000D01*
X271420000Y-99235000D01*
X271419278Y-99249703D01*
X271417118Y-99264264D01*
X271413541Y-99278543D01*
X271408582Y-99292403D01*
X271402288Y-99305710D01*
X271394720Y-99318336D01*
X271385952Y-99330159D01*
X271376066Y-99341066D01*
X271365159Y-99350952D01*
X271353336Y-99359720D01*
X271340710Y-99367288D01*
X271327403Y-99373582D01*
X271313543Y-99378541D01*
X271299264Y-99382118D01*
X271284703Y-99384278D01*
X271270000Y-99385000D01*
X270970000Y-99385000D01*
X270955297Y-99384278D01*
X270940736Y-99382118D01*
X270926457Y-99378541D01*
X270912597Y-99373582D01*
X270899290Y-99367288D01*
X270886664Y-99359720D01*
X270874841Y-99350952D01*
X270863934Y-99341066D01*
X270854048Y-99330159D01*
X270845280Y-99318336D01*
X270837712Y-99305710D01*
X270831418Y-99292403D01*
X270826459Y-99278543D01*
X270822882Y-99264264D01*
X270820722Y-99249703D01*
X270820000Y-99235000D01*
X270820000Y-97485000D01*
X270820722Y-97470297D01*
X270822882Y-97455736D01*
X270826459Y-97441457D01*
X270831418Y-97427597D01*
X270837712Y-97414290D01*
X270845280Y-97401664D01*
X270854048Y-97389841D01*
X270863934Y-97378934D01*
X270874841Y-97369048D01*
X270886664Y-97360280D01*
X270899290Y-97352712D01*
X270912597Y-97346418D01*
X270926457Y-97341459D01*
X270940736Y-97337882D01*
X270955297Y-97335722D01*
X270970000Y-97335000D01*
X271270000Y-97335000D01*
X271284703Y-97335722D01*
G37*
G36*
X272554703Y-97335722D02*
G01*
X272569264Y-97337882D01*
X272583543Y-97341459D01*
X272597403Y-97346418D01*
X272610710Y-97352712D01*
X272623336Y-97360280D01*
X272635159Y-97369048D01*
X272646066Y-97378934D01*
X272655952Y-97389841D01*
X272664720Y-97401664D01*
X272672288Y-97414290D01*
X272678582Y-97427597D01*
X272683541Y-97441457D01*
X272687118Y-97455736D01*
X272689278Y-97470297D01*
X272690000Y-97485000D01*
X272690000Y-99235000D01*
X272689278Y-99249703D01*
X272687118Y-99264264D01*
X272683541Y-99278543D01*
X272678582Y-99292403D01*
X272672288Y-99305710D01*
X272664720Y-99318336D01*
X272655952Y-99330159D01*
X272646066Y-99341066D01*
X272635159Y-99350952D01*
X272623336Y-99359720D01*
X272610710Y-99367288D01*
X272597403Y-99373582D01*
X272583543Y-99378541D01*
X272569264Y-99382118D01*
X272554703Y-99384278D01*
X272540000Y-99385000D01*
X272240000Y-99385000D01*
X272225297Y-99384278D01*
X272210736Y-99382118D01*
X272196457Y-99378541D01*
X272182597Y-99373582D01*
X272169290Y-99367288D01*
X272156664Y-99359720D01*
X272144841Y-99350952D01*
X272133934Y-99341066D01*
X272124048Y-99330159D01*
X272115280Y-99318336D01*
X272107712Y-99305710D01*
X272101418Y-99292403D01*
X272096459Y-99278543D01*
X272092882Y-99264264D01*
X272090722Y-99249703D01*
X272090000Y-99235000D01*
X272090000Y-97485000D01*
X272090722Y-97470297D01*
X272092882Y-97455736D01*
X272096459Y-97441457D01*
X272101418Y-97427597D01*
X272107712Y-97414290D01*
X272115280Y-97401664D01*
X272124048Y-97389841D01*
X272133934Y-97378934D01*
X272144841Y-97369048D01*
X272156664Y-97360280D01*
X272169290Y-97352712D01*
X272182597Y-97346418D01*
X272196457Y-97341459D01*
X272210736Y-97337882D01*
X272225297Y-97335722D01*
X272240000Y-97335000D01*
X272540000Y-97335000D01*
X272554703Y-97335722D01*
G37*
G36*
X273824703Y-97335722D02*
G01*
X273839264Y-97337882D01*
X273853543Y-97341459D01*
X273867403Y-97346418D01*
X273880710Y-97352712D01*
X273893336Y-97360280D01*
X273905159Y-97369048D01*
X273916066Y-97378934D01*
X273925952Y-97389841D01*
X273934720Y-97401664D01*
X273942288Y-97414290D01*
X273948582Y-97427597D01*
X273953541Y-97441457D01*
X273957118Y-97455736D01*
X273959278Y-97470297D01*
X273960000Y-97485000D01*
X273960000Y-99235000D01*
X273959278Y-99249703D01*
X273957118Y-99264264D01*
X273953541Y-99278543D01*
X273948582Y-99292403D01*
X273942288Y-99305710D01*
X273934720Y-99318336D01*
X273925952Y-99330159D01*
X273916066Y-99341066D01*
X273905159Y-99350952D01*
X273893336Y-99359720D01*
X273880710Y-99367288D01*
X273867403Y-99373582D01*
X273853543Y-99378541D01*
X273839264Y-99382118D01*
X273824703Y-99384278D01*
X273810000Y-99385000D01*
X273510000Y-99385000D01*
X273495297Y-99384278D01*
X273480736Y-99382118D01*
X273466457Y-99378541D01*
X273452597Y-99373582D01*
X273439290Y-99367288D01*
X273426664Y-99359720D01*
X273414841Y-99350952D01*
X273403934Y-99341066D01*
X273394048Y-99330159D01*
X273385280Y-99318336D01*
X273377712Y-99305710D01*
X273371418Y-99292403D01*
X273366459Y-99278543D01*
X273362882Y-99264264D01*
X273360722Y-99249703D01*
X273360000Y-99235000D01*
X273360000Y-97485000D01*
X273360722Y-97470297D01*
X273362882Y-97455736D01*
X273366459Y-97441457D01*
X273371418Y-97427597D01*
X273377712Y-97414290D01*
X273385280Y-97401664D01*
X273394048Y-97389841D01*
X273403934Y-97378934D01*
X273414841Y-97369048D01*
X273426664Y-97360280D01*
X273439290Y-97352712D01*
X273452597Y-97346418D01*
X273466457Y-97341459D01*
X273480736Y-97337882D01*
X273495297Y-97335722D01*
X273510000Y-97335000D01*
X273810000Y-97335000D01*
X273824703Y-97335722D01*
G37*
G36*
X275094703Y-97335722D02*
G01*
X275109264Y-97337882D01*
X275123543Y-97341459D01*
X275137403Y-97346418D01*
X275150710Y-97352712D01*
X275163336Y-97360280D01*
X275175159Y-97369048D01*
X275186066Y-97378934D01*
X275195952Y-97389841D01*
X275204720Y-97401664D01*
X275212288Y-97414290D01*
X275218582Y-97427597D01*
X275223541Y-97441457D01*
X275227118Y-97455736D01*
X275229278Y-97470297D01*
X275230000Y-97485000D01*
X275230000Y-99235000D01*
X275229278Y-99249703D01*
X275227118Y-99264264D01*
X275223541Y-99278543D01*
X275218582Y-99292403D01*
X275212288Y-99305710D01*
X275204720Y-99318336D01*
X275195952Y-99330159D01*
X275186066Y-99341066D01*
X275175159Y-99350952D01*
X275163336Y-99359720D01*
X275150710Y-99367288D01*
X275137403Y-99373582D01*
X275123543Y-99378541D01*
X275109264Y-99382118D01*
X275094703Y-99384278D01*
X275080000Y-99385000D01*
X274780000Y-99385000D01*
X274765297Y-99384278D01*
X274750736Y-99382118D01*
X274736457Y-99378541D01*
X274722597Y-99373582D01*
X274709290Y-99367288D01*
X274696664Y-99359720D01*
X274684841Y-99350952D01*
X274673934Y-99341066D01*
X274664048Y-99330159D01*
X274655280Y-99318336D01*
X274647712Y-99305710D01*
X274641418Y-99292403D01*
X274636459Y-99278543D01*
X274632882Y-99264264D01*
X274630722Y-99249703D01*
X274630000Y-99235000D01*
X274630000Y-97485000D01*
X274630722Y-97470297D01*
X274632882Y-97455736D01*
X274636459Y-97441457D01*
X274641418Y-97427597D01*
X274647712Y-97414290D01*
X274655280Y-97401664D01*
X274664048Y-97389841D01*
X274673934Y-97378934D01*
X274684841Y-97369048D01*
X274696664Y-97360280D01*
X274709290Y-97352712D01*
X274722597Y-97346418D01*
X274736457Y-97341459D01*
X274750736Y-97337882D01*
X274765297Y-97335722D01*
X274780000Y-97335000D01*
X275080000Y-97335000D01*
X275094703Y-97335722D01*
G37*
G36*
X276364703Y-97335722D02*
G01*
X276379264Y-97337882D01*
X276393543Y-97341459D01*
X276407403Y-97346418D01*
X276420710Y-97352712D01*
X276433336Y-97360280D01*
X276445159Y-97369048D01*
X276456066Y-97378934D01*
X276465952Y-97389841D01*
X276474720Y-97401664D01*
X276482288Y-97414290D01*
X276488582Y-97427597D01*
X276493541Y-97441457D01*
X276497118Y-97455736D01*
X276499278Y-97470297D01*
X276500000Y-97485000D01*
X276500000Y-99235000D01*
X276499278Y-99249703D01*
X276497118Y-99264264D01*
X276493541Y-99278543D01*
X276488582Y-99292403D01*
X276482288Y-99305710D01*
X276474720Y-99318336D01*
X276465952Y-99330159D01*
X276456066Y-99341066D01*
X276445159Y-99350952D01*
X276433336Y-99359720D01*
X276420710Y-99367288D01*
X276407403Y-99373582D01*
X276393543Y-99378541D01*
X276379264Y-99382118D01*
X276364703Y-99384278D01*
X276350000Y-99385000D01*
X276050000Y-99385000D01*
X276035297Y-99384278D01*
X276020736Y-99382118D01*
X276006457Y-99378541D01*
X275992597Y-99373582D01*
X275979290Y-99367288D01*
X275966664Y-99359720D01*
X275954841Y-99350952D01*
X275943934Y-99341066D01*
X275934048Y-99330159D01*
X275925280Y-99318336D01*
X275917712Y-99305710D01*
X275911418Y-99292403D01*
X275906459Y-99278543D01*
X275902882Y-99264264D01*
X275900722Y-99249703D01*
X275900000Y-99235000D01*
X275900000Y-97485000D01*
X275900722Y-97470297D01*
X275902882Y-97455736D01*
X275906459Y-97441457D01*
X275911418Y-97427597D01*
X275917712Y-97414290D01*
X275925280Y-97401664D01*
X275934048Y-97389841D01*
X275943934Y-97378934D01*
X275954841Y-97369048D01*
X275966664Y-97360280D01*
X275979290Y-97352712D01*
X275992597Y-97346418D01*
X276006457Y-97341459D01*
X276020736Y-97337882D01*
X276035297Y-97335722D01*
X276050000Y-97335000D01*
X276350000Y-97335000D01*
X276364703Y-97335722D01*
G37*
G36*
X277634703Y-97335722D02*
G01*
X277649264Y-97337882D01*
X277663543Y-97341459D01*
X277677403Y-97346418D01*
X277690710Y-97352712D01*
X277703336Y-97360280D01*
X277715159Y-97369048D01*
X277726066Y-97378934D01*
X277735952Y-97389841D01*
X277744720Y-97401664D01*
X277752288Y-97414290D01*
X277758582Y-97427597D01*
X277763541Y-97441457D01*
X277767118Y-97455736D01*
X277769278Y-97470297D01*
X277770000Y-97485000D01*
X277770000Y-99235000D01*
X277769278Y-99249703D01*
X277767118Y-99264264D01*
X277763541Y-99278543D01*
X277758582Y-99292403D01*
X277752288Y-99305710D01*
X277744720Y-99318336D01*
X277735952Y-99330159D01*
X277726066Y-99341066D01*
X277715159Y-99350952D01*
X277703336Y-99359720D01*
X277690710Y-99367288D01*
X277677403Y-99373582D01*
X277663543Y-99378541D01*
X277649264Y-99382118D01*
X277634703Y-99384278D01*
X277620000Y-99385000D01*
X277320000Y-99385000D01*
X277305297Y-99384278D01*
X277290736Y-99382118D01*
X277276457Y-99378541D01*
X277262597Y-99373582D01*
X277249290Y-99367288D01*
X277236664Y-99359720D01*
X277224841Y-99350952D01*
X277213934Y-99341066D01*
X277204048Y-99330159D01*
X277195280Y-99318336D01*
X277187712Y-99305710D01*
X277181418Y-99292403D01*
X277176459Y-99278543D01*
X277172882Y-99264264D01*
X277170722Y-99249703D01*
X277170000Y-99235000D01*
X277170000Y-97485000D01*
X277170722Y-97470297D01*
X277172882Y-97455736D01*
X277176459Y-97441457D01*
X277181418Y-97427597D01*
X277187712Y-97414290D01*
X277195280Y-97401664D01*
X277204048Y-97389841D01*
X277213934Y-97378934D01*
X277224841Y-97369048D01*
X277236664Y-97360280D01*
X277249290Y-97352712D01*
X277262597Y-97346418D01*
X277276457Y-97341459D01*
X277290736Y-97337882D01*
X277305297Y-97335722D01*
X277320000Y-97335000D01*
X277620000Y-97335000D01*
X277634703Y-97335722D01*
G37*
G36*
X278904703Y-97335722D02*
G01*
X278919264Y-97337882D01*
X278933543Y-97341459D01*
X278947403Y-97346418D01*
X278960710Y-97352712D01*
X278973336Y-97360280D01*
X278985159Y-97369048D01*
X278996066Y-97378934D01*
X279005952Y-97389841D01*
X279014720Y-97401664D01*
X279022288Y-97414290D01*
X279028582Y-97427597D01*
X279033541Y-97441457D01*
X279037118Y-97455736D01*
X279039278Y-97470297D01*
X279040000Y-97485000D01*
X279040000Y-99235000D01*
X279039278Y-99249703D01*
X279037118Y-99264264D01*
X279033541Y-99278543D01*
X279028582Y-99292403D01*
X279022288Y-99305710D01*
X279014720Y-99318336D01*
X279005952Y-99330159D01*
X278996066Y-99341066D01*
X278985159Y-99350952D01*
X278973336Y-99359720D01*
X278960710Y-99367288D01*
X278947403Y-99373582D01*
X278933543Y-99378541D01*
X278919264Y-99382118D01*
X278904703Y-99384278D01*
X278890000Y-99385000D01*
X278590000Y-99385000D01*
X278575297Y-99384278D01*
X278560736Y-99382118D01*
X278546457Y-99378541D01*
X278532597Y-99373582D01*
X278519290Y-99367288D01*
X278506664Y-99359720D01*
X278494841Y-99350952D01*
X278483934Y-99341066D01*
X278474048Y-99330159D01*
X278465280Y-99318336D01*
X278457712Y-99305710D01*
X278451418Y-99292403D01*
X278446459Y-99278543D01*
X278442882Y-99264264D01*
X278440722Y-99249703D01*
X278440000Y-99235000D01*
X278440000Y-97485000D01*
X278440722Y-97470297D01*
X278442882Y-97455736D01*
X278446459Y-97441457D01*
X278451418Y-97427597D01*
X278457712Y-97414290D01*
X278465280Y-97401664D01*
X278474048Y-97389841D01*
X278483934Y-97378934D01*
X278494841Y-97369048D01*
X278506664Y-97360280D01*
X278519290Y-97352712D01*
X278532597Y-97346418D01*
X278546457Y-97341459D01*
X278560736Y-97337882D01*
X278575297Y-97335722D01*
X278590000Y-97335000D01*
X278890000Y-97335000D01*
X278904703Y-97335722D01*
G37*
G36*
X280174703Y-97335722D02*
G01*
X280189264Y-97337882D01*
X280203543Y-97341459D01*
X280217403Y-97346418D01*
X280230710Y-97352712D01*
X280243336Y-97360280D01*
X280255159Y-97369048D01*
X280266066Y-97378934D01*
X280275952Y-97389841D01*
X280284720Y-97401664D01*
X280292288Y-97414290D01*
X280298582Y-97427597D01*
X280303541Y-97441457D01*
X280307118Y-97455736D01*
X280309278Y-97470297D01*
X280310000Y-97485000D01*
X280310000Y-99235000D01*
X280309278Y-99249703D01*
X280307118Y-99264264D01*
X280303541Y-99278543D01*
X280298582Y-99292403D01*
X280292288Y-99305710D01*
X280284720Y-99318336D01*
X280275952Y-99330159D01*
X280266066Y-99341066D01*
X280255159Y-99350952D01*
X280243336Y-99359720D01*
X280230710Y-99367288D01*
X280217403Y-99373582D01*
X280203543Y-99378541D01*
X280189264Y-99382118D01*
X280174703Y-99384278D01*
X280160000Y-99385000D01*
X279860000Y-99385000D01*
X279845297Y-99384278D01*
X279830736Y-99382118D01*
X279816457Y-99378541D01*
X279802597Y-99373582D01*
X279789290Y-99367288D01*
X279776664Y-99359720D01*
X279764841Y-99350952D01*
X279753934Y-99341066D01*
X279744048Y-99330159D01*
X279735280Y-99318336D01*
X279727712Y-99305710D01*
X279721418Y-99292403D01*
X279716459Y-99278543D01*
X279712882Y-99264264D01*
X279710722Y-99249703D01*
X279710000Y-99235000D01*
X279710000Y-97485000D01*
X279710722Y-97470297D01*
X279712882Y-97455736D01*
X279716459Y-97441457D01*
X279721418Y-97427597D01*
X279727712Y-97414290D01*
X279735280Y-97401664D01*
X279744048Y-97389841D01*
X279753934Y-97378934D01*
X279764841Y-97369048D01*
X279776664Y-97360280D01*
X279789290Y-97352712D01*
X279802597Y-97346418D01*
X279816457Y-97341459D01*
X279830736Y-97337882D01*
X279845297Y-97335722D01*
X279860000Y-97335000D01*
X280160000Y-97335000D01*
X280174703Y-97335722D01*
G37*
G36*
X281444703Y-97335722D02*
G01*
X281459264Y-97337882D01*
X281473543Y-97341459D01*
X281487403Y-97346418D01*
X281500710Y-97352712D01*
X281513336Y-97360280D01*
X281525159Y-97369048D01*
X281536066Y-97378934D01*
X281545952Y-97389841D01*
X281554720Y-97401664D01*
X281562288Y-97414290D01*
X281568582Y-97427597D01*
X281573541Y-97441457D01*
X281577118Y-97455736D01*
X281579278Y-97470297D01*
X281580000Y-97485000D01*
X281580000Y-99235000D01*
X281579278Y-99249703D01*
X281577118Y-99264264D01*
X281573541Y-99278543D01*
X281568582Y-99292403D01*
X281562288Y-99305710D01*
X281554720Y-99318336D01*
X281545952Y-99330159D01*
X281536066Y-99341066D01*
X281525159Y-99350952D01*
X281513336Y-99359720D01*
X281500710Y-99367288D01*
X281487403Y-99373582D01*
X281473543Y-99378541D01*
X281459264Y-99382118D01*
X281444703Y-99384278D01*
X281430000Y-99385000D01*
X281130000Y-99385000D01*
X281115297Y-99384278D01*
X281100736Y-99382118D01*
X281086457Y-99378541D01*
X281072597Y-99373582D01*
X281059290Y-99367288D01*
X281046664Y-99359720D01*
X281034841Y-99350952D01*
X281023934Y-99341066D01*
X281014048Y-99330159D01*
X281005280Y-99318336D01*
X280997712Y-99305710D01*
X280991418Y-99292403D01*
X280986459Y-99278543D01*
X280982882Y-99264264D01*
X280980722Y-99249703D01*
X280980000Y-99235000D01*
X280980000Y-97485000D01*
X280980722Y-97470297D01*
X280982882Y-97455736D01*
X280986459Y-97441457D01*
X280991418Y-97427597D01*
X280997712Y-97414290D01*
X281005280Y-97401664D01*
X281014048Y-97389841D01*
X281023934Y-97378934D01*
X281034841Y-97369048D01*
X281046664Y-97360280D01*
X281059290Y-97352712D01*
X281072597Y-97346418D01*
X281086457Y-97341459D01*
X281100736Y-97337882D01*
X281115297Y-97335722D01*
X281130000Y-97335000D01*
X281430000Y-97335000D01*
X281444703Y-97335722D01*
G37*
G36*
X282714703Y-97335722D02*
G01*
X282729264Y-97337882D01*
X282743543Y-97341459D01*
X282757403Y-97346418D01*
X282770710Y-97352712D01*
X282783336Y-97360280D01*
X282795159Y-97369048D01*
X282806066Y-97378934D01*
X282815952Y-97389841D01*
X282824720Y-97401664D01*
X282832288Y-97414290D01*
X282838582Y-97427597D01*
X282843541Y-97441457D01*
X282847118Y-97455736D01*
X282849278Y-97470297D01*
X282850000Y-97485000D01*
X282850000Y-99235000D01*
X282849278Y-99249703D01*
X282847118Y-99264264D01*
X282843541Y-99278543D01*
X282838582Y-99292403D01*
X282832288Y-99305710D01*
X282824720Y-99318336D01*
X282815952Y-99330159D01*
X282806066Y-99341066D01*
X282795159Y-99350952D01*
X282783336Y-99359720D01*
X282770710Y-99367288D01*
X282757403Y-99373582D01*
X282743543Y-99378541D01*
X282729264Y-99382118D01*
X282714703Y-99384278D01*
X282700000Y-99385000D01*
X282400000Y-99385000D01*
X282385297Y-99384278D01*
X282370736Y-99382118D01*
X282356457Y-99378541D01*
X282342597Y-99373582D01*
X282329290Y-99367288D01*
X282316664Y-99359720D01*
X282304841Y-99350952D01*
X282293934Y-99341066D01*
X282284048Y-99330159D01*
X282275280Y-99318336D01*
X282267712Y-99305710D01*
X282261418Y-99292403D01*
X282256459Y-99278543D01*
X282252882Y-99264264D01*
X282250722Y-99249703D01*
X282250000Y-99235000D01*
X282250000Y-97485000D01*
X282250722Y-97470297D01*
X282252882Y-97455736D01*
X282256459Y-97441457D01*
X282261418Y-97427597D01*
X282267712Y-97414290D01*
X282275280Y-97401664D01*
X282284048Y-97389841D01*
X282293934Y-97378934D01*
X282304841Y-97369048D01*
X282316664Y-97360280D01*
X282329290Y-97352712D01*
X282342597Y-97346418D01*
X282356457Y-97341459D01*
X282370736Y-97337882D01*
X282385297Y-97335722D01*
X282400000Y-97335000D01*
X282700000Y-97335000D01*
X282714703Y-97335722D01*
G37*
G36*
X282714703Y-106635722D02*
G01*
X282729264Y-106637882D01*
X282743543Y-106641459D01*
X282757403Y-106646418D01*
X282770710Y-106652712D01*
X282783336Y-106660280D01*
X282795159Y-106669048D01*
X282806066Y-106678934D01*
X282815952Y-106689841D01*
X282824720Y-106701664D01*
X282832288Y-106714290D01*
X282838582Y-106727597D01*
X282843541Y-106741457D01*
X282847118Y-106755736D01*
X282849278Y-106770297D01*
X282850000Y-106785000D01*
X282850000Y-108535000D01*
X282849278Y-108549703D01*
X282847118Y-108564264D01*
X282843541Y-108578543D01*
X282838582Y-108592403D01*
X282832288Y-108605710D01*
X282824720Y-108618336D01*
X282815952Y-108630159D01*
X282806066Y-108641066D01*
X282795159Y-108650952D01*
X282783336Y-108659720D01*
X282770710Y-108667288D01*
X282757403Y-108673582D01*
X282743543Y-108678541D01*
X282729264Y-108682118D01*
X282714703Y-108684278D01*
X282700000Y-108685000D01*
X282400000Y-108685000D01*
X282385297Y-108684278D01*
X282370736Y-108682118D01*
X282356457Y-108678541D01*
X282342597Y-108673582D01*
X282329290Y-108667288D01*
X282316664Y-108659720D01*
X282304841Y-108650952D01*
X282293934Y-108641066D01*
X282284048Y-108630159D01*
X282275280Y-108618336D01*
X282267712Y-108605710D01*
X282261418Y-108592403D01*
X282256459Y-108578543D01*
X282252882Y-108564264D01*
X282250722Y-108549703D01*
X282250000Y-108535000D01*
X282250000Y-106785000D01*
X282250722Y-106770297D01*
X282252882Y-106755736D01*
X282256459Y-106741457D01*
X282261418Y-106727597D01*
X282267712Y-106714290D01*
X282275280Y-106701664D01*
X282284048Y-106689841D01*
X282293934Y-106678934D01*
X282304841Y-106669048D01*
X282316664Y-106660280D01*
X282329290Y-106652712D01*
X282342597Y-106646418D01*
X282356457Y-106641459D01*
X282370736Y-106637882D01*
X282385297Y-106635722D01*
X282400000Y-106635000D01*
X282700000Y-106635000D01*
X282714703Y-106635722D01*
G37*
G36*
X281444703Y-106635722D02*
G01*
X281459264Y-106637882D01*
X281473543Y-106641459D01*
X281487403Y-106646418D01*
X281500710Y-106652712D01*
X281513336Y-106660280D01*
X281525159Y-106669048D01*
X281536066Y-106678934D01*
X281545952Y-106689841D01*
X281554720Y-106701664D01*
X281562288Y-106714290D01*
X281568582Y-106727597D01*
X281573541Y-106741457D01*
X281577118Y-106755736D01*
X281579278Y-106770297D01*
X281580000Y-106785000D01*
X281580000Y-108535000D01*
X281579278Y-108549703D01*
X281577118Y-108564264D01*
X281573541Y-108578543D01*
X281568582Y-108592403D01*
X281562288Y-108605710D01*
X281554720Y-108618336D01*
X281545952Y-108630159D01*
X281536066Y-108641066D01*
X281525159Y-108650952D01*
X281513336Y-108659720D01*
X281500710Y-108667288D01*
X281487403Y-108673582D01*
X281473543Y-108678541D01*
X281459264Y-108682118D01*
X281444703Y-108684278D01*
X281430000Y-108685000D01*
X281130000Y-108685000D01*
X281115297Y-108684278D01*
X281100736Y-108682118D01*
X281086457Y-108678541D01*
X281072597Y-108673582D01*
X281059290Y-108667288D01*
X281046664Y-108659720D01*
X281034841Y-108650952D01*
X281023934Y-108641066D01*
X281014048Y-108630159D01*
X281005280Y-108618336D01*
X280997712Y-108605710D01*
X280991418Y-108592403D01*
X280986459Y-108578543D01*
X280982882Y-108564264D01*
X280980722Y-108549703D01*
X280980000Y-108535000D01*
X280980000Y-106785000D01*
X280980722Y-106770297D01*
X280982882Y-106755736D01*
X280986459Y-106741457D01*
X280991418Y-106727597D01*
X280997712Y-106714290D01*
X281005280Y-106701664D01*
X281014048Y-106689841D01*
X281023934Y-106678934D01*
X281034841Y-106669048D01*
X281046664Y-106660280D01*
X281059290Y-106652712D01*
X281072597Y-106646418D01*
X281086457Y-106641459D01*
X281100736Y-106637882D01*
X281115297Y-106635722D01*
X281130000Y-106635000D01*
X281430000Y-106635000D01*
X281444703Y-106635722D01*
G37*
G36*
X280174703Y-106635722D02*
G01*
X280189264Y-106637882D01*
X280203543Y-106641459D01*
X280217403Y-106646418D01*
X280230710Y-106652712D01*
X280243336Y-106660280D01*
X280255159Y-106669048D01*
X280266066Y-106678934D01*
X280275952Y-106689841D01*
X280284720Y-106701664D01*
X280292288Y-106714290D01*
X280298582Y-106727597D01*
X280303541Y-106741457D01*
X280307118Y-106755736D01*
X280309278Y-106770297D01*
X280310000Y-106785000D01*
X280310000Y-108535000D01*
X280309278Y-108549703D01*
X280307118Y-108564264D01*
X280303541Y-108578543D01*
X280298582Y-108592403D01*
X280292288Y-108605710D01*
X280284720Y-108618336D01*
X280275952Y-108630159D01*
X280266066Y-108641066D01*
X280255159Y-108650952D01*
X280243336Y-108659720D01*
X280230710Y-108667288D01*
X280217403Y-108673582D01*
X280203543Y-108678541D01*
X280189264Y-108682118D01*
X280174703Y-108684278D01*
X280160000Y-108685000D01*
X279860000Y-108685000D01*
X279845297Y-108684278D01*
X279830736Y-108682118D01*
X279816457Y-108678541D01*
X279802597Y-108673582D01*
X279789290Y-108667288D01*
X279776664Y-108659720D01*
X279764841Y-108650952D01*
X279753934Y-108641066D01*
X279744048Y-108630159D01*
X279735280Y-108618336D01*
X279727712Y-108605710D01*
X279721418Y-108592403D01*
X279716459Y-108578543D01*
X279712882Y-108564264D01*
X279710722Y-108549703D01*
X279710000Y-108535000D01*
X279710000Y-106785000D01*
X279710722Y-106770297D01*
X279712882Y-106755736D01*
X279716459Y-106741457D01*
X279721418Y-106727597D01*
X279727712Y-106714290D01*
X279735280Y-106701664D01*
X279744048Y-106689841D01*
X279753934Y-106678934D01*
X279764841Y-106669048D01*
X279776664Y-106660280D01*
X279789290Y-106652712D01*
X279802597Y-106646418D01*
X279816457Y-106641459D01*
X279830736Y-106637882D01*
X279845297Y-106635722D01*
X279860000Y-106635000D01*
X280160000Y-106635000D01*
X280174703Y-106635722D01*
G37*
G36*
X278904703Y-106635722D02*
G01*
X278919264Y-106637882D01*
X278933543Y-106641459D01*
X278947403Y-106646418D01*
X278960710Y-106652712D01*
X278973336Y-106660280D01*
X278985159Y-106669048D01*
X278996066Y-106678934D01*
X279005952Y-106689841D01*
X279014720Y-106701664D01*
X279022288Y-106714290D01*
X279028582Y-106727597D01*
X279033541Y-106741457D01*
X279037118Y-106755736D01*
X279039278Y-106770297D01*
X279040000Y-106785000D01*
X279040000Y-108535000D01*
X279039278Y-108549703D01*
X279037118Y-108564264D01*
X279033541Y-108578543D01*
X279028582Y-108592403D01*
X279022288Y-108605710D01*
X279014720Y-108618336D01*
X279005952Y-108630159D01*
X278996066Y-108641066D01*
X278985159Y-108650952D01*
X278973336Y-108659720D01*
X278960710Y-108667288D01*
X278947403Y-108673582D01*
X278933543Y-108678541D01*
X278919264Y-108682118D01*
X278904703Y-108684278D01*
X278890000Y-108685000D01*
X278590000Y-108685000D01*
X278575297Y-108684278D01*
X278560736Y-108682118D01*
X278546457Y-108678541D01*
X278532597Y-108673582D01*
X278519290Y-108667288D01*
X278506664Y-108659720D01*
X278494841Y-108650952D01*
X278483934Y-108641066D01*
X278474048Y-108630159D01*
X278465280Y-108618336D01*
X278457712Y-108605710D01*
X278451418Y-108592403D01*
X278446459Y-108578543D01*
X278442882Y-108564264D01*
X278440722Y-108549703D01*
X278440000Y-108535000D01*
X278440000Y-106785000D01*
X278440722Y-106770297D01*
X278442882Y-106755736D01*
X278446459Y-106741457D01*
X278451418Y-106727597D01*
X278457712Y-106714290D01*
X278465280Y-106701664D01*
X278474048Y-106689841D01*
X278483934Y-106678934D01*
X278494841Y-106669048D01*
X278506664Y-106660280D01*
X278519290Y-106652712D01*
X278532597Y-106646418D01*
X278546457Y-106641459D01*
X278560736Y-106637882D01*
X278575297Y-106635722D01*
X278590000Y-106635000D01*
X278890000Y-106635000D01*
X278904703Y-106635722D01*
G37*
G36*
X277634703Y-106635722D02*
G01*
X277649264Y-106637882D01*
X277663543Y-106641459D01*
X277677403Y-106646418D01*
X277690710Y-106652712D01*
X277703336Y-106660280D01*
X277715159Y-106669048D01*
X277726066Y-106678934D01*
X277735952Y-106689841D01*
X277744720Y-106701664D01*
X277752288Y-106714290D01*
X277758582Y-106727597D01*
X277763541Y-106741457D01*
X277767118Y-106755736D01*
X277769278Y-106770297D01*
X277770000Y-106785000D01*
X277770000Y-108535000D01*
X277769278Y-108549703D01*
X277767118Y-108564264D01*
X277763541Y-108578543D01*
X277758582Y-108592403D01*
X277752288Y-108605710D01*
X277744720Y-108618336D01*
X277735952Y-108630159D01*
X277726066Y-108641066D01*
X277715159Y-108650952D01*
X277703336Y-108659720D01*
X277690710Y-108667288D01*
X277677403Y-108673582D01*
X277663543Y-108678541D01*
X277649264Y-108682118D01*
X277634703Y-108684278D01*
X277620000Y-108685000D01*
X277320000Y-108685000D01*
X277305297Y-108684278D01*
X277290736Y-108682118D01*
X277276457Y-108678541D01*
X277262597Y-108673582D01*
X277249290Y-108667288D01*
X277236664Y-108659720D01*
X277224841Y-108650952D01*
X277213934Y-108641066D01*
X277204048Y-108630159D01*
X277195280Y-108618336D01*
X277187712Y-108605710D01*
X277181418Y-108592403D01*
X277176459Y-108578543D01*
X277172882Y-108564264D01*
X277170722Y-108549703D01*
X277170000Y-108535000D01*
X277170000Y-106785000D01*
X277170722Y-106770297D01*
X277172882Y-106755736D01*
X277176459Y-106741457D01*
X277181418Y-106727597D01*
X277187712Y-106714290D01*
X277195280Y-106701664D01*
X277204048Y-106689841D01*
X277213934Y-106678934D01*
X277224841Y-106669048D01*
X277236664Y-106660280D01*
X277249290Y-106652712D01*
X277262597Y-106646418D01*
X277276457Y-106641459D01*
X277290736Y-106637882D01*
X277305297Y-106635722D01*
X277320000Y-106635000D01*
X277620000Y-106635000D01*
X277634703Y-106635722D01*
G37*
G36*
X276364703Y-106635722D02*
G01*
X276379264Y-106637882D01*
X276393543Y-106641459D01*
X276407403Y-106646418D01*
X276420710Y-106652712D01*
X276433336Y-106660280D01*
X276445159Y-106669048D01*
X276456066Y-106678934D01*
X276465952Y-106689841D01*
X276474720Y-106701664D01*
X276482288Y-106714290D01*
X276488582Y-106727597D01*
X276493541Y-106741457D01*
X276497118Y-106755736D01*
X276499278Y-106770297D01*
X276500000Y-106785000D01*
X276500000Y-108535000D01*
X276499278Y-108549703D01*
X276497118Y-108564264D01*
X276493541Y-108578543D01*
X276488582Y-108592403D01*
X276482288Y-108605710D01*
X276474720Y-108618336D01*
X276465952Y-108630159D01*
X276456066Y-108641066D01*
X276445159Y-108650952D01*
X276433336Y-108659720D01*
X276420710Y-108667288D01*
X276407403Y-108673582D01*
X276393543Y-108678541D01*
X276379264Y-108682118D01*
X276364703Y-108684278D01*
X276350000Y-108685000D01*
X276050000Y-108685000D01*
X276035297Y-108684278D01*
X276020736Y-108682118D01*
X276006457Y-108678541D01*
X275992597Y-108673582D01*
X275979290Y-108667288D01*
X275966664Y-108659720D01*
X275954841Y-108650952D01*
X275943934Y-108641066D01*
X275934048Y-108630159D01*
X275925280Y-108618336D01*
X275917712Y-108605710D01*
X275911418Y-108592403D01*
X275906459Y-108578543D01*
X275902882Y-108564264D01*
X275900722Y-108549703D01*
X275900000Y-108535000D01*
X275900000Y-106785000D01*
X275900722Y-106770297D01*
X275902882Y-106755736D01*
X275906459Y-106741457D01*
X275911418Y-106727597D01*
X275917712Y-106714290D01*
X275925280Y-106701664D01*
X275934048Y-106689841D01*
X275943934Y-106678934D01*
X275954841Y-106669048D01*
X275966664Y-106660280D01*
X275979290Y-106652712D01*
X275992597Y-106646418D01*
X276006457Y-106641459D01*
X276020736Y-106637882D01*
X276035297Y-106635722D01*
X276050000Y-106635000D01*
X276350000Y-106635000D01*
X276364703Y-106635722D01*
G37*
G36*
X275094703Y-106635722D02*
G01*
X275109264Y-106637882D01*
X275123543Y-106641459D01*
X275137403Y-106646418D01*
X275150710Y-106652712D01*
X275163336Y-106660280D01*
X275175159Y-106669048D01*
X275186066Y-106678934D01*
X275195952Y-106689841D01*
X275204720Y-106701664D01*
X275212288Y-106714290D01*
X275218582Y-106727597D01*
X275223541Y-106741457D01*
X275227118Y-106755736D01*
X275229278Y-106770297D01*
X275230000Y-106785000D01*
X275230000Y-108535000D01*
X275229278Y-108549703D01*
X275227118Y-108564264D01*
X275223541Y-108578543D01*
X275218582Y-108592403D01*
X275212288Y-108605710D01*
X275204720Y-108618336D01*
X275195952Y-108630159D01*
X275186066Y-108641066D01*
X275175159Y-108650952D01*
X275163336Y-108659720D01*
X275150710Y-108667288D01*
X275137403Y-108673582D01*
X275123543Y-108678541D01*
X275109264Y-108682118D01*
X275094703Y-108684278D01*
X275080000Y-108685000D01*
X274780000Y-108685000D01*
X274765297Y-108684278D01*
X274750736Y-108682118D01*
X274736457Y-108678541D01*
X274722597Y-108673582D01*
X274709290Y-108667288D01*
X274696664Y-108659720D01*
X274684841Y-108650952D01*
X274673934Y-108641066D01*
X274664048Y-108630159D01*
X274655280Y-108618336D01*
X274647712Y-108605710D01*
X274641418Y-108592403D01*
X274636459Y-108578543D01*
X274632882Y-108564264D01*
X274630722Y-108549703D01*
X274630000Y-108535000D01*
X274630000Y-106785000D01*
X274630722Y-106770297D01*
X274632882Y-106755736D01*
X274636459Y-106741457D01*
X274641418Y-106727597D01*
X274647712Y-106714290D01*
X274655280Y-106701664D01*
X274664048Y-106689841D01*
X274673934Y-106678934D01*
X274684841Y-106669048D01*
X274696664Y-106660280D01*
X274709290Y-106652712D01*
X274722597Y-106646418D01*
X274736457Y-106641459D01*
X274750736Y-106637882D01*
X274765297Y-106635722D01*
X274780000Y-106635000D01*
X275080000Y-106635000D01*
X275094703Y-106635722D01*
G37*
G36*
X273824703Y-106635722D02*
G01*
X273839264Y-106637882D01*
X273853543Y-106641459D01*
X273867403Y-106646418D01*
X273880710Y-106652712D01*
X273893336Y-106660280D01*
X273905159Y-106669048D01*
X273916066Y-106678934D01*
X273925952Y-106689841D01*
X273934720Y-106701664D01*
X273942288Y-106714290D01*
X273948582Y-106727597D01*
X273953541Y-106741457D01*
X273957118Y-106755736D01*
X273959278Y-106770297D01*
X273960000Y-106785000D01*
X273960000Y-108535000D01*
X273959278Y-108549703D01*
X273957118Y-108564264D01*
X273953541Y-108578543D01*
X273948582Y-108592403D01*
X273942288Y-108605710D01*
X273934720Y-108618336D01*
X273925952Y-108630159D01*
X273916066Y-108641066D01*
X273905159Y-108650952D01*
X273893336Y-108659720D01*
X273880710Y-108667288D01*
X273867403Y-108673582D01*
X273853543Y-108678541D01*
X273839264Y-108682118D01*
X273824703Y-108684278D01*
X273810000Y-108685000D01*
X273510000Y-108685000D01*
X273495297Y-108684278D01*
X273480736Y-108682118D01*
X273466457Y-108678541D01*
X273452597Y-108673582D01*
X273439290Y-108667288D01*
X273426664Y-108659720D01*
X273414841Y-108650952D01*
X273403934Y-108641066D01*
X273394048Y-108630159D01*
X273385280Y-108618336D01*
X273377712Y-108605710D01*
X273371418Y-108592403D01*
X273366459Y-108578543D01*
X273362882Y-108564264D01*
X273360722Y-108549703D01*
X273360000Y-108535000D01*
X273360000Y-106785000D01*
X273360722Y-106770297D01*
X273362882Y-106755736D01*
X273366459Y-106741457D01*
X273371418Y-106727597D01*
X273377712Y-106714290D01*
X273385280Y-106701664D01*
X273394048Y-106689841D01*
X273403934Y-106678934D01*
X273414841Y-106669048D01*
X273426664Y-106660280D01*
X273439290Y-106652712D01*
X273452597Y-106646418D01*
X273466457Y-106641459D01*
X273480736Y-106637882D01*
X273495297Y-106635722D01*
X273510000Y-106635000D01*
X273810000Y-106635000D01*
X273824703Y-106635722D01*
G37*
G36*
X272554703Y-106635722D02*
G01*
X272569264Y-106637882D01*
X272583543Y-106641459D01*
X272597403Y-106646418D01*
X272610710Y-106652712D01*
X272623336Y-106660280D01*
X272635159Y-106669048D01*
X272646066Y-106678934D01*
X272655952Y-106689841D01*
X272664720Y-106701664D01*
X272672288Y-106714290D01*
X272678582Y-106727597D01*
X272683541Y-106741457D01*
X272687118Y-106755736D01*
X272689278Y-106770297D01*
X272690000Y-106785000D01*
X272690000Y-108535000D01*
X272689278Y-108549703D01*
X272687118Y-108564264D01*
X272683541Y-108578543D01*
X272678582Y-108592403D01*
X272672288Y-108605710D01*
X272664720Y-108618336D01*
X272655952Y-108630159D01*
X272646066Y-108641066D01*
X272635159Y-108650952D01*
X272623336Y-108659720D01*
X272610710Y-108667288D01*
X272597403Y-108673582D01*
X272583543Y-108678541D01*
X272569264Y-108682118D01*
X272554703Y-108684278D01*
X272540000Y-108685000D01*
X272240000Y-108685000D01*
X272225297Y-108684278D01*
X272210736Y-108682118D01*
X272196457Y-108678541D01*
X272182597Y-108673582D01*
X272169290Y-108667288D01*
X272156664Y-108659720D01*
X272144841Y-108650952D01*
X272133934Y-108641066D01*
X272124048Y-108630159D01*
X272115280Y-108618336D01*
X272107712Y-108605710D01*
X272101418Y-108592403D01*
X272096459Y-108578543D01*
X272092882Y-108564264D01*
X272090722Y-108549703D01*
X272090000Y-108535000D01*
X272090000Y-106785000D01*
X272090722Y-106770297D01*
X272092882Y-106755736D01*
X272096459Y-106741457D01*
X272101418Y-106727597D01*
X272107712Y-106714290D01*
X272115280Y-106701664D01*
X272124048Y-106689841D01*
X272133934Y-106678934D01*
X272144841Y-106669048D01*
X272156664Y-106660280D01*
X272169290Y-106652712D01*
X272182597Y-106646418D01*
X272196457Y-106641459D01*
X272210736Y-106637882D01*
X272225297Y-106635722D01*
X272240000Y-106635000D01*
X272540000Y-106635000D01*
X272554703Y-106635722D01*
G37*
G36*
X271284703Y-106635722D02*
G01*
X271299264Y-106637882D01*
X271313543Y-106641459D01*
X271327403Y-106646418D01*
X271340710Y-106652712D01*
X271353336Y-106660280D01*
X271365159Y-106669048D01*
X271376066Y-106678934D01*
X271385952Y-106689841D01*
X271394720Y-106701664D01*
X271402288Y-106714290D01*
X271408582Y-106727597D01*
X271413541Y-106741457D01*
X271417118Y-106755736D01*
X271419278Y-106770297D01*
X271420000Y-106785000D01*
X271420000Y-108535000D01*
X271419278Y-108549703D01*
X271417118Y-108564264D01*
X271413541Y-108578543D01*
X271408582Y-108592403D01*
X271402288Y-108605710D01*
X271394720Y-108618336D01*
X271385952Y-108630159D01*
X271376066Y-108641066D01*
X271365159Y-108650952D01*
X271353336Y-108659720D01*
X271340710Y-108667288D01*
X271327403Y-108673582D01*
X271313543Y-108678541D01*
X271299264Y-108682118D01*
X271284703Y-108684278D01*
X271270000Y-108685000D01*
X270970000Y-108685000D01*
X270955297Y-108684278D01*
X270940736Y-108682118D01*
X270926457Y-108678541D01*
X270912597Y-108673582D01*
X270899290Y-108667288D01*
X270886664Y-108659720D01*
X270874841Y-108650952D01*
X270863934Y-108641066D01*
X270854048Y-108630159D01*
X270845280Y-108618336D01*
X270837712Y-108605710D01*
X270831418Y-108592403D01*
X270826459Y-108578543D01*
X270822882Y-108564264D01*
X270820722Y-108549703D01*
X270820000Y-108535000D01*
X270820000Y-106785000D01*
X270820722Y-106770297D01*
X270822882Y-106755736D01*
X270826459Y-106741457D01*
X270831418Y-106727597D01*
X270837712Y-106714290D01*
X270845280Y-106701664D01*
X270854048Y-106689841D01*
X270863934Y-106678934D01*
X270874841Y-106669048D01*
X270886664Y-106660280D01*
X270899290Y-106652712D01*
X270912597Y-106646418D01*
X270926457Y-106641459D01*
X270940736Y-106637882D01*
X270955297Y-106635722D01*
X270970000Y-106635000D01*
X271270000Y-106635000D01*
X271284703Y-106635722D01*
G37*
G36*
X270014703Y-106635722D02*
G01*
X270029264Y-106637882D01*
X270043543Y-106641459D01*
X270057403Y-106646418D01*
X270070710Y-106652712D01*
X270083336Y-106660280D01*
X270095159Y-106669048D01*
X270106066Y-106678934D01*
X270115952Y-106689841D01*
X270124720Y-106701664D01*
X270132288Y-106714290D01*
X270138582Y-106727597D01*
X270143541Y-106741457D01*
X270147118Y-106755736D01*
X270149278Y-106770297D01*
X270150000Y-106785000D01*
X270150000Y-108535000D01*
X270149278Y-108549703D01*
X270147118Y-108564264D01*
X270143541Y-108578543D01*
X270138582Y-108592403D01*
X270132288Y-108605710D01*
X270124720Y-108618336D01*
X270115952Y-108630159D01*
X270106066Y-108641066D01*
X270095159Y-108650952D01*
X270083336Y-108659720D01*
X270070710Y-108667288D01*
X270057403Y-108673582D01*
X270043543Y-108678541D01*
X270029264Y-108682118D01*
X270014703Y-108684278D01*
X270000000Y-108685000D01*
X269700000Y-108685000D01*
X269685297Y-108684278D01*
X269670736Y-108682118D01*
X269656457Y-108678541D01*
X269642597Y-108673582D01*
X269629290Y-108667288D01*
X269616664Y-108659720D01*
X269604841Y-108650952D01*
X269593934Y-108641066D01*
X269584048Y-108630159D01*
X269575280Y-108618336D01*
X269567712Y-108605710D01*
X269561418Y-108592403D01*
X269556459Y-108578543D01*
X269552882Y-108564264D01*
X269550722Y-108549703D01*
X269550000Y-108535000D01*
X269550000Y-106785000D01*
X269550722Y-106770297D01*
X269552882Y-106755736D01*
X269556459Y-106741457D01*
X269561418Y-106727597D01*
X269567712Y-106714290D01*
X269575280Y-106701664D01*
X269584048Y-106689841D01*
X269593934Y-106678934D01*
X269604841Y-106669048D01*
X269616664Y-106660280D01*
X269629290Y-106652712D01*
X269642597Y-106646418D01*
X269656457Y-106641459D01*
X269670736Y-106637882D01*
X269685297Y-106635722D01*
X269700000Y-106635000D01*
X270000000Y-106635000D01*
X270014703Y-106635722D01*
G37*
G36*
X268744703Y-106635722D02*
G01*
X268759264Y-106637882D01*
X268773543Y-106641459D01*
X268787403Y-106646418D01*
X268800710Y-106652712D01*
X268813336Y-106660280D01*
X268825159Y-106669048D01*
X268836066Y-106678934D01*
X268845952Y-106689841D01*
X268854720Y-106701664D01*
X268862288Y-106714290D01*
X268868582Y-106727597D01*
X268873541Y-106741457D01*
X268877118Y-106755736D01*
X268879278Y-106770297D01*
X268880000Y-106785000D01*
X268880000Y-108535000D01*
X268879278Y-108549703D01*
X268877118Y-108564264D01*
X268873541Y-108578543D01*
X268868582Y-108592403D01*
X268862288Y-108605710D01*
X268854720Y-108618336D01*
X268845952Y-108630159D01*
X268836066Y-108641066D01*
X268825159Y-108650952D01*
X268813336Y-108659720D01*
X268800710Y-108667288D01*
X268787403Y-108673582D01*
X268773543Y-108678541D01*
X268759264Y-108682118D01*
X268744703Y-108684278D01*
X268730000Y-108685000D01*
X268430000Y-108685000D01*
X268415297Y-108684278D01*
X268400736Y-108682118D01*
X268386457Y-108678541D01*
X268372597Y-108673582D01*
X268359290Y-108667288D01*
X268346664Y-108659720D01*
X268334841Y-108650952D01*
X268323934Y-108641066D01*
X268314048Y-108630159D01*
X268305280Y-108618336D01*
X268297712Y-108605710D01*
X268291418Y-108592403D01*
X268286459Y-108578543D01*
X268282882Y-108564264D01*
X268280722Y-108549703D01*
X268280000Y-108535000D01*
X268280000Y-106785000D01*
X268280722Y-106770297D01*
X268282882Y-106755736D01*
X268286459Y-106741457D01*
X268291418Y-106727597D01*
X268297712Y-106714290D01*
X268305280Y-106701664D01*
X268314048Y-106689841D01*
X268323934Y-106678934D01*
X268334841Y-106669048D01*
X268346664Y-106660280D01*
X268359290Y-106652712D01*
X268372597Y-106646418D01*
X268386457Y-106641459D01*
X268400736Y-106637882D01*
X268415297Y-106635722D01*
X268430000Y-106635000D01*
X268730000Y-106635000D01*
X268744703Y-106635722D01*
G37*
G36*
X267474703Y-106635722D02*
G01*
X267489264Y-106637882D01*
X267503543Y-106641459D01*
X267517403Y-106646418D01*
X267530710Y-106652712D01*
X267543336Y-106660280D01*
X267555159Y-106669048D01*
X267566066Y-106678934D01*
X267575952Y-106689841D01*
X267584720Y-106701664D01*
X267592288Y-106714290D01*
X267598582Y-106727597D01*
X267603541Y-106741457D01*
X267607118Y-106755736D01*
X267609278Y-106770297D01*
X267610000Y-106785000D01*
X267610000Y-108535000D01*
X267609278Y-108549703D01*
X267607118Y-108564264D01*
X267603541Y-108578543D01*
X267598582Y-108592403D01*
X267592288Y-108605710D01*
X267584720Y-108618336D01*
X267575952Y-108630159D01*
X267566066Y-108641066D01*
X267555159Y-108650952D01*
X267543336Y-108659720D01*
X267530710Y-108667288D01*
X267517403Y-108673582D01*
X267503543Y-108678541D01*
X267489264Y-108682118D01*
X267474703Y-108684278D01*
X267460000Y-108685000D01*
X267160000Y-108685000D01*
X267145297Y-108684278D01*
X267130736Y-108682118D01*
X267116457Y-108678541D01*
X267102597Y-108673582D01*
X267089290Y-108667288D01*
X267076664Y-108659720D01*
X267064841Y-108650952D01*
X267053934Y-108641066D01*
X267044048Y-108630159D01*
X267035280Y-108618336D01*
X267027712Y-108605710D01*
X267021418Y-108592403D01*
X267016459Y-108578543D01*
X267012882Y-108564264D01*
X267010722Y-108549703D01*
X267010000Y-108535000D01*
X267010000Y-106785000D01*
X267010722Y-106770297D01*
X267012882Y-106755736D01*
X267016459Y-106741457D01*
X267021418Y-106727597D01*
X267027712Y-106714290D01*
X267035280Y-106701664D01*
X267044048Y-106689841D01*
X267053934Y-106678934D01*
X267064841Y-106669048D01*
X267076664Y-106660280D01*
X267089290Y-106652712D01*
X267102597Y-106646418D01*
X267116457Y-106641459D01*
X267130736Y-106637882D01*
X267145297Y-106635722D01*
X267160000Y-106635000D01*
X267460000Y-106635000D01*
X267474703Y-106635722D01*
G37*
G36*
X266204703Y-106635722D02*
G01*
X266219264Y-106637882D01*
X266233543Y-106641459D01*
X266247403Y-106646418D01*
X266260710Y-106652712D01*
X266273336Y-106660280D01*
X266285159Y-106669048D01*
X266296066Y-106678934D01*
X266305952Y-106689841D01*
X266314720Y-106701664D01*
X266322288Y-106714290D01*
X266328582Y-106727597D01*
X266333541Y-106741457D01*
X266337118Y-106755736D01*
X266339278Y-106770297D01*
X266340000Y-106785000D01*
X266340000Y-108535000D01*
X266339278Y-108549703D01*
X266337118Y-108564264D01*
X266333541Y-108578543D01*
X266328582Y-108592403D01*
X266322288Y-108605710D01*
X266314720Y-108618336D01*
X266305952Y-108630159D01*
X266296066Y-108641066D01*
X266285159Y-108650952D01*
X266273336Y-108659720D01*
X266260710Y-108667288D01*
X266247403Y-108673582D01*
X266233543Y-108678541D01*
X266219264Y-108682118D01*
X266204703Y-108684278D01*
X266190000Y-108685000D01*
X265890000Y-108685000D01*
X265875297Y-108684278D01*
X265860736Y-108682118D01*
X265846457Y-108678541D01*
X265832597Y-108673582D01*
X265819290Y-108667288D01*
X265806664Y-108659720D01*
X265794841Y-108650952D01*
X265783934Y-108641066D01*
X265774048Y-108630159D01*
X265765280Y-108618336D01*
X265757712Y-108605710D01*
X265751418Y-108592403D01*
X265746459Y-108578543D01*
X265742882Y-108564264D01*
X265740722Y-108549703D01*
X265740000Y-108535000D01*
X265740000Y-106785000D01*
X265740722Y-106770297D01*
X265742882Y-106755736D01*
X265746459Y-106741457D01*
X265751418Y-106727597D01*
X265757712Y-106714290D01*
X265765280Y-106701664D01*
X265774048Y-106689841D01*
X265783934Y-106678934D01*
X265794841Y-106669048D01*
X265806664Y-106660280D01*
X265819290Y-106652712D01*
X265832597Y-106646418D01*
X265846457Y-106641459D01*
X265860736Y-106637882D01*
X265875297Y-106635722D01*
X265890000Y-106635000D01*
X266190000Y-106635000D01*
X266204703Y-106635722D01*
G37*
G36*
X225809779Y-103044144D02*
G01*
X225832834Y-103047563D01*
X225855443Y-103053227D01*
X225877387Y-103061079D01*
X225898457Y-103071044D01*
X225918448Y-103083026D01*
X225937168Y-103096910D01*
X225954438Y-103112562D01*
X225970090Y-103129832D01*
X225983974Y-103148552D01*
X225995956Y-103168543D01*
X226005921Y-103189613D01*
X226013773Y-103211557D01*
X226019437Y-103234166D01*
X226022856Y-103257221D01*
X226024000Y-103280500D01*
X226024000Y-103755500D01*
X226022856Y-103778779D01*
X226019437Y-103801834D01*
X226013773Y-103824443D01*
X226005921Y-103846387D01*
X225995956Y-103867457D01*
X225983974Y-103887448D01*
X225970090Y-103906168D01*
X225954438Y-103923438D01*
X225937168Y-103939090D01*
X225918448Y-103952974D01*
X225898457Y-103964956D01*
X225877387Y-103974921D01*
X225855443Y-103982773D01*
X225832834Y-103988437D01*
X225809779Y-103991856D01*
X225786500Y-103993000D01*
X225211500Y-103993000D01*
X225188221Y-103991856D01*
X225165166Y-103988437D01*
X225142557Y-103982773D01*
X225120613Y-103974921D01*
X225099543Y-103964956D01*
X225079552Y-103952974D01*
X225060832Y-103939090D01*
X225043562Y-103923438D01*
X225027910Y-103906168D01*
X225014026Y-103887448D01*
X225002044Y-103867457D01*
X224992079Y-103846387D01*
X224984227Y-103824443D01*
X224978563Y-103801834D01*
X224975144Y-103778779D01*
X224974000Y-103755500D01*
X224974000Y-103280500D01*
X224975144Y-103257221D01*
X224978563Y-103234166D01*
X224984227Y-103211557D01*
X224992079Y-103189613D01*
X225002044Y-103168543D01*
X225014026Y-103148552D01*
X225027910Y-103129832D01*
X225043562Y-103112562D01*
X225060832Y-103096910D01*
X225079552Y-103083026D01*
X225099543Y-103071044D01*
X225120613Y-103061079D01*
X225142557Y-103053227D01*
X225165166Y-103047563D01*
X225188221Y-103044144D01*
X225211500Y-103043000D01*
X225786500Y-103043000D01*
X225809779Y-103044144D01*
G37*
G36*
X224059779Y-103044144D02*
G01*
X224082834Y-103047563D01*
X224105443Y-103053227D01*
X224127387Y-103061079D01*
X224148457Y-103071044D01*
X224168448Y-103083026D01*
X224187168Y-103096910D01*
X224204438Y-103112562D01*
X224220090Y-103129832D01*
X224233974Y-103148552D01*
X224245956Y-103168543D01*
X224255921Y-103189613D01*
X224263773Y-103211557D01*
X224269437Y-103234166D01*
X224272856Y-103257221D01*
X224274000Y-103280500D01*
X224274000Y-103755500D01*
X224272856Y-103778779D01*
X224269437Y-103801834D01*
X224263773Y-103824443D01*
X224255921Y-103846387D01*
X224245956Y-103867457D01*
X224233974Y-103887448D01*
X224220090Y-103906168D01*
X224204438Y-103923438D01*
X224187168Y-103939090D01*
X224168448Y-103952974D01*
X224148457Y-103964956D01*
X224127387Y-103974921D01*
X224105443Y-103982773D01*
X224082834Y-103988437D01*
X224059779Y-103991856D01*
X224036500Y-103993000D01*
X223461500Y-103993000D01*
X223438221Y-103991856D01*
X223415166Y-103988437D01*
X223392557Y-103982773D01*
X223370613Y-103974921D01*
X223349543Y-103964956D01*
X223329552Y-103952974D01*
X223310832Y-103939090D01*
X223293562Y-103923438D01*
X223277910Y-103906168D01*
X223264026Y-103887448D01*
X223252044Y-103867457D01*
X223242079Y-103846387D01*
X223234227Y-103824443D01*
X223228563Y-103801834D01*
X223225144Y-103778779D01*
X223224000Y-103755500D01*
X223224000Y-103280500D01*
X223225144Y-103257221D01*
X223228563Y-103234166D01*
X223234227Y-103211557D01*
X223242079Y-103189613D01*
X223252044Y-103168543D01*
X223264026Y-103148552D01*
X223277910Y-103129832D01*
X223293562Y-103112562D01*
X223310832Y-103096910D01*
X223329552Y-103083026D01*
X223349543Y-103071044D01*
X223370613Y-103061079D01*
X223392557Y-103053227D01*
X223415166Y-103047563D01*
X223438221Y-103044144D01*
X223461500Y-103043000D01*
X224036500Y-103043000D01*
X224059779Y-103044144D01*
G37*
G36*
X224059779Y-101520144D02*
G01*
X224082834Y-101523563D01*
X224105443Y-101529227D01*
X224127387Y-101537079D01*
X224148457Y-101547044D01*
X224168448Y-101559026D01*
X224187168Y-101572910D01*
X224204438Y-101588562D01*
X224220090Y-101605832D01*
X224233974Y-101624552D01*
X224245956Y-101644543D01*
X224255921Y-101665613D01*
X224263773Y-101687557D01*
X224269437Y-101710166D01*
X224272856Y-101733221D01*
X224274000Y-101756500D01*
X224274000Y-102231500D01*
X224272856Y-102254779D01*
X224269437Y-102277834D01*
X224263773Y-102300443D01*
X224255921Y-102322387D01*
X224245956Y-102343457D01*
X224233974Y-102363448D01*
X224220090Y-102382168D01*
X224204438Y-102399438D01*
X224187168Y-102415090D01*
X224168448Y-102428974D01*
X224148457Y-102440956D01*
X224127387Y-102450921D01*
X224105443Y-102458773D01*
X224082834Y-102464437D01*
X224059779Y-102467856D01*
X224036500Y-102469000D01*
X223461500Y-102469000D01*
X223438221Y-102467856D01*
X223415166Y-102464437D01*
X223392557Y-102458773D01*
X223370613Y-102450921D01*
X223349543Y-102440956D01*
X223329552Y-102428974D01*
X223310832Y-102415090D01*
X223293562Y-102399438D01*
X223277910Y-102382168D01*
X223264026Y-102363448D01*
X223252044Y-102343457D01*
X223242079Y-102322387D01*
X223234227Y-102300443D01*
X223228563Y-102277834D01*
X223225144Y-102254779D01*
X223224000Y-102231500D01*
X223224000Y-101756500D01*
X223225144Y-101733221D01*
X223228563Y-101710166D01*
X223234227Y-101687557D01*
X223242079Y-101665613D01*
X223252044Y-101644543D01*
X223264026Y-101624552D01*
X223277910Y-101605832D01*
X223293562Y-101588562D01*
X223310832Y-101572910D01*
X223329552Y-101559026D01*
X223349543Y-101547044D01*
X223370613Y-101537079D01*
X223392557Y-101529227D01*
X223415166Y-101523563D01*
X223438221Y-101520144D01*
X223461500Y-101519000D01*
X224036500Y-101519000D01*
X224059779Y-101520144D01*
G37*
G36*
X225809779Y-101520144D02*
G01*
X225832834Y-101523563D01*
X225855443Y-101529227D01*
X225877387Y-101537079D01*
X225898457Y-101547044D01*
X225918448Y-101559026D01*
X225937168Y-101572910D01*
X225954438Y-101588562D01*
X225970090Y-101605832D01*
X225983974Y-101624552D01*
X225995956Y-101644543D01*
X226005921Y-101665613D01*
X226013773Y-101687557D01*
X226019437Y-101710166D01*
X226022856Y-101733221D01*
X226024000Y-101756500D01*
X226024000Y-102231500D01*
X226022856Y-102254779D01*
X226019437Y-102277834D01*
X226013773Y-102300443D01*
X226005921Y-102322387D01*
X225995956Y-102343457D01*
X225983974Y-102363448D01*
X225970090Y-102382168D01*
X225954438Y-102399438D01*
X225937168Y-102415090D01*
X225918448Y-102428974D01*
X225898457Y-102440956D01*
X225877387Y-102450921D01*
X225855443Y-102458773D01*
X225832834Y-102464437D01*
X225809779Y-102467856D01*
X225786500Y-102469000D01*
X225211500Y-102469000D01*
X225188221Y-102467856D01*
X225165166Y-102464437D01*
X225142557Y-102458773D01*
X225120613Y-102450921D01*
X225099543Y-102440956D01*
X225079552Y-102428974D01*
X225060832Y-102415090D01*
X225043562Y-102399438D01*
X225027910Y-102382168D01*
X225014026Y-102363448D01*
X225002044Y-102343457D01*
X224992079Y-102322387D01*
X224984227Y-102300443D01*
X224978563Y-102277834D01*
X224975144Y-102254779D01*
X224974000Y-102231500D01*
X224974000Y-101756500D01*
X224975144Y-101733221D01*
X224978563Y-101710166D01*
X224984227Y-101687557D01*
X224992079Y-101665613D01*
X225002044Y-101644543D01*
X225014026Y-101624552D01*
X225027910Y-101605832D01*
X225043562Y-101588562D01*
X225060832Y-101572910D01*
X225079552Y-101559026D01*
X225099543Y-101547044D01*
X225120613Y-101537079D01*
X225142557Y-101529227D01*
X225165166Y-101523563D01*
X225188221Y-101520144D01*
X225211500Y-101519000D01*
X225786500Y-101519000D01*
X225809779Y-101520144D01*
G37*
G36*
X273490779Y-110029144D02*
G01*
X273513834Y-110032563D01*
X273536443Y-110038227D01*
X273558387Y-110046079D01*
X273579457Y-110056044D01*
X273599448Y-110068026D01*
X273618168Y-110081910D01*
X273635438Y-110097562D01*
X273651090Y-110114832D01*
X273664974Y-110133552D01*
X273676956Y-110153543D01*
X273686921Y-110174613D01*
X273694773Y-110196557D01*
X273700437Y-110219166D01*
X273703856Y-110242221D01*
X273705000Y-110265500D01*
X273705000Y-110740500D01*
X273703856Y-110763779D01*
X273700437Y-110786834D01*
X273694773Y-110809443D01*
X273686921Y-110831387D01*
X273676956Y-110852457D01*
X273664974Y-110872448D01*
X273651090Y-110891168D01*
X273635438Y-110908438D01*
X273618168Y-110924090D01*
X273599448Y-110937974D01*
X273579457Y-110949956D01*
X273558387Y-110959921D01*
X273536443Y-110967773D01*
X273513834Y-110973437D01*
X273490779Y-110976856D01*
X273467500Y-110978000D01*
X272892500Y-110978000D01*
X272869221Y-110976856D01*
X272846166Y-110973437D01*
X272823557Y-110967773D01*
X272801613Y-110959921D01*
X272780543Y-110949956D01*
X272760552Y-110937974D01*
X272741832Y-110924090D01*
X272724562Y-110908438D01*
X272708910Y-110891168D01*
X272695026Y-110872448D01*
X272683044Y-110852457D01*
X272673079Y-110831387D01*
X272665227Y-110809443D01*
X272659563Y-110786834D01*
X272656144Y-110763779D01*
X272655000Y-110740500D01*
X272655000Y-110265500D01*
X272656144Y-110242221D01*
X272659563Y-110219166D01*
X272665227Y-110196557D01*
X272673079Y-110174613D01*
X272683044Y-110153543D01*
X272695026Y-110133552D01*
X272708910Y-110114832D01*
X272724562Y-110097562D01*
X272741832Y-110081910D01*
X272760552Y-110068026D01*
X272780543Y-110056044D01*
X272801613Y-110046079D01*
X272823557Y-110038227D01*
X272846166Y-110032563D01*
X272869221Y-110029144D01*
X272892500Y-110028000D01*
X273467500Y-110028000D01*
X273490779Y-110029144D01*
G37*
G36*
X275240779Y-110029144D02*
G01*
X275263834Y-110032563D01*
X275286443Y-110038227D01*
X275308387Y-110046079D01*
X275329457Y-110056044D01*
X275349448Y-110068026D01*
X275368168Y-110081910D01*
X275385438Y-110097562D01*
X275401090Y-110114832D01*
X275414974Y-110133552D01*
X275426956Y-110153543D01*
X275436921Y-110174613D01*
X275444773Y-110196557D01*
X275450437Y-110219166D01*
X275453856Y-110242221D01*
X275455000Y-110265500D01*
X275455000Y-110740500D01*
X275453856Y-110763779D01*
X275450437Y-110786834D01*
X275444773Y-110809443D01*
X275436921Y-110831387D01*
X275426956Y-110852457D01*
X275414974Y-110872448D01*
X275401090Y-110891168D01*
X275385438Y-110908438D01*
X275368168Y-110924090D01*
X275349448Y-110937974D01*
X275329457Y-110949956D01*
X275308387Y-110959921D01*
X275286443Y-110967773D01*
X275263834Y-110973437D01*
X275240779Y-110976856D01*
X275217500Y-110978000D01*
X274642500Y-110978000D01*
X274619221Y-110976856D01*
X274596166Y-110973437D01*
X274573557Y-110967773D01*
X274551613Y-110959921D01*
X274530543Y-110949956D01*
X274510552Y-110937974D01*
X274491832Y-110924090D01*
X274474562Y-110908438D01*
X274458910Y-110891168D01*
X274445026Y-110872448D01*
X274433044Y-110852457D01*
X274423079Y-110831387D01*
X274415227Y-110809443D01*
X274409563Y-110786834D01*
X274406144Y-110763779D01*
X274405000Y-110740500D01*
X274405000Y-110265500D01*
X274406144Y-110242221D01*
X274409563Y-110219166D01*
X274415227Y-110196557D01*
X274423079Y-110174613D01*
X274433044Y-110153543D01*
X274445026Y-110133552D01*
X274458910Y-110114832D01*
X274474562Y-110097562D01*
X274491832Y-110081910D01*
X274510552Y-110068026D01*
X274530543Y-110056044D01*
X274551613Y-110046079D01*
X274573557Y-110038227D01*
X274596166Y-110032563D01*
X274619221Y-110029144D01*
X274642500Y-110028000D01*
X275217500Y-110028000D01*
X275240779Y-110029144D01*
G37*
D11*
X278613000Y-121044000D03*
D12*
X278613000Y-113144000D03*
X278613000Y-128944000D03*
D13*
X208370000Y-98770000D03*
D14*
X208370000Y-96230000D03*
X210910000Y-98770000D03*
X210910000Y-96230000D03*
X213450000Y-98770000D03*
X213450000Y-96230000D03*
X215990000Y-98770000D03*
X215990000Y-96230000D03*
X218530000Y-98770000D03*
X218530000Y-96230000D03*
X221070000Y-98770000D03*
X221070000Y-96230000D03*
X223610000Y-98770000D03*
X223610000Y-96230000D03*
X226150000Y-98770000D03*
X226150000Y-96230000D03*
X228690000Y-98770000D03*
X228690000Y-96230000D03*
X231230000Y-98770000D03*
X231230000Y-96230000D03*
X233770000Y-98770000D03*
X233770000Y-96230000D03*
X236310000Y-98770000D03*
X236310000Y-96230000D03*
X238850000Y-98770000D03*
X238850000Y-96230000D03*
X241390000Y-98770000D03*
X241390000Y-96230000D03*
X243930000Y-98770000D03*
X243930000Y-96230000D03*
X246470000Y-98770000D03*
X246470000Y-96230000D03*
X249010000Y-98770000D03*
X249010000Y-96230000D03*
X251550000Y-98770000D03*
X251550000Y-96230000D03*
X254090000Y-98770000D03*
X254090000Y-96230000D03*
X256630000Y-98770000D03*
X256630000Y-96230000D03*
D15*
X253467000Y-146444000D03*
X249657000Y-146444000D03*
X245847000Y-146444000D03*
X242037000Y-146444000D03*
X238227000Y-146444000D03*
X234417000Y-146444000D03*
X230607000Y-146444000D03*
X226797000Y-146444000D03*
X222987000Y-146444000D03*
X219177000Y-146444000D03*
X215367000Y-146444000D03*
D10*
G36*
X212231504Y-144645204D02*
G01*
X212255773Y-144648804D01*
X212279571Y-144654765D01*
X212302671Y-144663030D01*
X212324849Y-144673520D01*
X212345893Y-144686133D01*
X212365598Y-144700747D01*
X212383777Y-144717223D01*
X212400253Y-144735402D01*
X212414867Y-144755107D01*
X212427480Y-144776151D01*
X212437970Y-144798329D01*
X212446235Y-144821429D01*
X212452196Y-144845227D01*
X212455796Y-144869496D01*
X212457000Y-144894000D01*
X212457000Y-147994000D01*
X212455796Y-148018504D01*
X212452196Y-148042773D01*
X212446235Y-148066571D01*
X212437970Y-148089671D01*
X212427480Y-148111849D01*
X212414867Y-148132893D01*
X212400253Y-148152598D01*
X212383777Y-148170777D01*
X212365598Y-148187253D01*
X212345893Y-148201867D01*
X212324849Y-148214480D01*
X212302671Y-148224970D01*
X212279571Y-148233235D01*
X212255773Y-148239196D01*
X212231504Y-148242796D01*
X212207000Y-148244000D01*
X210907000Y-148244000D01*
X210882496Y-148242796D01*
X210858227Y-148239196D01*
X210834429Y-148233235D01*
X210811329Y-148224970D01*
X210789151Y-148214480D01*
X210768107Y-148201867D01*
X210748402Y-148187253D01*
X210730223Y-148170777D01*
X210713747Y-148152598D01*
X210699133Y-148132893D01*
X210686520Y-148111849D01*
X210676030Y-148089671D01*
X210667765Y-148066571D01*
X210661804Y-148042773D01*
X210658204Y-148018504D01*
X210657000Y-147994000D01*
X210657000Y-144894000D01*
X210658204Y-144869496D01*
X210661804Y-144845227D01*
X210667765Y-144821429D01*
X210676030Y-144798329D01*
X210686520Y-144776151D01*
X210699133Y-144755107D01*
X210713747Y-144735402D01*
X210730223Y-144717223D01*
X210748402Y-144700747D01*
X210768107Y-144686133D01*
X210789151Y-144673520D01*
X210811329Y-144663030D01*
X210834429Y-144654765D01*
X210858227Y-144648804D01*
X210882496Y-144645204D01*
X210907000Y-144644000D01*
X212207000Y-144644000D01*
X212231504Y-144645204D01*
G37*
D16*
X223622000Y-139332000D03*
D17*
X223622000Y-135522000D03*
D10*
G36*
X276659703Y-132555722D02*
G01*
X276674264Y-132557882D01*
X276688543Y-132561459D01*
X276702403Y-132566418D01*
X276715710Y-132572712D01*
X276728336Y-132580280D01*
X276740159Y-132589048D01*
X276751066Y-132598934D01*
X276760952Y-132609841D01*
X276769720Y-132621664D01*
X276777288Y-132634290D01*
X276783582Y-132647597D01*
X276788541Y-132661457D01*
X276792118Y-132675736D01*
X276794278Y-132690297D01*
X276795000Y-132705000D01*
X276795000Y-133005000D01*
X276794278Y-133019703D01*
X276792118Y-133034264D01*
X276788541Y-133048543D01*
X276783582Y-133062403D01*
X276777288Y-133075710D01*
X276769720Y-133088336D01*
X276760952Y-133100159D01*
X276751066Y-133111066D01*
X276740159Y-133120952D01*
X276728336Y-133129720D01*
X276715710Y-133137288D01*
X276702403Y-133143582D01*
X276688543Y-133148541D01*
X276674264Y-133152118D01*
X276659703Y-133154278D01*
X276645000Y-133155000D01*
X274895000Y-133155000D01*
X274880297Y-133154278D01*
X274865736Y-133152118D01*
X274851457Y-133148541D01*
X274837597Y-133143582D01*
X274824290Y-133137288D01*
X274811664Y-133129720D01*
X274799841Y-133120952D01*
X274788934Y-133111066D01*
X274779048Y-133100159D01*
X274770280Y-133088336D01*
X274762712Y-133075710D01*
X274756418Y-133062403D01*
X274751459Y-133048543D01*
X274747882Y-133034264D01*
X274745722Y-133019703D01*
X274745000Y-133005000D01*
X274745000Y-132705000D01*
X274745722Y-132690297D01*
X274747882Y-132675736D01*
X274751459Y-132661457D01*
X274756418Y-132647597D01*
X274762712Y-132634290D01*
X274770280Y-132621664D01*
X274779048Y-132609841D01*
X274788934Y-132598934D01*
X274799841Y-132589048D01*
X274811664Y-132580280D01*
X274824290Y-132572712D01*
X274837597Y-132566418D01*
X274851457Y-132561459D01*
X274865736Y-132557882D01*
X274880297Y-132555722D01*
X274895000Y-132555000D01*
X276645000Y-132555000D01*
X276659703Y-132555722D01*
G37*
G36*
X276659703Y-133825722D02*
G01*
X276674264Y-133827882D01*
X276688543Y-133831459D01*
X276702403Y-133836418D01*
X276715710Y-133842712D01*
X276728336Y-133850280D01*
X276740159Y-133859048D01*
X276751066Y-133868934D01*
X276760952Y-133879841D01*
X276769720Y-133891664D01*
X276777288Y-133904290D01*
X276783582Y-133917597D01*
X276788541Y-133931457D01*
X276792118Y-133945736D01*
X276794278Y-133960297D01*
X276795000Y-133975000D01*
X276795000Y-134275000D01*
X276794278Y-134289703D01*
X276792118Y-134304264D01*
X276788541Y-134318543D01*
X276783582Y-134332403D01*
X276777288Y-134345710D01*
X276769720Y-134358336D01*
X276760952Y-134370159D01*
X276751066Y-134381066D01*
X276740159Y-134390952D01*
X276728336Y-134399720D01*
X276715710Y-134407288D01*
X276702403Y-134413582D01*
X276688543Y-134418541D01*
X276674264Y-134422118D01*
X276659703Y-134424278D01*
X276645000Y-134425000D01*
X274895000Y-134425000D01*
X274880297Y-134424278D01*
X274865736Y-134422118D01*
X274851457Y-134418541D01*
X274837597Y-134413582D01*
X274824290Y-134407288D01*
X274811664Y-134399720D01*
X274799841Y-134390952D01*
X274788934Y-134381066D01*
X274779048Y-134370159D01*
X274770280Y-134358336D01*
X274762712Y-134345710D01*
X274756418Y-134332403D01*
X274751459Y-134318543D01*
X274747882Y-134304264D01*
X274745722Y-134289703D01*
X274745000Y-134275000D01*
X274745000Y-133975000D01*
X274745722Y-133960297D01*
X274747882Y-133945736D01*
X274751459Y-133931457D01*
X274756418Y-133917597D01*
X274762712Y-133904290D01*
X274770280Y-133891664D01*
X274779048Y-133879841D01*
X274788934Y-133868934D01*
X274799841Y-133859048D01*
X274811664Y-133850280D01*
X274824290Y-133842712D01*
X274837597Y-133836418D01*
X274851457Y-133831459D01*
X274865736Y-133827882D01*
X274880297Y-133825722D01*
X274895000Y-133825000D01*
X276645000Y-133825000D01*
X276659703Y-133825722D01*
G37*
G36*
X276659703Y-135095722D02*
G01*
X276674264Y-135097882D01*
X276688543Y-135101459D01*
X276702403Y-135106418D01*
X276715710Y-135112712D01*
X276728336Y-135120280D01*
X276740159Y-135129048D01*
X276751066Y-135138934D01*
X276760952Y-135149841D01*
X276769720Y-135161664D01*
X276777288Y-135174290D01*
X276783582Y-135187597D01*
X276788541Y-135201457D01*
X276792118Y-135215736D01*
X276794278Y-135230297D01*
X276795000Y-135245000D01*
X276795000Y-135545000D01*
X276794278Y-135559703D01*
X276792118Y-135574264D01*
X276788541Y-135588543D01*
X276783582Y-135602403D01*
X276777288Y-135615710D01*
X276769720Y-135628336D01*
X276760952Y-135640159D01*
X276751066Y-135651066D01*
X276740159Y-135660952D01*
X276728336Y-135669720D01*
X276715710Y-135677288D01*
X276702403Y-135683582D01*
X276688543Y-135688541D01*
X276674264Y-135692118D01*
X276659703Y-135694278D01*
X276645000Y-135695000D01*
X274895000Y-135695000D01*
X274880297Y-135694278D01*
X274865736Y-135692118D01*
X274851457Y-135688541D01*
X274837597Y-135683582D01*
X274824290Y-135677288D01*
X274811664Y-135669720D01*
X274799841Y-135660952D01*
X274788934Y-135651066D01*
X274779048Y-135640159D01*
X274770280Y-135628336D01*
X274762712Y-135615710D01*
X274756418Y-135602403D01*
X274751459Y-135588543D01*
X274747882Y-135574264D01*
X274745722Y-135559703D01*
X274745000Y-135545000D01*
X274745000Y-135245000D01*
X274745722Y-135230297D01*
X274747882Y-135215736D01*
X274751459Y-135201457D01*
X274756418Y-135187597D01*
X274762712Y-135174290D01*
X274770280Y-135161664D01*
X274779048Y-135149841D01*
X274788934Y-135138934D01*
X274799841Y-135129048D01*
X274811664Y-135120280D01*
X274824290Y-135112712D01*
X274837597Y-135106418D01*
X274851457Y-135101459D01*
X274865736Y-135097882D01*
X274880297Y-135095722D01*
X274895000Y-135095000D01*
X276645000Y-135095000D01*
X276659703Y-135095722D01*
G37*
G36*
X276659703Y-136365722D02*
G01*
X276674264Y-136367882D01*
X276688543Y-136371459D01*
X276702403Y-136376418D01*
X276715710Y-136382712D01*
X276728336Y-136390280D01*
X276740159Y-136399048D01*
X276751066Y-136408934D01*
X276760952Y-136419841D01*
X276769720Y-136431664D01*
X276777288Y-136444290D01*
X276783582Y-136457597D01*
X276788541Y-136471457D01*
X276792118Y-136485736D01*
X276794278Y-136500297D01*
X276795000Y-136515000D01*
X276795000Y-136815000D01*
X276794278Y-136829703D01*
X276792118Y-136844264D01*
X276788541Y-136858543D01*
X276783582Y-136872403D01*
X276777288Y-136885710D01*
X276769720Y-136898336D01*
X276760952Y-136910159D01*
X276751066Y-136921066D01*
X276740159Y-136930952D01*
X276728336Y-136939720D01*
X276715710Y-136947288D01*
X276702403Y-136953582D01*
X276688543Y-136958541D01*
X276674264Y-136962118D01*
X276659703Y-136964278D01*
X276645000Y-136965000D01*
X274895000Y-136965000D01*
X274880297Y-136964278D01*
X274865736Y-136962118D01*
X274851457Y-136958541D01*
X274837597Y-136953582D01*
X274824290Y-136947288D01*
X274811664Y-136939720D01*
X274799841Y-136930952D01*
X274788934Y-136921066D01*
X274779048Y-136910159D01*
X274770280Y-136898336D01*
X274762712Y-136885710D01*
X274756418Y-136872403D01*
X274751459Y-136858543D01*
X274747882Y-136844264D01*
X274745722Y-136829703D01*
X274745000Y-136815000D01*
X274745000Y-136515000D01*
X274745722Y-136500297D01*
X274747882Y-136485736D01*
X274751459Y-136471457D01*
X274756418Y-136457597D01*
X274762712Y-136444290D01*
X274770280Y-136431664D01*
X274779048Y-136419841D01*
X274788934Y-136408934D01*
X274799841Y-136399048D01*
X274811664Y-136390280D01*
X274824290Y-136382712D01*
X274837597Y-136376418D01*
X274851457Y-136371459D01*
X274865736Y-136367882D01*
X274880297Y-136365722D01*
X274895000Y-136365000D01*
X276645000Y-136365000D01*
X276659703Y-136365722D01*
G37*
G36*
X276659703Y-137635722D02*
G01*
X276674264Y-137637882D01*
X276688543Y-137641459D01*
X276702403Y-137646418D01*
X276715710Y-137652712D01*
X276728336Y-137660280D01*
X276740159Y-137669048D01*
X276751066Y-137678934D01*
X276760952Y-137689841D01*
X276769720Y-137701664D01*
X276777288Y-137714290D01*
X276783582Y-137727597D01*
X276788541Y-137741457D01*
X276792118Y-137755736D01*
X276794278Y-137770297D01*
X276795000Y-137785000D01*
X276795000Y-138085000D01*
X276794278Y-138099703D01*
X276792118Y-138114264D01*
X276788541Y-138128543D01*
X276783582Y-138142403D01*
X276777288Y-138155710D01*
X276769720Y-138168336D01*
X276760952Y-138180159D01*
X276751066Y-138191066D01*
X276740159Y-138200952D01*
X276728336Y-138209720D01*
X276715710Y-138217288D01*
X276702403Y-138223582D01*
X276688543Y-138228541D01*
X276674264Y-138232118D01*
X276659703Y-138234278D01*
X276645000Y-138235000D01*
X274895000Y-138235000D01*
X274880297Y-138234278D01*
X274865736Y-138232118D01*
X274851457Y-138228541D01*
X274837597Y-138223582D01*
X274824290Y-138217288D01*
X274811664Y-138209720D01*
X274799841Y-138200952D01*
X274788934Y-138191066D01*
X274779048Y-138180159D01*
X274770280Y-138168336D01*
X274762712Y-138155710D01*
X274756418Y-138142403D01*
X274751459Y-138128543D01*
X274747882Y-138114264D01*
X274745722Y-138099703D01*
X274745000Y-138085000D01*
X274745000Y-137785000D01*
X274745722Y-137770297D01*
X274747882Y-137755736D01*
X274751459Y-137741457D01*
X274756418Y-137727597D01*
X274762712Y-137714290D01*
X274770280Y-137701664D01*
X274779048Y-137689841D01*
X274788934Y-137678934D01*
X274799841Y-137669048D01*
X274811664Y-137660280D01*
X274824290Y-137652712D01*
X274837597Y-137646418D01*
X274851457Y-137641459D01*
X274865736Y-137637882D01*
X274880297Y-137635722D01*
X274895000Y-137635000D01*
X276645000Y-137635000D01*
X276659703Y-137635722D01*
G37*
G36*
X276659703Y-138905722D02*
G01*
X276674264Y-138907882D01*
X276688543Y-138911459D01*
X276702403Y-138916418D01*
X276715710Y-138922712D01*
X276728336Y-138930280D01*
X276740159Y-138939048D01*
X276751066Y-138948934D01*
X276760952Y-138959841D01*
X276769720Y-138971664D01*
X276777288Y-138984290D01*
X276783582Y-138997597D01*
X276788541Y-139011457D01*
X276792118Y-139025736D01*
X276794278Y-139040297D01*
X276795000Y-139055000D01*
X276795000Y-139355000D01*
X276794278Y-139369703D01*
X276792118Y-139384264D01*
X276788541Y-139398543D01*
X276783582Y-139412403D01*
X276777288Y-139425710D01*
X276769720Y-139438336D01*
X276760952Y-139450159D01*
X276751066Y-139461066D01*
X276740159Y-139470952D01*
X276728336Y-139479720D01*
X276715710Y-139487288D01*
X276702403Y-139493582D01*
X276688543Y-139498541D01*
X276674264Y-139502118D01*
X276659703Y-139504278D01*
X276645000Y-139505000D01*
X274895000Y-139505000D01*
X274880297Y-139504278D01*
X274865736Y-139502118D01*
X274851457Y-139498541D01*
X274837597Y-139493582D01*
X274824290Y-139487288D01*
X274811664Y-139479720D01*
X274799841Y-139470952D01*
X274788934Y-139461066D01*
X274779048Y-139450159D01*
X274770280Y-139438336D01*
X274762712Y-139425710D01*
X274756418Y-139412403D01*
X274751459Y-139398543D01*
X274747882Y-139384264D01*
X274745722Y-139369703D01*
X274745000Y-139355000D01*
X274745000Y-139055000D01*
X274745722Y-139040297D01*
X274747882Y-139025736D01*
X274751459Y-139011457D01*
X274756418Y-138997597D01*
X274762712Y-138984290D01*
X274770280Y-138971664D01*
X274779048Y-138959841D01*
X274788934Y-138948934D01*
X274799841Y-138939048D01*
X274811664Y-138930280D01*
X274824290Y-138922712D01*
X274837597Y-138916418D01*
X274851457Y-138911459D01*
X274865736Y-138907882D01*
X274880297Y-138905722D01*
X274895000Y-138905000D01*
X276645000Y-138905000D01*
X276659703Y-138905722D01*
G37*
G36*
X276659703Y-140175722D02*
G01*
X276674264Y-140177882D01*
X276688543Y-140181459D01*
X276702403Y-140186418D01*
X276715710Y-140192712D01*
X276728336Y-140200280D01*
X276740159Y-140209048D01*
X276751066Y-140218934D01*
X276760952Y-140229841D01*
X276769720Y-140241664D01*
X276777288Y-140254290D01*
X276783582Y-140267597D01*
X276788541Y-140281457D01*
X276792118Y-140295736D01*
X276794278Y-140310297D01*
X276795000Y-140325000D01*
X276795000Y-140625000D01*
X276794278Y-140639703D01*
X276792118Y-140654264D01*
X276788541Y-140668543D01*
X276783582Y-140682403D01*
X276777288Y-140695710D01*
X276769720Y-140708336D01*
X276760952Y-140720159D01*
X276751066Y-140731066D01*
X276740159Y-140740952D01*
X276728336Y-140749720D01*
X276715710Y-140757288D01*
X276702403Y-140763582D01*
X276688543Y-140768541D01*
X276674264Y-140772118D01*
X276659703Y-140774278D01*
X276645000Y-140775000D01*
X274895000Y-140775000D01*
X274880297Y-140774278D01*
X274865736Y-140772118D01*
X274851457Y-140768541D01*
X274837597Y-140763582D01*
X274824290Y-140757288D01*
X274811664Y-140749720D01*
X274799841Y-140740952D01*
X274788934Y-140731066D01*
X274779048Y-140720159D01*
X274770280Y-140708336D01*
X274762712Y-140695710D01*
X274756418Y-140682403D01*
X274751459Y-140668543D01*
X274747882Y-140654264D01*
X274745722Y-140639703D01*
X274745000Y-140625000D01*
X274745000Y-140325000D01*
X274745722Y-140310297D01*
X274747882Y-140295736D01*
X274751459Y-140281457D01*
X274756418Y-140267597D01*
X274762712Y-140254290D01*
X274770280Y-140241664D01*
X274779048Y-140229841D01*
X274788934Y-140218934D01*
X274799841Y-140209048D01*
X274811664Y-140200280D01*
X274824290Y-140192712D01*
X274837597Y-140186418D01*
X274851457Y-140181459D01*
X274865736Y-140177882D01*
X274880297Y-140175722D01*
X274895000Y-140175000D01*
X276645000Y-140175000D01*
X276659703Y-140175722D01*
G37*
G36*
X276659703Y-141445722D02*
G01*
X276674264Y-141447882D01*
X276688543Y-141451459D01*
X276702403Y-141456418D01*
X276715710Y-141462712D01*
X276728336Y-141470280D01*
X276740159Y-141479048D01*
X276751066Y-141488934D01*
X276760952Y-141499841D01*
X276769720Y-141511664D01*
X276777288Y-141524290D01*
X276783582Y-141537597D01*
X276788541Y-141551457D01*
X276792118Y-141565736D01*
X276794278Y-141580297D01*
X276795000Y-141595000D01*
X276795000Y-141895000D01*
X276794278Y-141909703D01*
X276792118Y-141924264D01*
X276788541Y-141938543D01*
X276783582Y-141952403D01*
X276777288Y-141965710D01*
X276769720Y-141978336D01*
X276760952Y-141990159D01*
X276751066Y-142001066D01*
X276740159Y-142010952D01*
X276728336Y-142019720D01*
X276715710Y-142027288D01*
X276702403Y-142033582D01*
X276688543Y-142038541D01*
X276674264Y-142042118D01*
X276659703Y-142044278D01*
X276645000Y-142045000D01*
X274895000Y-142045000D01*
X274880297Y-142044278D01*
X274865736Y-142042118D01*
X274851457Y-142038541D01*
X274837597Y-142033582D01*
X274824290Y-142027288D01*
X274811664Y-142019720D01*
X274799841Y-142010952D01*
X274788934Y-142001066D01*
X274779048Y-141990159D01*
X274770280Y-141978336D01*
X274762712Y-141965710D01*
X274756418Y-141952403D01*
X274751459Y-141938543D01*
X274747882Y-141924264D01*
X274745722Y-141909703D01*
X274745000Y-141895000D01*
X274745000Y-141595000D01*
X274745722Y-141580297D01*
X274747882Y-141565736D01*
X274751459Y-141551457D01*
X274756418Y-141537597D01*
X274762712Y-141524290D01*
X274770280Y-141511664D01*
X274779048Y-141499841D01*
X274788934Y-141488934D01*
X274799841Y-141479048D01*
X274811664Y-141470280D01*
X274824290Y-141462712D01*
X274837597Y-141456418D01*
X274851457Y-141451459D01*
X274865736Y-141447882D01*
X274880297Y-141445722D01*
X274895000Y-141445000D01*
X276645000Y-141445000D01*
X276659703Y-141445722D01*
G37*
G36*
X267359703Y-141445722D02*
G01*
X267374264Y-141447882D01*
X267388543Y-141451459D01*
X267402403Y-141456418D01*
X267415710Y-141462712D01*
X267428336Y-141470280D01*
X267440159Y-141479048D01*
X267451066Y-141488934D01*
X267460952Y-141499841D01*
X267469720Y-141511664D01*
X267477288Y-141524290D01*
X267483582Y-141537597D01*
X267488541Y-141551457D01*
X267492118Y-141565736D01*
X267494278Y-141580297D01*
X267495000Y-141595000D01*
X267495000Y-141895000D01*
X267494278Y-141909703D01*
X267492118Y-141924264D01*
X267488541Y-141938543D01*
X267483582Y-141952403D01*
X267477288Y-141965710D01*
X267469720Y-141978336D01*
X267460952Y-141990159D01*
X267451066Y-142001066D01*
X267440159Y-142010952D01*
X267428336Y-142019720D01*
X267415710Y-142027288D01*
X267402403Y-142033582D01*
X267388543Y-142038541D01*
X267374264Y-142042118D01*
X267359703Y-142044278D01*
X267345000Y-142045000D01*
X265595000Y-142045000D01*
X265580297Y-142044278D01*
X265565736Y-142042118D01*
X265551457Y-142038541D01*
X265537597Y-142033582D01*
X265524290Y-142027288D01*
X265511664Y-142019720D01*
X265499841Y-142010952D01*
X265488934Y-142001066D01*
X265479048Y-141990159D01*
X265470280Y-141978336D01*
X265462712Y-141965710D01*
X265456418Y-141952403D01*
X265451459Y-141938543D01*
X265447882Y-141924264D01*
X265445722Y-141909703D01*
X265445000Y-141895000D01*
X265445000Y-141595000D01*
X265445722Y-141580297D01*
X265447882Y-141565736D01*
X265451459Y-141551457D01*
X265456418Y-141537597D01*
X265462712Y-141524290D01*
X265470280Y-141511664D01*
X265479048Y-141499841D01*
X265488934Y-141488934D01*
X265499841Y-141479048D01*
X265511664Y-141470280D01*
X265524290Y-141462712D01*
X265537597Y-141456418D01*
X265551457Y-141451459D01*
X265565736Y-141447882D01*
X265580297Y-141445722D01*
X265595000Y-141445000D01*
X267345000Y-141445000D01*
X267359703Y-141445722D01*
G37*
G36*
X267359703Y-140175722D02*
G01*
X267374264Y-140177882D01*
X267388543Y-140181459D01*
X267402403Y-140186418D01*
X267415710Y-140192712D01*
X267428336Y-140200280D01*
X267440159Y-140209048D01*
X267451066Y-140218934D01*
X267460952Y-140229841D01*
X267469720Y-140241664D01*
X267477288Y-140254290D01*
X267483582Y-140267597D01*
X267488541Y-140281457D01*
X267492118Y-140295736D01*
X267494278Y-140310297D01*
X267495000Y-140325000D01*
X267495000Y-140625000D01*
X267494278Y-140639703D01*
X267492118Y-140654264D01*
X267488541Y-140668543D01*
X267483582Y-140682403D01*
X267477288Y-140695710D01*
X267469720Y-140708336D01*
X267460952Y-140720159D01*
X267451066Y-140731066D01*
X267440159Y-140740952D01*
X267428336Y-140749720D01*
X267415710Y-140757288D01*
X267402403Y-140763582D01*
X267388543Y-140768541D01*
X267374264Y-140772118D01*
X267359703Y-140774278D01*
X267345000Y-140775000D01*
X265595000Y-140775000D01*
X265580297Y-140774278D01*
X265565736Y-140772118D01*
X265551457Y-140768541D01*
X265537597Y-140763582D01*
X265524290Y-140757288D01*
X265511664Y-140749720D01*
X265499841Y-140740952D01*
X265488934Y-140731066D01*
X265479048Y-140720159D01*
X265470280Y-140708336D01*
X265462712Y-140695710D01*
X265456418Y-140682403D01*
X265451459Y-140668543D01*
X265447882Y-140654264D01*
X265445722Y-140639703D01*
X265445000Y-140625000D01*
X265445000Y-140325000D01*
X265445722Y-140310297D01*
X265447882Y-140295736D01*
X265451459Y-140281457D01*
X265456418Y-140267597D01*
X265462712Y-140254290D01*
X265470280Y-140241664D01*
X265479048Y-140229841D01*
X265488934Y-140218934D01*
X265499841Y-140209048D01*
X265511664Y-140200280D01*
X265524290Y-140192712D01*
X265537597Y-140186418D01*
X265551457Y-140181459D01*
X265565736Y-140177882D01*
X265580297Y-140175722D01*
X265595000Y-140175000D01*
X267345000Y-140175000D01*
X267359703Y-140175722D01*
G37*
G36*
X267359703Y-138905722D02*
G01*
X267374264Y-138907882D01*
X267388543Y-138911459D01*
X267402403Y-138916418D01*
X267415710Y-138922712D01*
X267428336Y-138930280D01*
X267440159Y-138939048D01*
X267451066Y-138948934D01*
X267460952Y-138959841D01*
X267469720Y-138971664D01*
X267477288Y-138984290D01*
X267483582Y-138997597D01*
X267488541Y-139011457D01*
X267492118Y-139025736D01*
X267494278Y-139040297D01*
X267495000Y-139055000D01*
X267495000Y-139355000D01*
X267494278Y-139369703D01*
X267492118Y-139384264D01*
X267488541Y-139398543D01*
X267483582Y-139412403D01*
X267477288Y-139425710D01*
X267469720Y-139438336D01*
X267460952Y-139450159D01*
X267451066Y-139461066D01*
X267440159Y-139470952D01*
X267428336Y-139479720D01*
X267415710Y-139487288D01*
X267402403Y-139493582D01*
X267388543Y-139498541D01*
X267374264Y-139502118D01*
X267359703Y-139504278D01*
X267345000Y-139505000D01*
X265595000Y-139505000D01*
X265580297Y-139504278D01*
X265565736Y-139502118D01*
X265551457Y-139498541D01*
X265537597Y-139493582D01*
X265524290Y-139487288D01*
X265511664Y-139479720D01*
X265499841Y-139470952D01*
X265488934Y-139461066D01*
X265479048Y-139450159D01*
X265470280Y-139438336D01*
X265462712Y-139425710D01*
X265456418Y-139412403D01*
X265451459Y-139398543D01*
X265447882Y-139384264D01*
X265445722Y-139369703D01*
X265445000Y-139355000D01*
X265445000Y-139055000D01*
X265445722Y-139040297D01*
X265447882Y-139025736D01*
X265451459Y-139011457D01*
X265456418Y-138997597D01*
X265462712Y-138984290D01*
X265470280Y-138971664D01*
X265479048Y-138959841D01*
X265488934Y-138948934D01*
X265499841Y-138939048D01*
X265511664Y-138930280D01*
X265524290Y-138922712D01*
X265537597Y-138916418D01*
X265551457Y-138911459D01*
X265565736Y-138907882D01*
X265580297Y-138905722D01*
X265595000Y-138905000D01*
X267345000Y-138905000D01*
X267359703Y-138905722D01*
G37*
G36*
X267359703Y-137635722D02*
G01*
X267374264Y-137637882D01*
X267388543Y-137641459D01*
X267402403Y-137646418D01*
X267415710Y-137652712D01*
X267428336Y-137660280D01*
X267440159Y-137669048D01*
X267451066Y-137678934D01*
X267460952Y-137689841D01*
X267469720Y-137701664D01*
X267477288Y-137714290D01*
X267483582Y-137727597D01*
X267488541Y-137741457D01*
X267492118Y-137755736D01*
X267494278Y-137770297D01*
X267495000Y-137785000D01*
X267495000Y-138085000D01*
X267494278Y-138099703D01*
X267492118Y-138114264D01*
X267488541Y-138128543D01*
X267483582Y-138142403D01*
X267477288Y-138155710D01*
X267469720Y-138168336D01*
X267460952Y-138180159D01*
X267451066Y-138191066D01*
X267440159Y-138200952D01*
X267428336Y-138209720D01*
X267415710Y-138217288D01*
X267402403Y-138223582D01*
X267388543Y-138228541D01*
X267374264Y-138232118D01*
X267359703Y-138234278D01*
X267345000Y-138235000D01*
X265595000Y-138235000D01*
X265580297Y-138234278D01*
X265565736Y-138232118D01*
X265551457Y-138228541D01*
X265537597Y-138223582D01*
X265524290Y-138217288D01*
X265511664Y-138209720D01*
X265499841Y-138200952D01*
X265488934Y-138191066D01*
X265479048Y-138180159D01*
X265470280Y-138168336D01*
X265462712Y-138155710D01*
X265456418Y-138142403D01*
X265451459Y-138128543D01*
X265447882Y-138114264D01*
X265445722Y-138099703D01*
X265445000Y-138085000D01*
X265445000Y-137785000D01*
X265445722Y-137770297D01*
X265447882Y-137755736D01*
X265451459Y-137741457D01*
X265456418Y-137727597D01*
X265462712Y-137714290D01*
X265470280Y-137701664D01*
X265479048Y-137689841D01*
X265488934Y-137678934D01*
X265499841Y-137669048D01*
X265511664Y-137660280D01*
X265524290Y-137652712D01*
X265537597Y-137646418D01*
X265551457Y-137641459D01*
X265565736Y-137637882D01*
X265580297Y-137635722D01*
X265595000Y-137635000D01*
X267345000Y-137635000D01*
X267359703Y-137635722D01*
G37*
G36*
X267359703Y-136365722D02*
G01*
X267374264Y-136367882D01*
X267388543Y-136371459D01*
X267402403Y-136376418D01*
X267415710Y-136382712D01*
X267428336Y-136390280D01*
X267440159Y-136399048D01*
X267451066Y-136408934D01*
X267460952Y-136419841D01*
X267469720Y-136431664D01*
X267477288Y-136444290D01*
X267483582Y-136457597D01*
X267488541Y-136471457D01*
X267492118Y-136485736D01*
X267494278Y-136500297D01*
X267495000Y-136515000D01*
X267495000Y-136815000D01*
X267494278Y-136829703D01*
X267492118Y-136844264D01*
X267488541Y-136858543D01*
X267483582Y-136872403D01*
X267477288Y-136885710D01*
X267469720Y-136898336D01*
X267460952Y-136910159D01*
X267451066Y-136921066D01*
X267440159Y-136930952D01*
X267428336Y-136939720D01*
X267415710Y-136947288D01*
X267402403Y-136953582D01*
X267388543Y-136958541D01*
X267374264Y-136962118D01*
X267359703Y-136964278D01*
X267345000Y-136965000D01*
X265595000Y-136965000D01*
X265580297Y-136964278D01*
X265565736Y-136962118D01*
X265551457Y-136958541D01*
X265537597Y-136953582D01*
X265524290Y-136947288D01*
X265511664Y-136939720D01*
X265499841Y-136930952D01*
X265488934Y-136921066D01*
X265479048Y-136910159D01*
X265470280Y-136898336D01*
X265462712Y-136885710D01*
X265456418Y-136872403D01*
X265451459Y-136858543D01*
X265447882Y-136844264D01*
X265445722Y-136829703D01*
X265445000Y-136815000D01*
X265445000Y-136515000D01*
X265445722Y-136500297D01*
X265447882Y-136485736D01*
X265451459Y-136471457D01*
X265456418Y-136457597D01*
X265462712Y-136444290D01*
X265470280Y-136431664D01*
X265479048Y-136419841D01*
X265488934Y-136408934D01*
X265499841Y-136399048D01*
X265511664Y-136390280D01*
X265524290Y-136382712D01*
X265537597Y-136376418D01*
X265551457Y-136371459D01*
X265565736Y-136367882D01*
X265580297Y-136365722D01*
X265595000Y-136365000D01*
X267345000Y-136365000D01*
X267359703Y-136365722D01*
G37*
G36*
X267359703Y-135095722D02*
G01*
X267374264Y-135097882D01*
X267388543Y-135101459D01*
X267402403Y-135106418D01*
X267415710Y-135112712D01*
X267428336Y-135120280D01*
X267440159Y-135129048D01*
X267451066Y-135138934D01*
X267460952Y-135149841D01*
X267469720Y-135161664D01*
X267477288Y-135174290D01*
X267483582Y-135187597D01*
X267488541Y-135201457D01*
X267492118Y-135215736D01*
X267494278Y-135230297D01*
X267495000Y-135245000D01*
X267495000Y-135545000D01*
X267494278Y-135559703D01*
X267492118Y-135574264D01*
X267488541Y-135588543D01*
X267483582Y-135602403D01*
X267477288Y-135615710D01*
X267469720Y-135628336D01*
X267460952Y-135640159D01*
X267451066Y-135651066D01*
X267440159Y-135660952D01*
X267428336Y-135669720D01*
X267415710Y-135677288D01*
X267402403Y-135683582D01*
X267388543Y-135688541D01*
X267374264Y-135692118D01*
X267359703Y-135694278D01*
X267345000Y-135695000D01*
X265595000Y-135695000D01*
X265580297Y-135694278D01*
X265565736Y-135692118D01*
X265551457Y-135688541D01*
X265537597Y-135683582D01*
X265524290Y-135677288D01*
X265511664Y-135669720D01*
X265499841Y-135660952D01*
X265488934Y-135651066D01*
X265479048Y-135640159D01*
X265470280Y-135628336D01*
X265462712Y-135615710D01*
X265456418Y-135602403D01*
X265451459Y-135588543D01*
X265447882Y-135574264D01*
X265445722Y-135559703D01*
X265445000Y-135545000D01*
X265445000Y-135245000D01*
X265445722Y-135230297D01*
X265447882Y-135215736D01*
X265451459Y-135201457D01*
X265456418Y-135187597D01*
X265462712Y-135174290D01*
X265470280Y-135161664D01*
X265479048Y-135149841D01*
X265488934Y-135138934D01*
X265499841Y-135129048D01*
X265511664Y-135120280D01*
X265524290Y-135112712D01*
X265537597Y-135106418D01*
X265551457Y-135101459D01*
X265565736Y-135097882D01*
X265580297Y-135095722D01*
X265595000Y-135095000D01*
X267345000Y-135095000D01*
X267359703Y-135095722D01*
G37*
G36*
X267359703Y-133825722D02*
G01*
X267374264Y-133827882D01*
X267388543Y-133831459D01*
X267402403Y-133836418D01*
X267415710Y-133842712D01*
X267428336Y-133850280D01*
X267440159Y-133859048D01*
X267451066Y-133868934D01*
X267460952Y-133879841D01*
X267469720Y-133891664D01*
X267477288Y-133904290D01*
X267483582Y-133917597D01*
X267488541Y-133931457D01*
X267492118Y-133945736D01*
X267494278Y-133960297D01*
X267495000Y-133975000D01*
X267495000Y-134275000D01*
X267494278Y-134289703D01*
X267492118Y-134304264D01*
X267488541Y-134318543D01*
X267483582Y-134332403D01*
X267477288Y-134345710D01*
X267469720Y-134358336D01*
X267460952Y-134370159D01*
X267451066Y-134381066D01*
X267440159Y-134390952D01*
X267428336Y-134399720D01*
X267415710Y-134407288D01*
X267402403Y-134413582D01*
X267388543Y-134418541D01*
X267374264Y-134422118D01*
X267359703Y-134424278D01*
X267345000Y-134425000D01*
X265595000Y-134425000D01*
X265580297Y-134424278D01*
X265565736Y-134422118D01*
X265551457Y-134418541D01*
X265537597Y-134413582D01*
X265524290Y-134407288D01*
X265511664Y-134399720D01*
X265499841Y-134390952D01*
X265488934Y-134381066D01*
X265479048Y-134370159D01*
X265470280Y-134358336D01*
X265462712Y-134345710D01*
X265456418Y-134332403D01*
X265451459Y-134318543D01*
X265447882Y-134304264D01*
X265445722Y-134289703D01*
X265445000Y-134275000D01*
X265445000Y-133975000D01*
X265445722Y-133960297D01*
X265447882Y-133945736D01*
X265451459Y-133931457D01*
X265456418Y-133917597D01*
X265462712Y-133904290D01*
X265470280Y-133891664D01*
X265479048Y-133879841D01*
X265488934Y-133868934D01*
X265499841Y-133859048D01*
X265511664Y-133850280D01*
X265524290Y-133842712D01*
X265537597Y-133836418D01*
X265551457Y-133831459D01*
X265565736Y-133827882D01*
X265580297Y-133825722D01*
X265595000Y-133825000D01*
X267345000Y-133825000D01*
X267359703Y-133825722D01*
G37*
G36*
X267359703Y-132555722D02*
G01*
X267374264Y-132557882D01*
X267388543Y-132561459D01*
X267402403Y-132566418D01*
X267415710Y-132572712D01*
X267428336Y-132580280D01*
X267440159Y-132589048D01*
X267451066Y-132598934D01*
X267460952Y-132609841D01*
X267469720Y-132621664D01*
X267477288Y-132634290D01*
X267483582Y-132647597D01*
X267488541Y-132661457D01*
X267492118Y-132675736D01*
X267494278Y-132690297D01*
X267495000Y-132705000D01*
X267495000Y-133005000D01*
X267494278Y-133019703D01*
X267492118Y-133034264D01*
X267488541Y-133048543D01*
X267483582Y-133062403D01*
X267477288Y-133075710D01*
X267469720Y-133088336D01*
X267460952Y-133100159D01*
X267451066Y-133111066D01*
X267440159Y-133120952D01*
X267428336Y-133129720D01*
X267415710Y-133137288D01*
X267402403Y-133143582D01*
X267388543Y-133148541D01*
X267374264Y-133152118D01*
X267359703Y-133154278D01*
X267345000Y-133155000D01*
X265595000Y-133155000D01*
X265580297Y-133154278D01*
X265565736Y-133152118D01*
X265551457Y-133148541D01*
X265537597Y-133143582D01*
X265524290Y-133137288D01*
X265511664Y-133129720D01*
X265499841Y-133120952D01*
X265488934Y-133111066D01*
X265479048Y-133100159D01*
X265470280Y-133088336D01*
X265462712Y-133075710D01*
X265456418Y-133062403D01*
X265451459Y-133048543D01*
X265447882Y-133034264D01*
X265445722Y-133019703D01*
X265445000Y-133005000D01*
X265445000Y-132705000D01*
X265445722Y-132690297D01*
X265447882Y-132675736D01*
X265451459Y-132661457D01*
X265456418Y-132647597D01*
X265462712Y-132634290D01*
X265470280Y-132621664D01*
X265479048Y-132609841D01*
X265488934Y-132598934D01*
X265499841Y-132589048D01*
X265511664Y-132580280D01*
X265524290Y-132572712D01*
X265537597Y-132566418D01*
X265551457Y-132561459D01*
X265565736Y-132557882D01*
X265580297Y-132555722D01*
X265595000Y-132555000D01*
X267345000Y-132555000D01*
X267359703Y-132555722D01*
G37*
G36*
X216312779Y-103044144D02*
G01*
X216335834Y-103047563D01*
X216358443Y-103053227D01*
X216380387Y-103061079D01*
X216401457Y-103071044D01*
X216421448Y-103083026D01*
X216440168Y-103096910D01*
X216457438Y-103112562D01*
X216473090Y-103129832D01*
X216486974Y-103148552D01*
X216498956Y-103168543D01*
X216508921Y-103189613D01*
X216516773Y-103211557D01*
X216522437Y-103234166D01*
X216525856Y-103257221D01*
X216527000Y-103280500D01*
X216527000Y-103755500D01*
X216525856Y-103778779D01*
X216522437Y-103801834D01*
X216516773Y-103824443D01*
X216508921Y-103846387D01*
X216498956Y-103867457D01*
X216486974Y-103887448D01*
X216473090Y-103906168D01*
X216457438Y-103923438D01*
X216440168Y-103939090D01*
X216421448Y-103952974D01*
X216401457Y-103964956D01*
X216380387Y-103974921D01*
X216358443Y-103982773D01*
X216335834Y-103988437D01*
X216312779Y-103991856D01*
X216289500Y-103993000D01*
X215714500Y-103993000D01*
X215691221Y-103991856D01*
X215668166Y-103988437D01*
X215645557Y-103982773D01*
X215623613Y-103974921D01*
X215602543Y-103964956D01*
X215582552Y-103952974D01*
X215563832Y-103939090D01*
X215546562Y-103923438D01*
X215530910Y-103906168D01*
X215517026Y-103887448D01*
X215505044Y-103867457D01*
X215495079Y-103846387D01*
X215487227Y-103824443D01*
X215481563Y-103801834D01*
X215478144Y-103778779D01*
X215477000Y-103755500D01*
X215477000Y-103280500D01*
X215478144Y-103257221D01*
X215481563Y-103234166D01*
X215487227Y-103211557D01*
X215495079Y-103189613D01*
X215505044Y-103168543D01*
X215517026Y-103148552D01*
X215530910Y-103129832D01*
X215546562Y-103112562D01*
X215563832Y-103096910D01*
X215582552Y-103083026D01*
X215602543Y-103071044D01*
X215623613Y-103061079D01*
X215645557Y-103053227D01*
X215668166Y-103047563D01*
X215691221Y-103044144D01*
X215714500Y-103043000D01*
X216289500Y-103043000D01*
X216312779Y-103044144D01*
G37*
G36*
X218062779Y-103044144D02*
G01*
X218085834Y-103047563D01*
X218108443Y-103053227D01*
X218130387Y-103061079D01*
X218151457Y-103071044D01*
X218171448Y-103083026D01*
X218190168Y-103096910D01*
X218207438Y-103112562D01*
X218223090Y-103129832D01*
X218236974Y-103148552D01*
X218248956Y-103168543D01*
X218258921Y-103189613D01*
X218266773Y-103211557D01*
X218272437Y-103234166D01*
X218275856Y-103257221D01*
X218277000Y-103280500D01*
X218277000Y-103755500D01*
X218275856Y-103778779D01*
X218272437Y-103801834D01*
X218266773Y-103824443D01*
X218258921Y-103846387D01*
X218248956Y-103867457D01*
X218236974Y-103887448D01*
X218223090Y-103906168D01*
X218207438Y-103923438D01*
X218190168Y-103939090D01*
X218171448Y-103952974D01*
X218151457Y-103964956D01*
X218130387Y-103974921D01*
X218108443Y-103982773D01*
X218085834Y-103988437D01*
X218062779Y-103991856D01*
X218039500Y-103993000D01*
X217464500Y-103993000D01*
X217441221Y-103991856D01*
X217418166Y-103988437D01*
X217395557Y-103982773D01*
X217373613Y-103974921D01*
X217352543Y-103964956D01*
X217332552Y-103952974D01*
X217313832Y-103939090D01*
X217296562Y-103923438D01*
X217280910Y-103906168D01*
X217267026Y-103887448D01*
X217255044Y-103867457D01*
X217245079Y-103846387D01*
X217237227Y-103824443D01*
X217231563Y-103801834D01*
X217228144Y-103778779D01*
X217227000Y-103755500D01*
X217227000Y-103280500D01*
X217228144Y-103257221D01*
X217231563Y-103234166D01*
X217237227Y-103211557D01*
X217245079Y-103189613D01*
X217255044Y-103168543D01*
X217267026Y-103148552D01*
X217280910Y-103129832D01*
X217296562Y-103112562D01*
X217313832Y-103096910D01*
X217332552Y-103083026D01*
X217352543Y-103071044D01*
X217373613Y-103061079D01*
X217395557Y-103053227D01*
X217418166Y-103047563D01*
X217441221Y-103044144D01*
X217464500Y-103043000D01*
X218039500Y-103043000D01*
X218062779Y-103044144D01*
G37*
G36*
X267775779Y-127936144D02*
G01*
X267798834Y-127939563D01*
X267821443Y-127945227D01*
X267843387Y-127953079D01*
X267864457Y-127963044D01*
X267884448Y-127975026D01*
X267903168Y-127988910D01*
X267920438Y-128004562D01*
X267936090Y-128021832D01*
X267949974Y-128040552D01*
X267961956Y-128060543D01*
X267971921Y-128081613D01*
X267979773Y-128103557D01*
X267985437Y-128126166D01*
X267988856Y-128149221D01*
X267990000Y-128172500D01*
X267990000Y-128647500D01*
X267988856Y-128670779D01*
X267985437Y-128693834D01*
X267979773Y-128716443D01*
X267971921Y-128738387D01*
X267961956Y-128759457D01*
X267949974Y-128779448D01*
X267936090Y-128798168D01*
X267920438Y-128815438D01*
X267903168Y-128831090D01*
X267884448Y-128844974D01*
X267864457Y-128856956D01*
X267843387Y-128866921D01*
X267821443Y-128874773D01*
X267798834Y-128880437D01*
X267775779Y-128883856D01*
X267752500Y-128885000D01*
X267177500Y-128885000D01*
X267154221Y-128883856D01*
X267131166Y-128880437D01*
X267108557Y-128874773D01*
X267086613Y-128866921D01*
X267065543Y-128856956D01*
X267045552Y-128844974D01*
X267026832Y-128831090D01*
X267009562Y-128815438D01*
X266993910Y-128798168D01*
X266980026Y-128779448D01*
X266968044Y-128759457D01*
X266958079Y-128738387D01*
X266950227Y-128716443D01*
X266944563Y-128693834D01*
X266941144Y-128670779D01*
X266940000Y-128647500D01*
X266940000Y-128172500D01*
X266941144Y-128149221D01*
X266944563Y-128126166D01*
X266950227Y-128103557D01*
X266958079Y-128081613D01*
X266968044Y-128060543D01*
X266980026Y-128040552D01*
X266993910Y-128021832D01*
X267009562Y-128004562D01*
X267026832Y-127988910D01*
X267045552Y-127975026D01*
X267065543Y-127963044D01*
X267086613Y-127953079D01*
X267108557Y-127945227D01*
X267131166Y-127939563D01*
X267154221Y-127936144D01*
X267177500Y-127935000D01*
X267752500Y-127935000D01*
X267775779Y-127936144D01*
G37*
G36*
X269525779Y-127936144D02*
G01*
X269548834Y-127939563D01*
X269571443Y-127945227D01*
X269593387Y-127953079D01*
X269614457Y-127963044D01*
X269634448Y-127975026D01*
X269653168Y-127988910D01*
X269670438Y-128004562D01*
X269686090Y-128021832D01*
X269699974Y-128040552D01*
X269711956Y-128060543D01*
X269721921Y-128081613D01*
X269729773Y-128103557D01*
X269735437Y-128126166D01*
X269738856Y-128149221D01*
X269740000Y-128172500D01*
X269740000Y-128647500D01*
X269738856Y-128670779D01*
X269735437Y-128693834D01*
X269729773Y-128716443D01*
X269721921Y-128738387D01*
X269711956Y-128759457D01*
X269699974Y-128779448D01*
X269686090Y-128798168D01*
X269670438Y-128815438D01*
X269653168Y-128831090D01*
X269634448Y-128844974D01*
X269614457Y-128856956D01*
X269593387Y-128866921D01*
X269571443Y-128874773D01*
X269548834Y-128880437D01*
X269525779Y-128883856D01*
X269502500Y-128885000D01*
X268927500Y-128885000D01*
X268904221Y-128883856D01*
X268881166Y-128880437D01*
X268858557Y-128874773D01*
X268836613Y-128866921D01*
X268815543Y-128856956D01*
X268795552Y-128844974D01*
X268776832Y-128831090D01*
X268759562Y-128815438D01*
X268743910Y-128798168D01*
X268730026Y-128779448D01*
X268718044Y-128759457D01*
X268708079Y-128738387D01*
X268700227Y-128716443D01*
X268694563Y-128693834D01*
X268691144Y-128670779D01*
X268690000Y-128647500D01*
X268690000Y-128172500D01*
X268691144Y-128149221D01*
X268694563Y-128126166D01*
X268700227Y-128103557D01*
X268708079Y-128081613D01*
X268718044Y-128060543D01*
X268730026Y-128040552D01*
X268743910Y-128021832D01*
X268759562Y-128004562D01*
X268776832Y-127988910D01*
X268795552Y-127975026D01*
X268815543Y-127963044D01*
X268836613Y-127953079D01*
X268858557Y-127945227D01*
X268881166Y-127939563D01*
X268904221Y-127936144D01*
X268927500Y-127935000D01*
X269502500Y-127935000D01*
X269525779Y-127936144D01*
G37*
D18*
X216002000Y-111900000D03*
D19*
X223622000Y-116980000D03*
X216002000Y-114440000D03*
X223622000Y-114440000D03*
X216002000Y-116980000D03*
X223622000Y-111900000D03*
D10*
G36*
X254412779Y-107616144D02*
G01*
X254435834Y-107619563D01*
X254458443Y-107625227D01*
X254480387Y-107633079D01*
X254501457Y-107643044D01*
X254521448Y-107655026D01*
X254540168Y-107668910D01*
X254557438Y-107684562D01*
X254573090Y-107701832D01*
X254586974Y-107720552D01*
X254598956Y-107740543D01*
X254608921Y-107761613D01*
X254616773Y-107783557D01*
X254622437Y-107806166D01*
X254625856Y-107829221D01*
X254627000Y-107852500D01*
X254627000Y-108327500D01*
X254625856Y-108350779D01*
X254622437Y-108373834D01*
X254616773Y-108396443D01*
X254608921Y-108418387D01*
X254598956Y-108439457D01*
X254586974Y-108459448D01*
X254573090Y-108478168D01*
X254557438Y-108495438D01*
X254540168Y-108511090D01*
X254521448Y-108524974D01*
X254501457Y-108536956D01*
X254480387Y-108546921D01*
X254458443Y-108554773D01*
X254435834Y-108560437D01*
X254412779Y-108563856D01*
X254389500Y-108565000D01*
X253814500Y-108565000D01*
X253791221Y-108563856D01*
X253768166Y-108560437D01*
X253745557Y-108554773D01*
X253723613Y-108546921D01*
X253702543Y-108536956D01*
X253682552Y-108524974D01*
X253663832Y-108511090D01*
X253646562Y-108495438D01*
X253630910Y-108478168D01*
X253617026Y-108459448D01*
X253605044Y-108439457D01*
X253595079Y-108418387D01*
X253587227Y-108396443D01*
X253581563Y-108373834D01*
X253578144Y-108350779D01*
X253577000Y-108327500D01*
X253577000Y-107852500D01*
X253578144Y-107829221D01*
X253581563Y-107806166D01*
X253587227Y-107783557D01*
X253595079Y-107761613D01*
X253605044Y-107740543D01*
X253617026Y-107720552D01*
X253630910Y-107701832D01*
X253646562Y-107684562D01*
X253663832Y-107668910D01*
X253682552Y-107655026D01*
X253702543Y-107643044D01*
X253723613Y-107633079D01*
X253745557Y-107625227D01*
X253768166Y-107619563D01*
X253791221Y-107616144D01*
X253814500Y-107615000D01*
X254389500Y-107615000D01*
X254412779Y-107616144D01*
G37*
G36*
X256162779Y-107616144D02*
G01*
X256185834Y-107619563D01*
X256208443Y-107625227D01*
X256230387Y-107633079D01*
X256251457Y-107643044D01*
X256271448Y-107655026D01*
X256290168Y-107668910D01*
X256307438Y-107684562D01*
X256323090Y-107701832D01*
X256336974Y-107720552D01*
X256348956Y-107740543D01*
X256358921Y-107761613D01*
X256366773Y-107783557D01*
X256372437Y-107806166D01*
X256375856Y-107829221D01*
X256377000Y-107852500D01*
X256377000Y-108327500D01*
X256375856Y-108350779D01*
X256372437Y-108373834D01*
X256366773Y-108396443D01*
X256358921Y-108418387D01*
X256348956Y-108439457D01*
X256336974Y-108459448D01*
X256323090Y-108478168D01*
X256307438Y-108495438D01*
X256290168Y-108511090D01*
X256271448Y-108524974D01*
X256251457Y-108536956D01*
X256230387Y-108546921D01*
X256208443Y-108554773D01*
X256185834Y-108560437D01*
X256162779Y-108563856D01*
X256139500Y-108565000D01*
X255564500Y-108565000D01*
X255541221Y-108563856D01*
X255518166Y-108560437D01*
X255495557Y-108554773D01*
X255473613Y-108546921D01*
X255452543Y-108536956D01*
X255432552Y-108524974D01*
X255413832Y-108511090D01*
X255396562Y-108495438D01*
X255380910Y-108478168D01*
X255367026Y-108459448D01*
X255355044Y-108439457D01*
X255345079Y-108418387D01*
X255337227Y-108396443D01*
X255331563Y-108373834D01*
X255328144Y-108350779D01*
X255327000Y-108327500D01*
X255327000Y-107852500D01*
X255328144Y-107829221D01*
X255331563Y-107806166D01*
X255337227Y-107783557D01*
X255345079Y-107761613D01*
X255355044Y-107740543D01*
X255367026Y-107720552D01*
X255380910Y-107701832D01*
X255396562Y-107684562D01*
X255413832Y-107668910D01*
X255432552Y-107655026D01*
X255452543Y-107643044D01*
X255473613Y-107633079D01*
X255495557Y-107625227D01*
X255518166Y-107619563D01*
X255541221Y-107616144D01*
X255564500Y-107615000D01*
X256139500Y-107615000D01*
X256162779Y-107616144D01*
G37*
G36*
X256162779Y-122856144D02*
G01*
X256185834Y-122859563D01*
X256208443Y-122865227D01*
X256230387Y-122873079D01*
X256251457Y-122883044D01*
X256271448Y-122895026D01*
X256290168Y-122908910D01*
X256307438Y-122924562D01*
X256323090Y-122941832D01*
X256336974Y-122960552D01*
X256348956Y-122980543D01*
X256358921Y-123001613D01*
X256366773Y-123023557D01*
X256372437Y-123046166D01*
X256375856Y-123069221D01*
X256377000Y-123092500D01*
X256377000Y-123567500D01*
X256375856Y-123590779D01*
X256372437Y-123613834D01*
X256366773Y-123636443D01*
X256358921Y-123658387D01*
X256348956Y-123679457D01*
X256336974Y-123699448D01*
X256323090Y-123718168D01*
X256307438Y-123735438D01*
X256290168Y-123751090D01*
X256271448Y-123764974D01*
X256251457Y-123776956D01*
X256230387Y-123786921D01*
X256208443Y-123794773D01*
X256185834Y-123800437D01*
X256162779Y-123803856D01*
X256139500Y-123805000D01*
X255564500Y-123805000D01*
X255541221Y-123803856D01*
X255518166Y-123800437D01*
X255495557Y-123794773D01*
X255473613Y-123786921D01*
X255452543Y-123776956D01*
X255432552Y-123764974D01*
X255413832Y-123751090D01*
X255396562Y-123735438D01*
X255380910Y-123718168D01*
X255367026Y-123699448D01*
X255355044Y-123679457D01*
X255345079Y-123658387D01*
X255337227Y-123636443D01*
X255331563Y-123613834D01*
X255328144Y-123590779D01*
X255327000Y-123567500D01*
X255327000Y-123092500D01*
X255328144Y-123069221D01*
X255331563Y-123046166D01*
X255337227Y-123023557D01*
X255345079Y-123001613D01*
X255355044Y-122980543D01*
X255367026Y-122960552D01*
X255380910Y-122941832D01*
X255396562Y-122924562D01*
X255413832Y-122908910D01*
X255432552Y-122895026D01*
X255452543Y-122883044D01*
X255473613Y-122873079D01*
X255495557Y-122865227D01*
X255518166Y-122859563D01*
X255541221Y-122856144D01*
X255564500Y-122855000D01*
X256139500Y-122855000D01*
X256162779Y-122856144D01*
G37*
G36*
X254412779Y-122856144D02*
G01*
X254435834Y-122859563D01*
X254458443Y-122865227D01*
X254480387Y-122873079D01*
X254501457Y-122883044D01*
X254521448Y-122895026D01*
X254540168Y-122908910D01*
X254557438Y-122924562D01*
X254573090Y-122941832D01*
X254586974Y-122960552D01*
X254598956Y-122980543D01*
X254608921Y-123001613D01*
X254616773Y-123023557D01*
X254622437Y-123046166D01*
X254625856Y-123069221D01*
X254627000Y-123092500D01*
X254627000Y-123567500D01*
X254625856Y-123590779D01*
X254622437Y-123613834D01*
X254616773Y-123636443D01*
X254608921Y-123658387D01*
X254598956Y-123679457D01*
X254586974Y-123699448D01*
X254573090Y-123718168D01*
X254557438Y-123735438D01*
X254540168Y-123751090D01*
X254521448Y-123764974D01*
X254501457Y-123776956D01*
X254480387Y-123786921D01*
X254458443Y-123794773D01*
X254435834Y-123800437D01*
X254412779Y-123803856D01*
X254389500Y-123805000D01*
X253814500Y-123805000D01*
X253791221Y-123803856D01*
X253768166Y-123800437D01*
X253745557Y-123794773D01*
X253723613Y-123786921D01*
X253702543Y-123776956D01*
X253682552Y-123764974D01*
X253663832Y-123751090D01*
X253646562Y-123735438D01*
X253630910Y-123718168D01*
X253617026Y-123699448D01*
X253605044Y-123679457D01*
X253595079Y-123658387D01*
X253587227Y-123636443D01*
X253581563Y-123613834D01*
X253578144Y-123590779D01*
X253577000Y-123567500D01*
X253577000Y-123092500D01*
X253578144Y-123069221D01*
X253581563Y-123046166D01*
X253587227Y-123023557D01*
X253595079Y-123001613D01*
X253605044Y-122980543D01*
X253617026Y-122960552D01*
X253630910Y-122941832D01*
X253646562Y-122924562D01*
X253663832Y-122908910D01*
X253682552Y-122895026D01*
X253702543Y-122883044D01*
X253723613Y-122873079D01*
X253745557Y-122865227D01*
X253768166Y-122859563D01*
X253791221Y-122856144D01*
X253814500Y-122855000D01*
X254389500Y-122855000D01*
X254412779Y-122856144D01*
G37*
D17*
X261722000Y-135522000D03*
D16*
X261722000Y-139332000D03*
D10*
G36*
X230762779Y-122856144D02*
G01*
X230785834Y-122859563D01*
X230808443Y-122865227D01*
X230830387Y-122873079D01*
X230851457Y-122883044D01*
X230871448Y-122895026D01*
X230890168Y-122908910D01*
X230907438Y-122924562D01*
X230923090Y-122941832D01*
X230936974Y-122960552D01*
X230948956Y-122980543D01*
X230958921Y-123001613D01*
X230966773Y-123023557D01*
X230972437Y-123046166D01*
X230975856Y-123069221D01*
X230977000Y-123092500D01*
X230977000Y-123567500D01*
X230975856Y-123590779D01*
X230972437Y-123613834D01*
X230966773Y-123636443D01*
X230958921Y-123658387D01*
X230948956Y-123679457D01*
X230936974Y-123699448D01*
X230923090Y-123718168D01*
X230907438Y-123735438D01*
X230890168Y-123751090D01*
X230871448Y-123764974D01*
X230851457Y-123776956D01*
X230830387Y-123786921D01*
X230808443Y-123794773D01*
X230785834Y-123800437D01*
X230762779Y-123803856D01*
X230739500Y-123805000D01*
X230164500Y-123805000D01*
X230141221Y-123803856D01*
X230118166Y-123800437D01*
X230095557Y-123794773D01*
X230073613Y-123786921D01*
X230052543Y-123776956D01*
X230032552Y-123764974D01*
X230013832Y-123751090D01*
X229996562Y-123735438D01*
X229980910Y-123718168D01*
X229967026Y-123699448D01*
X229955044Y-123679457D01*
X229945079Y-123658387D01*
X229937227Y-123636443D01*
X229931563Y-123613834D01*
X229928144Y-123590779D01*
X229927000Y-123567500D01*
X229927000Y-123092500D01*
X229928144Y-123069221D01*
X229931563Y-123046166D01*
X229937227Y-123023557D01*
X229945079Y-123001613D01*
X229955044Y-122980543D01*
X229967026Y-122960552D01*
X229980910Y-122941832D01*
X229996562Y-122924562D01*
X230013832Y-122908910D01*
X230032552Y-122895026D01*
X230052543Y-122883044D01*
X230073613Y-122873079D01*
X230095557Y-122865227D01*
X230118166Y-122859563D01*
X230141221Y-122856144D01*
X230164500Y-122855000D01*
X230739500Y-122855000D01*
X230762779Y-122856144D01*
G37*
G36*
X229012779Y-122856144D02*
G01*
X229035834Y-122859563D01*
X229058443Y-122865227D01*
X229080387Y-122873079D01*
X229101457Y-122883044D01*
X229121448Y-122895026D01*
X229140168Y-122908910D01*
X229157438Y-122924562D01*
X229173090Y-122941832D01*
X229186974Y-122960552D01*
X229198956Y-122980543D01*
X229208921Y-123001613D01*
X229216773Y-123023557D01*
X229222437Y-123046166D01*
X229225856Y-123069221D01*
X229227000Y-123092500D01*
X229227000Y-123567500D01*
X229225856Y-123590779D01*
X229222437Y-123613834D01*
X229216773Y-123636443D01*
X229208921Y-123658387D01*
X229198956Y-123679457D01*
X229186974Y-123699448D01*
X229173090Y-123718168D01*
X229157438Y-123735438D01*
X229140168Y-123751090D01*
X229121448Y-123764974D01*
X229101457Y-123776956D01*
X229080387Y-123786921D01*
X229058443Y-123794773D01*
X229035834Y-123800437D01*
X229012779Y-123803856D01*
X228989500Y-123805000D01*
X228414500Y-123805000D01*
X228391221Y-123803856D01*
X228368166Y-123800437D01*
X228345557Y-123794773D01*
X228323613Y-123786921D01*
X228302543Y-123776956D01*
X228282552Y-123764974D01*
X228263832Y-123751090D01*
X228246562Y-123735438D01*
X228230910Y-123718168D01*
X228217026Y-123699448D01*
X228205044Y-123679457D01*
X228195079Y-123658387D01*
X228187227Y-123636443D01*
X228181563Y-123613834D01*
X228178144Y-123590779D01*
X228177000Y-123567500D01*
X228177000Y-123092500D01*
X228178144Y-123069221D01*
X228181563Y-123046166D01*
X228187227Y-123023557D01*
X228195079Y-123001613D01*
X228205044Y-122980543D01*
X228217026Y-122960552D01*
X228230910Y-122941832D01*
X228246562Y-122924562D01*
X228263832Y-122908910D01*
X228282552Y-122895026D01*
X228302543Y-122883044D01*
X228323613Y-122873079D01*
X228345557Y-122865227D01*
X228368166Y-122859563D01*
X228391221Y-122856144D01*
X228414500Y-122855000D01*
X228989500Y-122855000D01*
X229012779Y-122856144D01*
G37*
D17*
X210922000Y-135522000D03*
D16*
X210922000Y-139332000D03*
D17*
X203302000Y-135522000D03*
D16*
X203302000Y-139332000D03*
D15*
X278486000Y-146444000D03*
X274676000Y-146444000D03*
D10*
G36*
X271540504Y-144645204D02*
G01*
X271564773Y-144648804D01*
X271588571Y-144654765D01*
X271611671Y-144663030D01*
X271633849Y-144673520D01*
X271654893Y-144686133D01*
X271674598Y-144700747D01*
X271692777Y-144717223D01*
X271709253Y-144735402D01*
X271723867Y-144755107D01*
X271736480Y-144776151D01*
X271746970Y-144798329D01*
X271755235Y-144821429D01*
X271761196Y-144845227D01*
X271764796Y-144869496D01*
X271766000Y-144894000D01*
X271766000Y-147994000D01*
X271764796Y-148018504D01*
X271761196Y-148042773D01*
X271755235Y-148066571D01*
X271746970Y-148089671D01*
X271736480Y-148111849D01*
X271723867Y-148132893D01*
X271709253Y-148152598D01*
X271692777Y-148170777D01*
X271674598Y-148187253D01*
X271654893Y-148201867D01*
X271633849Y-148214480D01*
X271611671Y-148224970D01*
X271588571Y-148233235D01*
X271564773Y-148239196D01*
X271540504Y-148242796D01*
X271516000Y-148244000D01*
X270216000Y-148244000D01*
X270191496Y-148242796D01*
X270167227Y-148239196D01*
X270143429Y-148233235D01*
X270120329Y-148224970D01*
X270098151Y-148214480D01*
X270077107Y-148201867D01*
X270057402Y-148187253D01*
X270039223Y-148170777D01*
X270022747Y-148152598D01*
X270008133Y-148132893D01*
X269995520Y-148111849D01*
X269985030Y-148089671D01*
X269976765Y-148066571D01*
X269970804Y-148042773D01*
X269967204Y-148018504D01*
X269966000Y-147994000D01*
X269966000Y-144894000D01*
X269967204Y-144869496D01*
X269970804Y-144845227D01*
X269976765Y-144821429D01*
X269985030Y-144798329D01*
X269995520Y-144776151D01*
X270008133Y-144755107D01*
X270022747Y-144735402D01*
X270039223Y-144717223D01*
X270057402Y-144700747D01*
X270077107Y-144686133D01*
X270098151Y-144673520D01*
X270120329Y-144663030D01*
X270143429Y-144654765D01*
X270167227Y-144648804D01*
X270191496Y-144645204D01*
X270216000Y-144644000D01*
X271516000Y-144644000D01*
X271540504Y-144645204D01*
G37*
D17*
X254102000Y-135522000D03*
D16*
X254102000Y-139332000D03*
D17*
X249022000Y-135522000D03*
D16*
X249022000Y-139332000D03*
D17*
X241402000Y-135522000D03*
D16*
X241402000Y-139332000D03*
D17*
X236322000Y-135522000D03*
D16*
X236322000Y-139332000D03*
D17*
X228702000Y-135522000D03*
D16*
X228702000Y-139332000D03*
D17*
X216002000Y-135522000D03*
D16*
X216002000Y-139332000D03*
D19*
X261722000Y-127140000D03*
X254102000Y-132220000D03*
X261722000Y-129680000D03*
X254102000Y-129680000D03*
X261722000Y-132220000D03*
D18*
X254102000Y-127140000D03*
X254102000Y-111900000D03*
D19*
X261722000Y-116980000D03*
X254102000Y-114440000D03*
X261722000Y-114440000D03*
X254102000Y-116980000D03*
X261722000Y-111900000D03*
X249022000Y-127140000D03*
X241402000Y-132220000D03*
X249022000Y-129680000D03*
X241402000Y-129680000D03*
X249022000Y-132220000D03*
D18*
X241402000Y-127140000D03*
D10*
G36*
X241712779Y-107616144D02*
G01*
X241735834Y-107619563D01*
X241758443Y-107625227D01*
X241780387Y-107633079D01*
X241801457Y-107643044D01*
X241821448Y-107655026D01*
X241840168Y-107668910D01*
X241857438Y-107684562D01*
X241873090Y-107701832D01*
X241886974Y-107720552D01*
X241898956Y-107740543D01*
X241908921Y-107761613D01*
X241916773Y-107783557D01*
X241922437Y-107806166D01*
X241925856Y-107829221D01*
X241927000Y-107852500D01*
X241927000Y-108327500D01*
X241925856Y-108350779D01*
X241922437Y-108373834D01*
X241916773Y-108396443D01*
X241908921Y-108418387D01*
X241898956Y-108439457D01*
X241886974Y-108459448D01*
X241873090Y-108478168D01*
X241857438Y-108495438D01*
X241840168Y-108511090D01*
X241821448Y-108524974D01*
X241801457Y-108536956D01*
X241780387Y-108546921D01*
X241758443Y-108554773D01*
X241735834Y-108560437D01*
X241712779Y-108563856D01*
X241689500Y-108565000D01*
X241114500Y-108565000D01*
X241091221Y-108563856D01*
X241068166Y-108560437D01*
X241045557Y-108554773D01*
X241023613Y-108546921D01*
X241002543Y-108536956D01*
X240982552Y-108524974D01*
X240963832Y-108511090D01*
X240946562Y-108495438D01*
X240930910Y-108478168D01*
X240917026Y-108459448D01*
X240905044Y-108439457D01*
X240895079Y-108418387D01*
X240887227Y-108396443D01*
X240881563Y-108373834D01*
X240878144Y-108350779D01*
X240877000Y-108327500D01*
X240877000Y-107852500D01*
X240878144Y-107829221D01*
X240881563Y-107806166D01*
X240887227Y-107783557D01*
X240895079Y-107761613D01*
X240905044Y-107740543D01*
X240917026Y-107720552D01*
X240930910Y-107701832D01*
X240946562Y-107684562D01*
X240963832Y-107668910D01*
X240982552Y-107655026D01*
X241002543Y-107643044D01*
X241023613Y-107633079D01*
X241045557Y-107625227D01*
X241068166Y-107619563D01*
X241091221Y-107616144D01*
X241114500Y-107615000D01*
X241689500Y-107615000D01*
X241712779Y-107616144D01*
G37*
G36*
X243462779Y-107616144D02*
G01*
X243485834Y-107619563D01*
X243508443Y-107625227D01*
X243530387Y-107633079D01*
X243551457Y-107643044D01*
X243571448Y-107655026D01*
X243590168Y-107668910D01*
X243607438Y-107684562D01*
X243623090Y-107701832D01*
X243636974Y-107720552D01*
X243648956Y-107740543D01*
X243658921Y-107761613D01*
X243666773Y-107783557D01*
X243672437Y-107806166D01*
X243675856Y-107829221D01*
X243677000Y-107852500D01*
X243677000Y-108327500D01*
X243675856Y-108350779D01*
X243672437Y-108373834D01*
X243666773Y-108396443D01*
X243658921Y-108418387D01*
X243648956Y-108439457D01*
X243636974Y-108459448D01*
X243623090Y-108478168D01*
X243607438Y-108495438D01*
X243590168Y-108511090D01*
X243571448Y-108524974D01*
X243551457Y-108536956D01*
X243530387Y-108546921D01*
X243508443Y-108554773D01*
X243485834Y-108560437D01*
X243462779Y-108563856D01*
X243439500Y-108565000D01*
X242864500Y-108565000D01*
X242841221Y-108563856D01*
X242818166Y-108560437D01*
X242795557Y-108554773D01*
X242773613Y-108546921D01*
X242752543Y-108536956D01*
X242732552Y-108524974D01*
X242713832Y-108511090D01*
X242696562Y-108495438D01*
X242680910Y-108478168D01*
X242667026Y-108459448D01*
X242655044Y-108439457D01*
X242645079Y-108418387D01*
X242637227Y-108396443D01*
X242631563Y-108373834D01*
X242628144Y-108350779D01*
X242627000Y-108327500D01*
X242627000Y-107852500D01*
X242628144Y-107829221D01*
X242631563Y-107806166D01*
X242637227Y-107783557D01*
X242645079Y-107761613D01*
X242655044Y-107740543D01*
X242667026Y-107720552D01*
X242680910Y-107701832D01*
X242696562Y-107684562D01*
X242713832Y-107668910D01*
X242732552Y-107655026D01*
X242752543Y-107643044D01*
X242773613Y-107633079D01*
X242795557Y-107625227D01*
X242818166Y-107619563D01*
X242841221Y-107616144D01*
X242864500Y-107615000D01*
X243439500Y-107615000D01*
X243462779Y-107616144D01*
G37*
G36*
X243462779Y-122856144D02*
G01*
X243485834Y-122859563D01*
X243508443Y-122865227D01*
X243530387Y-122873079D01*
X243551457Y-122883044D01*
X243571448Y-122895026D01*
X243590168Y-122908910D01*
X243607438Y-122924562D01*
X243623090Y-122941832D01*
X243636974Y-122960552D01*
X243648956Y-122980543D01*
X243658921Y-123001613D01*
X243666773Y-123023557D01*
X243672437Y-123046166D01*
X243675856Y-123069221D01*
X243677000Y-123092500D01*
X243677000Y-123567500D01*
X243675856Y-123590779D01*
X243672437Y-123613834D01*
X243666773Y-123636443D01*
X243658921Y-123658387D01*
X243648956Y-123679457D01*
X243636974Y-123699448D01*
X243623090Y-123718168D01*
X243607438Y-123735438D01*
X243590168Y-123751090D01*
X243571448Y-123764974D01*
X243551457Y-123776956D01*
X243530387Y-123786921D01*
X243508443Y-123794773D01*
X243485834Y-123800437D01*
X243462779Y-123803856D01*
X243439500Y-123805000D01*
X242864500Y-123805000D01*
X242841221Y-123803856D01*
X242818166Y-123800437D01*
X242795557Y-123794773D01*
X242773613Y-123786921D01*
X242752543Y-123776956D01*
X242732552Y-123764974D01*
X242713832Y-123751090D01*
X242696562Y-123735438D01*
X242680910Y-123718168D01*
X242667026Y-123699448D01*
X242655044Y-123679457D01*
X242645079Y-123658387D01*
X242637227Y-123636443D01*
X242631563Y-123613834D01*
X242628144Y-123590779D01*
X242627000Y-123567500D01*
X242627000Y-123092500D01*
X242628144Y-123069221D01*
X242631563Y-123046166D01*
X242637227Y-123023557D01*
X242645079Y-123001613D01*
X242655044Y-122980543D01*
X242667026Y-122960552D01*
X242680910Y-122941832D01*
X242696562Y-122924562D01*
X242713832Y-122908910D01*
X242732552Y-122895026D01*
X242752543Y-122883044D01*
X242773613Y-122873079D01*
X242795557Y-122865227D01*
X242818166Y-122859563D01*
X242841221Y-122856144D01*
X242864500Y-122855000D01*
X243439500Y-122855000D01*
X243462779Y-122856144D01*
G37*
G36*
X241712779Y-122856144D02*
G01*
X241735834Y-122859563D01*
X241758443Y-122865227D01*
X241780387Y-122873079D01*
X241801457Y-122883044D01*
X241821448Y-122895026D01*
X241840168Y-122908910D01*
X241857438Y-122924562D01*
X241873090Y-122941832D01*
X241886974Y-122960552D01*
X241898956Y-122980543D01*
X241908921Y-123001613D01*
X241916773Y-123023557D01*
X241922437Y-123046166D01*
X241925856Y-123069221D01*
X241927000Y-123092500D01*
X241927000Y-123567500D01*
X241925856Y-123590779D01*
X241922437Y-123613834D01*
X241916773Y-123636443D01*
X241908921Y-123658387D01*
X241898956Y-123679457D01*
X241886974Y-123699448D01*
X241873090Y-123718168D01*
X241857438Y-123735438D01*
X241840168Y-123751090D01*
X241821448Y-123764974D01*
X241801457Y-123776956D01*
X241780387Y-123786921D01*
X241758443Y-123794773D01*
X241735834Y-123800437D01*
X241712779Y-123803856D01*
X241689500Y-123805000D01*
X241114500Y-123805000D01*
X241091221Y-123803856D01*
X241068166Y-123800437D01*
X241045557Y-123794773D01*
X241023613Y-123786921D01*
X241002543Y-123776956D01*
X240982552Y-123764974D01*
X240963832Y-123751090D01*
X240946562Y-123735438D01*
X240930910Y-123718168D01*
X240917026Y-123699448D01*
X240905044Y-123679457D01*
X240895079Y-123658387D01*
X240887227Y-123636443D01*
X240881563Y-123613834D01*
X240878144Y-123590779D01*
X240877000Y-123567500D01*
X240877000Y-123092500D01*
X240878144Y-123069221D01*
X240881563Y-123046166D01*
X240887227Y-123023557D01*
X240895079Y-123001613D01*
X240905044Y-122980543D01*
X240917026Y-122960552D01*
X240930910Y-122941832D01*
X240946562Y-122924562D01*
X240963832Y-122908910D01*
X240982552Y-122895026D01*
X241002543Y-122883044D01*
X241023613Y-122873079D01*
X241045557Y-122865227D01*
X241068166Y-122859563D01*
X241091221Y-122856144D01*
X241114500Y-122855000D01*
X241689500Y-122855000D01*
X241712779Y-122856144D01*
G37*
D18*
X241402000Y-111900000D03*
D19*
X249022000Y-116980000D03*
X241402000Y-114440000D03*
X249022000Y-114440000D03*
X241402000Y-116980000D03*
X249022000Y-111900000D03*
X236322000Y-127140000D03*
X228702000Y-132220000D03*
X236322000Y-129680000D03*
X228702000Y-129680000D03*
X236322000Y-132220000D03*
D18*
X228702000Y-127140000D03*
D10*
G36*
X229012779Y-107616144D02*
G01*
X229035834Y-107619563D01*
X229058443Y-107625227D01*
X229080387Y-107633079D01*
X229101457Y-107643044D01*
X229121448Y-107655026D01*
X229140168Y-107668910D01*
X229157438Y-107684562D01*
X229173090Y-107701832D01*
X229186974Y-107720552D01*
X229198956Y-107740543D01*
X229208921Y-107761613D01*
X229216773Y-107783557D01*
X229222437Y-107806166D01*
X229225856Y-107829221D01*
X229227000Y-107852500D01*
X229227000Y-108327500D01*
X229225856Y-108350779D01*
X229222437Y-108373834D01*
X229216773Y-108396443D01*
X229208921Y-108418387D01*
X229198956Y-108439457D01*
X229186974Y-108459448D01*
X229173090Y-108478168D01*
X229157438Y-108495438D01*
X229140168Y-108511090D01*
X229121448Y-108524974D01*
X229101457Y-108536956D01*
X229080387Y-108546921D01*
X229058443Y-108554773D01*
X229035834Y-108560437D01*
X229012779Y-108563856D01*
X228989500Y-108565000D01*
X228414500Y-108565000D01*
X228391221Y-108563856D01*
X228368166Y-108560437D01*
X228345557Y-108554773D01*
X228323613Y-108546921D01*
X228302543Y-108536956D01*
X228282552Y-108524974D01*
X228263832Y-108511090D01*
X228246562Y-108495438D01*
X228230910Y-108478168D01*
X228217026Y-108459448D01*
X228205044Y-108439457D01*
X228195079Y-108418387D01*
X228187227Y-108396443D01*
X228181563Y-108373834D01*
X228178144Y-108350779D01*
X228177000Y-108327500D01*
X228177000Y-107852500D01*
X228178144Y-107829221D01*
X228181563Y-107806166D01*
X228187227Y-107783557D01*
X228195079Y-107761613D01*
X228205044Y-107740543D01*
X228217026Y-107720552D01*
X228230910Y-107701832D01*
X228246562Y-107684562D01*
X228263832Y-107668910D01*
X228282552Y-107655026D01*
X228302543Y-107643044D01*
X228323613Y-107633079D01*
X228345557Y-107625227D01*
X228368166Y-107619563D01*
X228391221Y-107616144D01*
X228414500Y-107615000D01*
X228989500Y-107615000D01*
X229012779Y-107616144D01*
G37*
G36*
X230762779Y-107616144D02*
G01*
X230785834Y-107619563D01*
X230808443Y-107625227D01*
X230830387Y-107633079D01*
X230851457Y-107643044D01*
X230871448Y-107655026D01*
X230890168Y-107668910D01*
X230907438Y-107684562D01*
X230923090Y-107701832D01*
X230936974Y-107720552D01*
X230948956Y-107740543D01*
X230958921Y-107761613D01*
X230966773Y-107783557D01*
X230972437Y-107806166D01*
X230975856Y-107829221D01*
X230977000Y-107852500D01*
X230977000Y-108327500D01*
X230975856Y-108350779D01*
X230972437Y-108373834D01*
X230966773Y-108396443D01*
X230958921Y-108418387D01*
X230948956Y-108439457D01*
X230936974Y-108459448D01*
X230923090Y-108478168D01*
X230907438Y-108495438D01*
X230890168Y-108511090D01*
X230871448Y-108524974D01*
X230851457Y-108536956D01*
X230830387Y-108546921D01*
X230808443Y-108554773D01*
X230785834Y-108560437D01*
X230762779Y-108563856D01*
X230739500Y-108565000D01*
X230164500Y-108565000D01*
X230141221Y-108563856D01*
X230118166Y-108560437D01*
X230095557Y-108554773D01*
X230073613Y-108546921D01*
X230052543Y-108536956D01*
X230032552Y-108524974D01*
X230013832Y-108511090D01*
X229996562Y-108495438D01*
X229980910Y-108478168D01*
X229967026Y-108459448D01*
X229955044Y-108439457D01*
X229945079Y-108418387D01*
X229937227Y-108396443D01*
X229931563Y-108373834D01*
X229928144Y-108350779D01*
X229927000Y-108327500D01*
X229927000Y-107852500D01*
X229928144Y-107829221D01*
X229931563Y-107806166D01*
X229937227Y-107783557D01*
X229945079Y-107761613D01*
X229955044Y-107740543D01*
X229967026Y-107720552D01*
X229980910Y-107701832D01*
X229996562Y-107684562D01*
X230013832Y-107668910D01*
X230032552Y-107655026D01*
X230052543Y-107643044D01*
X230073613Y-107633079D01*
X230095557Y-107625227D01*
X230118166Y-107619563D01*
X230141221Y-107616144D01*
X230164500Y-107615000D01*
X230739500Y-107615000D01*
X230762779Y-107616144D01*
G37*
D18*
X228702000Y-111900000D03*
D19*
X236322000Y-116980000D03*
X228702000Y-114440000D03*
X236322000Y-114440000D03*
X228702000Y-116980000D03*
X236322000Y-111900000D03*
X223622000Y-127140000D03*
X216002000Y-132220000D03*
X223622000Y-129680000D03*
X216002000Y-129680000D03*
X223622000Y-132220000D03*
D18*
X216002000Y-127140000D03*
D10*
G36*
X216312779Y-107616144D02*
G01*
X216335834Y-107619563D01*
X216358443Y-107625227D01*
X216380387Y-107633079D01*
X216401457Y-107643044D01*
X216421448Y-107655026D01*
X216440168Y-107668910D01*
X216457438Y-107684562D01*
X216473090Y-107701832D01*
X216486974Y-107720552D01*
X216498956Y-107740543D01*
X216508921Y-107761613D01*
X216516773Y-107783557D01*
X216522437Y-107806166D01*
X216525856Y-107829221D01*
X216527000Y-107852500D01*
X216527000Y-108327500D01*
X216525856Y-108350779D01*
X216522437Y-108373834D01*
X216516773Y-108396443D01*
X216508921Y-108418387D01*
X216498956Y-108439457D01*
X216486974Y-108459448D01*
X216473090Y-108478168D01*
X216457438Y-108495438D01*
X216440168Y-108511090D01*
X216421448Y-108524974D01*
X216401457Y-108536956D01*
X216380387Y-108546921D01*
X216358443Y-108554773D01*
X216335834Y-108560437D01*
X216312779Y-108563856D01*
X216289500Y-108565000D01*
X215714500Y-108565000D01*
X215691221Y-108563856D01*
X215668166Y-108560437D01*
X215645557Y-108554773D01*
X215623613Y-108546921D01*
X215602543Y-108536956D01*
X215582552Y-108524974D01*
X215563832Y-108511090D01*
X215546562Y-108495438D01*
X215530910Y-108478168D01*
X215517026Y-108459448D01*
X215505044Y-108439457D01*
X215495079Y-108418387D01*
X215487227Y-108396443D01*
X215481563Y-108373834D01*
X215478144Y-108350779D01*
X215477000Y-108327500D01*
X215477000Y-107852500D01*
X215478144Y-107829221D01*
X215481563Y-107806166D01*
X215487227Y-107783557D01*
X215495079Y-107761613D01*
X215505044Y-107740543D01*
X215517026Y-107720552D01*
X215530910Y-107701832D01*
X215546562Y-107684562D01*
X215563832Y-107668910D01*
X215582552Y-107655026D01*
X215602543Y-107643044D01*
X215623613Y-107633079D01*
X215645557Y-107625227D01*
X215668166Y-107619563D01*
X215691221Y-107616144D01*
X215714500Y-107615000D01*
X216289500Y-107615000D01*
X216312779Y-107616144D01*
G37*
G36*
X218062779Y-107616144D02*
G01*
X218085834Y-107619563D01*
X218108443Y-107625227D01*
X218130387Y-107633079D01*
X218151457Y-107643044D01*
X218171448Y-107655026D01*
X218190168Y-107668910D01*
X218207438Y-107684562D01*
X218223090Y-107701832D01*
X218236974Y-107720552D01*
X218248956Y-107740543D01*
X218258921Y-107761613D01*
X218266773Y-107783557D01*
X218272437Y-107806166D01*
X218275856Y-107829221D01*
X218277000Y-107852500D01*
X218277000Y-108327500D01*
X218275856Y-108350779D01*
X218272437Y-108373834D01*
X218266773Y-108396443D01*
X218258921Y-108418387D01*
X218248956Y-108439457D01*
X218236974Y-108459448D01*
X218223090Y-108478168D01*
X218207438Y-108495438D01*
X218190168Y-108511090D01*
X218171448Y-108524974D01*
X218151457Y-108536956D01*
X218130387Y-108546921D01*
X218108443Y-108554773D01*
X218085834Y-108560437D01*
X218062779Y-108563856D01*
X218039500Y-108565000D01*
X217464500Y-108565000D01*
X217441221Y-108563856D01*
X217418166Y-108560437D01*
X217395557Y-108554773D01*
X217373613Y-108546921D01*
X217352543Y-108536956D01*
X217332552Y-108524974D01*
X217313832Y-108511090D01*
X217296562Y-108495438D01*
X217280910Y-108478168D01*
X217267026Y-108459448D01*
X217255044Y-108439457D01*
X217245079Y-108418387D01*
X217237227Y-108396443D01*
X217231563Y-108373834D01*
X217228144Y-108350779D01*
X217227000Y-108327500D01*
X217227000Y-107852500D01*
X217228144Y-107829221D01*
X217231563Y-107806166D01*
X217237227Y-107783557D01*
X217245079Y-107761613D01*
X217255044Y-107740543D01*
X217267026Y-107720552D01*
X217280910Y-107701832D01*
X217296562Y-107684562D01*
X217313832Y-107668910D01*
X217332552Y-107655026D01*
X217352543Y-107643044D01*
X217373613Y-107633079D01*
X217395557Y-107625227D01*
X217418166Y-107619563D01*
X217441221Y-107616144D01*
X217464500Y-107615000D01*
X218039500Y-107615000D01*
X218062779Y-107616144D01*
G37*
G36*
X218062779Y-122856144D02*
G01*
X218085834Y-122859563D01*
X218108443Y-122865227D01*
X218130387Y-122873079D01*
X218151457Y-122883044D01*
X218171448Y-122895026D01*
X218190168Y-122908910D01*
X218207438Y-122924562D01*
X218223090Y-122941832D01*
X218236974Y-122960552D01*
X218248956Y-122980543D01*
X218258921Y-123001613D01*
X218266773Y-123023557D01*
X218272437Y-123046166D01*
X218275856Y-123069221D01*
X218277000Y-123092500D01*
X218277000Y-123567500D01*
X218275856Y-123590779D01*
X218272437Y-123613834D01*
X218266773Y-123636443D01*
X218258921Y-123658387D01*
X218248956Y-123679457D01*
X218236974Y-123699448D01*
X218223090Y-123718168D01*
X218207438Y-123735438D01*
X218190168Y-123751090D01*
X218171448Y-123764974D01*
X218151457Y-123776956D01*
X218130387Y-123786921D01*
X218108443Y-123794773D01*
X218085834Y-123800437D01*
X218062779Y-123803856D01*
X218039500Y-123805000D01*
X217464500Y-123805000D01*
X217441221Y-123803856D01*
X217418166Y-123800437D01*
X217395557Y-123794773D01*
X217373613Y-123786921D01*
X217352543Y-123776956D01*
X217332552Y-123764974D01*
X217313832Y-123751090D01*
X217296562Y-123735438D01*
X217280910Y-123718168D01*
X217267026Y-123699448D01*
X217255044Y-123679457D01*
X217245079Y-123658387D01*
X217237227Y-123636443D01*
X217231563Y-123613834D01*
X217228144Y-123590779D01*
X217227000Y-123567500D01*
X217227000Y-123092500D01*
X217228144Y-123069221D01*
X217231563Y-123046166D01*
X217237227Y-123023557D01*
X217245079Y-123001613D01*
X217255044Y-122980543D01*
X217267026Y-122960552D01*
X217280910Y-122941832D01*
X217296562Y-122924562D01*
X217313832Y-122908910D01*
X217332552Y-122895026D01*
X217352543Y-122883044D01*
X217373613Y-122873079D01*
X217395557Y-122865227D01*
X217418166Y-122859563D01*
X217441221Y-122856144D01*
X217464500Y-122855000D01*
X218039500Y-122855000D01*
X218062779Y-122856144D01*
G37*
G36*
X216312779Y-122856144D02*
G01*
X216335834Y-122859563D01*
X216358443Y-122865227D01*
X216380387Y-122873079D01*
X216401457Y-122883044D01*
X216421448Y-122895026D01*
X216440168Y-122908910D01*
X216457438Y-122924562D01*
X216473090Y-122941832D01*
X216486974Y-122960552D01*
X216498956Y-122980543D01*
X216508921Y-123001613D01*
X216516773Y-123023557D01*
X216522437Y-123046166D01*
X216525856Y-123069221D01*
X216527000Y-123092500D01*
X216527000Y-123567500D01*
X216525856Y-123590779D01*
X216522437Y-123613834D01*
X216516773Y-123636443D01*
X216508921Y-123658387D01*
X216498956Y-123679457D01*
X216486974Y-123699448D01*
X216473090Y-123718168D01*
X216457438Y-123735438D01*
X216440168Y-123751090D01*
X216421448Y-123764974D01*
X216401457Y-123776956D01*
X216380387Y-123786921D01*
X216358443Y-123794773D01*
X216335834Y-123800437D01*
X216312779Y-123803856D01*
X216289500Y-123805000D01*
X215714500Y-123805000D01*
X215691221Y-123803856D01*
X215668166Y-123800437D01*
X215645557Y-123794773D01*
X215623613Y-123786921D01*
X215602543Y-123776956D01*
X215582552Y-123764974D01*
X215563832Y-123751090D01*
X215546562Y-123735438D01*
X215530910Y-123718168D01*
X215517026Y-123699448D01*
X215505044Y-123679457D01*
X215495079Y-123658387D01*
X215487227Y-123636443D01*
X215481563Y-123613834D01*
X215478144Y-123590779D01*
X215477000Y-123567500D01*
X215477000Y-123092500D01*
X215478144Y-123069221D01*
X215481563Y-123046166D01*
X215487227Y-123023557D01*
X215495079Y-123001613D01*
X215505044Y-122980543D01*
X215517026Y-122960552D01*
X215530910Y-122941832D01*
X215546562Y-122924562D01*
X215563832Y-122908910D01*
X215582552Y-122895026D01*
X215602543Y-122883044D01*
X215623613Y-122873079D01*
X215645557Y-122865227D01*
X215668166Y-122859563D01*
X215691221Y-122856144D01*
X215714500Y-122855000D01*
X216289500Y-122855000D01*
X216312779Y-122856144D01*
G37*
G36*
X203612779Y-122856144D02*
G01*
X203635834Y-122859563D01*
X203658443Y-122865227D01*
X203680387Y-122873079D01*
X203701457Y-122883044D01*
X203721448Y-122895026D01*
X203740168Y-122908910D01*
X203757438Y-122924562D01*
X203773090Y-122941832D01*
X203786974Y-122960552D01*
X203798956Y-122980543D01*
X203808921Y-123001613D01*
X203816773Y-123023557D01*
X203822437Y-123046166D01*
X203825856Y-123069221D01*
X203827000Y-123092500D01*
X203827000Y-123567500D01*
X203825856Y-123590779D01*
X203822437Y-123613834D01*
X203816773Y-123636443D01*
X203808921Y-123658387D01*
X203798956Y-123679457D01*
X203786974Y-123699448D01*
X203773090Y-123718168D01*
X203757438Y-123735438D01*
X203740168Y-123751090D01*
X203721448Y-123764974D01*
X203701457Y-123776956D01*
X203680387Y-123786921D01*
X203658443Y-123794773D01*
X203635834Y-123800437D01*
X203612779Y-123803856D01*
X203589500Y-123805000D01*
X203014500Y-123805000D01*
X202991221Y-123803856D01*
X202968166Y-123800437D01*
X202945557Y-123794773D01*
X202923613Y-123786921D01*
X202902543Y-123776956D01*
X202882552Y-123764974D01*
X202863832Y-123751090D01*
X202846562Y-123735438D01*
X202830910Y-123718168D01*
X202817026Y-123699448D01*
X202805044Y-123679457D01*
X202795079Y-123658387D01*
X202787227Y-123636443D01*
X202781563Y-123613834D01*
X202778144Y-123590779D01*
X202777000Y-123567500D01*
X202777000Y-123092500D01*
X202778144Y-123069221D01*
X202781563Y-123046166D01*
X202787227Y-123023557D01*
X202795079Y-123001613D01*
X202805044Y-122980543D01*
X202817026Y-122960552D01*
X202830910Y-122941832D01*
X202846562Y-122924562D01*
X202863832Y-122908910D01*
X202882552Y-122895026D01*
X202902543Y-122883044D01*
X202923613Y-122873079D01*
X202945557Y-122865227D01*
X202968166Y-122859563D01*
X202991221Y-122856144D01*
X203014500Y-122855000D01*
X203589500Y-122855000D01*
X203612779Y-122856144D01*
G37*
G36*
X205362779Y-122856144D02*
G01*
X205385834Y-122859563D01*
X205408443Y-122865227D01*
X205430387Y-122873079D01*
X205451457Y-122883044D01*
X205471448Y-122895026D01*
X205490168Y-122908910D01*
X205507438Y-122924562D01*
X205523090Y-122941832D01*
X205536974Y-122960552D01*
X205548956Y-122980543D01*
X205558921Y-123001613D01*
X205566773Y-123023557D01*
X205572437Y-123046166D01*
X205575856Y-123069221D01*
X205577000Y-123092500D01*
X205577000Y-123567500D01*
X205575856Y-123590779D01*
X205572437Y-123613834D01*
X205566773Y-123636443D01*
X205558921Y-123658387D01*
X205548956Y-123679457D01*
X205536974Y-123699448D01*
X205523090Y-123718168D01*
X205507438Y-123735438D01*
X205490168Y-123751090D01*
X205471448Y-123764974D01*
X205451457Y-123776956D01*
X205430387Y-123786921D01*
X205408443Y-123794773D01*
X205385834Y-123800437D01*
X205362779Y-123803856D01*
X205339500Y-123805000D01*
X204764500Y-123805000D01*
X204741221Y-123803856D01*
X204718166Y-123800437D01*
X204695557Y-123794773D01*
X204673613Y-123786921D01*
X204652543Y-123776956D01*
X204632552Y-123764974D01*
X204613832Y-123751090D01*
X204596562Y-123735438D01*
X204580910Y-123718168D01*
X204567026Y-123699448D01*
X204555044Y-123679457D01*
X204545079Y-123658387D01*
X204537227Y-123636443D01*
X204531563Y-123613834D01*
X204528144Y-123590779D01*
X204527000Y-123567500D01*
X204527000Y-123092500D01*
X204528144Y-123069221D01*
X204531563Y-123046166D01*
X204537227Y-123023557D01*
X204545079Y-123001613D01*
X204555044Y-122980543D01*
X204567026Y-122960552D01*
X204580910Y-122941832D01*
X204596562Y-122924562D01*
X204613832Y-122908910D01*
X204632552Y-122895026D01*
X204652543Y-122883044D01*
X204673613Y-122873079D01*
X204695557Y-122865227D01*
X204718166Y-122859563D01*
X204741221Y-122856144D01*
X204764500Y-122855000D01*
X205339500Y-122855000D01*
X205362779Y-122856144D01*
G37*
D18*
X203302000Y-127140000D03*
D19*
X210922000Y-132220000D03*
X203302000Y-129680000D03*
X210922000Y-129680000D03*
X203302000Y-132220000D03*
X210922000Y-127140000D03*
X210922000Y-111900000D03*
X203302000Y-116980000D03*
X210922000Y-114440000D03*
X203302000Y-114440000D03*
X210922000Y-116980000D03*
D18*
X203302000Y-111900000D03*
D10*
G36*
X205362779Y-107616144D02*
G01*
X205385834Y-107619563D01*
X205408443Y-107625227D01*
X205430387Y-107633079D01*
X205451457Y-107643044D01*
X205471448Y-107655026D01*
X205490168Y-107668910D01*
X205507438Y-107684562D01*
X205523090Y-107701832D01*
X205536974Y-107720552D01*
X205548956Y-107740543D01*
X205558921Y-107761613D01*
X205566773Y-107783557D01*
X205572437Y-107806166D01*
X205575856Y-107829221D01*
X205577000Y-107852500D01*
X205577000Y-108327500D01*
X205575856Y-108350779D01*
X205572437Y-108373834D01*
X205566773Y-108396443D01*
X205558921Y-108418387D01*
X205548956Y-108439457D01*
X205536974Y-108459448D01*
X205523090Y-108478168D01*
X205507438Y-108495438D01*
X205490168Y-108511090D01*
X205471448Y-108524974D01*
X205451457Y-108536956D01*
X205430387Y-108546921D01*
X205408443Y-108554773D01*
X205385834Y-108560437D01*
X205362779Y-108563856D01*
X205339500Y-108565000D01*
X204764500Y-108565000D01*
X204741221Y-108563856D01*
X204718166Y-108560437D01*
X204695557Y-108554773D01*
X204673613Y-108546921D01*
X204652543Y-108536956D01*
X204632552Y-108524974D01*
X204613832Y-108511090D01*
X204596562Y-108495438D01*
X204580910Y-108478168D01*
X204567026Y-108459448D01*
X204555044Y-108439457D01*
X204545079Y-108418387D01*
X204537227Y-108396443D01*
X204531563Y-108373834D01*
X204528144Y-108350779D01*
X204527000Y-108327500D01*
X204527000Y-107852500D01*
X204528144Y-107829221D01*
X204531563Y-107806166D01*
X204537227Y-107783557D01*
X204545079Y-107761613D01*
X204555044Y-107740543D01*
X204567026Y-107720552D01*
X204580910Y-107701832D01*
X204596562Y-107684562D01*
X204613832Y-107668910D01*
X204632552Y-107655026D01*
X204652543Y-107643044D01*
X204673613Y-107633079D01*
X204695557Y-107625227D01*
X204718166Y-107619563D01*
X204741221Y-107616144D01*
X204764500Y-107615000D01*
X205339500Y-107615000D01*
X205362779Y-107616144D01*
G37*
G36*
X203612779Y-107616144D02*
G01*
X203635834Y-107619563D01*
X203658443Y-107625227D01*
X203680387Y-107633079D01*
X203701457Y-107643044D01*
X203721448Y-107655026D01*
X203740168Y-107668910D01*
X203757438Y-107684562D01*
X203773090Y-107701832D01*
X203786974Y-107720552D01*
X203798956Y-107740543D01*
X203808921Y-107761613D01*
X203816773Y-107783557D01*
X203822437Y-107806166D01*
X203825856Y-107829221D01*
X203827000Y-107852500D01*
X203827000Y-108327500D01*
X203825856Y-108350779D01*
X203822437Y-108373834D01*
X203816773Y-108396443D01*
X203808921Y-108418387D01*
X203798956Y-108439457D01*
X203786974Y-108459448D01*
X203773090Y-108478168D01*
X203757438Y-108495438D01*
X203740168Y-108511090D01*
X203721448Y-108524974D01*
X203701457Y-108536956D01*
X203680387Y-108546921D01*
X203658443Y-108554773D01*
X203635834Y-108560437D01*
X203612779Y-108563856D01*
X203589500Y-108565000D01*
X203014500Y-108565000D01*
X202991221Y-108563856D01*
X202968166Y-108560437D01*
X202945557Y-108554773D01*
X202923613Y-108546921D01*
X202902543Y-108536956D01*
X202882552Y-108524974D01*
X202863832Y-108511090D01*
X202846562Y-108495438D01*
X202830910Y-108478168D01*
X202817026Y-108459448D01*
X202805044Y-108439457D01*
X202795079Y-108418387D01*
X202787227Y-108396443D01*
X202781563Y-108373834D01*
X202778144Y-108350779D01*
X202777000Y-108327500D01*
X202777000Y-107852500D01*
X202778144Y-107829221D01*
X202781563Y-107806166D01*
X202787227Y-107783557D01*
X202795079Y-107761613D01*
X202805044Y-107740543D01*
X202817026Y-107720552D01*
X202830910Y-107701832D01*
X202846562Y-107684562D01*
X202863832Y-107668910D01*
X202882552Y-107655026D01*
X202902543Y-107643044D01*
X202923613Y-107633079D01*
X202945557Y-107625227D01*
X202968166Y-107619563D01*
X202991221Y-107616144D01*
X203014500Y-107615000D01*
X203589500Y-107615000D01*
X203612779Y-107616144D01*
G37*
D20*
X261500000Y-146500000D03*
X203500000Y-146500000D03*
X261500000Y-97500000D03*
X203500000Y-97500000D03*
M02*
