M48
INCH,TZ
T1C0.0236
T2C0.0315
T3C0.0394
T4C0.0433
T5C0.0472
%
G90
G05
T1
X85040Y-40305
X85040Y-52055
X105040Y-44396
X106490Y-46146
X106500Y-47046
T2
X99040Y-43555
X99040Y-44555
X99040Y-45555
X102040Y-43555
X102040Y-44555
X102040Y-45555
X93040Y-49055
X93040Y-50055
X93040Y-51055
X96040Y-49055
X96040Y-50055
X96040Y-51055
X81040Y-43555
X81040Y-44555
X81040Y-45555
X84040Y-43555
X84040Y-44555
X84040Y-45555
X93040Y-43555
X93040Y-44555
X93040Y-45555
X96040Y-43555
X96040Y-44555
X96040Y-45555
X81040Y-49055
X81040Y-50055
X81040Y-51055
X84040Y-49055
X84040Y-50055
X84040Y-51055
X99040Y-49055
X99040Y-50055
X99040Y-51055
X102040Y-49055
X102040Y-50055
X102040Y-51055
X87040Y-49055
X87040Y-50055
X87040Y-51055
X90040Y-49055
X90040Y-50055
X90040Y-51055
X87040Y-43555
X87040Y-44555
X87040Y-45555
X90040Y-43555
X90040Y-44555
X90040Y-45555
T3
X82035Y-37886
X82035Y-38886
X83035Y-37886
X83035Y-38886
X84035Y-37886
X84035Y-38886
X85035Y-37886
X85035Y-38886
X86035Y-37886
X86035Y-38886
X87035Y-37886
X87035Y-38886
X88035Y-37886
X88035Y-38886
X89035Y-37886
X89035Y-38886
X90035Y-37886
X90035Y-38886
X91035Y-37886
X91035Y-38886
X92035Y-37886
X92035Y-38886
X93035Y-37886
X93035Y-38886
X94035Y-37886
X94035Y-38886
X95035Y-37886
X95035Y-38886
X96035Y-37886
X96035Y-38886
X97035Y-37886
X97035Y-38886
X98035Y-37886
X98035Y-38886
X99035Y-37886
X99035Y-38886
X100035Y-37886
X100035Y-38886
X101035Y-37886
X101035Y-38886
X107240Y-51446
X108240Y-51446
T4
X96040Y-53055
X96040Y-54555
X81040Y-53055
X81040Y-54555
X90040Y-53055
X90040Y-54555
X99040Y-53055
X99040Y-54555
X84040Y-53055
X84040Y-54555
X87040Y-53055
X87040Y-54555
X93040Y-53055
X93040Y-54555
X102040Y-53055
X102040Y-54555
T5
X106740Y-57555
X108240Y-57555
X109740Y-57555
X82540Y-57555
X84040Y-57555
X85540Y-57555
X87040Y-57555
X88540Y-57555
X90040Y-57555
X91540Y-57555
X93040Y-57555
X94540Y-57555
X96040Y-57555
X97540Y-57555
X99040Y-57555
X100540Y-57555
T0
M30
