G04 #@! TF.GenerationSoftware,KiCad,Pcbnew,5.1.2-f72e74a~84~ubuntu19.04.1*
G04 #@! TF.CreationDate,2019-07-08T05:48:43+02:00*
G04 #@! TF.ProjectId,switch-control-hat,73776974-6368-42d6-936f-6e74726f6c2d,rev?*
G04 #@! TF.SameCoordinates,Original*
G04 #@! TF.FileFunction,Legend,Top*
G04 #@! TF.FilePolarity,Positive*
%FSLAX46Y46*%
G04 Gerber Fmt 4.6, Leading zero omitted, Abs format (unit mm)*
G04 Created by KiCad (PCBNEW 5.1.2-f72e74a~84~ubuntu19.04.1) date 2019-07-08 05:48:43*
%MOMM*%
%LPD*%
G04 APERTURE LIST*
%ADD10C,0.150000*%
%ADD11C,0.120000*%
G04 APERTURE END LIST*
D10*
X264391238Y-133325880D02*
X264962666Y-133325880D01*
X264676952Y-134325880D02*
X264676952Y-133325880D01*
X265724571Y-134325880D02*
X265724571Y-133802071D01*
X265676952Y-133706833D01*
X265581714Y-133659214D01*
X265391238Y-133659214D01*
X265296000Y-133706833D01*
X265724571Y-134278261D02*
X265629333Y-134325880D01*
X265391238Y-134325880D01*
X265296000Y-134278261D01*
X265248380Y-134183023D01*
X265248380Y-134087785D01*
X265296000Y-133992547D01*
X265391238Y-133944928D01*
X265629333Y-133944928D01*
X265724571Y-133897309D01*
X266200761Y-133659214D02*
X266200761Y-134325880D01*
X266200761Y-133754452D02*
X266248380Y-133706833D01*
X266343619Y-133659214D01*
X266486476Y-133659214D01*
X266581714Y-133706833D01*
X266629333Y-133802071D01*
X266629333Y-134325880D01*
X267105523Y-134325880D02*
X267105523Y-133325880D01*
X267200761Y-133944928D02*
X267486476Y-134325880D01*
X267486476Y-133659214D02*
X267105523Y-134040166D01*
X267915047Y-134325880D02*
X267915047Y-133659214D01*
X267915047Y-133325880D02*
X267867428Y-133373500D01*
X267915047Y-133421119D01*
X267962666Y-133373500D01*
X267915047Y-133325880D01*
X267915047Y-133421119D01*
X268343619Y-134278261D02*
X268438857Y-134325880D01*
X268629333Y-134325880D01*
X268724571Y-134278261D01*
X268772190Y-134183023D01*
X268772190Y-134135404D01*
X268724571Y-134040166D01*
X268629333Y-133992547D01*
X268486476Y-133992547D01*
X268391238Y-133944928D01*
X268343619Y-133849690D01*
X268343619Y-133802071D01*
X268391238Y-133706833D01*
X268486476Y-133659214D01*
X268629333Y-133659214D01*
X268724571Y-133706833D01*
X269343619Y-134325880D02*
X269248380Y-134278261D01*
X269200761Y-134230642D01*
X269153142Y-134135404D01*
X269153142Y-133849690D01*
X269200761Y-133754452D01*
X269248380Y-133706833D01*
X269343619Y-133659214D01*
X269486476Y-133659214D01*
X269581714Y-133706833D01*
X269629333Y-133754452D01*
X269676952Y-133849690D01*
X269676952Y-134135404D01*
X269629333Y-134230642D01*
X269581714Y-134278261D01*
X269486476Y-134325880D01*
X269343619Y-134325880D01*
X270867428Y-134325880D02*
X270867428Y-133325880D01*
X270867428Y-133802071D02*
X271438857Y-133802071D01*
X271438857Y-134325880D02*
X271438857Y-133325880D01*
X271915047Y-134230642D02*
X271962666Y-134278261D01*
X271915047Y-134325880D01*
X271867428Y-134278261D01*
X271915047Y-134230642D01*
X271915047Y-134325880D01*
X273153142Y-134325880D02*
X273153142Y-133325880D01*
X273486476Y-134040166D01*
X273819809Y-133325880D01*
X273819809Y-134325880D01*
X274438857Y-134325880D02*
X274343619Y-134278261D01*
X274296000Y-134230642D01*
X274248380Y-134135404D01*
X274248380Y-133849690D01*
X274296000Y-133754452D01*
X274343619Y-133706833D01*
X274438857Y-133659214D01*
X274581714Y-133659214D01*
X274676952Y-133706833D01*
X274724571Y-133754452D01*
X274772190Y-133849690D01*
X274772190Y-134135404D01*
X274724571Y-134230642D01*
X274676952Y-134278261D01*
X274581714Y-134325880D01*
X274438857Y-134325880D01*
X275153142Y-134278261D02*
X275248380Y-134325880D01*
X275438857Y-134325880D01*
X275534095Y-134278261D01*
X275581714Y-134183023D01*
X275581714Y-134135404D01*
X275534095Y-134040166D01*
X275438857Y-133992547D01*
X275296000Y-133992547D01*
X275200761Y-133944928D01*
X275153142Y-133849690D01*
X275153142Y-133802071D01*
X275200761Y-133706833D01*
X275296000Y-133659214D01*
X275438857Y-133659214D01*
X275534095Y-133706833D01*
X276153142Y-134325880D02*
X276057904Y-134278261D01*
X276010285Y-134230642D01*
X275962666Y-134135404D01*
X275962666Y-133849690D01*
X276010285Y-133754452D01*
X276057904Y-133706833D01*
X276153142Y-133659214D01*
X276296000Y-133659214D01*
X276391238Y-133706833D01*
X276438857Y-133754452D01*
X276486476Y-133849690D01*
X276486476Y-134135404D01*
X276438857Y-134230642D01*
X276391238Y-134278261D01*
X276296000Y-134325880D01*
X276153142Y-134325880D01*
X265010285Y-135975880D02*
X264534095Y-135975880D01*
X264534095Y-134975880D01*
X265343619Y-135975880D02*
X265343619Y-135309214D01*
X265343619Y-134975880D02*
X265296000Y-135023500D01*
X265343619Y-135071119D01*
X265391238Y-135023500D01*
X265343619Y-134975880D01*
X265343619Y-135071119D01*
X265819809Y-135309214D02*
X265819809Y-136166357D01*
X265772190Y-136261595D01*
X265676952Y-136309214D01*
X265629333Y-136309214D01*
X265819809Y-134975880D02*
X265772190Y-135023500D01*
X265819809Y-135071119D01*
X265867428Y-135023500D01*
X265819809Y-134975880D01*
X265819809Y-135071119D01*
X266724571Y-135309214D02*
X266724571Y-135975880D01*
X266296000Y-135309214D02*
X266296000Y-135833023D01*
X266343619Y-135928261D01*
X266438857Y-135975880D01*
X266581714Y-135975880D01*
X266676952Y-135928261D01*
X266724571Y-135880642D01*
X267962666Y-135975880D02*
X267962666Y-134975880D01*
X268343619Y-134975880D01*
X268438857Y-135023500D01*
X268486476Y-135071119D01*
X268534095Y-135166357D01*
X268534095Y-135309214D01*
X268486476Y-135404452D01*
X268438857Y-135452071D01*
X268343619Y-135499690D01*
X267962666Y-135499690D01*
X268962666Y-135975880D02*
X268962666Y-134975880D01*
X269391238Y-135975880D02*
X269391238Y-135452071D01*
X269343619Y-135356833D01*
X269248380Y-135309214D01*
X269105523Y-135309214D01*
X269010285Y-135356833D01*
X268962666Y-135404452D01*
X269867428Y-135975880D02*
X269867428Y-135309214D01*
X269867428Y-134975880D02*
X269819809Y-135023500D01*
X269867428Y-135071119D01*
X269915047Y-135023500D01*
X269867428Y-134975880D01*
X269867428Y-135071119D01*
X270486476Y-135975880D02*
X270391238Y-135928261D01*
X270343619Y-135833023D01*
X270343619Y-134975880D01*
X271010285Y-135975880D02*
X270915047Y-135928261D01*
X270867428Y-135833023D01*
X270867428Y-134975880D01*
X271391238Y-135975880D02*
X271391238Y-135309214D01*
X271391238Y-134975880D02*
X271343619Y-135023500D01*
X271391238Y-135071119D01*
X271438857Y-135023500D01*
X271391238Y-134975880D01*
X271391238Y-135071119D01*
X271867428Y-135309214D02*
X271867428Y-136309214D01*
X271867428Y-135356833D02*
X271962666Y-135309214D01*
X272153142Y-135309214D01*
X272248380Y-135356833D01*
X272296000Y-135404452D01*
X272343619Y-135499690D01*
X272343619Y-135785404D01*
X272296000Y-135880642D01*
X272248380Y-135928261D01*
X272153142Y-135975880D01*
X271962666Y-135975880D01*
X271867428Y-135928261D01*
X265105523Y-137530642D02*
X265057904Y-137578261D01*
X264915047Y-137625880D01*
X264819809Y-137625880D01*
X264676952Y-137578261D01*
X264581714Y-137483023D01*
X264534095Y-137387785D01*
X264486476Y-137197309D01*
X264486476Y-137054452D01*
X264534095Y-136863976D01*
X264581714Y-136768738D01*
X264676952Y-136673500D01*
X264819809Y-136625880D01*
X264915047Y-136625880D01*
X265057904Y-136673500D01*
X265105523Y-136721119D01*
X265438857Y-136959214D02*
X265676952Y-137625880D01*
X265915047Y-136959214D02*
X265676952Y-137625880D01*
X265581714Y-137863976D01*
X265534095Y-137911595D01*
X265438857Y-137959214D01*
X266296000Y-136959214D02*
X266296000Y-137625880D01*
X266296000Y-137054452D02*
X266343619Y-137006833D01*
X266438857Y-136959214D01*
X266581714Y-136959214D01*
X266676952Y-137006833D01*
X266724571Y-137102071D01*
X266724571Y-137625880D01*
X267057904Y-136959214D02*
X267438857Y-136959214D01*
X267200761Y-136625880D02*
X267200761Y-137483023D01*
X267248380Y-137578261D01*
X267343619Y-137625880D01*
X267438857Y-137625880D01*
X267772190Y-137625880D02*
X267772190Y-136625880D01*
X268200761Y-137625880D02*
X268200761Y-137102071D01*
X268153142Y-137006833D01*
X268057904Y-136959214D01*
X267915047Y-136959214D01*
X267819809Y-137006833D01*
X267772190Y-137054452D01*
X268676952Y-137625880D02*
X268676952Y-136959214D01*
X268676952Y-136625880D02*
X268629333Y-136673500D01*
X268676952Y-136721119D01*
X268724571Y-136673500D01*
X268676952Y-136625880D01*
X268676952Y-136721119D01*
X269581714Y-137625880D02*
X269581714Y-137102071D01*
X269534095Y-137006833D01*
X269438857Y-136959214D01*
X269248380Y-136959214D01*
X269153142Y-137006833D01*
X269581714Y-137578261D02*
X269486476Y-137625880D01*
X269248380Y-137625880D01*
X269153142Y-137578261D01*
X269105523Y-137483023D01*
X269105523Y-137387785D01*
X269153142Y-137292547D01*
X269248380Y-137244928D01*
X269486476Y-137244928D01*
X269581714Y-137197309D01*
X271391238Y-137530642D02*
X271343619Y-137578261D01*
X271200761Y-137625880D01*
X271105523Y-137625880D01*
X270962666Y-137578261D01*
X270867428Y-137483023D01*
X270819809Y-137387785D01*
X270772190Y-137197309D01*
X270772190Y-137054452D01*
X270819809Y-136863976D01*
X270867428Y-136768738D01*
X270962666Y-136673500D01*
X271105523Y-136625880D01*
X271200761Y-136625880D01*
X271343619Y-136673500D01*
X271391238Y-136721119D01*
X271819809Y-137625880D02*
X271819809Y-136625880D01*
X272248380Y-137625880D02*
X272248380Y-137102071D01*
X272200761Y-137006833D01*
X272105523Y-136959214D01*
X271962666Y-136959214D01*
X271867428Y-137006833D01*
X271819809Y-137054452D01*
X272724571Y-137625880D02*
X272724571Y-136959214D01*
X272724571Y-136625880D02*
X272676952Y-136673500D01*
X272724571Y-136721119D01*
X272772190Y-136673500D01*
X272724571Y-136625880D01*
X272724571Y-136721119D01*
X273629333Y-137625880D02*
X273629333Y-137102071D01*
X273581714Y-137006833D01*
X273486476Y-136959214D01*
X273296000Y-136959214D01*
X273200761Y-137006833D01*
X273629333Y-137578261D02*
X273534095Y-137625880D01*
X273296000Y-137625880D01*
X273200761Y-137578261D01*
X273153142Y-137483023D01*
X273153142Y-137387785D01*
X273200761Y-137292547D01*
X273296000Y-137244928D01*
X273534095Y-137244928D01*
X273629333Y-137197309D01*
X274105523Y-136959214D02*
X274105523Y-137625880D01*
X274105523Y-137054452D02*
X274153142Y-137006833D01*
X274248380Y-136959214D01*
X274391238Y-136959214D01*
X274486476Y-137006833D01*
X274534095Y-137102071D01*
X274534095Y-137625880D01*
X275438857Y-136959214D02*
X275438857Y-137768738D01*
X275391238Y-137863976D01*
X275343619Y-137911595D01*
X275248380Y-137959214D01*
X275105523Y-137959214D01*
X275010285Y-137911595D01*
X275438857Y-137578261D02*
X275343619Y-137625880D01*
X275153142Y-137625880D01*
X275057904Y-137578261D01*
X275010285Y-137530642D01*
X274962666Y-137435404D01*
X274962666Y-137149690D01*
X275010285Y-137054452D01*
X275057904Y-137006833D01*
X275153142Y-136959214D01*
X275343619Y-136959214D01*
X275438857Y-137006833D01*
X264819809Y-138275880D02*
X264819809Y-138990166D01*
X264772190Y-139133023D01*
X264676952Y-139228261D01*
X264534095Y-139275880D01*
X264438857Y-139275880D01*
X265438857Y-139275880D02*
X265343619Y-139228261D01*
X265296000Y-139180642D01*
X265248380Y-139085404D01*
X265248380Y-138799690D01*
X265296000Y-138704452D01*
X265343619Y-138656833D01*
X265438857Y-138609214D01*
X265581714Y-138609214D01*
X265676952Y-138656833D01*
X265724571Y-138704452D01*
X265772190Y-138799690D01*
X265772190Y-139085404D01*
X265724571Y-139180642D01*
X265676952Y-139228261D01*
X265581714Y-139275880D01*
X265438857Y-139275880D01*
X266200761Y-138609214D02*
X266200761Y-139275880D01*
X266200761Y-138704452D02*
X266248380Y-138656833D01*
X266343619Y-138609214D01*
X266486476Y-138609214D01*
X266581714Y-138656833D01*
X266629333Y-138752071D01*
X266629333Y-139275880D01*
X267534095Y-139275880D02*
X267534095Y-138752071D01*
X267486476Y-138656833D01*
X267391238Y-138609214D01*
X267200761Y-138609214D01*
X267105523Y-138656833D01*
X267534095Y-139228261D02*
X267438857Y-139275880D01*
X267200761Y-139275880D01*
X267105523Y-139228261D01*
X267057904Y-139133023D01*
X267057904Y-139037785D01*
X267105523Y-138942547D01*
X267200761Y-138894928D01*
X267438857Y-138894928D01*
X267534095Y-138847309D01*
X267867428Y-138609214D02*
X268248380Y-138609214D01*
X268010285Y-138275880D02*
X268010285Y-139133023D01*
X268057904Y-139228261D01*
X268153142Y-139275880D01*
X268248380Y-139275880D01*
X268581714Y-139275880D02*
X268581714Y-138275880D01*
X269010285Y-139275880D02*
X269010285Y-138752071D01*
X268962666Y-138656833D01*
X268867428Y-138609214D01*
X268724571Y-138609214D01*
X268629333Y-138656833D01*
X268581714Y-138704452D01*
X269915047Y-139275880D02*
X269915047Y-138752071D01*
X269867428Y-138656833D01*
X269772190Y-138609214D01*
X269581714Y-138609214D01*
X269486476Y-138656833D01*
X269915047Y-139228261D02*
X269819809Y-139275880D01*
X269581714Y-139275880D01*
X269486476Y-139228261D01*
X269438857Y-139133023D01*
X269438857Y-139037785D01*
X269486476Y-138942547D01*
X269581714Y-138894928D01*
X269819809Y-138894928D01*
X269915047Y-138847309D01*
X270391238Y-138609214D02*
X270391238Y-139275880D01*
X270391238Y-138704452D02*
X270438857Y-138656833D01*
X270534095Y-138609214D01*
X270676952Y-138609214D01*
X270772190Y-138656833D01*
X270819809Y-138752071D01*
X270819809Y-139275880D01*
X272010285Y-139228261D02*
X272153142Y-139275880D01*
X272391238Y-139275880D01*
X272486476Y-139228261D01*
X272534095Y-139180642D01*
X272581714Y-139085404D01*
X272581714Y-138990166D01*
X272534095Y-138894928D01*
X272486476Y-138847309D01*
X272391238Y-138799690D01*
X272200761Y-138752071D01*
X272105523Y-138704452D01*
X272057904Y-138656833D01*
X272010285Y-138561595D01*
X272010285Y-138466357D01*
X272057904Y-138371119D01*
X272105523Y-138323500D01*
X272200761Y-138275880D01*
X272438857Y-138275880D01*
X272581714Y-138323500D01*
X273010285Y-139275880D02*
X273010285Y-138609214D01*
X273010285Y-138275880D02*
X272962666Y-138323500D01*
X273010285Y-138371119D01*
X273057904Y-138323500D01*
X273010285Y-138275880D01*
X273010285Y-138371119D01*
X273867428Y-139228261D02*
X273772190Y-139275880D01*
X273581714Y-139275880D01*
X273486476Y-139228261D01*
X273438857Y-139133023D01*
X273438857Y-138752071D01*
X273486476Y-138656833D01*
X273581714Y-138609214D01*
X273772190Y-138609214D01*
X273867428Y-138656833D01*
X273915047Y-138752071D01*
X273915047Y-138847309D01*
X273438857Y-138942547D01*
X274248380Y-138609214D02*
X274486476Y-139275880D01*
X274724571Y-138609214D01*
X275486476Y-139228261D02*
X275391238Y-139275880D01*
X275200761Y-139275880D01*
X275105523Y-139228261D01*
X275057904Y-139133023D01*
X275057904Y-138752071D01*
X275105523Y-138656833D01*
X275200761Y-138609214D01*
X275391238Y-138609214D01*
X275486476Y-138656833D01*
X275534095Y-138752071D01*
X275534095Y-138847309D01*
X275057904Y-138942547D01*
X275962666Y-139275880D02*
X275962666Y-138609214D01*
X275962666Y-138799690D02*
X276010285Y-138704452D01*
X276057904Y-138656833D01*
X276153142Y-138609214D01*
X276248380Y-138609214D01*
X276534095Y-139228261D02*
X276629333Y-139275880D01*
X276819809Y-139275880D01*
X276915047Y-139228261D01*
X276962666Y-139133023D01*
X276962666Y-139085404D01*
X276915047Y-138990166D01*
X276819809Y-138942547D01*
X276676952Y-138942547D01*
X276581714Y-138894928D01*
X276534095Y-138799690D01*
X276534095Y-138752071D01*
X276581714Y-138656833D01*
X276676952Y-138609214D01*
X276819809Y-138609214D01*
X276915047Y-138656833D01*
X264534095Y-140925880D02*
X264534095Y-139925880D01*
X265105523Y-140925880D01*
X265105523Y-139925880D01*
X265581714Y-140925880D02*
X265581714Y-140259214D01*
X265581714Y-139925880D02*
X265534095Y-139973500D01*
X265581714Y-140021119D01*
X265629333Y-139973500D01*
X265581714Y-139925880D01*
X265581714Y-140021119D01*
X265962666Y-140259214D02*
X266200761Y-140925880D01*
X266438857Y-140259214D01*
X267200761Y-140878261D02*
X267105523Y-140925880D01*
X266915047Y-140925880D01*
X266819809Y-140878261D01*
X266772190Y-140783023D01*
X266772190Y-140402071D01*
X266819809Y-140306833D01*
X266915047Y-140259214D01*
X267105523Y-140259214D01*
X267200761Y-140306833D01*
X267248380Y-140402071D01*
X267248380Y-140497309D01*
X266772190Y-140592547D01*
X267676952Y-140925880D02*
X267676952Y-139925880D01*
X267772190Y-140544928D02*
X268057904Y-140925880D01*
X268057904Y-140259214D02*
X267676952Y-140640166D01*
X269772190Y-139973500D02*
X269676952Y-139925880D01*
X269534095Y-139925880D01*
X269391238Y-139973500D01*
X269296000Y-140068738D01*
X269248380Y-140163976D01*
X269200761Y-140354452D01*
X269200761Y-140497309D01*
X269248380Y-140687785D01*
X269296000Y-140783023D01*
X269391238Y-140878261D01*
X269534095Y-140925880D01*
X269629333Y-140925880D01*
X269772190Y-140878261D01*
X269819809Y-140830642D01*
X269819809Y-140497309D01*
X269629333Y-140497309D01*
X270248380Y-140925880D02*
X270248380Y-139925880D01*
X270676952Y-140925880D02*
X270676952Y-140402071D01*
X270629333Y-140306833D01*
X270534095Y-140259214D01*
X270391238Y-140259214D01*
X270296000Y-140306833D01*
X270248380Y-140354452D01*
X271581714Y-140925880D02*
X271581714Y-140402071D01*
X271534095Y-140306833D01*
X271438857Y-140259214D01*
X271248380Y-140259214D01*
X271153142Y-140306833D01*
X271581714Y-140878261D02*
X271486476Y-140925880D01*
X271248380Y-140925880D01*
X271153142Y-140878261D01*
X271105523Y-140783023D01*
X271105523Y-140687785D01*
X271153142Y-140592547D01*
X271248380Y-140544928D01*
X271486476Y-140544928D01*
X271581714Y-140497309D01*
X271962666Y-140259214D02*
X272486476Y-140259214D01*
X271962666Y-140925880D01*
X272486476Y-140925880D01*
X272867428Y-140925880D02*
X272867428Y-140259214D01*
X272867428Y-139925880D02*
X272819809Y-139973500D01*
X272867428Y-140021119D01*
X272915047Y-139973500D01*
X272867428Y-139925880D01*
X272867428Y-140021119D01*
X264486476Y-142528261D02*
X264629333Y-142575880D01*
X264867428Y-142575880D01*
X264962666Y-142528261D01*
X265010285Y-142480642D01*
X265057904Y-142385404D01*
X265057904Y-142290166D01*
X265010285Y-142194928D01*
X264962666Y-142147309D01*
X264867428Y-142099690D01*
X264676952Y-142052071D01*
X264581714Y-142004452D01*
X264534095Y-141956833D01*
X264486476Y-141861595D01*
X264486476Y-141766357D01*
X264534095Y-141671119D01*
X264581714Y-141623500D01*
X264676952Y-141575880D01*
X264915047Y-141575880D01*
X265057904Y-141623500D01*
X265915047Y-142528261D02*
X265819809Y-142575880D01*
X265629333Y-142575880D01*
X265534095Y-142528261D01*
X265486476Y-142480642D01*
X265438857Y-142385404D01*
X265438857Y-142099690D01*
X265486476Y-142004452D01*
X265534095Y-141956833D01*
X265629333Y-141909214D01*
X265819809Y-141909214D01*
X265915047Y-141956833D01*
X266486476Y-142575880D02*
X266391238Y-142528261D01*
X266343619Y-142480642D01*
X266296000Y-142385404D01*
X266296000Y-142099690D01*
X266343619Y-142004452D01*
X266391238Y-141956833D01*
X266486476Y-141909214D01*
X266629333Y-141909214D01*
X266724571Y-141956833D01*
X266772190Y-142004452D01*
X266819809Y-142099690D01*
X266819809Y-142385404D01*
X266772190Y-142480642D01*
X266724571Y-142528261D01*
X266629333Y-142575880D01*
X266486476Y-142575880D01*
X267105523Y-141909214D02*
X267486476Y-141909214D01*
X267248380Y-141575880D02*
X267248380Y-142433023D01*
X267296000Y-142528261D01*
X267391238Y-142575880D01*
X267486476Y-142575880D01*
X267676952Y-141909214D02*
X268057904Y-141909214D01*
X267819809Y-141575880D02*
X267819809Y-142433023D01*
X267867428Y-142528261D01*
X267962666Y-142575880D01*
X268057904Y-142575880D01*
X269153142Y-142052071D02*
X269486476Y-142052071D01*
X269629333Y-142575880D02*
X269153142Y-142575880D01*
X269153142Y-141575880D01*
X269629333Y-141575880D01*
X269962666Y-141909214D02*
X270200761Y-142575880D01*
X270438857Y-141909214D02*
X270200761Y-142575880D01*
X270105523Y-142813976D01*
X270057904Y-142861595D01*
X269962666Y-142909214D01*
X270962666Y-142575880D02*
X270867428Y-142528261D01*
X270819809Y-142480642D01*
X270772190Y-142385404D01*
X270772190Y-142099690D01*
X270819809Y-142004452D01*
X270867428Y-141956833D01*
X270962666Y-141909214D01*
X271105523Y-141909214D01*
X271200761Y-141956833D01*
X271248380Y-142004452D01*
X271296000Y-142099690D01*
X271296000Y-142385404D01*
X271248380Y-142480642D01*
X271200761Y-142528261D01*
X271105523Y-142575880D01*
X270962666Y-142575880D01*
X271724571Y-141909214D02*
X271724571Y-142575880D01*
X271724571Y-142004452D02*
X271772190Y-141956833D01*
X271867428Y-141909214D01*
X272010285Y-141909214D01*
X272105523Y-141956833D01*
X272153142Y-142052071D01*
X272153142Y-142575880D01*
X272772190Y-142575880D02*
X272676952Y-142528261D01*
X272629333Y-142480642D01*
X272581714Y-142385404D01*
X272581714Y-142099690D01*
X272629333Y-142004452D01*
X272676952Y-141956833D01*
X272772190Y-141909214D01*
X272915047Y-141909214D01*
X273010285Y-141956833D01*
X273057904Y-142004452D01*
X273105523Y-142099690D01*
X273105523Y-142385404D01*
X273057904Y-142480642D01*
X273010285Y-142528261D01*
X272915047Y-142575880D01*
X272772190Y-142575880D01*
X222773904Y-102763880D02*
X222773904Y-101763880D01*
X223154857Y-101763880D01*
X223250095Y-101811500D01*
X223297714Y-101859119D01*
X223345333Y-101954357D01*
X223345333Y-102097214D01*
X223297714Y-102192452D01*
X223250095Y-102240071D01*
X223154857Y-102287690D01*
X222773904Y-102287690D01*
X224345333Y-102763880D02*
X224012000Y-102287690D01*
X223773904Y-102763880D02*
X223773904Y-101763880D01*
X224154857Y-101763880D01*
X224250095Y-101811500D01*
X224297714Y-101859119D01*
X224345333Y-101954357D01*
X224345333Y-102097214D01*
X224297714Y-102192452D01*
X224250095Y-102240071D01*
X224154857Y-102287690D01*
X223773904Y-102287690D01*
X224773904Y-102763880D02*
X224773904Y-101763880D01*
X225154857Y-101763880D02*
X225821523Y-101763880D01*
X225154857Y-102763880D01*
X225821523Y-102763880D01*
X226202476Y-102763880D02*
X226202476Y-101763880D01*
X226535809Y-102478166D01*
X226869142Y-101763880D01*
X226869142Y-102763880D01*
X228059619Y-102716261D02*
X228154857Y-102763880D01*
X228345333Y-102763880D01*
X228440571Y-102716261D01*
X228488190Y-102621023D01*
X228488190Y-102573404D01*
X228440571Y-102478166D01*
X228345333Y-102430547D01*
X228202476Y-102430547D01*
X228107238Y-102382928D01*
X228059619Y-102287690D01*
X228059619Y-102240071D01*
X228107238Y-102144833D01*
X228202476Y-102097214D01*
X228345333Y-102097214D01*
X228440571Y-102144833D01*
X228821523Y-102097214D02*
X229012000Y-102763880D01*
X229202476Y-102287690D01*
X229392952Y-102763880D01*
X229583428Y-102097214D01*
X229964380Y-102763880D02*
X229964380Y-102097214D01*
X229964380Y-101763880D02*
X229916761Y-101811500D01*
X229964380Y-101859119D01*
X230012000Y-101811500D01*
X229964380Y-101763880D01*
X229964380Y-101859119D01*
X230297714Y-102097214D02*
X230678666Y-102097214D01*
X230440571Y-101763880D02*
X230440571Y-102621023D01*
X230488190Y-102716261D01*
X230583428Y-102763880D01*
X230678666Y-102763880D01*
X231440571Y-102716261D02*
X231345333Y-102763880D01*
X231154857Y-102763880D01*
X231059619Y-102716261D01*
X231012000Y-102668642D01*
X230964380Y-102573404D01*
X230964380Y-102287690D01*
X231012000Y-102192452D01*
X231059619Y-102144833D01*
X231154857Y-102097214D01*
X231345333Y-102097214D01*
X231440571Y-102144833D01*
X231869142Y-102763880D02*
X231869142Y-101763880D01*
X232297714Y-102763880D02*
X232297714Y-102240071D01*
X232250095Y-102144833D01*
X232154857Y-102097214D01*
X232012000Y-102097214D01*
X231916761Y-102144833D01*
X231869142Y-102192452D01*
X233964380Y-102716261D02*
X233869142Y-102763880D01*
X233678666Y-102763880D01*
X233583428Y-102716261D01*
X233535809Y-102668642D01*
X233488190Y-102573404D01*
X233488190Y-102287690D01*
X233535809Y-102192452D01*
X233583428Y-102144833D01*
X233678666Y-102097214D01*
X233869142Y-102097214D01*
X233964380Y-102144833D01*
X234535809Y-102763880D02*
X234440571Y-102716261D01*
X234392952Y-102668642D01*
X234345333Y-102573404D01*
X234345333Y-102287690D01*
X234392952Y-102192452D01*
X234440571Y-102144833D01*
X234535809Y-102097214D01*
X234678666Y-102097214D01*
X234773904Y-102144833D01*
X234821523Y-102192452D01*
X234869142Y-102287690D01*
X234869142Y-102573404D01*
X234821523Y-102668642D01*
X234773904Y-102716261D01*
X234678666Y-102763880D01*
X234535809Y-102763880D01*
X235297714Y-102097214D02*
X235297714Y-102763880D01*
X235297714Y-102192452D02*
X235345333Y-102144833D01*
X235440571Y-102097214D01*
X235583428Y-102097214D01*
X235678666Y-102144833D01*
X235726285Y-102240071D01*
X235726285Y-102763880D01*
X236059619Y-102097214D02*
X236440571Y-102097214D01*
X236202476Y-101763880D02*
X236202476Y-102621023D01*
X236250095Y-102716261D01*
X236345333Y-102763880D01*
X236440571Y-102763880D01*
X236773904Y-102763880D02*
X236773904Y-102097214D01*
X236773904Y-102287690D02*
X236821523Y-102192452D01*
X236869142Y-102144833D01*
X236964380Y-102097214D01*
X237059619Y-102097214D01*
X237535809Y-102763880D02*
X237440571Y-102716261D01*
X237392952Y-102668642D01*
X237345333Y-102573404D01*
X237345333Y-102287690D01*
X237392952Y-102192452D01*
X237440571Y-102144833D01*
X237535809Y-102097214D01*
X237678666Y-102097214D01*
X237773904Y-102144833D01*
X237821523Y-102192452D01*
X237869142Y-102287690D01*
X237869142Y-102573404D01*
X237821523Y-102668642D01*
X237773904Y-102716261D01*
X237678666Y-102763880D01*
X237535809Y-102763880D01*
X238440571Y-102763880D02*
X238345333Y-102716261D01*
X238297714Y-102621023D01*
X238297714Y-101763880D01*
X239488190Y-102097214D02*
X239726285Y-102763880D01*
X239964380Y-102097214D01*
X240869142Y-102763880D02*
X240297714Y-102763880D01*
X240583428Y-102763880D02*
X240583428Y-101763880D01*
X240488190Y-101906738D01*
X240392952Y-102001976D01*
X240297714Y-102049595D01*
X241297714Y-102668642D02*
X241345333Y-102716261D01*
X241297714Y-102763880D01*
X241250095Y-102716261D01*
X241297714Y-102668642D01*
X241297714Y-102763880D01*
X241964380Y-101763880D02*
X242059619Y-101763880D01*
X242154857Y-101811500D01*
X242202476Y-101859119D01*
X242250095Y-101954357D01*
X242297714Y-102144833D01*
X242297714Y-102382928D01*
X242250095Y-102573404D01*
X242202476Y-102668642D01*
X242154857Y-102716261D01*
X242059619Y-102763880D01*
X241964380Y-102763880D01*
X241869142Y-102716261D01*
X241821523Y-102668642D01*
X241773904Y-102573404D01*
X241726285Y-102382928D01*
X241726285Y-102144833D01*
X241773904Y-101954357D01*
X241821523Y-101859119D01*
X241869142Y-101811500D01*
X241964380Y-101763880D01*
D11*
X210652000Y-123270000D02*
G75*
G02X208652000Y-123270000I-1000000J0D01*
G01*
X208652000Y-123270000D02*
X207002000Y-123270000D01*
X207002000Y-123270000D02*
X207002000Y-131010000D01*
X207002000Y-131010000D02*
X212302000Y-131010000D01*
X212302000Y-131010000D02*
X212302000Y-123270000D01*
X212302000Y-123270000D02*
X210652000Y-123270000D01*
X227542000Y-123270000D02*
X225892000Y-123270000D01*
X227542000Y-131010000D02*
X227542000Y-123270000D01*
X222242000Y-131010000D02*
X227542000Y-131010000D01*
X222242000Y-123270000D02*
X222242000Y-131010000D01*
X223892000Y-123270000D02*
X222242000Y-123270000D01*
X225892000Y-123270000D02*
G75*
G02X223892000Y-123270000I-1000000J0D01*
G01*
X270820000Y-143590000D02*
X271420000Y-143590000D01*
X271120000Y-144190000D02*
X270820000Y-143590000D01*
X271420000Y-143590000D02*
X271120000Y-144190000D01*
X209952000Y-143590000D02*
X209652000Y-144190000D01*
X209652000Y-144190000D02*
X209352000Y-143590000D01*
X209352000Y-143590000D02*
X209952000Y-143590000D01*
X215212635Y-138570000D02*
G75*
G03X215212635Y-138570000I-1750635J0D01*
G01*
X213462000Y-136819365D02*
X213462000Y-136160000D01*
X259182000Y-136819365D02*
X259182000Y-136160000D01*
X260932635Y-138570000D02*
G75*
G03X260932635Y-138570000I-1750635J0D01*
G01*
X271830000Y-125642000D02*
X271830000Y-127457000D01*
X271575000Y-125642000D02*
X271830000Y-125642000D01*
X271575000Y-121782000D02*
X271575000Y-125642000D01*
X271575000Y-117922000D02*
X271830000Y-117922000D01*
X271575000Y-121782000D02*
X271575000Y-117922000D01*
X282095000Y-125642000D02*
X281840000Y-125642000D01*
X282095000Y-121782000D02*
X282095000Y-125642000D01*
X282095000Y-117922000D02*
X281840000Y-117922000D01*
X282095000Y-121782000D02*
X282095000Y-117922000D01*
X274655000Y-98038000D02*
X276105000Y-98038000D01*
X272055000Y-100638000D02*
X274655000Y-98038000D01*
X271255000Y-100638000D02*
X272055000Y-100638000D01*
X271255000Y-108938000D02*
X271255000Y-100638000D01*
X272055000Y-108938000D02*
X271255000Y-108938000D01*
X274655000Y-111538000D02*
X272055000Y-108938000D01*
X276105000Y-111538000D02*
X274655000Y-111538000D01*
X280105000Y-111538000D02*
X282205000Y-111538000D01*
X280105000Y-98038000D02*
X282205000Y-98038000D01*
X282155000Y-111538000D02*
G75*
G03X283705000Y-110088000I50000J1500000D01*
G01*
X282155000Y-98038000D02*
G75*
G02X283705000Y-99488000I50000J-1500000D01*
G01*
X283293671Y-100297339D02*
G75*
G03X283305000Y-109288000I3711329J-4490661D01*
G01*
X283689160Y-110202615D02*
G75*
G03X283305000Y-109288000I-984160J124615D01*
G01*
X283689160Y-99373385D02*
G75*
G02X283305000Y-100288000I-984160J-124615D01*
G01*
X267480922Y-120206000D02*
X267998078Y-120206000D01*
X267480922Y-118786000D02*
X267998078Y-118786000D01*
X267480922Y-117920000D02*
X267998078Y-117920000D01*
X267480922Y-116500000D02*
X267998078Y-116500000D01*
X267998078Y-121072000D02*
X267480922Y-121072000D01*
X267998078Y-122492000D02*
X267480922Y-122492000D01*
X267998078Y-125644000D02*
X267480922Y-125644000D01*
X267998078Y-127064000D02*
X267480922Y-127064000D01*
X271060000Y-132002000D02*
X271060000Y-130672000D01*
X272390000Y-132002000D02*
X271060000Y-132002000D01*
X273660000Y-132002000D02*
X273660000Y-129342000D01*
X273660000Y-129342000D02*
X276260000Y-129342000D01*
X273660000Y-132002000D02*
X276260000Y-132002000D01*
X276260000Y-132002000D02*
X276260000Y-129342000D01*
X266123078Y-123358000D02*
X265605922Y-123358000D01*
X266123078Y-124778000D02*
X265605922Y-124778000D01*
X251562000Y-136819365D02*
X251562000Y-136160000D01*
X253312635Y-138570000D02*
G75*
G03X253312635Y-138570000I-1750635J0D01*
G01*
X243942000Y-136819365D02*
X243942000Y-136160000D01*
X245692635Y-138570000D02*
G75*
G03X245692635Y-138570000I-1750635J0D01*
G01*
X236322000Y-136819365D02*
X236322000Y-136160000D01*
X238072635Y-138570000D02*
G75*
G03X238072635Y-138570000I-1750635J0D01*
G01*
X228702000Y-136819365D02*
X228702000Y-136160000D01*
X230452635Y-138570000D02*
G75*
G03X230452635Y-138570000I-1750635J0D01*
G01*
X221082000Y-136819365D02*
X221082000Y-136160000D01*
X222832635Y-138570000D02*
G75*
G03X222832635Y-138570000I-1750635J0D01*
G01*
X207592635Y-138570000D02*
G75*
G03X207592635Y-138570000I-1750635J0D01*
G01*
X205842000Y-136819365D02*
X205842000Y-136160000D01*
X225892000Y-109300000D02*
G75*
G02X223892000Y-109300000I-1000000J0D01*
G01*
X223892000Y-109300000D02*
X222242000Y-109300000D01*
X222242000Y-109300000D02*
X222242000Y-117040000D01*
X222242000Y-117040000D02*
X227542000Y-117040000D01*
X227542000Y-117040000D02*
X227542000Y-109300000D01*
X227542000Y-109300000D02*
X225892000Y-109300000D01*
X206520922Y-106895000D02*
X207038078Y-106895000D01*
X206520922Y-105475000D02*
X207038078Y-105475000D01*
X206520922Y-120865000D02*
X207038078Y-120865000D01*
X206520922Y-119445000D02*
X207038078Y-119445000D01*
X221760922Y-105475000D02*
X222278078Y-105475000D01*
X221760922Y-106895000D02*
X222278078Y-106895000D01*
X221760922Y-120865000D02*
X222278078Y-120865000D01*
X221760922Y-119445000D02*
X222278078Y-119445000D01*
X237000922Y-105475000D02*
X237518078Y-105475000D01*
X237000922Y-106895000D02*
X237518078Y-106895000D01*
X237000922Y-119445000D02*
X237518078Y-119445000D01*
X237000922Y-120865000D02*
X237518078Y-120865000D01*
X252240922Y-106895000D02*
X252758078Y-106895000D01*
X252240922Y-105475000D02*
X252758078Y-105475000D01*
X252240922Y-119445000D02*
X252758078Y-119445000D01*
X252240922Y-120865000D02*
X252758078Y-120865000D01*
X212302000Y-109300000D02*
X210652000Y-109300000D01*
X212302000Y-117040000D02*
X212302000Y-109300000D01*
X207002000Y-117040000D02*
X212302000Y-117040000D01*
X207002000Y-109300000D02*
X207002000Y-117040000D01*
X208652000Y-109300000D02*
X207002000Y-109300000D01*
X210652000Y-109300000D02*
G75*
G02X208652000Y-109300000I-1000000J0D01*
G01*
X241132000Y-109300000D02*
G75*
G02X239132000Y-109300000I-1000000J0D01*
G01*
X239132000Y-109300000D02*
X237482000Y-109300000D01*
X237482000Y-109300000D02*
X237482000Y-117040000D01*
X237482000Y-117040000D02*
X242782000Y-117040000D01*
X242782000Y-117040000D02*
X242782000Y-109300000D01*
X242782000Y-109300000D02*
X241132000Y-109300000D01*
X242782000Y-123270000D02*
X241132000Y-123270000D01*
X242782000Y-131010000D02*
X242782000Y-123270000D01*
X237482000Y-131010000D02*
X242782000Y-131010000D01*
X237482000Y-123270000D02*
X237482000Y-131010000D01*
X239132000Y-123270000D02*
X237482000Y-123270000D01*
X241132000Y-123270000D02*
G75*
G02X239132000Y-123270000I-1000000J0D01*
G01*
X256372000Y-109300000D02*
G75*
G02X254372000Y-109300000I-1000000J0D01*
G01*
X254372000Y-109300000D02*
X252722000Y-109300000D01*
X252722000Y-109300000D02*
X252722000Y-117040000D01*
X252722000Y-117040000D02*
X258022000Y-117040000D01*
X258022000Y-117040000D02*
X258022000Y-109300000D01*
X258022000Y-109300000D02*
X256372000Y-109300000D01*
X258022000Y-123270000D02*
X256372000Y-123270000D01*
X258022000Y-131010000D02*
X258022000Y-123270000D01*
X252722000Y-131010000D02*
X258022000Y-131010000D01*
X252722000Y-123270000D02*
X252722000Y-131010000D01*
X254372000Y-123270000D02*
X252722000Y-123270000D01*
X256372000Y-123270000D02*
G75*
G02X254372000Y-123270000I-1000000J0D01*
G01*
D10*
X208890095Y-121722380D02*
X208890095Y-122531904D01*
X208937714Y-122627142D01*
X208985333Y-122674761D01*
X209080571Y-122722380D01*
X209271047Y-122722380D01*
X209366285Y-122674761D01*
X209413904Y-122627142D01*
X209461523Y-122531904D01*
X209461523Y-121722380D01*
X209890095Y-121817619D02*
X209937714Y-121770000D01*
X210032952Y-121722380D01*
X210271047Y-121722380D01*
X210366285Y-121770000D01*
X210413904Y-121817619D01*
X210461523Y-121912857D01*
X210461523Y-122008095D01*
X210413904Y-122150952D01*
X209842476Y-122722380D01*
X210461523Y-122722380D01*
X224130095Y-121722380D02*
X224130095Y-122531904D01*
X224177714Y-122627142D01*
X224225333Y-122674761D01*
X224320571Y-122722380D01*
X224511047Y-122722380D01*
X224606285Y-122674761D01*
X224653904Y-122627142D01*
X224701523Y-122531904D01*
X224701523Y-121722380D01*
X225606285Y-122055714D02*
X225606285Y-122722380D01*
X225368190Y-121674761D02*
X225130095Y-122389047D01*
X225749142Y-122389047D01*
X274596666Y-142642380D02*
X274596666Y-143356666D01*
X274549047Y-143499523D01*
X274453809Y-143594761D01*
X274310952Y-143642380D01*
X274215714Y-143642380D01*
X275025238Y-142737619D02*
X275072857Y-142690000D01*
X275168095Y-142642380D01*
X275406190Y-142642380D01*
X275501428Y-142690000D01*
X275549047Y-142737619D01*
X275596666Y-142832857D01*
X275596666Y-142928095D01*
X275549047Y-143070952D01*
X274977619Y-143642380D01*
X275596666Y-143642380D01*
X232178666Y-142642380D02*
X232178666Y-143356666D01*
X232131047Y-143499523D01*
X232035809Y-143594761D01*
X231892952Y-143642380D01*
X231797714Y-143642380D01*
X233178666Y-143642380D02*
X232607238Y-143642380D01*
X232892952Y-143642380D02*
X232892952Y-142642380D01*
X232797714Y-142785238D01*
X232702476Y-142880476D01*
X232607238Y-142928095D01*
X216665015Y-137403095D02*
X215665015Y-137403095D01*
X215665015Y-137165000D01*
X215712635Y-137022142D01*
X215807873Y-136926904D01*
X215903111Y-136879285D01*
X216093587Y-136831666D01*
X216236444Y-136831666D01*
X216426920Y-136879285D01*
X216522158Y-136926904D01*
X216617396Y-137022142D01*
X216665015Y-137165000D01*
X216665015Y-137403095D01*
X215760254Y-136450714D02*
X215712635Y-136403095D01*
X215665015Y-136307857D01*
X215665015Y-136069761D01*
X215712635Y-135974523D01*
X215760254Y-135926904D01*
X215855492Y-135879285D01*
X215950730Y-135879285D01*
X216093587Y-135926904D01*
X216665015Y-136498333D01*
X216665015Y-135879285D01*
X212814380Y-136821904D02*
X211814380Y-136821904D01*
X212814380Y-136250476D02*
X212242952Y-136679047D01*
X211814380Y-136250476D02*
X212385809Y-136821904D01*
X262385015Y-137403095D02*
X261385015Y-137403095D01*
X261385015Y-137165000D01*
X261432635Y-137022142D01*
X261527873Y-136926904D01*
X261623111Y-136879285D01*
X261813587Y-136831666D01*
X261956444Y-136831666D01*
X262146920Y-136879285D01*
X262242158Y-136926904D01*
X262337396Y-137022142D01*
X262385015Y-137165000D01*
X262385015Y-137403095D01*
X261813587Y-136260238D02*
X261765968Y-136355476D01*
X261718349Y-136403095D01*
X261623111Y-136450714D01*
X261575492Y-136450714D01*
X261480254Y-136403095D01*
X261432635Y-136355476D01*
X261385015Y-136260238D01*
X261385015Y-136069761D01*
X261432635Y-135974523D01*
X261480254Y-135926904D01*
X261575492Y-135879285D01*
X261623111Y-135879285D01*
X261718349Y-135926904D01*
X261765968Y-135974523D01*
X261813587Y-136069761D01*
X261813587Y-136260238D01*
X261861206Y-136355476D01*
X261908825Y-136403095D01*
X262004063Y-136450714D01*
X262194539Y-136450714D01*
X262289777Y-136403095D01*
X262337396Y-136355476D01*
X262385015Y-136260238D01*
X262385015Y-136069761D01*
X262337396Y-135974523D01*
X262289777Y-135926904D01*
X262194539Y-135879285D01*
X262004063Y-135879285D01*
X261908825Y-135926904D01*
X261861206Y-135974523D01*
X261813587Y-136069761D01*
X258534380Y-136821904D02*
X257534380Y-136821904D01*
X258534380Y-136250476D02*
X257962952Y-136679047D01*
X257534380Y-136250476D02*
X258105809Y-136821904D01*
X270187380Y-122543904D02*
X270996904Y-122543904D01*
X271092142Y-122496285D01*
X271139761Y-122448666D01*
X271187380Y-122353428D01*
X271187380Y-122162952D01*
X271139761Y-122067714D01*
X271092142Y-122020095D01*
X270996904Y-121972476D01*
X270187380Y-121972476D01*
X271187380Y-121448666D02*
X271187380Y-121258190D01*
X271139761Y-121162952D01*
X271092142Y-121115333D01*
X270949285Y-121020095D01*
X270758809Y-120972476D01*
X270377857Y-120972476D01*
X270282619Y-121020095D01*
X270235000Y-121067714D01*
X270187380Y-121162952D01*
X270187380Y-121353428D01*
X270235000Y-121448666D01*
X270282619Y-121496285D01*
X270377857Y-121543904D01*
X270615952Y-121543904D01*
X270711190Y-121496285D01*
X270758809Y-121448666D01*
X270806428Y-121353428D01*
X270806428Y-121162952D01*
X270758809Y-121067714D01*
X270711190Y-121020095D01*
X270615952Y-120972476D01*
X270033571Y-105573714D02*
X270081190Y-105430857D01*
X270128809Y-105383238D01*
X270224047Y-105335619D01*
X270366904Y-105335619D01*
X270462142Y-105383238D01*
X270509761Y-105430857D01*
X270557380Y-105526095D01*
X270557380Y-105907047D01*
X269557380Y-105907047D01*
X269557380Y-105573714D01*
X269605000Y-105478476D01*
X269652619Y-105430857D01*
X269747857Y-105383238D01*
X269843095Y-105383238D01*
X269938333Y-105430857D01*
X269985952Y-105478476D01*
X270033571Y-105573714D01*
X270033571Y-105907047D01*
X269557380Y-105049904D02*
X269557380Y-104478476D01*
X270557380Y-104764190D02*
X269557380Y-104764190D01*
X270557380Y-103621333D02*
X270557380Y-104192761D01*
X270557380Y-103907047D02*
X269557380Y-103907047D01*
X269700238Y-104002285D01*
X269795476Y-104097523D01*
X269843095Y-104192761D01*
X263825380Y-120138857D02*
X263349190Y-120472190D01*
X263825380Y-120710285D02*
X262825380Y-120710285D01*
X262825380Y-120329333D01*
X262873000Y-120234095D01*
X262920619Y-120186476D01*
X263015857Y-120138857D01*
X263158714Y-120138857D01*
X263253952Y-120186476D01*
X263301571Y-120234095D01*
X263349190Y-120329333D01*
X263349190Y-120710285D01*
X263825380Y-119186476D02*
X263825380Y-119757904D01*
X263825380Y-119472190D02*
X262825380Y-119472190D01*
X262968238Y-119567428D01*
X263063476Y-119662666D01*
X263111095Y-119757904D01*
X262920619Y-118805523D02*
X262873000Y-118757904D01*
X262825380Y-118662666D01*
X262825380Y-118424571D01*
X262873000Y-118329333D01*
X262920619Y-118281714D01*
X263015857Y-118234095D01*
X263111095Y-118234095D01*
X263253952Y-118281714D01*
X263825380Y-118853142D01*
X263825380Y-118234095D01*
X265700380Y-117852857D02*
X265224190Y-118186190D01*
X265700380Y-118424285D02*
X264700380Y-118424285D01*
X264700380Y-118043333D01*
X264748000Y-117948095D01*
X264795619Y-117900476D01*
X264890857Y-117852857D01*
X265033714Y-117852857D01*
X265128952Y-117900476D01*
X265176571Y-117948095D01*
X265224190Y-118043333D01*
X265224190Y-118424285D01*
X265700380Y-116900476D02*
X265700380Y-117471904D01*
X265700380Y-117186190D02*
X264700380Y-117186190D01*
X264843238Y-117281428D01*
X264938476Y-117376666D01*
X264986095Y-117471904D01*
X265700380Y-115948095D02*
X265700380Y-116519523D01*
X265700380Y-116233809D02*
X264700380Y-116233809D01*
X264843238Y-116329047D01*
X264938476Y-116424285D01*
X264986095Y-116519523D01*
X265700380Y-122424857D02*
X265224190Y-122758190D01*
X265700380Y-122996285D02*
X264700380Y-122996285D01*
X264700380Y-122615333D01*
X264748000Y-122520095D01*
X264795619Y-122472476D01*
X264890857Y-122424857D01*
X265033714Y-122424857D01*
X265128952Y-122472476D01*
X265176571Y-122520095D01*
X265224190Y-122615333D01*
X265224190Y-122996285D01*
X265700380Y-121472476D02*
X265700380Y-122043904D01*
X265700380Y-121758190D02*
X264700380Y-121758190D01*
X264843238Y-121853428D01*
X264938476Y-121948666D01*
X264986095Y-122043904D01*
X264700380Y-120853428D02*
X264700380Y-120758190D01*
X264748000Y-120662952D01*
X264795619Y-120615333D01*
X264890857Y-120567714D01*
X265081333Y-120520095D01*
X265319428Y-120520095D01*
X265509904Y-120567714D01*
X265605142Y-120615333D01*
X265652761Y-120662952D01*
X265700380Y-120758190D01*
X265700380Y-120853428D01*
X265652761Y-120948666D01*
X265605142Y-120996285D01*
X265509904Y-121043904D01*
X265319428Y-121091523D01*
X265081333Y-121091523D01*
X264890857Y-121043904D01*
X264795619Y-120996285D01*
X264748000Y-120948666D01*
X264700380Y-120853428D01*
X265700380Y-126520666D02*
X265224190Y-126854000D01*
X265700380Y-127092095D02*
X264700380Y-127092095D01*
X264700380Y-126711142D01*
X264748000Y-126615904D01*
X264795619Y-126568285D01*
X264890857Y-126520666D01*
X265033714Y-126520666D01*
X265128952Y-126568285D01*
X265176571Y-126615904D01*
X265224190Y-126711142D01*
X265224190Y-127092095D01*
X265700380Y-126044476D02*
X265700380Y-125854000D01*
X265652761Y-125758761D01*
X265605142Y-125711142D01*
X265462285Y-125615904D01*
X265271809Y-125568285D01*
X264890857Y-125568285D01*
X264795619Y-125615904D01*
X264748000Y-125663523D01*
X264700380Y-125758761D01*
X264700380Y-125949238D01*
X264748000Y-126044476D01*
X264795619Y-126092095D01*
X264890857Y-126139714D01*
X265128952Y-126139714D01*
X265224190Y-126092095D01*
X265271809Y-126044476D01*
X265319428Y-125949238D01*
X265319428Y-125758761D01*
X265271809Y-125663523D01*
X265224190Y-125615904D01*
X265128952Y-125568285D01*
X269512380Y-131005333D02*
X270226666Y-131005333D01*
X270369523Y-131052952D01*
X270464761Y-131148190D01*
X270512380Y-131291047D01*
X270512380Y-131386285D01*
X269512380Y-130624380D02*
X269512380Y-130005333D01*
X269893333Y-130338666D01*
X269893333Y-130195809D01*
X269940952Y-130100571D01*
X269988571Y-130052952D01*
X270083809Y-130005333D01*
X270321904Y-130005333D01*
X270417142Y-130052952D01*
X270464761Y-130100571D01*
X270512380Y-130195809D01*
X270512380Y-130481523D01*
X270464761Y-130576761D01*
X270417142Y-130624380D01*
X263730142Y-124234666D02*
X263777761Y-124282285D01*
X263825380Y-124425142D01*
X263825380Y-124520380D01*
X263777761Y-124663238D01*
X263682523Y-124758476D01*
X263587285Y-124806095D01*
X263396809Y-124853714D01*
X263253952Y-124853714D01*
X263063476Y-124806095D01*
X262968238Y-124758476D01*
X262873000Y-124663238D01*
X262825380Y-124520380D01*
X262825380Y-124425142D01*
X262873000Y-124282285D01*
X262920619Y-124234666D01*
X263825380Y-123282285D02*
X263825380Y-123853714D01*
X263825380Y-123568000D02*
X262825380Y-123568000D01*
X262968238Y-123663238D01*
X263063476Y-123758476D01*
X263111095Y-123853714D01*
X254765015Y-137403095D02*
X253765015Y-137403095D01*
X253765015Y-137165000D01*
X253812635Y-137022142D01*
X253907873Y-136926904D01*
X254003111Y-136879285D01*
X254193587Y-136831666D01*
X254336444Y-136831666D01*
X254526920Y-136879285D01*
X254622158Y-136926904D01*
X254717396Y-137022142D01*
X254765015Y-137165000D01*
X254765015Y-137403095D01*
X253765015Y-136498333D02*
X253765015Y-135831666D01*
X254765015Y-136260238D01*
X250914380Y-136821904D02*
X249914380Y-136821904D01*
X250914380Y-136250476D02*
X250342952Y-136679047D01*
X249914380Y-136250476D02*
X250485809Y-136821904D01*
X247145015Y-137403095D02*
X246145015Y-137403095D01*
X246145015Y-137165000D01*
X246192635Y-137022142D01*
X246287873Y-136926904D01*
X246383111Y-136879285D01*
X246573587Y-136831666D01*
X246716444Y-136831666D01*
X246906920Y-136879285D01*
X247002158Y-136926904D01*
X247097396Y-137022142D01*
X247145015Y-137165000D01*
X247145015Y-137403095D01*
X246145015Y-135974523D02*
X246145015Y-136165000D01*
X246192635Y-136260238D01*
X246240254Y-136307857D01*
X246383111Y-136403095D01*
X246573587Y-136450714D01*
X246954539Y-136450714D01*
X247049777Y-136403095D01*
X247097396Y-136355476D01*
X247145015Y-136260238D01*
X247145015Y-136069761D01*
X247097396Y-135974523D01*
X247049777Y-135926904D01*
X246954539Y-135879285D01*
X246716444Y-135879285D01*
X246621206Y-135926904D01*
X246573587Y-135974523D01*
X246525968Y-136069761D01*
X246525968Y-136260238D01*
X246573587Y-136355476D01*
X246621206Y-136403095D01*
X246716444Y-136450714D01*
X243294380Y-136821904D02*
X242294380Y-136821904D01*
X243294380Y-136250476D02*
X242722952Y-136679047D01*
X242294380Y-136250476D02*
X242865809Y-136821904D01*
X239525015Y-137403095D02*
X238525015Y-137403095D01*
X238525015Y-137165000D01*
X238572635Y-137022142D01*
X238667873Y-136926904D01*
X238763111Y-136879285D01*
X238953587Y-136831666D01*
X239096444Y-136831666D01*
X239286920Y-136879285D01*
X239382158Y-136926904D01*
X239477396Y-137022142D01*
X239525015Y-137165000D01*
X239525015Y-137403095D01*
X238525015Y-135926904D02*
X238525015Y-136403095D01*
X239001206Y-136450714D01*
X238953587Y-136403095D01*
X238905968Y-136307857D01*
X238905968Y-136069761D01*
X238953587Y-135974523D01*
X239001206Y-135926904D01*
X239096444Y-135879285D01*
X239334539Y-135879285D01*
X239429777Y-135926904D01*
X239477396Y-135974523D01*
X239525015Y-136069761D01*
X239525015Y-136307857D01*
X239477396Y-136403095D01*
X239429777Y-136450714D01*
X235674380Y-136821904D02*
X234674380Y-136821904D01*
X235674380Y-136250476D02*
X235102952Y-136679047D01*
X234674380Y-136250476D02*
X235245809Y-136821904D01*
X231905015Y-137403095D02*
X230905015Y-137403095D01*
X230905015Y-137165000D01*
X230952635Y-137022142D01*
X231047873Y-136926904D01*
X231143111Y-136879285D01*
X231333587Y-136831666D01*
X231476444Y-136831666D01*
X231666920Y-136879285D01*
X231762158Y-136926904D01*
X231857396Y-137022142D01*
X231905015Y-137165000D01*
X231905015Y-137403095D01*
X231238349Y-135974523D02*
X231905015Y-135974523D01*
X230857396Y-136212619D02*
X231571682Y-136450714D01*
X231571682Y-135831666D01*
X228054380Y-136821904D02*
X227054380Y-136821904D01*
X228054380Y-136250476D02*
X227482952Y-136679047D01*
X227054380Y-136250476D02*
X227625809Y-136821904D01*
X224285015Y-137403095D02*
X223285015Y-137403095D01*
X223285015Y-137165000D01*
X223332635Y-137022142D01*
X223427873Y-136926904D01*
X223523111Y-136879285D01*
X223713587Y-136831666D01*
X223856444Y-136831666D01*
X224046920Y-136879285D01*
X224142158Y-136926904D01*
X224237396Y-137022142D01*
X224285015Y-137165000D01*
X224285015Y-137403095D01*
X223285015Y-136498333D02*
X223285015Y-135879285D01*
X223665968Y-136212619D01*
X223665968Y-136069761D01*
X223713587Y-135974523D01*
X223761206Y-135926904D01*
X223856444Y-135879285D01*
X224094539Y-135879285D01*
X224189777Y-135926904D01*
X224237396Y-135974523D01*
X224285015Y-136069761D01*
X224285015Y-136355476D01*
X224237396Y-136450714D01*
X224189777Y-136498333D01*
X220434380Y-136821904D02*
X219434380Y-136821904D01*
X220434380Y-136250476D02*
X219862952Y-136679047D01*
X219434380Y-136250476D02*
X220005809Y-136821904D01*
X209045015Y-137403095D02*
X208045015Y-137403095D01*
X208045015Y-137165000D01*
X208092635Y-137022142D01*
X208187873Y-136926904D01*
X208283111Y-136879285D01*
X208473587Y-136831666D01*
X208616444Y-136831666D01*
X208806920Y-136879285D01*
X208902158Y-136926904D01*
X208997396Y-137022142D01*
X209045015Y-137165000D01*
X209045015Y-137403095D01*
X209045015Y-135879285D02*
X209045015Y-136450714D01*
X209045015Y-136165000D02*
X208045015Y-136165000D01*
X208187873Y-136260238D01*
X208283111Y-136355476D01*
X208330730Y-136450714D01*
X205194380Y-136821904D02*
X204194380Y-136821904D01*
X205194380Y-136250476D02*
X204622952Y-136679047D01*
X204194380Y-136250476D02*
X204765809Y-136821904D01*
X224130095Y-107752380D02*
X224130095Y-108561904D01*
X224177714Y-108657142D01*
X224225333Y-108704761D01*
X224320571Y-108752380D01*
X224511047Y-108752380D01*
X224606285Y-108704761D01*
X224653904Y-108657142D01*
X224701523Y-108561904D01*
X224701523Y-107752380D01*
X225082476Y-107752380D02*
X225701523Y-107752380D01*
X225368190Y-108133333D01*
X225511047Y-108133333D01*
X225606285Y-108180952D01*
X225653904Y-108228571D01*
X225701523Y-108323809D01*
X225701523Y-108561904D01*
X225653904Y-108657142D01*
X225606285Y-108704761D01*
X225511047Y-108752380D01*
X225225333Y-108752380D01*
X225130095Y-108704761D01*
X225082476Y-108657142D01*
X206612833Y-104987380D02*
X206279500Y-104511190D01*
X206041404Y-104987380D02*
X206041404Y-103987380D01*
X206422357Y-103987380D01*
X206517595Y-104035000D01*
X206565214Y-104082619D01*
X206612833Y-104177857D01*
X206612833Y-104320714D01*
X206565214Y-104415952D01*
X206517595Y-104463571D01*
X206422357Y-104511190D01*
X206041404Y-104511190D01*
X207565214Y-104987380D02*
X206993785Y-104987380D01*
X207279500Y-104987380D02*
X207279500Y-103987380D01*
X207184261Y-104130238D01*
X207089023Y-104225476D01*
X206993785Y-104273095D01*
X206612833Y-118957380D02*
X206279500Y-118481190D01*
X206041404Y-118957380D02*
X206041404Y-117957380D01*
X206422357Y-117957380D01*
X206517595Y-118005000D01*
X206565214Y-118052619D01*
X206612833Y-118147857D01*
X206612833Y-118290714D01*
X206565214Y-118385952D01*
X206517595Y-118433571D01*
X206422357Y-118481190D01*
X206041404Y-118481190D01*
X206993785Y-118052619D02*
X207041404Y-118005000D01*
X207136642Y-117957380D01*
X207374738Y-117957380D01*
X207469976Y-118005000D01*
X207517595Y-118052619D01*
X207565214Y-118147857D01*
X207565214Y-118243095D01*
X207517595Y-118385952D01*
X206946166Y-118957380D01*
X207565214Y-118957380D01*
X221852833Y-104987380D02*
X221519500Y-104511190D01*
X221281404Y-104987380D02*
X221281404Y-103987380D01*
X221662357Y-103987380D01*
X221757595Y-104035000D01*
X221805214Y-104082619D01*
X221852833Y-104177857D01*
X221852833Y-104320714D01*
X221805214Y-104415952D01*
X221757595Y-104463571D01*
X221662357Y-104511190D01*
X221281404Y-104511190D01*
X222186166Y-103987380D02*
X222805214Y-103987380D01*
X222471880Y-104368333D01*
X222614738Y-104368333D01*
X222709976Y-104415952D01*
X222757595Y-104463571D01*
X222805214Y-104558809D01*
X222805214Y-104796904D01*
X222757595Y-104892142D01*
X222709976Y-104939761D01*
X222614738Y-104987380D01*
X222329023Y-104987380D01*
X222233785Y-104939761D01*
X222186166Y-104892142D01*
X221852833Y-118957380D02*
X221519500Y-118481190D01*
X221281404Y-118957380D02*
X221281404Y-117957380D01*
X221662357Y-117957380D01*
X221757595Y-118005000D01*
X221805214Y-118052619D01*
X221852833Y-118147857D01*
X221852833Y-118290714D01*
X221805214Y-118385952D01*
X221757595Y-118433571D01*
X221662357Y-118481190D01*
X221281404Y-118481190D01*
X222709976Y-118290714D02*
X222709976Y-118957380D01*
X222471880Y-117909761D02*
X222233785Y-118624047D01*
X222852833Y-118624047D01*
X237092833Y-104987380D02*
X236759500Y-104511190D01*
X236521404Y-104987380D02*
X236521404Y-103987380D01*
X236902357Y-103987380D01*
X236997595Y-104035000D01*
X237045214Y-104082619D01*
X237092833Y-104177857D01*
X237092833Y-104320714D01*
X237045214Y-104415952D01*
X236997595Y-104463571D01*
X236902357Y-104511190D01*
X236521404Y-104511190D01*
X237997595Y-103987380D02*
X237521404Y-103987380D01*
X237473785Y-104463571D01*
X237521404Y-104415952D01*
X237616642Y-104368333D01*
X237854738Y-104368333D01*
X237949976Y-104415952D01*
X237997595Y-104463571D01*
X238045214Y-104558809D01*
X238045214Y-104796904D01*
X237997595Y-104892142D01*
X237949976Y-104939761D01*
X237854738Y-104987380D01*
X237616642Y-104987380D01*
X237521404Y-104939761D01*
X237473785Y-104892142D01*
X237092833Y-118957380D02*
X236759500Y-118481190D01*
X236521404Y-118957380D02*
X236521404Y-117957380D01*
X236902357Y-117957380D01*
X236997595Y-118005000D01*
X237045214Y-118052619D01*
X237092833Y-118147857D01*
X237092833Y-118290714D01*
X237045214Y-118385952D01*
X236997595Y-118433571D01*
X236902357Y-118481190D01*
X236521404Y-118481190D01*
X237949976Y-117957380D02*
X237759500Y-117957380D01*
X237664261Y-118005000D01*
X237616642Y-118052619D01*
X237521404Y-118195476D01*
X237473785Y-118385952D01*
X237473785Y-118766904D01*
X237521404Y-118862142D01*
X237569023Y-118909761D01*
X237664261Y-118957380D01*
X237854738Y-118957380D01*
X237949976Y-118909761D01*
X237997595Y-118862142D01*
X238045214Y-118766904D01*
X238045214Y-118528809D01*
X237997595Y-118433571D01*
X237949976Y-118385952D01*
X237854738Y-118338333D01*
X237664261Y-118338333D01*
X237569023Y-118385952D01*
X237521404Y-118433571D01*
X237473785Y-118528809D01*
X252332833Y-104987380D02*
X251999500Y-104511190D01*
X251761404Y-104987380D02*
X251761404Y-103987380D01*
X252142357Y-103987380D01*
X252237595Y-104035000D01*
X252285214Y-104082619D01*
X252332833Y-104177857D01*
X252332833Y-104320714D01*
X252285214Y-104415952D01*
X252237595Y-104463571D01*
X252142357Y-104511190D01*
X251761404Y-104511190D01*
X252666166Y-103987380D02*
X253332833Y-103987380D01*
X252904261Y-104987380D01*
X252332833Y-118957380D02*
X251999500Y-118481190D01*
X251761404Y-118957380D02*
X251761404Y-117957380D01*
X252142357Y-117957380D01*
X252237595Y-118005000D01*
X252285214Y-118052619D01*
X252332833Y-118147857D01*
X252332833Y-118290714D01*
X252285214Y-118385952D01*
X252237595Y-118433571D01*
X252142357Y-118481190D01*
X251761404Y-118481190D01*
X252904261Y-118385952D02*
X252809023Y-118338333D01*
X252761404Y-118290714D01*
X252713785Y-118195476D01*
X252713785Y-118147857D01*
X252761404Y-118052619D01*
X252809023Y-118005000D01*
X252904261Y-117957380D01*
X253094738Y-117957380D01*
X253189976Y-118005000D01*
X253237595Y-118052619D01*
X253285214Y-118147857D01*
X253285214Y-118195476D01*
X253237595Y-118290714D01*
X253189976Y-118338333D01*
X253094738Y-118385952D01*
X252904261Y-118385952D01*
X252809023Y-118433571D01*
X252761404Y-118481190D01*
X252713785Y-118576428D01*
X252713785Y-118766904D01*
X252761404Y-118862142D01*
X252809023Y-118909761D01*
X252904261Y-118957380D01*
X253094738Y-118957380D01*
X253189976Y-118909761D01*
X253237595Y-118862142D01*
X253285214Y-118766904D01*
X253285214Y-118576428D01*
X253237595Y-118481190D01*
X253189976Y-118433571D01*
X253094738Y-118385952D01*
X208890095Y-107752380D02*
X208890095Y-108561904D01*
X208937714Y-108657142D01*
X208985333Y-108704761D01*
X209080571Y-108752380D01*
X209271047Y-108752380D01*
X209366285Y-108704761D01*
X209413904Y-108657142D01*
X209461523Y-108561904D01*
X209461523Y-107752380D01*
X210461523Y-108752380D02*
X209890095Y-108752380D01*
X210175809Y-108752380D02*
X210175809Y-107752380D01*
X210080571Y-107895238D01*
X209985333Y-107990476D01*
X209890095Y-108038095D01*
X239370095Y-107752380D02*
X239370095Y-108561904D01*
X239417714Y-108657142D01*
X239465333Y-108704761D01*
X239560571Y-108752380D01*
X239751047Y-108752380D01*
X239846285Y-108704761D01*
X239893904Y-108657142D01*
X239941523Y-108561904D01*
X239941523Y-107752380D01*
X240893904Y-107752380D02*
X240417714Y-107752380D01*
X240370095Y-108228571D01*
X240417714Y-108180952D01*
X240512952Y-108133333D01*
X240751047Y-108133333D01*
X240846285Y-108180952D01*
X240893904Y-108228571D01*
X240941523Y-108323809D01*
X240941523Y-108561904D01*
X240893904Y-108657142D01*
X240846285Y-108704761D01*
X240751047Y-108752380D01*
X240512952Y-108752380D01*
X240417714Y-108704761D01*
X240370095Y-108657142D01*
X239370095Y-121722380D02*
X239370095Y-122531904D01*
X239417714Y-122627142D01*
X239465333Y-122674761D01*
X239560571Y-122722380D01*
X239751047Y-122722380D01*
X239846285Y-122674761D01*
X239893904Y-122627142D01*
X239941523Y-122531904D01*
X239941523Y-121722380D01*
X240846285Y-121722380D02*
X240655809Y-121722380D01*
X240560571Y-121770000D01*
X240512952Y-121817619D01*
X240417714Y-121960476D01*
X240370095Y-122150952D01*
X240370095Y-122531904D01*
X240417714Y-122627142D01*
X240465333Y-122674761D01*
X240560571Y-122722380D01*
X240751047Y-122722380D01*
X240846285Y-122674761D01*
X240893904Y-122627142D01*
X240941523Y-122531904D01*
X240941523Y-122293809D01*
X240893904Y-122198571D01*
X240846285Y-122150952D01*
X240751047Y-122103333D01*
X240560571Y-122103333D01*
X240465333Y-122150952D01*
X240417714Y-122198571D01*
X240370095Y-122293809D01*
X254610095Y-107752380D02*
X254610095Y-108561904D01*
X254657714Y-108657142D01*
X254705333Y-108704761D01*
X254800571Y-108752380D01*
X254991047Y-108752380D01*
X255086285Y-108704761D01*
X255133904Y-108657142D01*
X255181523Y-108561904D01*
X255181523Y-107752380D01*
X255562476Y-107752380D02*
X256229142Y-107752380D01*
X255800571Y-108752380D01*
X254610095Y-121722380D02*
X254610095Y-122531904D01*
X254657714Y-122627142D01*
X254705333Y-122674761D01*
X254800571Y-122722380D01*
X254991047Y-122722380D01*
X255086285Y-122674761D01*
X255133904Y-122627142D01*
X255181523Y-122531904D01*
X255181523Y-121722380D01*
X255800571Y-122150952D02*
X255705333Y-122103333D01*
X255657714Y-122055714D01*
X255610095Y-121960476D01*
X255610095Y-121912857D01*
X255657714Y-121817619D01*
X255705333Y-121770000D01*
X255800571Y-121722380D01*
X255991047Y-121722380D01*
X256086285Y-121770000D01*
X256133904Y-121817619D01*
X256181523Y-121912857D01*
X256181523Y-121960476D01*
X256133904Y-122055714D01*
X256086285Y-122103333D01*
X255991047Y-122150952D01*
X255800571Y-122150952D01*
X255705333Y-122198571D01*
X255657714Y-122246190D01*
X255610095Y-122341428D01*
X255610095Y-122531904D01*
X255657714Y-122627142D01*
X255705333Y-122674761D01*
X255800571Y-122722380D01*
X255991047Y-122722380D01*
X256086285Y-122674761D01*
X256133904Y-122627142D01*
X256181523Y-122531904D01*
X256181523Y-122341428D01*
X256133904Y-122246190D01*
X256086285Y-122198571D01*
X255991047Y-122150952D01*
M02*
