G04 #@! TF.GenerationSoftware,KiCad,Pcbnew,5.1.2-f72e74a~84~ubuntu19.04.1*
G04 #@! TF.CreationDate,2019-06-28T01:10:34+02:00*
G04 #@! TF.ProjectId,switch-control-hat,73776974-6368-42d6-936f-6e74726f6c2d,rev?*
G04 #@! TF.SameCoordinates,Original*
G04 #@! TF.FileFunction,Paste,Top*
G04 #@! TF.FilePolarity,Positive*
%FSLAX46Y46*%
G04 Gerber Fmt 4.6, Leading zero omitted, Abs format (unit mm)*
G04 Created by KiCad (PCBNEW 5.1.2-f72e74a~84~ubuntu19.04.1) date 2019-06-28 01:10:34*
%MOMM*%
%LPD*%
G04 APERTURE LIST*
%ADD10C,0.100000*%
%ADD11C,0.600000*%
%ADD12R,3.300000X3.500000*%
%ADD13C,0.975000*%
G04 APERTURE END LIST*
D10*
G36*
X272554703Y-116107722D02*
G01*
X272569264Y-116109882D01*
X272583543Y-116113459D01*
X272597403Y-116118418D01*
X272610710Y-116124712D01*
X272623336Y-116132280D01*
X272635159Y-116141048D01*
X272646066Y-116150934D01*
X272655952Y-116161841D01*
X272664720Y-116173664D01*
X272672288Y-116186290D01*
X272678582Y-116199597D01*
X272683541Y-116213457D01*
X272687118Y-116227736D01*
X272689278Y-116242297D01*
X272690000Y-116257000D01*
X272690000Y-118007000D01*
X272689278Y-118021703D01*
X272687118Y-118036264D01*
X272683541Y-118050543D01*
X272678582Y-118064403D01*
X272672288Y-118077710D01*
X272664720Y-118090336D01*
X272655952Y-118102159D01*
X272646066Y-118113066D01*
X272635159Y-118122952D01*
X272623336Y-118131720D01*
X272610710Y-118139288D01*
X272597403Y-118145582D01*
X272583543Y-118150541D01*
X272569264Y-118154118D01*
X272554703Y-118156278D01*
X272540000Y-118157000D01*
X272240000Y-118157000D01*
X272225297Y-118156278D01*
X272210736Y-118154118D01*
X272196457Y-118150541D01*
X272182597Y-118145582D01*
X272169290Y-118139288D01*
X272156664Y-118131720D01*
X272144841Y-118122952D01*
X272133934Y-118113066D01*
X272124048Y-118102159D01*
X272115280Y-118090336D01*
X272107712Y-118077710D01*
X272101418Y-118064403D01*
X272096459Y-118050543D01*
X272092882Y-118036264D01*
X272090722Y-118021703D01*
X272090000Y-118007000D01*
X272090000Y-116257000D01*
X272090722Y-116242297D01*
X272092882Y-116227736D01*
X272096459Y-116213457D01*
X272101418Y-116199597D01*
X272107712Y-116186290D01*
X272115280Y-116173664D01*
X272124048Y-116161841D01*
X272133934Y-116150934D01*
X272144841Y-116141048D01*
X272156664Y-116132280D01*
X272169290Y-116124712D01*
X272182597Y-116118418D01*
X272196457Y-116113459D01*
X272210736Y-116109882D01*
X272225297Y-116107722D01*
X272240000Y-116107000D01*
X272540000Y-116107000D01*
X272554703Y-116107722D01*
X272554703Y-116107722D01*
G37*
D11*
X272390000Y-117132000D03*
D10*
G36*
X273824703Y-116107722D02*
G01*
X273839264Y-116109882D01*
X273853543Y-116113459D01*
X273867403Y-116118418D01*
X273880710Y-116124712D01*
X273893336Y-116132280D01*
X273905159Y-116141048D01*
X273916066Y-116150934D01*
X273925952Y-116161841D01*
X273934720Y-116173664D01*
X273942288Y-116186290D01*
X273948582Y-116199597D01*
X273953541Y-116213457D01*
X273957118Y-116227736D01*
X273959278Y-116242297D01*
X273960000Y-116257000D01*
X273960000Y-118007000D01*
X273959278Y-118021703D01*
X273957118Y-118036264D01*
X273953541Y-118050543D01*
X273948582Y-118064403D01*
X273942288Y-118077710D01*
X273934720Y-118090336D01*
X273925952Y-118102159D01*
X273916066Y-118113066D01*
X273905159Y-118122952D01*
X273893336Y-118131720D01*
X273880710Y-118139288D01*
X273867403Y-118145582D01*
X273853543Y-118150541D01*
X273839264Y-118154118D01*
X273824703Y-118156278D01*
X273810000Y-118157000D01*
X273510000Y-118157000D01*
X273495297Y-118156278D01*
X273480736Y-118154118D01*
X273466457Y-118150541D01*
X273452597Y-118145582D01*
X273439290Y-118139288D01*
X273426664Y-118131720D01*
X273414841Y-118122952D01*
X273403934Y-118113066D01*
X273394048Y-118102159D01*
X273385280Y-118090336D01*
X273377712Y-118077710D01*
X273371418Y-118064403D01*
X273366459Y-118050543D01*
X273362882Y-118036264D01*
X273360722Y-118021703D01*
X273360000Y-118007000D01*
X273360000Y-116257000D01*
X273360722Y-116242297D01*
X273362882Y-116227736D01*
X273366459Y-116213457D01*
X273371418Y-116199597D01*
X273377712Y-116186290D01*
X273385280Y-116173664D01*
X273394048Y-116161841D01*
X273403934Y-116150934D01*
X273414841Y-116141048D01*
X273426664Y-116132280D01*
X273439290Y-116124712D01*
X273452597Y-116118418D01*
X273466457Y-116113459D01*
X273480736Y-116109882D01*
X273495297Y-116107722D01*
X273510000Y-116107000D01*
X273810000Y-116107000D01*
X273824703Y-116107722D01*
X273824703Y-116107722D01*
G37*
D11*
X273660000Y-117132000D03*
D10*
G36*
X275094703Y-116107722D02*
G01*
X275109264Y-116109882D01*
X275123543Y-116113459D01*
X275137403Y-116118418D01*
X275150710Y-116124712D01*
X275163336Y-116132280D01*
X275175159Y-116141048D01*
X275186066Y-116150934D01*
X275195952Y-116161841D01*
X275204720Y-116173664D01*
X275212288Y-116186290D01*
X275218582Y-116199597D01*
X275223541Y-116213457D01*
X275227118Y-116227736D01*
X275229278Y-116242297D01*
X275230000Y-116257000D01*
X275230000Y-118007000D01*
X275229278Y-118021703D01*
X275227118Y-118036264D01*
X275223541Y-118050543D01*
X275218582Y-118064403D01*
X275212288Y-118077710D01*
X275204720Y-118090336D01*
X275195952Y-118102159D01*
X275186066Y-118113066D01*
X275175159Y-118122952D01*
X275163336Y-118131720D01*
X275150710Y-118139288D01*
X275137403Y-118145582D01*
X275123543Y-118150541D01*
X275109264Y-118154118D01*
X275094703Y-118156278D01*
X275080000Y-118157000D01*
X274780000Y-118157000D01*
X274765297Y-118156278D01*
X274750736Y-118154118D01*
X274736457Y-118150541D01*
X274722597Y-118145582D01*
X274709290Y-118139288D01*
X274696664Y-118131720D01*
X274684841Y-118122952D01*
X274673934Y-118113066D01*
X274664048Y-118102159D01*
X274655280Y-118090336D01*
X274647712Y-118077710D01*
X274641418Y-118064403D01*
X274636459Y-118050543D01*
X274632882Y-118036264D01*
X274630722Y-118021703D01*
X274630000Y-118007000D01*
X274630000Y-116257000D01*
X274630722Y-116242297D01*
X274632882Y-116227736D01*
X274636459Y-116213457D01*
X274641418Y-116199597D01*
X274647712Y-116186290D01*
X274655280Y-116173664D01*
X274664048Y-116161841D01*
X274673934Y-116150934D01*
X274684841Y-116141048D01*
X274696664Y-116132280D01*
X274709290Y-116124712D01*
X274722597Y-116118418D01*
X274736457Y-116113459D01*
X274750736Y-116109882D01*
X274765297Y-116107722D01*
X274780000Y-116107000D01*
X275080000Y-116107000D01*
X275094703Y-116107722D01*
X275094703Y-116107722D01*
G37*
D11*
X274930000Y-117132000D03*
D10*
G36*
X276364703Y-116107722D02*
G01*
X276379264Y-116109882D01*
X276393543Y-116113459D01*
X276407403Y-116118418D01*
X276420710Y-116124712D01*
X276433336Y-116132280D01*
X276445159Y-116141048D01*
X276456066Y-116150934D01*
X276465952Y-116161841D01*
X276474720Y-116173664D01*
X276482288Y-116186290D01*
X276488582Y-116199597D01*
X276493541Y-116213457D01*
X276497118Y-116227736D01*
X276499278Y-116242297D01*
X276500000Y-116257000D01*
X276500000Y-118007000D01*
X276499278Y-118021703D01*
X276497118Y-118036264D01*
X276493541Y-118050543D01*
X276488582Y-118064403D01*
X276482288Y-118077710D01*
X276474720Y-118090336D01*
X276465952Y-118102159D01*
X276456066Y-118113066D01*
X276445159Y-118122952D01*
X276433336Y-118131720D01*
X276420710Y-118139288D01*
X276407403Y-118145582D01*
X276393543Y-118150541D01*
X276379264Y-118154118D01*
X276364703Y-118156278D01*
X276350000Y-118157000D01*
X276050000Y-118157000D01*
X276035297Y-118156278D01*
X276020736Y-118154118D01*
X276006457Y-118150541D01*
X275992597Y-118145582D01*
X275979290Y-118139288D01*
X275966664Y-118131720D01*
X275954841Y-118122952D01*
X275943934Y-118113066D01*
X275934048Y-118102159D01*
X275925280Y-118090336D01*
X275917712Y-118077710D01*
X275911418Y-118064403D01*
X275906459Y-118050543D01*
X275902882Y-118036264D01*
X275900722Y-118021703D01*
X275900000Y-118007000D01*
X275900000Y-116257000D01*
X275900722Y-116242297D01*
X275902882Y-116227736D01*
X275906459Y-116213457D01*
X275911418Y-116199597D01*
X275917712Y-116186290D01*
X275925280Y-116173664D01*
X275934048Y-116161841D01*
X275943934Y-116150934D01*
X275954841Y-116141048D01*
X275966664Y-116132280D01*
X275979290Y-116124712D01*
X275992597Y-116118418D01*
X276006457Y-116113459D01*
X276020736Y-116109882D01*
X276035297Y-116107722D01*
X276050000Y-116107000D01*
X276350000Y-116107000D01*
X276364703Y-116107722D01*
X276364703Y-116107722D01*
G37*
D11*
X276200000Y-117132000D03*
D10*
G36*
X277634703Y-116107722D02*
G01*
X277649264Y-116109882D01*
X277663543Y-116113459D01*
X277677403Y-116118418D01*
X277690710Y-116124712D01*
X277703336Y-116132280D01*
X277715159Y-116141048D01*
X277726066Y-116150934D01*
X277735952Y-116161841D01*
X277744720Y-116173664D01*
X277752288Y-116186290D01*
X277758582Y-116199597D01*
X277763541Y-116213457D01*
X277767118Y-116227736D01*
X277769278Y-116242297D01*
X277770000Y-116257000D01*
X277770000Y-118007000D01*
X277769278Y-118021703D01*
X277767118Y-118036264D01*
X277763541Y-118050543D01*
X277758582Y-118064403D01*
X277752288Y-118077710D01*
X277744720Y-118090336D01*
X277735952Y-118102159D01*
X277726066Y-118113066D01*
X277715159Y-118122952D01*
X277703336Y-118131720D01*
X277690710Y-118139288D01*
X277677403Y-118145582D01*
X277663543Y-118150541D01*
X277649264Y-118154118D01*
X277634703Y-118156278D01*
X277620000Y-118157000D01*
X277320000Y-118157000D01*
X277305297Y-118156278D01*
X277290736Y-118154118D01*
X277276457Y-118150541D01*
X277262597Y-118145582D01*
X277249290Y-118139288D01*
X277236664Y-118131720D01*
X277224841Y-118122952D01*
X277213934Y-118113066D01*
X277204048Y-118102159D01*
X277195280Y-118090336D01*
X277187712Y-118077710D01*
X277181418Y-118064403D01*
X277176459Y-118050543D01*
X277172882Y-118036264D01*
X277170722Y-118021703D01*
X277170000Y-118007000D01*
X277170000Y-116257000D01*
X277170722Y-116242297D01*
X277172882Y-116227736D01*
X277176459Y-116213457D01*
X277181418Y-116199597D01*
X277187712Y-116186290D01*
X277195280Y-116173664D01*
X277204048Y-116161841D01*
X277213934Y-116150934D01*
X277224841Y-116141048D01*
X277236664Y-116132280D01*
X277249290Y-116124712D01*
X277262597Y-116118418D01*
X277276457Y-116113459D01*
X277290736Y-116109882D01*
X277305297Y-116107722D01*
X277320000Y-116107000D01*
X277620000Y-116107000D01*
X277634703Y-116107722D01*
X277634703Y-116107722D01*
G37*
D11*
X277470000Y-117132000D03*
D10*
G36*
X278904703Y-116107722D02*
G01*
X278919264Y-116109882D01*
X278933543Y-116113459D01*
X278947403Y-116118418D01*
X278960710Y-116124712D01*
X278973336Y-116132280D01*
X278985159Y-116141048D01*
X278996066Y-116150934D01*
X279005952Y-116161841D01*
X279014720Y-116173664D01*
X279022288Y-116186290D01*
X279028582Y-116199597D01*
X279033541Y-116213457D01*
X279037118Y-116227736D01*
X279039278Y-116242297D01*
X279040000Y-116257000D01*
X279040000Y-118007000D01*
X279039278Y-118021703D01*
X279037118Y-118036264D01*
X279033541Y-118050543D01*
X279028582Y-118064403D01*
X279022288Y-118077710D01*
X279014720Y-118090336D01*
X279005952Y-118102159D01*
X278996066Y-118113066D01*
X278985159Y-118122952D01*
X278973336Y-118131720D01*
X278960710Y-118139288D01*
X278947403Y-118145582D01*
X278933543Y-118150541D01*
X278919264Y-118154118D01*
X278904703Y-118156278D01*
X278890000Y-118157000D01*
X278590000Y-118157000D01*
X278575297Y-118156278D01*
X278560736Y-118154118D01*
X278546457Y-118150541D01*
X278532597Y-118145582D01*
X278519290Y-118139288D01*
X278506664Y-118131720D01*
X278494841Y-118122952D01*
X278483934Y-118113066D01*
X278474048Y-118102159D01*
X278465280Y-118090336D01*
X278457712Y-118077710D01*
X278451418Y-118064403D01*
X278446459Y-118050543D01*
X278442882Y-118036264D01*
X278440722Y-118021703D01*
X278440000Y-118007000D01*
X278440000Y-116257000D01*
X278440722Y-116242297D01*
X278442882Y-116227736D01*
X278446459Y-116213457D01*
X278451418Y-116199597D01*
X278457712Y-116186290D01*
X278465280Y-116173664D01*
X278474048Y-116161841D01*
X278483934Y-116150934D01*
X278494841Y-116141048D01*
X278506664Y-116132280D01*
X278519290Y-116124712D01*
X278532597Y-116118418D01*
X278546457Y-116113459D01*
X278560736Y-116109882D01*
X278575297Y-116107722D01*
X278590000Y-116107000D01*
X278890000Y-116107000D01*
X278904703Y-116107722D01*
X278904703Y-116107722D01*
G37*
D11*
X278740000Y-117132000D03*
D10*
G36*
X280174703Y-116107722D02*
G01*
X280189264Y-116109882D01*
X280203543Y-116113459D01*
X280217403Y-116118418D01*
X280230710Y-116124712D01*
X280243336Y-116132280D01*
X280255159Y-116141048D01*
X280266066Y-116150934D01*
X280275952Y-116161841D01*
X280284720Y-116173664D01*
X280292288Y-116186290D01*
X280298582Y-116199597D01*
X280303541Y-116213457D01*
X280307118Y-116227736D01*
X280309278Y-116242297D01*
X280310000Y-116257000D01*
X280310000Y-118007000D01*
X280309278Y-118021703D01*
X280307118Y-118036264D01*
X280303541Y-118050543D01*
X280298582Y-118064403D01*
X280292288Y-118077710D01*
X280284720Y-118090336D01*
X280275952Y-118102159D01*
X280266066Y-118113066D01*
X280255159Y-118122952D01*
X280243336Y-118131720D01*
X280230710Y-118139288D01*
X280217403Y-118145582D01*
X280203543Y-118150541D01*
X280189264Y-118154118D01*
X280174703Y-118156278D01*
X280160000Y-118157000D01*
X279860000Y-118157000D01*
X279845297Y-118156278D01*
X279830736Y-118154118D01*
X279816457Y-118150541D01*
X279802597Y-118145582D01*
X279789290Y-118139288D01*
X279776664Y-118131720D01*
X279764841Y-118122952D01*
X279753934Y-118113066D01*
X279744048Y-118102159D01*
X279735280Y-118090336D01*
X279727712Y-118077710D01*
X279721418Y-118064403D01*
X279716459Y-118050543D01*
X279712882Y-118036264D01*
X279710722Y-118021703D01*
X279710000Y-118007000D01*
X279710000Y-116257000D01*
X279710722Y-116242297D01*
X279712882Y-116227736D01*
X279716459Y-116213457D01*
X279721418Y-116199597D01*
X279727712Y-116186290D01*
X279735280Y-116173664D01*
X279744048Y-116161841D01*
X279753934Y-116150934D01*
X279764841Y-116141048D01*
X279776664Y-116132280D01*
X279789290Y-116124712D01*
X279802597Y-116118418D01*
X279816457Y-116113459D01*
X279830736Y-116109882D01*
X279845297Y-116107722D01*
X279860000Y-116107000D01*
X280160000Y-116107000D01*
X280174703Y-116107722D01*
X280174703Y-116107722D01*
G37*
D11*
X280010000Y-117132000D03*
D10*
G36*
X281444703Y-116107722D02*
G01*
X281459264Y-116109882D01*
X281473543Y-116113459D01*
X281487403Y-116118418D01*
X281500710Y-116124712D01*
X281513336Y-116132280D01*
X281525159Y-116141048D01*
X281536066Y-116150934D01*
X281545952Y-116161841D01*
X281554720Y-116173664D01*
X281562288Y-116186290D01*
X281568582Y-116199597D01*
X281573541Y-116213457D01*
X281577118Y-116227736D01*
X281579278Y-116242297D01*
X281580000Y-116257000D01*
X281580000Y-118007000D01*
X281579278Y-118021703D01*
X281577118Y-118036264D01*
X281573541Y-118050543D01*
X281568582Y-118064403D01*
X281562288Y-118077710D01*
X281554720Y-118090336D01*
X281545952Y-118102159D01*
X281536066Y-118113066D01*
X281525159Y-118122952D01*
X281513336Y-118131720D01*
X281500710Y-118139288D01*
X281487403Y-118145582D01*
X281473543Y-118150541D01*
X281459264Y-118154118D01*
X281444703Y-118156278D01*
X281430000Y-118157000D01*
X281130000Y-118157000D01*
X281115297Y-118156278D01*
X281100736Y-118154118D01*
X281086457Y-118150541D01*
X281072597Y-118145582D01*
X281059290Y-118139288D01*
X281046664Y-118131720D01*
X281034841Y-118122952D01*
X281023934Y-118113066D01*
X281014048Y-118102159D01*
X281005280Y-118090336D01*
X280997712Y-118077710D01*
X280991418Y-118064403D01*
X280986459Y-118050543D01*
X280982882Y-118036264D01*
X280980722Y-118021703D01*
X280980000Y-118007000D01*
X280980000Y-116257000D01*
X280980722Y-116242297D01*
X280982882Y-116227736D01*
X280986459Y-116213457D01*
X280991418Y-116199597D01*
X280997712Y-116186290D01*
X281005280Y-116173664D01*
X281014048Y-116161841D01*
X281023934Y-116150934D01*
X281034841Y-116141048D01*
X281046664Y-116132280D01*
X281059290Y-116124712D01*
X281072597Y-116118418D01*
X281086457Y-116113459D01*
X281100736Y-116109882D01*
X281115297Y-116107722D01*
X281130000Y-116107000D01*
X281430000Y-116107000D01*
X281444703Y-116107722D01*
X281444703Y-116107722D01*
G37*
D11*
X281280000Y-117132000D03*
D10*
G36*
X281444703Y-125407722D02*
G01*
X281459264Y-125409882D01*
X281473543Y-125413459D01*
X281487403Y-125418418D01*
X281500710Y-125424712D01*
X281513336Y-125432280D01*
X281525159Y-125441048D01*
X281536066Y-125450934D01*
X281545952Y-125461841D01*
X281554720Y-125473664D01*
X281562288Y-125486290D01*
X281568582Y-125499597D01*
X281573541Y-125513457D01*
X281577118Y-125527736D01*
X281579278Y-125542297D01*
X281580000Y-125557000D01*
X281580000Y-127307000D01*
X281579278Y-127321703D01*
X281577118Y-127336264D01*
X281573541Y-127350543D01*
X281568582Y-127364403D01*
X281562288Y-127377710D01*
X281554720Y-127390336D01*
X281545952Y-127402159D01*
X281536066Y-127413066D01*
X281525159Y-127422952D01*
X281513336Y-127431720D01*
X281500710Y-127439288D01*
X281487403Y-127445582D01*
X281473543Y-127450541D01*
X281459264Y-127454118D01*
X281444703Y-127456278D01*
X281430000Y-127457000D01*
X281130000Y-127457000D01*
X281115297Y-127456278D01*
X281100736Y-127454118D01*
X281086457Y-127450541D01*
X281072597Y-127445582D01*
X281059290Y-127439288D01*
X281046664Y-127431720D01*
X281034841Y-127422952D01*
X281023934Y-127413066D01*
X281014048Y-127402159D01*
X281005280Y-127390336D01*
X280997712Y-127377710D01*
X280991418Y-127364403D01*
X280986459Y-127350543D01*
X280982882Y-127336264D01*
X280980722Y-127321703D01*
X280980000Y-127307000D01*
X280980000Y-125557000D01*
X280980722Y-125542297D01*
X280982882Y-125527736D01*
X280986459Y-125513457D01*
X280991418Y-125499597D01*
X280997712Y-125486290D01*
X281005280Y-125473664D01*
X281014048Y-125461841D01*
X281023934Y-125450934D01*
X281034841Y-125441048D01*
X281046664Y-125432280D01*
X281059290Y-125424712D01*
X281072597Y-125418418D01*
X281086457Y-125413459D01*
X281100736Y-125409882D01*
X281115297Y-125407722D01*
X281130000Y-125407000D01*
X281430000Y-125407000D01*
X281444703Y-125407722D01*
X281444703Y-125407722D01*
G37*
D11*
X281280000Y-126432000D03*
D10*
G36*
X280174703Y-125407722D02*
G01*
X280189264Y-125409882D01*
X280203543Y-125413459D01*
X280217403Y-125418418D01*
X280230710Y-125424712D01*
X280243336Y-125432280D01*
X280255159Y-125441048D01*
X280266066Y-125450934D01*
X280275952Y-125461841D01*
X280284720Y-125473664D01*
X280292288Y-125486290D01*
X280298582Y-125499597D01*
X280303541Y-125513457D01*
X280307118Y-125527736D01*
X280309278Y-125542297D01*
X280310000Y-125557000D01*
X280310000Y-127307000D01*
X280309278Y-127321703D01*
X280307118Y-127336264D01*
X280303541Y-127350543D01*
X280298582Y-127364403D01*
X280292288Y-127377710D01*
X280284720Y-127390336D01*
X280275952Y-127402159D01*
X280266066Y-127413066D01*
X280255159Y-127422952D01*
X280243336Y-127431720D01*
X280230710Y-127439288D01*
X280217403Y-127445582D01*
X280203543Y-127450541D01*
X280189264Y-127454118D01*
X280174703Y-127456278D01*
X280160000Y-127457000D01*
X279860000Y-127457000D01*
X279845297Y-127456278D01*
X279830736Y-127454118D01*
X279816457Y-127450541D01*
X279802597Y-127445582D01*
X279789290Y-127439288D01*
X279776664Y-127431720D01*
X279764841Y-127422952D01*
X279753934Y-127413066D01*
X279744048Y-127402159D01*
X279735280Y-127390336D01*
X279727712Y-127377710D01*
X279721418Y-127364403D01*
X279716459Y-127350543D01*
X279712882Y-127336264D01*
X279710722Y-127321703D01*
X279710000Y-127307000D01*
X279710000Y-125557000D01*
X279710722Y-125542297D01*
X279712882Y-125527736D01*
X279716459Y-125513457D01*
X279721418Y-125499597D01*
X279727712Y-125486290D01*
X279735280Y-125473664D01*
X279744048Y-125461841D01*
X279753934Y-125450934D01*
X279764841Y-125441048D01*
X279776664Y-125432280D01*
X279789290Y-125424712D01*
X279802597Y-125418418D01*
X279816457Y-125413459D01*
X279830736Y-125409882D01*
X279845297Y-125407722D01*
X279860000Y-125407000D01*
X280160000Y-125407000D01*
X280174703Y-125407722D01*
X280174703Y-125407722D01*
G37*
D11*
X280010000Y-126432000D03*
D10*
G36*
X278904703Y-125407722D02*
G01*
X278919264Y-125409882D01*
X278933543Y-125413459D01*
X278947403Y-125418418D01*
X278960710Y-125424712D01*
X278973336Y-125432280D01*
X278985159Y-125441048D01*
X278996066Y-125450934D01*
X279005952Y-125461841D01*
X279014720Y-125473664D01*
X279022288Y-125486290D01*
X279028582Y-125499597D01*
X279033541Y-125513457D01*
X279037118Y-125527736D01*
X279039278Y-125542297D01*
X279040000Y-125557000D01*
X279040000Y-127307000D01*
X279039278Y-127321703D01*
X279037118Y-127336264D01*
X279033541Y-127350543D01*
X279028582Y-127364403D01*
X279022288Y-127377710D01*
X279014720Y-127390336D01*
X279005952Y-127402159D01*
X278996066Y-127413066D01*
X278985159Y-127422952D01*
X278973336Y-127431720D01*
X278960710Y-127439288D01*
X278947403Y-127445582D01*
X278933543Y-127450541D01*
X278919264Y-127454118D01*
X278904703Y-127456278D01*
X278890000Y-127457000D01*
X278590000Y-127457000D01*
X278575297Y-127456278D01*
X278560736Y-127454118D01*
X278546457Y-127450541D01*
X278532597Y-127445582D01*
X278519290Y-127439288D01*
X278506664Y-127431720D01*
X278494841Y-127422952D01*
X278483934Y-127413066D01*
X278474048Y-127402159D01*
X278465280Y-127390336D01*
X278457712Y-127377710D01*
X278451418Y-127364403D01*
X278446459Y-127350543D01*
X278442882Y-127336264D01*
X278440722Y-127321703D01*
X278440000Y-127307000D01*
X278440000Y-125557000D01*
X278440722Y-125542297D01*
X278442882Y-125527736D01*
X278446459Y-125513457D01*
X278451418Y-125499597D01*
X278457712Y-125486290D01*
X278465280Y-125473664D01*
X278474048Y-125461841D01*
X278483934Y-125450934D01*
X278494841Y-125441048D01*
X278506664Y-125432280D01*
X278519290Y-125424712D01*
X278532597Y-125418418D01*
X278546457Y-125413459D01*
X278560736Y-125409882D01*
X278575297Y-125407722D01*
X278590000Y-125407000D01*
X278890000Y-125407000D01*
X278904703Y-125407722D01*
X278904703Y-125407722D01*
G37*
D11*
X278740000Y-126432000D03*
D10*
G36*
X277634703Y-125407722D02*
G01*
X277649264Y-125409882D01*
X277663543Y-125413459D01*
X277677403Y-125418418D01*
X277690710Y-125424712D01*
X277703336Y-125432280D01*
X277715159Y-125441048D01*
X277726066Y-125450934D01*
X277735952Y-125461841D01*
X277744720Y-125473664D01*
X277752288Y-125486290D01*
X277758582Y-125499597D01*
X277763541Y-125513457D01*
X277767118Y-125527736D01*
X277769278Y-125542297D01*
X277770000Y-125557000D01*
X277770000Y-127307000D01*
X277769278Y-127321703D01*
X277767118Y-127336264D01*
X277763541Y-127350543D01*
X277758582Y-127364403D01*
X277752288Y-127377710D01*
X277744720Y-127390336D01*
X277735952Y-127402159D01*
X277726066Y-127413066D01*
X277715159Y-127422952D01*
X277703336Y-127431720D01*
X277690710Y-127439288D01*
X277677403Y-127445582D01*
X277663543Y-127450541D01*
X277649264Y-127454118D01*
X277634703Y-127456278D01*
X277620000Y-127457000D01*
X277320000Y-127457000D01*
X277305297Y-127456278D01*
X277290736Y-127454118D01*
X277276457Y-127450541D01*
X277262597Y-127445582D01*
X277249290Y-127439288D01*
X277236664Y-127431720D01*
X277224841Y-127422952D01*
X277213934Y-127413066D01*
X277204048Y-127402159D01*
X277195280Y-127390336D01*
X277187712Y-127377710D01*
X277181418Y-127364403D01*
X277176459Y-127350543D01*
X277172882Y-127336264D01*
X277170722Y-127321703D01*
X277170000Y-127307000D01*
X277170000Y-125557000D01*
X277170722Y-125542297D01*
X277172882Y-125527736D01*
X277176459Y-125513457D01*
X277181418Y-125499597D01*
X277187712Y-125486290D01*
X277195280Y-125473664D01*
X277204048Y-125461841D01*
X277213934Y-125450934D01*
X277224841Y-125441048D01*
X277236664Y-125432280D01*
X277249290Y-125424712D01*
X277262597Y-125418418D01*
X277276457Y-125413459D01*
X277290736Y-125409882D01*
X277305297Y-125407722D01*
X277320000Y-125407000D01*
X277620000Y-125407000D01*
X277634703Y-125407722D01*
X277634703Y-125407722D01*
G37*
D11*
X277470000Y-126432000D03*
D10*
G36*
X276364703Y-125407722D02*
G01*
X276379264Y-125409882D01*
X276393543Y-125413459D01*
X276407403Y-125418418D01*
X276420710Y-125424712D01*
X276433336Y-125432280D01*
X276445159Y-125441048D01*
X276456066Y-125450934D01*
X276465952Y-125461841D01*
X276474720Y-125473664D01*
X276482288Y-125486290D01*
X276488582Y-125499597D01*
X276493541Y-125513457D01*
X276497118Y-125527736D01*
X276499278Y-125542297D01*
X276500000Y-125557000D01*
X276500000Y-127307000D01*
X276499278Y-127321703D01*
X276497118Y-127336264D01*
X276493541Y-127350543D01*
X276488582Y-127364403D01*
X276482288Y-127377710D01*
X276474720Y-127390336D01*
X276465952Y-127402159D01*
X276456066Y-127413066D01*
X276445159Y-127422952D01*
X276433336Y-127431720D01*
X276420710Y-127439288D01*
X276407403Y-127445582D01*
X276393543Y-127450541D01*
X276379264Y-127454118D01*
X276364703Y-127456278D01*
X276350000Y-127457000D01*
X276050000Y-127457000D01*
X276035297Y-127456278D01*
X276020736Y-127454118D01*
X276006457Y-127450541D01*
X275992597Y-127445582D01*
X275979290Y-127439288D01*
X275966664Y-127431720D01*
X275954841Y-127422952D01*
X275943934Y-127413066D01*
X275934048Y-127402159D01*
X275925280Y-127390336D01*
X275917712Y-127377710D01*
X275911418Y-127364403D01*
X275906459Y-127350543D01*
X275902882Y-127336264D01*
X275900722Y-127321703D01*
X275900000Y-127307000D01*
X275900000Y-125557000D01*
X275900722Y-125542297D01*
X275902882Y-125527736D01*
X275906459Y-125513457D01*
X275911418Y-125499597D01*
X275917712Y-125486290D01*
X275925280Y-125473664D01*
X275934048Y-125461841D01*
X275943934Y-125450934D01*
X275954841Y-125441048D01*
X275966664Y-125432280D01*
X275979290Y-125424712D01*
X275992597Y-125418418D01*
X276006457Y-125413459D01*
X276020736Y-125409882D01*
X276035297Y-125407722D01*
X276050000Y-125407000D01*
X276350000Y-125407000D01*
X276364703Y-125407722D01*
X276364703Y-125407722D01*
G37*
D11*
X276200000Y-126432000D03*
D10*
G36*
X275094703Y-125407722D02*
G01*
X275109264Y-125409882D01*
X275123543Y-125413459D01*
X275137403Y-125418418D01*
X275150710Y-125424712D01*
X275163336Y-125432280D01*
X275175159Y-125441048D01*
X275186066Y-125450934D01*
X275195952Y-125461841D01*
X275204720Y-125473664D01*
X275212288Y-125486290D01*
X275218582Y-125499597D01*
X275223541Y-125513457D01*
X275227118Y-125527736D01*
X275229278Y-125542297D01*
X275230000Y-125557000D01*
X275230000Y-127307000D01*
X275229278Y-127321703D01*
X275227118Y-127336264D01*
X275223541Y-127350543D01*
X275218582Y-127364403D01*
X275212288Y-127377710D01*
X275204720Y-127390336D01*
X275195952Y-127402159D01*
X275186066Y-127413066D01*
X275175159Y-127422952D01*
X275163336Y-127431720D01*
X275150710Y-127439288D01*
X275137403Y-127445582D01*
X275123543Y-127450541D01*
X275109264Y-127454118D01*
X275094703Y-127456278D01*
X275080000Y-127457000D01*
X274780000Y-127457000D01*
X274765297Y-127456278D01*
X274750736Y-127454118D01*
X274736457Y-127450541D01*
X274722597Y-127445582D01*
X274709290Y-127439288D01*
X274696664Y-127431720D01*
X274684841Y-127422952D01*
X274673934Y-127413066D01*
X274664048Y-127402159D01*
X274655280Y-127390336D01*
X274647712Y-127377710D01*
X274641418Y-127364403D01*
X274636459Y-127350543D01*
X274632882Y-127336264D01*
X274630722Y-127321703D01*
X274630000Y-127307000D01*
X274630000Y-125557000D01*
X274630722Y-125542297D01*
X274632882Y-125527736D01*
X274636459Y-125513457D01*
X274641418Y-125499597D01*
X274647712Y-125486290D01*
X274655280Y-125473664D01*
X274664048Y-125461841D01*
X274673934Y-125450934D01*
X274684841Y-125441048D01*
X274696664Y-125432280D01*
X274709290Y-125424712D01*
X274722597Y-125418418D01*
X274736457Y-125413459D01*
X274750736Y-125409882D01*
X274765297Y-125407722D01*
X274780000Y-125407000D01*
X275080000Y-125407000D01*
X275094703Y-125407722D01*
X275094703Y-125407722D01*
G37*
D11*
X274930000Y-126432000D03*
D10*
G36*
X273824703Y-125407722D02*
G01*
X273839264Y-125409882D01*
X273853543Y-125413459D01*
X273867403Y-125418418D01*
X273880710Y-125424712D01*
X273893336Y-125432280D01*
X273905159Y-125441048D01*
X273916066Y-125450934D01*
X273925952Y-125461841D01*
X273934720Y-125473664D01*
X273942288Y-125486290D01*
X273948582Y-125499597D01*
X273953541Y-125513457D01*
X273957118Y-125527736D01*
X273959278Y-125542297D01*
X273960000Y-125557000D01*
X273960000Y-127307000D01*
X273959278Y-127321703D01*
X273957118Y-127336264D01*
X273953541Y-127350543D01*
X273948582Y-127364403D01*
X273942288Y-127377710D01*
X273934720Y-127390336D01*
X273925952Y-127402159D01*
X273916066Y-127413066D01*
X273905159Y-127422952D01*
X273893336Y-127431720D01*
X273880710Y-127439288D01*
X273867403Y-127445582D01*
X273853543Y-127450541D01*
X273839264Y-127454118D01*
X273824703Y-127456278D01*
X273810000Y-127457000D01*
X273510000Y-127457000D01*
X273495297Y-127456278D01*
X273480736Y-127454118D01*
X273466457Y-127450541D01*
X273452597Y-127445582D01*
X273439290Y-127439288D01*
X273426664Y-127431720D01*
X273414841Y-127422952D01*
X273403934Y-127413066D01*
X273394048Y-127402159D01*
X273385280Y-127390336D01*
X273377712Y-127377710D01*
X273371418Y-127364403D01*
X273366459Y-127350543D01*
X273362882Y-127336264D01*
X273360722Y-127321703D01*
X273360000Y-127307000D01*
X273360000Y-125557000D01*
X273360722Y-125542297D01*
X273362882Y-125527736D01*
X273366459Y-125513457D01*
X273371418Y-125499597D01*
X273377712Y-125486290D01*
X273385280Y-125473664D01*
X273394048Y-125461841D01*
X273403934Y-125450934D01*
X273414841Y-125441048D01*
X273426664Y-125432280D01*
X273439290Y-125424712D01*
X273452597Y-125418418D01*
X273466457Y-125413459D01*
X273480736Y-125409882D01*
X273495297Y-125407722D01*
X273510000Y-125407000D01*
X273810000Y-125407000D01*
X273824703Y-125407722D01*
X273824703Y-125407722D01*
G37*
D11*
X273660000Y-126432000D03*
D10*
G36*
X272554703Y-125407722D02*
G01*
X272569264Y-125409882D01*
X272583543Y-125413459D01*
X272597403Y-125418418D01*
X272610710Y-125424712D01*
X272623336Y-125432280D01*
X272635159Y-125441048D01*
X272646066Y-125450934D01*
X272655952Y-125461841D01*
X272664720Y-125473664D01*
X272672288Y-125486290D01*
X272678582Y-125499597D01*
X272683541Y-125513457D01*
X272687118Y-125527736D01*
X272689278Y-125542297D01*
X272690000Y-125557000D01*
X272690000Y-127307000D01*
X272689278Y-127321703D01*
X272687118Y-127336264D01*
X272683541Y-127350543D01*
X272678582Y-127364403D01*
X272672288Y-127377710D01*
X272664720Y-127390336D01*
X272655952Y-127402159D01*
X272646066Y-127413066D01*
X272635159Y-127422952D01*
X272623336Y-127431720D01*
X272610710Y-127439288D01*
X272597403Y-127445582D01*
X272583543Y-127450541D01*
X272569264Y-127454118D01*
X272554703Y-127456278D01*
X272540000Y-127457000D01*
X272240000Y-127457000D01*
X272225297Y-127456278D01*
X272210736Y-127454118D01*
X272196457Y-127450541D01*
X272182597Y-127445582D01*
X272169290Y-127439288D01*
X272156664Y-127431720D01*
X272144841Y-127422952D01*
X272133934Y-127413066D01*
X272124048Y-127402159D01*
X272115280Y-127390336D01*
X272107712Y-127377710D01*
X272101418Y-127364403D01*
X272096459Y-127350543D01*
X272092882Y-127336264D01*
X272090722Y-127321703D01*
X272090000Y-127307000D01*
X272090000Y-125557000D01*
X272090722Y-125542297D01*
X272092882Y-125527736D01*
X272096459Y-125513457D01*
X272101418Y-125499597D01*
X272107712Y-125486290D01*
X272115280Y-125473664D01*
X272124048Y-125461841D01*
X272133934Y-125450934D01*
X272144841Y-125441048D01*
X272156664Y-125432280D01*
X272169290Y-125424712D01*
X272182597Y-125418418D01*
X272196457Y-125413459D01*
X272210736Y-125409882D01*
X272225297Y-125407722D01*
X272240000Y-125407000D01*
X272540000Y-125407000D01*
X272554703Y-125407722D01*
X272554703Y-125407722D01*
G37*
D11*
X272390000Y-126432000D03*
D12*
X278105000Y-96888000D03*
X278105000Y-112688000D03*
D10*
G36*
X268944642Y-118797174D02*
G01*
X268968303Y-118800684D01*
X268991507Y-118806496D01*
X269014029Y-118814554D01*
X269035653Y-118824782D01*
X269056170Y-118837079D01*
X269075383Y-118851329D01*
X269093107Y-118867393D01*
X269109171Y-118885117D01*
X269123421Y-118904330D01*
X269135718Y-118924847D01*
X269145946Y-118946471D01*
X269154004Y-118968993D01*
X269159816Y-118992197D01*
X269163326Y-119015858D01*
X269164500Y-119039750D01*
X269164500Y-119952250D01*
X269163326Y-119976142D01*
X269159816Y-119999803D01*
X269154004Y-120023007D01*
X269145946Y-120045529D01*
X269135718Y-120067153D01*
X269123421Y-120087670D01*
X269109171Y-120106883D01*
X269093107Y-120124607D01*
X269075383Y-120140671D01*
X269056170Y-120154921D01*
X269035653Y-120167218D01*
X269014029Y-120177446D01*
X268991507Y-120185504D01*
X268968303Y-120191316D01*
X268944642Y-120194826D01*
X268920750Y-120196000D01*
X268433250Y-120196000D01*
X268409358Y-120194826D01*
X268385697Y-120191316D01*
X268362493Y-120185504D01*
X268339971Y-120177446D01*
X268318347Y-120167218D01*
X268297830Y-120154921D01*
X268278617Y-120140671D01*
X268260893Y-120124607D01*
X268244829Y-120106883D01*
X268230579Y-120087670D01*
X268218282Y-120067153D01*
X268208054Y-120045529D01*
X268199996Y-120023007D01*
X268194184Y-119999803D01*
X268190674Y-119976142D01*
X268189500Y-119952250D01*
X268189500Y-119039750D01*
X268190674Y-119015858D01*
X268194184Y-118992197D01*
X268199996Y-118968993D01*
X268208054Y-118946471D01*
X268218282Y-118924847D01*
X268230579Y-118904330D01*
X268244829Y-118885117D01*
X268260893Y-118867393D01*
X268278617Y-118851329D01*
X268297830Y-118837079D01*
X268318347Y-118824782D01*
X268339971Y-118814554D01*
X268362493Y-118806496D01*
X268385697Y-118800684D01*
X268409358Y-118797174D01*
X268433250Y-118796000D01*
X268920750Y-118796000D01*
X268944642Y-118797174D01*
X268944642Y-118797174D01*
G37*
D13*
X268677000Y-119496000D03*
D10*
G36*
X267069642Y-118797174D02*
G01*
X267093303Y-118800684D01*
X267116507Y-118806496D01*
X267139029Y-118814554D01*
X267160653Y-118824782D01*
X267181170Y-118837079D01*
X267200383Y-118851329D01*
X267218107Y-118867393D01*
X267234171Y-118885117D01*
X267248421Y-118904330D01*
X267260718Y-118924847D01*
X267270946Y-118946471D01*
X267279004Y-118968993D01*
X267284816Y-118992197D01*
X267288326Y-119015858D01*
X267289500Y-119039750D01*
X267289500Y-119952250D01*
X267288326Y-119976142D01*
X267284816Y-119999803D01*
X267279004Y-120023007D01*
X267270946Y-120045529D01*
X267260718Y-120067153D01*
X267248421Y-120087670D01*
X267234171Y-120106883D01*
X267218107Y-120124607D01*
X267200383Y-120140671D01*
X267181170Y-120154921D01*
X267160653Y-120167218D01*
X267139029Y-120177446D01*
X267116507Y-120185504D01*
X267093303Y-120191316D01*
X267069642Y-120194826D01*
X267045750Y-120196000D01*
X266558250Y-120196000D01*
X266534358Y-120194826D01*
X266510697Y-120191316D01*
X266487493Y-120185504D01*
X266464971Y-120177446D01*
X266443347Y-120167218D01*
X266422830Y-120154921D01*
X266403617Y-120140671D01*
X266385893Y-120124607D01*
X266369829Y-120106883D01*
X266355579Y-120087670D01*
X266343282Y-120067153D01*
X266333054Y-120045529D01*
X266324996Y-120023007D01*
X266319184Y-119999803D01*
X266315674Y-119976142D01*
X266314500Y-119952250D01*
X266314500Y-119039750D01*
X266315674Y-119015858D01*
X266319184Y-118992197D01*
X266324996Y-118968993D01*
X266333054Y-118946471D01*
X266343282Y-118924847D01*
X266355579Y-118904330D01*
X266369829Y-118885117D01*
X266385893Y-118867393D01*
X266403617Y-118851329D01*
X266422830Y-118837079D01*
X266443347Y-118824782D01*
X266464971Y-118814554D01*
X266487493Y-118806496D01*
X266510697Y-118800684D01*
X266534358Y-118797174D01*
X266558250Y-118796000D01*
X267045750Y-118796000D01*
X267069642Y-118797174D01*
X267069642Y-118797174D01*
G37*
D13*
X266802000Y-119496000D03*
D10*
G36*
X268944642Y-116511174D02*
G01*
X268968303Y-116514684D01*
X268991507Y-116520496D01*
X269014029Y-116528554D01*
X269035653Y-116538782D01*
X269056170Y-116551079D01*
X269075383Y-116565329D01*
X269093107Y-116581393D01*
X269109171Y-116599117D01*
X269123421Y-116618330D01*
X269135718Y-116638847D01*
X269145946Y-116660471D01*
X269154004Y-116682993D01*
X269159816Y-116706197D01*
X269163326Y-116729858D01*
X269164500Y-116753750D01*
X269164500Y-117666250D01*
X269163326Y-117690142D01*
X269159816Y-117713803D01*
X269154004Y-117737007D01*
X269145946Y-117759529D01*
X269135718Y-117781153D01*
X269123421Y-117801670D01*
X269109171Y-117820883D01*
X269093107Y-117838607D01*
X269075383Y-117854671D01*
X269056170Y-117868921D01*
X269035653Y-117881218D01*
X269014029Y-117891446D01*
X268991507Y-117899504D01*
X268968303Y-117905316D01*
X268944642Y-117908826D01*
X268920750Y-117910000D01*
X268433250Y-117910000D01*
X268409358Y-117908826D01*
X268385697Y-117905316D01*
X268362493Y-117899504D01*
X268339971Y-117891446D01*
X268318347Y-117881218D01*
X268297830Y-117868921D01*
X268278617Y-117854671D01*
X268260893Y-117838607D01*
X268244829Y-117820883D01*
X268230579Y-117801670D01*
X268218282Y-117781153D01*
X268208054Y-117759529D01*
X268199996Y-117737007D01*
X268194184Y-117713803D01*
X268190674Y-117690142D01*
X268189500Y-117666250D01*
X268189500Y-116753750D01*
X268190674Y-116729858D01*
X268194184Y-116706197D01*
X268199996Y-116682993D01*
X268208054Y-116660471D01*
X268218282Y-116638847D01*
X268230579Y-116618330D01*
X268244829Y-116599117D01*
X268260893Y-116581393D01*
X268278617Y-116565329D01*
X268297830Y-116551079D01*
X268318347Y-116538782D01*
X268339971Y-116528554D01*
X268362493Y-116520496D01*
X268385697Y-116514684D01*
X268409358Y-116511174D01*
X268433250Y-116510000D01*
X268920750Y-116510000D01*
X268944642Y-116511174D01*
X268944642Y-116511174D01*
G37*
D13*
X268677000Y-117210000D03*
D10*
G36*
X267069642Y-116511174D02*
G01*
X267093303Y-116514684D01*
X267116507Y-116520496D01*
X267139029Y-116528554D01*
X267160653Y-116538782D01*
X267181170Y-116551079D01*
X267200383Y-116565329D01*
X267218107Y-116581393D01*
X267234171Y-116599117D01*
X267248421Y-116618330D01*
X267260718Y-116638847D01*
X267270946Y-116660471D01*
X267279004Y-116682993D01*
X267284816Y-116706197D01*
X267288326Y-116729858D01*
X267289500Y-116753750D01*
X267289500Y-117666250D01*
X267288326Y-117690142D01*
X267284816Y-117713803D01*
X267279004Y-117737007D01*
X267270946Y-117759529D01*
X267260718Y-117781153D01*
X267248421Y-117801670D01*
X267234171Y-117820883D01*
X267218107Y-117838607D01*
X267200383Y-117854671D01*
X267181170Y-117868921D01*
X267160653Y-117881218D01*
X267139029Y-117891446D01*
X267116507Y-117899504D01*
X267093303Y-117905316D01*
X267069642Y-117908826D01*
X267045750Y-117910000D01*
X266558250Y-117910000D01*
X266534358Y-117908826D01*
X266510697Y-117905316D01*
X266487493Y-117899504D01*
X266464971Y-117891446D01*
X266443347Y-117881218D01*
X266422830Y-117868921D01*
X266403617Y-117854671D01*
X266385893Y-117838607D01*
X266369829Y-117820883D01*
X266355579Y-117801670D01*
X266343282Y-117781153D01*
X266333054Y-117759529D01*
X266324996Y-117737007D01*
X266319184Y-117713803D01*
X266315674Y-117690142D01*
X266314500Y-117666250D01*
X266314500Y-116753750D01*
X266315674Y-116729858D01*
X266319184Y-116706197D01*
X266324996Y-116682993D01*
X266333054Y-116660471D01*
X266343282Y-116638847D01*
X266355579Y-116618330D01*
X266369829Y-116599117D01*
X266385893Y-116581393D01*
X266403617Y-116565329D01*
X266422830Y-116551079D01*
X266443347Y-116538782D01*
X266464971Y-116528554D01*
X266487493Y-116520496D01*
X266510697Y-116514684D01*
X266534358Y-116511174D01*
X266558250Y-116510000D01*
X267045750Y-116510000D01*
X267069642Y-116511174D01*
X267069642Y-116511174D01*
G37*
D13*
X266802000Y-117210000D03*
D10*
G36*
X267069642Y-121083174D02*
G01*
X267093303Y-121086684D01*
X267116507Y-121092496D01*
X267139029Y-121100554D01*
X267160653Y-121110782D01*
X267181170Y-121123079D01*
X267200383Y-121137329D01*
X267218107Y-121153393D01*
X267234171Y-121171117D01*
X267248421Y-121190330D01*
X267260718Y-121210847D01*
X267270946Y-121232471D01*
X267279004Y-121254993D01*
X267284816Y-121278197D01*
X267288326Y-121301858D01*
X267289500Y-121325750D01*
X267289500Y-122238250D01*
X267288326Y-122262142D01*
X267284816Y-122285803D01*
X267279004Y-122309007D01*
X267270946Y-122331529D01*
X267260718Y-122353153D01*
X267248421Y-122373670D01*
X267234171Y-122392883D01*
X267218107Y-122410607D01*
X267200383Y-122426671D01*
X267181170Y-122440921D01*
X267160653Y-122453218D01*
X267139029Y-122463446D01*
X267116507Y-122471504D01*
X267093303Y-122477316D01*
X267069642Y-122480826D01*
X267045750Y-122482000D01*
X266558250Y-122482000D01*
X266534358Y-122480826D01*
X266510697Y-122477316D01*
X266487493Y-122471504D01*
X266464971Y-122463446D01*
X266443347Y-122453218D01*
X266422830Y-122440921D01*
X266403617Y-122426671D01*
X266385893Y-122410607D01*
X266369829Y-122392883D01*
X266355579Y-122373670D01*
X266343282Y-122353153D01*
X266333054Y-122331529D01*
X266324996Y-122309007D01*
X266319184Y-122285803D01*
X266315674Y-122262142D01*
X266314500Y-122238250D01*
X266314500Y-121325750D01*
X266315674Y-121301858D01*
X266319184Y-121278197D01*
X266324996Y-121254993D01*
X266333054Y-121232471D01*
X266343282Y-121210847D01*
X266355579Y-121190330D01*
X266369829Y-121171117D01*
X266385893Y-121153393D01*
X266403617Y-121137329D01*
X266422830Y-121123079D01*
X266443347Y-121110782D01*
X266464971Y-121100554D01*
X266487493Y-121092496D01*
X266510697Y-121086684D01*
X266534358Y-121083174D01*
X266558250Y-121082000D01*
X267045750Y-121082000D01*
X267069642Y-121083174D01*
X267069642Y-121083174D01*
G37*
D13*
X266802000Y-121782000D03*
D10*
G36*
X268944642Y-121083174D02*
G01*
X268968303Y-121086684D01*
X268991507Y-121092496D01*
X269014029Y-121100554D01*
X269035653Y-121110782D01*
X269056170Y-121123079D01*
X269075383Y-121137329D01*
X269093107Y-121153393D01*
X269109171Y-121171117D01*
X269123421Y-121190330D01*
X269135718Y-121210847D01*
X269145946Y-121232471D01*
X269154004Y-121254993D01*
X269159816Y-121278197D01*
X269163326Y-121301858D01*
X269164500Y-121325750D01*
X269164500Y-122238250D01*
X269163326Y-122262142D01*
X269159816Y-122285803D01*
X269154004Y-122309007D01*
X269145946Y-122331529D01*
X269135718Y-122353153D01*
X269123421Y-122373670D01*
X269109171Y-122392883D01*
X269093107Y-122410607D01*
X269075383Y-122426671D01*
X269056170Y-122440921D01*
X269035653Y-122453218D01*
X269014029Y-122463446D01*
X268991507Y-122471504D01*
X268968303Y-122477316D01*
X268944642Y-122480826D01*
X268920750Y-122482000D01*
X268433250Y-122482000D01*
X268409358Y-122480826D01*
X268385697Y-122477316D01*
X268362493Y-122471504D01*
X268339971Y-122463446D01*
X268318347Y-122453218D01*
X268297830Y-122440921D01*
X268278617Y-122426671D01*
X268260893Y-122410607D01*
X268244829Y-122392883D01*
X268230579Y-122373670D01*
X268218282Y-122353153D01*
X268208054Y-122331529D01*
X268199996Y-122309007D01*
X268194184Y-122285803D01*
X268190674Y-122262142D01*
X268189500Y-122238250D01*
X268189500Y-121325750D01*
X268190674Y-121301858D01*
X268194184Y-121278197D01*
X268199996Y-121254993D01*
X268208054Y-121232471D01*
X268218282Y-121210847D01*
X268230579Y-121190330D01*
X268244829Y-121171117D01*
X268260893Y-121153393D01*
X268278617Y-121137329D01*
X268297830Y-121123079D01*
X268318347Y-121110782D01*
X268339971Y-121100554D01*
X268362493Y-121092496D01*
X268385697Y-121086684D01*
X268409358Y-121083174D01*
X268433250Y-121082000D01*
X268920750Y-121082000D01*
X268944642Y-121083174D01*
X268944642Y-121083174D01*
G37*
D13*
X268677000Y-121782000D03*
D10*
G36*
X267069642Y-125655174D02*
G01*
X267093303Y-125658684D01*
X267116507Y-125664496D01*
X267139029Y-125672554D01*
X267160653Y-125682782D01*
X267181170Y-125695079D01*
X267200383Y-125709329D01*
X267218107Y-125725393D01*
X267234171Y-125743117D01*
X267248421Y-125762330D01*
X267260718Y-125782847D01*
X267270946Y-125804471D01*
X267279004Y-125826993D01*
X267284816Y-125850197D01*
X267288326Y-125873858D01*
X267289500Y-125897750D01*
X267289500Y-126810250D01*
X267288326Y-126834142D01*
X267284816Y-126857803D01*
X267279004Y-126881007D01*
X267270946Y-126903529D01*
X267260718Y-126925153D01*
X267248421Y-126945670D01*
X267234171Y-126964883D01*
X267218107Y-126982607D01*
X267200383Y-126998671D01*
X267181170Y-127012921D01*
X267160653Y-127025218D01*
X267139029Y-127035446D01*
X267116507Y-127043504D01*
X267093303Y-127049316D01*
X267069642Y-127052826D01*
X267045750Y-127054000D01*
X266558250Y-127054000D01*
X266534358Y-127052826D01*
X266510697Y-127049316D01*
X266487493Y-127043504D01*
X266464971Y-127035446D01*
X266443347Y-127025218D01*
X266422830Y-127012921D01*
X266403617Y-126998671D01*
X266385893Y-126982607D01*
X266369829Y-126964883D01*
X266355579Y-126945670D01*
X266343282Y-126925153D01*
X266333054Y-126903529D01*
X266324996Y-126881007D01*
X266319184Y-126857803D01*
X266315674Y-126834142D01*
X266314500Y-126810250D01*
X266314500Y-125897750D01*
X266315674Y-125873858D01*
X266319184Y-125850197D01*
X266324996Y-125826993D01*
X266333054Y-125804471D01*
X266343282Y-125782847D01*
X266355579Y-125762330D01*
X266369829Y-125743117D01*
X266385893Y-125725393D01*
X266403617Y-125709329D01*
X266422830Y-125695079D01*
X266443347Y-125682782D01*
X266464971Y-125672554D01*
X266487493Y-125664496D01*
X266510697Y-125658684D01*
X266534358Y-125655174D01*
X266558250Y-125654000D01*
X267045750Y-125654000D01*
X267069642Y-125655174D01*
X267069642Y-125655174D01*
G37*
D13*
X266802000Y-126354000D03*
D10*
G36*
X268944642Y-125655174D02*
G01*
X268968303Y-125658684D01*
X268991507Y-125664496D01*
X269014029Y-125672554D01*
X269035653Y-125682782D01*
X269056170Y-125695079D01*
X269075383Y-125709329D01*
X269093107Y-125725393D01*
X269109171Y-125743117D01*
X269123421Y-125762330D01*
X269135718Y-125782847D01*
X269145946Y-125804471D01*
X269154004Y-125826993D01*
X269159816Y-125850197D01*
X269163326Y-125873858D01*
X269164500Y-125897750D01*
X269164500Y-126810250D01*
X269163326Y-126834142D01*
X269159816Y-126857803D01*
X269154004Y-126881007D01*
X269145946Y-126903529D01*
X269135718Y-126925153D01*
X269123421Y-126945670D01*
X269109171Y-126964883D01*
X269093107Y-126982607D01*
X269075383Y-126998671D01*
X269056170Y-127012921D01*
X269035653Y-127025218D01*
X269014029Y-127035446D01*
X268991507Y-127043504D01*
X268968303Y-127049316D01*
X268944642Y-127052826D01*
X268920750Y-127054000D01*
X268433250Y-127054000D01*
X268409358Y-127052826D01*
X268385697Y-127049316D01*
X268362493Y-127043504D01*
X268339971Y-127035446D01*
X268318347Y-127025218D01*
X268297830Y-127012921D01*
X268278617Y-126998671D01*
X268260893Y-126982607D01*
X268244829Y-126964883D01*
X268230579Y-126945670D01*
X268218282Y-126925153D01*
X268208054Y-126903529D01*
X268199996Y-126881007D01*
X268194184Y-126857803D01*
X268190674Y-126834142D01*
X268189500Y-126810250D01*
X268189500Y-125897750D01*
X268190674Y-125873858D01*
X268194184Y-125850197D01*
X268199996Y-125826993D01*
X268208054Y-125804471D01*
X268218282Y-125782847D01*
X268230579Y-125762330D01*
X268244829Y-125743117D01*
X268260893Y-125725393D01*
X268278617Y-125709329D01*
X268297830Y-125695079D01*
X268318347Y-125682782D01*
X268339971Y-125672554D01*
X268362493Y-125664496D01*
X268385697Y-125658684D01*
X268409358Y-125655174D01*
X268433250Y-125654000D01*
X268920750Y-125654000D01*
X268944642Y-125655174D01*
X268944642Y-125655174D01*
G37*
D13*
X268677000Y-126354000D03*
D10*
G36*
X265194642Y-123369174D02*
G01*
X265218303Y-123372684D01*
X265241507Y-123378496D01*
X265264029Y-123386554D01*
X265285653Y-123396782D01*
X265306170Y-123409079D01*
X265325383Y-123423329D01*
X265343107Y-123439393D01*
X265359171Y-123457117D01*
X265373421Y-123476330D01*
X265385718Y-123496847D01*
X265395946Y-123518471D01*
X265404004Y-123540993D01*
X265409816Y-123564197D01*
X265413326Y-123587858D01*
X265414500Y-123611750D01*
X265414500Y-124524250D01*
X265413326Y-124548142D01*
X265409816Y-124571803D01*
X265404004Y-124595007D01*
X265395946Y-124617529D01*
X265385718Y-124639153D01*
X265373421Y-124659670D01*
X265359171Y-124678883D01*
X265343107Y-124696607D01*
X265325383Y-124712671D01*
X265306170Y-124726921D01*
X265285653Y-124739218D01*
X265264029Y-124749446D01*
X265241507Y-124757504D01*
X265218303Y-124763316D01*
X265194642Y-124766826D01*
X265170750Y-124768000D01*
X264683250Y-124768000D01*
X264659358Y-124766826D01*
X264635697Y-124763316D01*
X264612493Y-124757504D01*
X264589971Y-124749446D01*
X264568347Y-124739218D01*
X264547830Y-124726921D01*
X264528617Y-124712671D01*
X264510893Y-124696607D01*
X264494829Y-124678883D01*
X264480579Y-124659670D01*
X264468282Y-124639153D01*
X264458054Y-124617529D01*
X264449996Y-124595007D01*
X264444184Y-124571803D01*
X264440674Y-124548142D01*
X264439500Y-124524250D01*
X264439500Y-123611750D01*
X264440674Y-123587858D01*
X264444184Y-123564197D01*
X264449996Y-123540993D01*
X264458054Y-123518471D01*
X264468282Y-123496847D01*
X264480579Y-123476330D01*
X264494829Y-123457117D01*
X264510893Y-123439393D01*
X264528617Y-123423329D01*
X264547830Y-123409079D01*
X264568347Y-123396782D01*
X264589971Y-123386554D01*
X264612493Y-123378496D01*
X264635697Y-123372684D01*
X264659358Y-123369174D01*
X264683250Y-123368000D01*
X265170750Y-123368000D01*
X265194642Y-123369174D01*
X265194642Y-123369174D01*
G37*
D13*
X264927000Y-124068000D03*
D10*
G36*
X267069642Y-123369174D02*
G01*
X267093303Y-123372684D01*
X267116507Y-123378496D01*
X267139029Y-123386554D01*
X267160653Y-123396782D01*
X267181170Y-123409079D01*
X267200383Y-123423329D01*
X267218107Y-123439393D01*
X267234171Y-123457117D01*
X267248421Y-123476330D01*
X267260718Y-123496847D01*
X267270946Y-123518471D01*
X267279004Y-123540993D01*
X267284816Y-123564197D01*
X267288326Y-123587858D01*
X267289500Y-123611750D01*
X267289500Y-124524250D01*
X267288326Y-124548142D01*
X267284816Y-124571803D01*
X267279004Y-124595007D01*
X267270946Y-124617529D01*
X267260718Y-124639153D01*
X267248421Y-124659670D01*
X267234171Y-124678883D01*
X267218107Y-124696607D01*
X267200383Y-124712671D01*
X267181170Y-124726921D01*
X267160653Y-124739218D01*
X267139029Y-124749446D01*
X267116507Y-124757504D01*
X267093303Y-124763316D01*
X267069642Y-124766826D01*
X267045750Y-124768000D01*
X266558250Y-124768000D01*
X266534358Y-124766826D01*
X266510697Y-124763316D01*
X266487493Y-124757504D01*
X266464971Y-124749446D01*
X266443347Y-124739218D01*
X266422830Y-124726921D01*
X266403617Y-124712671D01*
X266385893Y-124696607D01*
X266369829Y-124678883D01*
X266355579Y-124659670D01*
X266343282Y-124639153D01*
X266333054Y-124617529D01*
X266324996Y-124595007D01*
X266319184Y-124571803D01*
X266315674Y-124548142D01*
X266314500Y-124524250D01*
X266314500Y-123611750D01*
X266315674Y-123587858D01*
X266319184Y-123564197D01*
X266324996Y-123540993D01*
X266333054Y-123518471D01*
X266343282Y-123496847D01*
X266355579Y-123476330D01*
X266369829Y-123457117D01*
X266385893Y-123439393D01*
X266403617Y-123423329D01*
X266422830Y-123409079D01*
X266443347Y-123396782D01*
X266464971Y-123386554D01*
X266487493Y-123378496D01*
X266510697Y-123372684D01*
X266534358Y-123369174D01*
X266558250Y-123368000D01*
X267045750Y-123368000D01*
X267069642Y-123369174D01*
X267069642Y-123369174D01*
G37*
D13*
X266802000Y-124068000D03*
D10*
G36*
X207984642Y-105486174D02*
G01*
X208008303Y-105489684D01*
X208031507Y-105495496D01*
X208054029Y-105503554D01*
X208075653Y-105513782D01*
X208096170Y-105526079D01*
X208115383Y-105540329D01*
X208133107Y-105556393D01*
X208149171Y-105574117D01*
X208163421Y-105593330D01*
X208175718Y-105613847D01*
X208185946Y-105635471D01*
X208194004Y-105657993D01*
X208199816Y-105681197D01*
X208203326Y-105704858D01*
X208204500Y-105728750D01*
X208204500Y-106641250D01*
X208203326Y-106665142D01*
X208199816Y-106688803D01*
X208194004Y-106712007D01*
X208185946Y-106734529D01*
X208175718Y-106756153D01*
X208163421Y-106776670D01*
X208149171Y-106795883D01*
X208133107Y-106813607D01*
X208115383Y-106829671D01*
X208096170Y-106843921D01*
X208075653Y-106856218D01*
X208054029Y-106866446D01*
X208031507Y-106874504D01*
X208008303Y-106880316D01*
X207984642Y-106883826D01*
X207960750Y-106885000D01*
X207473250Y-106885000D01*
X207449358Y-106883826D01*
X207425697Y-106880316D01*
X207402493Y-106874504D01*
X207379971Y-106866446D01*
X207358347Y-106856218D01*
X207337830Y-106843921D01*
X207318617Y-106829671D01*
X207300893Y-106813607D01*
X207284829Y-106795883D01*
X207270579Y-106776670D01*
X207258282Y-106756153D01*
X207248054Y-106734529D01*
X207239996Y-106712007D01*
X207234184Y-106688803D01*
X207230674Y-106665142D01*
X207229500Y-106641250D01*
X207229500Y-105728750D01*
X207230674Y-105704858D01*
X207234184Y-105681197D01*
X207239996Y-105657993D01*
X207248054Y-105635471D01*
X207258282Y-105613847D01*
X207270579Y-105593330D01*
X207284829Y-105574117D01*
X207300893Y-105556393D01*
X207318617Y-105540329D01*
X207337830Y-105526079D01*
X207358347Y-105513782D01*
X207379971Y-105503554D01*
X207402493Y-105495496D01*
X207425697Y-105489684D01*
X207449358Y-105486174D01*
X207473250Y-105485000D01*
X207960750Y-105485000D01*
X207984642Y-105486174D01*
X207984642Y-105486174D01*
G37*
D13*
X207717000Y-106185000D03*
D10*
G36*
X206109642Y-105486174D02*
G01*
X206133303Y-105489684D01*
X206156507Y-105495496D01*
X206179029Y-105503554D01*
X206200653Y-105513782D01*
X206221170Y-105526079D01*
X206240383Y-105540329D01*
X206258107Y-105556393D01*
X206274171Y-105574117D01*
X206288421Y-105593330D01*
X206300718Y-105613847D01*
X206310946Y-105635471D01*
X206319004Y-105657993D01*
X206324816Y-105681197D01*
X206328326Y-105704858D01*
X206329500Y-105728750D01*
X206329500Y-106641250D01*
X206328326Y-106665142D01*
X206324816Y-106688803D01*
X206319004Y-106712007D01*
X206310946Y-106734529D01*
X206300718Y-106756153D01*
X206288421Y-106776670D01*
X206274171Y-106795883D01*
X206258107Y-106813607D01*
X206240383Y-106829671D01*
X206221170Y-106843921D01*
X206200653Y-106856218D01*
X206179029Y-106866446D01*
X206156507Y-106874504D01*
X206133303Y-106880316D01*
X206109642Y-106883826D01*
X206085750Y-106885000D01*
X205598250Y-106885000D01*
X205574358Y-106883826D01*
X205550697Y-106880316D01*
X205527493Y-106874504D01*
X205504971Y-106866446D01*
X205483347Y-106856218D01*
X205462830Y-106843921D01*
X205443617Y-106829671D01*
X205425893Y-106813607D01*
X205409829Y-106795883D01*
X205395579Y-106776670D01*
X205383282Y-106756153D01*
X205373054Y-106734529D01*
X205364996Y-106712007D01*
X205359184Y-106688803D01*
X205355674Y-106665142D01*
X205354500Y-106641250D01*
X205354500Y-105728750D01*
X205355674Y-105704858D01*
X205359184Y-105681197D01*
X205364996Y-105657993D01*
X205373054Y-105635471D01*
X205383282Y-105613847D01*
X205395579Y-105593330D01*
X205409829Y-105574117D01*
X205425893Y-105556393D01*
X205443617Y-105540329D01*
X205462830Y-105526079D01*
X205483347Y-105513782D01*
X205504971Y-105503554D01*
X205527493Y-105495496D01*
X205550697Y-105489684D01*
X205574358Y-105486174D01*
X205598250Y-105485000D01*
X206085750Y-105485000D01*
X206109642Y-105486174D01*
X206109642Y-105486174D01*
G37*
D13*
X205842000Y-106185000D03*
D10*
G36*
X207984642Y-119456174D02*
G01*
X208008303Y-119459684D01*
X208031507Y-119465496D01*
X208054029Y-119473554D01*
X208075653Y-119483782D01*
X208096170Y-119496079D01*
X208115383Y-119510329D01*
X208133107Y-119526393D01*
X208149171Y-119544117D01*
X208163421Y-119563330D01*
X208175718Y-119583847D01*
X208185946Y-119605471D01*
X208194004Y-119627993D01*
X208199816Y-119651197D01*
X208203326Y-119674858D01*
X208204500Y-119698750D01*
X208204500Y-120611250D01*
X208203326Y-120635142D01*
X208199816Y-120658803D01*
X208194004Y-120682007D01*
X208185946Y-120704529D01*
X208175718Y-120726153D01*
X208163421Y-120746670D01*
X208149171Y-120765883D01*
X208133107Y-120783607D01*
X208115383Y-120799671D01*
X208096170Y-120813921D01*
X208075653Y-120826218D01*
X208054029Y-120836446D01*
X208031507Y-120844504D01*
X208008303Y-120850316D01*
X207984642Y-120853826D01*
X207960750Y-120855000D01*
X207473250Y-120855000D01*
X207449358Y-120853826D01*
X207425697Y-120850316D01*
X207402493Y-120844504D01*
X207379971Y-120836446D01*
X207358347Y-120826218D01*
X207337830Y-120813921D01*
X207318617Y-120799671D01*
X207300893Y-120783607D01*
X207284829Y-120765883D01*
X207270579Y-120746670D01*
X207258282Y-120726153D01*
X207248054Y-120704529D01*
X207239996Y-120682007D01*
X207234184Y-120658803D01*
X207230674Y-120635142D01*
X207229500Y-120611250D01*
X207229500Y-119698750D01*
X207230674Y-119674858D01*
X207234184Y-119651197D01*
X207239996Y-119627993D01*
X207248054Y-119605471D01*
X207258282Y-119583847D01*
X207270579Y-119563330D01*
X207284829Y-119544117D01*
X207300893Y-119526393D01*
X207318617Y-119510329D01*
X207337830Y-119496079D01*
X207358347Y-119483782D01*
X207379971Y-119473554D01*
X207402493Y-119465496D01*
X207425697Y-119459684D01*
X207449358Y-119456174D01*
X207473250Y-119455000D01*
X207960750Y-119455000D01*
X207984642Y-119456174D01*
X207984642Y-119456174D01*
G37*
D13*
X207717000Y-120155000D03*
D10*
G36*
X206109642Y-119456174D02*
G01*
X206133303Y-119459684D01*
X206156507Y-119465496D01*
X206179029Y-119473554D01*
X206200653Y-119483782D01*
X206221170Y-119496079D01*
X206240383Y-119510329D01*
X206258107Y-119526393D01*
X206274171Y-119544117D01*
X206288421Y-119563330D01*
X206300718Y-119583847D01*
X206310946Y-119605471D01*
X206319004Y-119627993D01*
X206324816Y-119651197D01*
X206328326Y-119674858D01*
X206329500Y-119698750D01*
X206329500Y-120611250D01*
X206328326Y-120635142D01*
X206324816Y-120658803D01*
X206319004Y-120682007D01*
X206310946Y-120704529D01*
X206300718Y-120726153D01*
X206288421Y-120746670D01*
X206274171Y-120765883D01*
X206258107Y-120783607D01*
X206240383Y-120799671D01*
X206221170Y-120813921D01*
X206200653Y-120826218D01*
X206179029Y-120836446D01*
X206156507Y-120844504D01*
X206133303Y-120850316D01*
X206109642Y-120853826D01*
X206085750Y-120855000D01*
X205598250Y-120855000D01*
X205574358Y-120853826D01*
X205550697Y-120850316D01*
X205527493Y-120844504D01*
X205504971Y-120836446D01*
X205483347Y-120826218D01*
X205462830Y-120813921D01*
X205443617Y-120799671D01*
X205425893Y-120783607D01*
X205409829Y-120765883D01*
X205395579Y-120746670D01*
X205383282Y-120726153D01*
X205373054Y-120704529D01*
X205364996Y-120682007D01*
X205359184Y-120658803D01*
X205355674Y-120635142D01*
X205354500Y-120611250D01*
X205354500Y-119698750D01*
X205355674Y-119674858D01*
X205359184Y-119651197D01*
X205364996Y-119627993D01*
X205373054Y-119605471D01*
X205383282Y-119583847D01*
X205395579Y-119563330D01*
X205409829Y-119544117D01*
X205425893Y-119526393D01*
X205443617Y-119510329D01*
X205462830Y-119496079D01*
X205483347Y-119483782D01*
X205504971Y-119473554D01*
X205527493Y-119465496D01*
X205550697Y-119459684D01*
X205574358Y-119456174D01*
X205598250Y-119455000D01*
X206085750Y-119455000D01*
X206109642Y-119456174D01*
X206109642Y-119456174D01*
G37*
D13*
X205842000Y-120155000D03*
D10*
G36*
X221349642Y-105486174D02*
G01*
X221373303Y-105489684D01*
X221396507Y-105495496D01*
X221419029Y-105503554D01*
X221440653Y-105513782D01*
X221461170Y-105526079D01*
X221480383Y-105540329D01*
X221498107Y-105556393D01*
X221514171Y-105574117D01*
X221528421Y-105593330D01*
X221540718Y-105613847D01*
X221550946Y-105635471D01*
X221559004Y-105657993D01*
X221564816Y-105681197D01*
X221568326Y-105704858D01*
X221569500Y-105728750D01*
X221569500Y-106641250D01*
X221568326Y-106665142D01*
X221564816Y-106688803D01*
X221559004Y-106712007D01*
X221550946Y-106734529D01*
X221540718Y-106756153D01*
X221528421Y-106776670D01*
X221514171Y-106795883D01*
X221498107Y-106813607D01*
X221480383Y-106829671D01*
X221461170Y-106843921D01*
X221440653Y-106856218D01*
X221419029Y-106866446D01*
X221396507Y-106874504D01*
X221373303Y-106880316D01*
X221349642Y-106883826D01*
X221325750Y-106885000D01*
X220838250Y-106885000D01*
X220814358Y-106883826D01*
X220790697Y-106880316D01*
X220767493Y-106874504D01*
X220744971Y-106866446D01*
X220723347Y-106856218D01*
X220702830Y-106843921D01*
X220683617Y-106829671D01*
X220665893Y-106813607D01*
X220649829Y-106795883D01*
X220635579Y-106776670D01*
X220623282Y-106756153D01*
X220613054Y-106734529D01*
X220604996Y-106712007D01*
X220599184Y-106688803D01*
X220595674Y-106665142D01*
X220594500Y-106641250D01*
X220594500Y-105728750D01*
X220595674Y-105704858D01*
X220599184Y-105681197D01*
X220604996Y-105657993D01*
X220613054Y-105635471D01*
X220623282Y-105613847D01*
X220635579Y-105593330D01*
X220649829Y-105574117D01*
X220665893Y-105556393D01*
X220683617Y-105540329D01*
X220702830Y-105526079D01*
X220723347Y-105513782D01*
X220744971Y-105503554D01*
X220767493Y-105495496D01*
X220790697Y-105489684D01*
X220814358Y-105486174D01*
X220838250Y-105485000D01*
X221325750Y-105485000D01*
X221349642Y-105486174D01*
X221349642Y-105486174D01*
G37*
D13*
X221082000Y-106185000D03*
D10*
G36*
X223224642Y-105486174D02*
G01*
X223248303Y-105489684D01*
X223271507Y-105495496D01*
X223294029Y-105503554D01*
X223315653Y-105513782D01*
X223336170Y-105526079D01*
X223355383Y-105540329D01*
X223373107Y-105556393D01*
X223389171Y-105574117D01*
X223403421Y-105593330D01*
X223415718Y-105613847D01*
X223425946Y-105635471D01*
X223434004Y-105657993D01*
X223439816Y-105681197D01*
X223443326Y-105704858D01*
X223444500Y-105728750D01*
X223444500Y-106641250D01*
X223443326Y-106665142D01*
X223439816Y-106688803D01*
X223434004Y-106712007D01*
X223425946Y-106734529D01*
X223415718Y-106756153D01*
X223403421Y-106776670D01*
X223389171Y-106795883D01*
X223373107Y-106813607D01*
X223355383Y-106829671D01*
X223336170Y-106843921D01*
X223315653Y-106856218D01*
X223294029Y-106866446D01*
X223271507Y-106874504D01*
X223248303Y-106880316D01*
X223224642Y-106883826D01*
X223200750Y-106885000D01*
X222713250Y-106885000D01*
X222689358Y-106883826D01*
X222665697Y-106880316D01*
X222642493Y-106874504D01*
X222619971Y-106866446D01*
X222598347Y-106856218D01*
X222577830Y-106843921D01*
X222558617Y-106829671D01*
X222540893Y-106813607D01*
X222524829Y-106795883D01*
X222510579Y-106776670D01*
X222498282Y-106756153D01*
X222488054Y-106734529D01*
X222479996Y-106712007D01*
X222474184Y-106688803D01*
X222470674Y-106665142D01*
X222469500Y-106641250D01*
X222469500Y-105728750D01*
X222470674Y-105704858D01*
X222474184Y-105681197D01*
X222479996Y-105657993D01*
X222488054Y-105635471D01*
X222498282Y-105613847D01*
X222510579Y-105593330D01*
X222524829Y-105574117D01*
X222540893Y-105556393D01*
X222558617Y-105540329D01*
X222577830Y-105526079D01*
X222598347Y-105513782D01*
X222619971Y-105503554D01*
X222642493Y-105495496D01*
X222665697Y-105489684D01*
X222689358Y-105486174D01*
X222713250Y-105485000D01*
X223200750Y-105485000D01*
X223224642Y-105486174D01*
X223224642Y-105486174D01*
G37*
D13*
X222957000Y-106185000D03*
D10*
G36*
X223224642Y-119456174D02*
G01*
X223248303Y-119459684D01*
X223271507Y-119465496D01*
X223294029Y-119473554D01*
X223315653Y-119483782D01*
X223336170Y-119496079D01*
X223355383Y-119510329D01*
X223373107Y-119526393D01*
X223389171Y-119544117D01*
X223403421Y-119563330D01*
X223415718Y-119583847D01*
X223425946Y-119605471D01*
X223434004Y-119627993D01*
X223439816Y-119651197D01*
X223443326Y-119674858D01*
X223444500Y-119698750D01*
X223444500Y-120611250D01*
X223443326Y-120635142D01*
X223439816Y-120658803D01*
X223434004Y-120682007D01*
X223425946Y-120704529D01*
X223415718Y-120726153D01*
X223403421Y-120746670D01*
X223389171Y-120765883D01*
X223373107Y-120783607D01*
X223355383Y-120799671D01*
X223336170Y-120813921D01*
X223315653Y-120826218D01*
X223294029Y-120836446D01*
X223271507Y-120844504D01*
X223248303Y-120850316D01*
X223224642Y-120853826D01*
X223200750Y-120855000D01*
X222713250Y-120855000D01*
X222689358Y-120853826D01*
X222665697Y-120850316D01*
X222642493Y-120844504D01*
X222619971Y-120836446D01*
X222598347Y-120826218D01*
X222577830Y-120813921D01*
X222558617Y-120799671D01*
X222540893Y-120783607D01*
X222524829Y-120765883D01*
X222510579Y-120746670D01*
X222498282Y-120726153D01*
X222488054Y-120704529D01*
X222479996Y-120682007D01*
X222474184Y-120658803D01*
X222470674Y-120635142D01*
X222469500Y-120611250D01*
X222469500Y-119698750D01*
X222470674Y-119674858D01*
X222474184Y-119651197D01*
X222479996Y-119627993D01*
X222488054Y-119605471D01*
X222498282Y-119583847D01*
X222510579Y-119563330D01*
X222524829Y-119544117D01*
X222540893Y-119526393D01*
X222558617Y-119510329D01*
X222577830Y-119496079D01*
X222598347Y-119483782D01*
X222619971Y-119473554D01*
X222642493Y-119465496D01*
X222665697Y-119459684D01*
X222689358Y-119456174D01*
X222713250Y-119455000D01*
X223200750Y-119455000D01*
X223224642Y-119456174D01*
X223224642Y-119456174D01*
G37*
D13*
X222957000Y-120155000D03*
D10*
G36*
X221349642Y-119456174D02*
G01*
X221373303Y-119459684D01*
X221396507Y-119465496D01*
X221419029Y-119473554D01*
X221440653Y-119483782D01*
X221461170Y-119496079D01*
X221480383Y-119510329D01*
X221498107Y-119526393D01*
X221514171Y-119544117D01*
X221528421Y-119563330D01*
X221540718Y-119583847D01*
X221550946Y-119605471D01*
X221559004Y-119627993D01*
X221564816Y-119651197D01*
X221568326Y-119674858D01*
X221569500Y-119698750D01*
X221569500Y-120611250D01*
X221568326Y-120635142D01*
X221564816Y-120658803D01*
X221559004Y-120682007D01*
X221550946Y-120704529D01*
X221540718Y-120726153D01*
X221528421Y-120746670D01*
X221514171Y-120765883D01*
X221498107Y-120783607D01*
X221480383Y-120799671D01*
X221461170Y-120813921D01*
X221440653Y-120826218D01*
X221419029Y-120836446D01*
X221396507Y-120844504D01*
X221373303Y-120850316D01*
X221349642Y-120853826D01*
X221325750Y-120855000D01*
X220838250Y-120855000D01*
X220814358Y-120853826D01*
X220790697Y-120850316D01*
X220767493Y-120844504D01*
X220744971Y-120836446D01*
X220723347Y-120826218D01*
X220702830Y-120813921D01*
X220683617Y-120799671D01*
X220665893Y-120783607D01*
X220649829Y-120765883D01*
X220635579Y-120746670D01*
X220623282Y-120726153D01*
X220613054Y-120704529D01*
X220604996Y-120682007D01*
X220599184Y-120658803D01*
X220595674Y-120635142D01*
X220594500Y-120611250D01*
X220594500Y-119698750D01*
X220595674Y-119674858D01*
X220599184Y-119651197D01*
X220604996Y-119627993D01*
X220613054Y-119605471D01*
X220623282Y-119583847D01*
X220635579Y-119563330D01*
X220649829Y-119544117D01*
X220665893Y-119526393D01*
X220683617Y-119510329D01*
X220702830Y-119496079D01*
X220723347Y-119483782D01*
X220744971Y-119473554D01*
X220767493Y-119465496D01*
X220790697Y-119459684D01*
X220814358Y-119456174D01*
X220838250Y-119455000D01*
X221325750Y-119455000D01*
X221349642Y-119456174D01*
X221349642Y-119456174D01*
G37*
D13*
X221082000Y-120155000D03*
D10*
G36*
X236589642Y-105486174D02*
G01*
X236613303Y-105489684D01*
X236636507Y-105495496D01*
X236659029Y-105503554D01*
X236680653Y-105513782D01*
X236701170Y-105526079D01*
X236720383Y-105540329D01*
X236738107Y-105556393D01*
X236754171Y-105574117D01*
X236768421Y-105593330D01*
X236780718Y-105613847D01*
X236790946Y-105635471D01*
X236799004Y-105657993D01*
X236804816Y-105681197D01*
X236808326Y-105704858D01*
X236809500Y-105728750D01*
X236809500Y-106641250D01*
X236808326Y-106665142D01*
X236804816Y-106688803D01*
X236799004Y-106712007D01*
X236790946Y-106734529D01*
X236780718Y-106756153D01*
X236768421Y-106776670D01*
X236754171Y-106795883D01*
X236738107Y-106813607D01*
X236720383Y-106829671D01*
X236701170Y-106843921D01*
X236680653Y-106856218D01*
X236659029Y-106866446D01*
X236636507Y-106874504D01*
X236613303Y-106880316D01*
X236589642Y-106883826D01*
X236565750Y-106885000D01*
X236078250Y-106885000D01*
X236054358Y-106883826D01*
X236030697Y-106880316D01*
X236007493Y-106874504D01*
X235984971Y-106866446D01*
X235963347Y-106856218D01*
X235942830Y-106843921D01*
X235923617Y-106829671D01*
X235905893Y-106813607D01*
X235889829Y-106795883D01*
X235875579Y-106776670D01*
X235863282Y-106756153D01*
X235853054Y-106734529D01*
X235844996Y-106712007D01*
X235839184Y-106688803D01*
X235835674Y-106665142D01*
X235834500Y-106641250D01*
X235834500Y-105728750D01*
X235835674Y-105704858D01*
X235839184Y-105681197D01*
X235844996Y-105657993D01*
X235853054Y-105635471D01*
X235863282Y-105613847D01*
X235875579Y-105593330D01*
X235889829Y-105574117D01*
X235905893Y-105556393D01*
X235923617Y-105540329D01*
X235942830Y-105526079D01*
X235963347Y-105513782D01*
X235984971Y-105503554D01*
X236007493Y-105495496D01*
X236030697Y-105489684D01*
X236054358Y-105486174D01*
X236078250Y-105485000D01*
X236565750Y-105485000D01*
X236589642Y-105486174D01*
X236589642Y-105486174D01*
G37*
D13*
X236322000Y-106185000D03*
D10*
G36*
X238464642Y-105486174D02*
G01*
X238488303Y-105489684D01*
X238511507Y-105495496D01*
X238534029Y-105503554D01*
X238555653Y-105513782D01*
X238576170Y-105526079D01*
X238595383Y-105540329D01*
X238613107Y-105556393D01*
X238629171Y-105574117D01*
X238643421Y-105593330D01*
X238655718Y-105613847D01*
X238665946Y-105635471D01*
X238674004Y-105657993D01*
X238679816Y-105681197D01*
X238683326Y-105704858D01*
X238684500Y-105728750D01*
X238684500Y-106641250D01*
X238683326Y-106665142D01*
X238679816Y-106688803D01*
X238674004Y-106712007D01*
X238665946Y-106734529D01*
X238655718Y-106756153D01*
X238643421Y-106776670D01*
X238629171Y-106795883D01*
X238613107Y-106813607D01*
X238595383Y-106829671D01*
X238576170Y-106843921D01*
X238555653Y-106856218D01*
X238534029Y-106866446D01*
X238511507Y-106874504D01*
X238488303Y-106880316D01*
X238464642Y-106883826D01*
X238440750Y-106885000D01*
X237953250Y-106885000D01*
X237929358Y-106883826D01*
X237905697Y-106880316D01*
X237882493Y-106874504D01*
X237859971Y-106866446D01*
X237838347Y-106856218D01*
X237817830Y-106843921D01*
X237798617Y-106829671D01*
X237780893Y-106813607D01*
X237764829Y-106795883D01*
X237750579Y-106776670D01*
X237738282Y-106756153D01*
X237728054Y-106734529D01*
X237719996Y-106712007D01*
X237714184Y-106688803D01*
X237710674Y-106665142D01*
X237709500Y-106641250D01*
X237709500Y-105728750D01*
X237710674Y-105704858D01*
X237714184Y-105681197D01*
X237719996Y-105657993D01*
X237728054Y-105635471D01*
X237738282Y-105613847D01*
X237750579Y-105593330D01*
X237764829Y-105574117D01*
X237780893Y-105556393D01*
X237798617Y-105540329D01*
X237817830Y-105526079D01*
X237838347Y-105513782D01*
X237859971Y-105503554D01*
X237882493Y-105495496D01*
X237905697Y-105489684D01*
X237929358Y-105486174D01*
X237953250Y-105485000D01*
X238440750Y-105485000D01*
X238464642Y-105486174D01*
X238464642Y-105486174D01*
G37*
D13*
X238197000Y-106185000D03*
D10*
G36*
X236589642Y-119456174D02*
G01*
X236613303Y-119459684D01*
X236636507Y-119465496D01*
X236659029Y-119473554D01*
X236680653Y-119483782D01*
X236701170Y-119496079D01*
X236720383Y-119510329D01*
X236738107Y-119526393D01*
X236754171Y-119544117D01*
X236768421Y-119563330D01*
X236780718Y-119583847D01*
X236790946Y-119605471D01*
X236799004Y-119627993D01*
X236804816Y-119651197D01*
X236808326Y-119674858D01*
X236809500Y-119698750D01*
X236809500Y-120611250D01*
X236808326Y-120635142D01*
X236804816Y-120658803D01*
X236799004Y-120682007D01*
X236790946Y-120704529D01*
X236780718Y-120726153D01*
X236768421Y-120746670D01*
X236754171Y-120765883D01*
X236738107Y-120783607D01*
X236720383Y-120799671D01*
X236701170Y-120813921D01*
X236680653Y-120826218D01*
X236659029Y-120836446D01*
X236636507Y-120844504D01*
X236613303Y-120850316D01*
X236589642Y-120853826D01*
X236565750Y-120855000D01*
X236078250Y-120855000D01*
X236054358Y-120853826D01*
X236030697Y-120850316D01*
X236007493Y-120844504D01*
X235984971Y-120836446D01*
X235963347Y-120826218D01*
X235942830Y-120813921D01*
X235923617Y-120799671D01*
X235905893Y-120783607D01*
X235889829Y-120765883D01*
X235875579Y-120746670D01*
X235863282Y-120726153D01*
X235853054Y-120704529D01*
X235844996Y-120682007D01*
X235839184Y-120658803D01*
X235835674Y-120635142D01*
X235834500Y-120611250D01*
X235834500Y-119698750D01*
X235835674Y-119674858D01*
X235839184Y-119651197D01*
X235844996Y-119627993D01*
X235853054Y-119605471D01*
X235863282Y-119583847D01*
X235875579Y-119563330D01*
X235889829Y-119544117D01*
X235905893Y-119526393D01*
X235923617Y-119510329D01*
X235942830Y-119496079D01*
X235963347Y-119483782D01*
X235984971Y-119473554D01*
X236007493Y-119465496D01*
X236030697Y-119459684D01*
X236054358Y-119456174D01*
X236078250Y-119455000D01*
X236565750Y-119455000D01*
X236589642Y-119456174D01*
X236589642Y-119456174D01*
G37*
D13*
X236322000Y-120155000D03*
D10*
G36*
X238464642Y-119456174D02*
G01*
X238488303Y-119459684D01*
X238511507Y-119465496D01*
X238534029Y-119473554D01*
X238555653Y-119483782D01*
X238576170Y-119496079D01*
X238595383Y-119510329D01*
X238613107Y-119526393D01*
X238629171Y-119544117D01*
X238643421Y-119563330D01*
X238655718Y-119583847D01*
X238665946Y-119605471D01*
X238674004Y-119627993D01*
X238679816Y-119651197D01*
X238683326Y-119674858D01*
X238684500Y-119698750D01*
X238684500Y-120611250D01*
X238683326Y-120635142D01*
X238679816Y-120658803D01*
X238674004Y-120682007D01*
X238665946Y-120704529D01*
X238655718Y-120726153D01*
X238643421Y-120746670D01*
X238629171Y-120765883D01*
X238613107Y-120783607D01*
X238595383Y-120799671D01*
X238576170Y-120813921D01*
X238555653Y-120826218D01*
X238534029Y-120836446D01*
X238511507Y-120844504D01*
X238488303Y-120850316D01*
X238464642Y-120853826D01*
X238440750Y-120855000D01*
X237953250Y-120855000D01*
X237929358Y-120853826D01*
X237905697Y-120850316D01*
X237882493Y-120844504D01*
X237859971Y-120836446D01*
X237838347Y-120826218D01*
X237817830Y-120813921D01*
X237798617Y-120799671D01*
X237780893Y-120783607D01*
X237764829Y-120765883D01*
X237750579Y-120746670D01*
X237738282Y-120726153D01*
X237728054Y-120704529D01*
X237719996Y-120682007D01*
X237714184Y-120658803D01*
X237710674Y-120635142D01*
X237709500Y-120611250D01*
X237709500Y-119698750D01*
X237710674Y-119674858D01*
X237714184Y-119651197D01*
X237719996Y-119627993D01*
X237728054Y-119605471D01*
X237738282Y-119583847D01*
X237750579Y-119563330D01*
X237764829Y-119544117D01*
X237780893Y-119526393D01*
X237798617Y-119510329D01*
X237817830Y-119496079D01*
X237838347Y-119483782D01*
X237859971Y-119473554D01*
X237882493Y-119465496D01*
X237905697Y-119459684D01*
X237929358Y-119456174D01*
X237953250Y-119455000D01*
X238440750Y-119455000D01*
X238464642Y-119456174D01*
X238464642Y-119456174D01*
G37*
D13*
X238197000Y-120155000D03*
D10*
G36*
X253704642Y-105486174D02*
G01*
X253728303Y-105489684D01*
X253751507Y-105495496D01*
X253774029Y-105503554D01*
X253795653Y-105513782D01*
X253816170Y-105526079D01*
X253835383Y-105540329D01*
X253853107Y-105556393D01*
X253869171Y-105574117D01*
X253883421Y-105593330D01*
X253895718Y-105613847D01*
X253905946Y-105635471D01*
X253914004Y-105657993D01*
X253919816Y-105681197D01*
X253923326Y-105704858D01*
X253924500Y-105728750D01*
X253924500Y-106641250D01*
X253923326Y-106665142D01*
X253919816Y-106688803D01*
X253914004Y-106712007D01*
X253905946Y-106734529D01*
X253895718Y-106756153D01*
X253883421Y-106776670D01*
X253869171Y-106795883D01*
X253853107Y-106813607D01*
X253835383Y-106829671D01*
X253816170Y-106843921D01*
X253795653Y-106856218D01*
X253774029Y-106866446D01*
X253751507Y-106874504D01*
X253728303Y-106880316D01*
X253704642Y-106883826D01*
X253680750Y-106885000D01*
X253193250Y-106885000D01*
X253169358Y-106883826D01*
X253145697Y-106880316D01*
X253122493Y-106874504D01*
X253099971Y-106866446D01*
X253078347Y-106856218D01*
X253057830Y-106843921D01*
X253038617Y-106829671D01*
X253020893Y-106813607D01*
X253004829Y-106795883D01*
X252990579Y-106776670D01*
X252978282Y-106756153D01*
X252968054Y-106734529D01*
X252959996Y-106712007D01*
X252954184Y-106688803D01*
X252950674Y-106665142D01*
X252949500Y-106641250D01*
X252949500Y-105728750D01*
X252950674Y-105704858D01*
X252954184Y-105681197D01*
X252959996Y-105657993D01*
X252968054Y-105635471D01*
X252978282Y-105613847D01*
X252990579Y-105593330D01*
X253004829Y-105574117D01*
X253020893Y-105556393D01*
X253038617Y-105540329D01*
X253057830Y-105526079D01*
X253078347Y-105513782D01*
X253099971Y-105503554D01*
X253122493Y-105495496D01*
X253145697Y-105489684D01*
X253169358Y-105486174D01*
X253193250Y-105485000D01*
X253680750Y-105485000D01*
X253704642Y-105486174D01*
X253704642Y-105486174D01*
G37*
D13*
X253437000Y-106185000D03*
D10*
G36*
X251829642Y-105486174D02*
G01*
X251853303Y-105489684D01*
X251876507Y-105495496D01*
X251899029Y-105503554D01*
X251920653Y-105513782D01*
X251941170Y-105526079D01*
X251960383Y-105540329D01*
X251978107Y-105556393D01*
X251994171Y-105574117D01*
X252008421Y-105593330D01*
X252020718Y-105613847D01*
X252030946Y-105635471D01*
X252039004Y-105657993D01*
X252044816Y-105681197D01*
X252048326Y-105704858D01*
X252049500Y-105728750D01*
X252049500Y-106641250D01*
X252048326Y-106665142D01*
X252044816Y-106688803D01*
X252039004Y-106712007D01*
X252030946Y-106734529D01*
X252020718Y-106756153D01*
X252008421Y-106776670D01*
X251994171Y-106795883D01*
X251978107Y-106813607D01*
X251960383Y-106829671D01*
X251941170Y-106843921D01*
X251920653Y-106856218D01*
X251899029Y-106866446D01*
X251876507Y-106874504D01*
X251853303Y-106880316D01*
X251829642Y-106883826D01*
X251805750Y-106885000D01*
X251318250Y-106885000D01*
X251294358Y-106883826D01*
X251270697Y-106880316D01*
X251247493Y-106874504D01*
X251224971Y-106866446D01*
X251203347Y-106856218D01*
X251182830Y-106843921D01*
X251163617Y-106829671D01*
X251145893Y-106813607D01*
X251129829Y-106795883D01*
X251115579Y-106776670D01*
X251103282Y-106756153D01*
X251093054Y-106734529D01*
X251084996Y-106712007D01*
X251079184Y-106688803D01*
X251075674Y-106665142D01*
X251074500Y-106641250D01*
X251074500Y-105728750D01*
X251075674Y-105704858D01*
X251079184Y-105681197D01*
X251084996Y-105657993D01*
X251093054Y-105635471D01*
X251103282Y-105613847D01*
X251115579Y-105593330D01*
X251129829Y-105574117D01*
X251145893Y-105556393D01*
X251163617Y-105540329D01*
X251182830Y-105526079D01*
X251203347Y-105513782D01*
X251224971Y-105503554D01*
X251247493Y-105495496D01*
X251270697Y-105489684D01*
X251294358Y-105486174D01*
X251318250Y-105485000D01*
X251805750Y-105485000D01*
X251829642Y-105486174D01*
X251829642Y-105486174D01*
G37*
D13*
X251562000Y-106185000D03*
D10*
G36*
X251829642Y-119456174D02*
G01*
X251853303Y-119459684D01*
X251876507Y-119465496D01*
X251899029Y-119473554D01*
X251920653Y-119483782D01*
X251941170Y-119496079D01*
X251960383Y-119510329D01*
X251978107Y-119526393D01*
X251994171Y-119544117D01*
X252008421Y-119563330D01*
X252020718Y-119583847D01*
X252030946Y-119605471D01*
X252039004Y-119627993D01*
X252044816Y-119651197D01*
X252048326Y-119674858D01*
X252049500Y-119698750D01*
X252049500Y-120611250D01*
X252048326Y-120635142D01*
X252044816Y-120658803D01*
X252039004Y-120682007D01*
X252030946Y-120704529D01*
X252020718Y-120726153D01*
X252008421Y-120746670D01*
X251994171Y-120765883D01*
X251978107Y-120783607D01*
X251960383Y-120799671D01*
X251941170Y-120813921D01*
X251920653Y-120826218D01*
X251899029Y-120836446D01*
X251876507Y-120844504D01*
X251853303Y-120850316D01*
X251829642Y-120853826D01*
X251805750Y-120855000D01*
X251318250Y-120855000D01*
X251294358Y-120853826D01*
X251270697Y-120850316D01*
X251247493Y-120844504D01*
X251224971Y-120836446D01*
X251203347Y-120826218D01*
X251182830Y-120813921D01*
X251163617Y-120799671D01*
X251145893Y-120783607D01*
X251129829Y-120765883D01*
X251115579Y-120746670D01*
X251103282Y-120726153D01*
X251093054Y-120704529D01*
X251084996Y-120682007D01*
X251079184Y-120658803D01*
X251075674Y-120635142D01*
X251074500Y-120611250D01*
X251074500Y-119698750D01*
X251075674Y-119674858D01*
X251079184Y-119651197D01*
X251084996Y-119627993D01*
X251093054Y-119605471D01*
X251103282Y-119583847D01*
X251115579Y-119563330D01*
X251129829Y-119544117D01*
X251145893Y-119526393D01*
X251163617Y-119510329D01*
X251182830Y-119496079D01*
X251203347Y-119483782D01*
X251224971Y-119473554D01*
X251247493Y-119465496D01*
X251270697Y-119459684D01*
X251294358Y-119456174D01*
X251318250Y-119455000D01*
X251805750Y-119455000D01*
X251829642Y-119456174D01*
X251829642Y-119456174D01*
G37*
D13*
X251562000Y-120155000D03*
D10*
G36*
X253704642Y-119456174D02*
G01*
X253728303Y-119459684D01*
X253751507Y-119465496D01*
X253774029Y-119473554D01*
X253795653Y-119483782D01*
X253816170Y-119496079D01*
X253835383Y-119510329D01*
X253853107Y-119526393D01*
X253869171Y-119544117D01*
X253883421Y-119563330D01*
X253895718Y-119583847D01*
X253905946Y-119605471D01*
X253914004Y-119627993D01*
X253919816Y-119651197D01*
X253923326Y-119674858D01*
X253924500Y-119698750D01*
X253924500Y-120611250D01*
X253923326Y-120635142D01*
X253919816Y-120658803D01*
X253914004Y-120682007D01*
X253905946Y-120704529D01*
X253895718Y-120726153D01*
X253883421Y-120746670D01*
X253869171Y-120765883D01*
X253853107Y-120783607D01*
X253835383Y-120799671D01*
X253816170Y-120813921D01*
X253795653Y-120826218D01*
X253774029Y-120836446D01*
X253751507Y-120844504D01*
X253728303Y-120850316D01*
X253704642Y-120853826D01*
X253680750Y-120855000D01*
X253193250Y-120855000D01*
X253169358Y-120853826D01*
X253145697Y-120850316D01*
X253122493Y-120844504D01*
X253099971Y-120836446D01*
X253078347Y-120826218D01*
X253057830Y-120813921D01*
X253038617Y-120799671D01*
X253020893Y-120783607D01*
X253004829Y-120765883D01*
X252990579Y-120746670D01*
X252978282Y-120726153D01*
X252968054Y-120704529D01*
X252959996Y-120682007D01*
X252954184Y-120658803D01*
X252950674Y-120635142D01*
X252949500Y-120611250D01*
X252949500Y-119698750D01*
X252950674Y-119674858D01*
X252954184Y-119651197D01*
X252959996Y-119627993D01*
X252968054Y-119605471D01*
X252978282Y-119583847D01*
X252990579Y-119563330D01*
X253004829Y-119544117D01*
X253020893Y-119526393D01*
X253038617Y-119510329D01*
X253057830Y-119496079D01*
X253078347Y-119483782D01*
X253099971Y-119473554D01*
X253122493Y-119465496D01*
X253145697Y-119459684D01*
X253169358Y-119456174D01*
X253193250Y-119455000D01*
X253680750Y-119455000D01*
X253704642Y-119456174D01*
X253704642Y-119456174D01*
G37*
D13*
X253437000Y-120155000D03*
M02*
