G04 #@! TF.GenerationSoftware,KiCad,Pcbnew,5.1.2-f72e74a~84~ubuntu19.04.1*
G04 #@! TF.CreationDate,2019-06-28T01:10:34+02:00*
G04 #@! TF.ProjectId,switch-control-hat,73776974-6368-42d6-936f-6e74726f6c2d,rev?*
G04 #@! TF.SameCoordinates,Original*
G04 #@! TF.FileFunction,Legend,Top*
G04 #@! TF.FilePolarity,Positive*
%FSLAX46Y46*%
G04 Gerber Fmt 4.6, Leading zero omitted, Abs format (unit mm)*
G04 Created by KiCad (PCBNEW 5.1.2-f72e74a~84~ubuntu19.04.1) date 2019-06-28 01:10:34*
%MOMM*%
%LPD*%
G04 APERTURE LIST*
%ADD10C,0.250000*%
%ADD11C,0.120000*%
%ADD12C,0.150000*%
G04 APERTURE END LIST*
D10*
X266821595Y-137208880D02*
X266821595Y-136208880D01*
X267202547Y-136208880D01*
X267297785Y-136256500D01*
X267345404Y-136304119D01*
X267393023Y-136399357D01*
X267393023Y-136542214D01*
X267345404Y-136637452D01*
X267297785Y-136685071D01*
X267202547Y-136732690D01*
X266821595Y-136732690D01*
X268393023Y-137208880D02*
X268059690Y-136732690D01*
X267821595Y-137208880D02*
X267821595Y-136208880D01*
X268202547Y-136208880D01*
X268297785Y-136256500D01*
X268345404Y-136304119D01*
X268393023Y-136399357D01*
X268393023Y-136542214D01*
X268345404Y-136637452D01*
X268297785Y-136685071D01*
X268202547Y-136732690D01*
X267821595Y-136732690D01*
X268821595Y-137208880D02*
X268821595Y-136208880D01*
X269202547Y-136208880D02*
X269869214Y-136208880D01*
X269202547Y-137208880D01*
X269869214Y-137208880D01*
X270250166Y-137208880D02*
X270250166Y-136208880D01*
X270583500Y-136923166D01*
X270916833Y-136208880D01*
X270916833Y-137208880D01*
X272107309Y-137161261D02*
X272202547Y-137208880D01*
X272393023Y-137208880D01*
X272488261Y-137161261D01*
X272535880Y-137066023D01*
X272535880Y-137018404D01*
X272488261Y-136923166D01*
X272393023Y-136875547D01*
X272250166Y-136875547D01*
X272154928Y-136827928D01*
X272107309Y-136732690D01*
X272107309Y-136685071D01*
X272154928Y-136589833D01*
X272250166Y-136542214D01*
X272393023Y-136542214D01*
X272488261Y-136589833D01*
X272869214Y-136542214D02*
X273059690Y-137208880D01*
X273250166Y-136732690D01*
X273440642Y-137208880D01*
X273631119Y-136542214D01*
X274012071Y-137208880D02*
X274012071Y-136542214D01*
X274012071Y-136208880D02*
X273964452Y-136256500D01*
X274012071Y-136304119D01*
X274059690Y-136256500D01*
X274012071Y-136208880D01*
X274012071Y-136304119D01*
X274345404Y-136542214D02*
X274726357Y-136542214D01*
X274488261Y-136208880D02*
X274488261Y-137066023D01*
X274535880Y-137161261D01*
X274631119Y-137208880D01*
X274726357Y-137208880D01*
X275488261Y-137161261D02*
X275393023Y-137208880D01*
X275202547Y-137208880D01*
X275107309Y-137161261D01*
X275059690Y-137113642D01*
X275012071Y-137018404D01*
X275012071Y-136732690D01*
X275059690Y-136637452D01*
X275107309Y-136589833D01*
X275202547Y-136542214D01*
X275393023Y-136542214D01*
X275488261Y-136589833D01*
X275916833Y-137208880D02*
X275916833Y-136208880D01*
X276345404Y-137208880D02*
X276345404Y-136685071D01*
X276297785Y-136589833D01*
X276202547Y-136542214D01*
X276059690Y-136542214D01*
X275964452Y-136589833D01*
X275916833Y-136637452D01*
X278012071Y-137161261D02*
X277916833Y-137208880D01*
X277726357Y-137208880D01*
X277631119Y-137161261D01*
X277583500Y-137113642D01*
X277535880Y-137018404D01*
X277535880Y-136732690D01*
X277583500Y-136637452D01*
X277631119Y-136589833D01*
X277726357Y-136542214D01*
X277916833Y-136542214D01*
X278012071Y-136589833D01*
X278583500Y-137208880D02*
X278488261Y-137161261D01*
X278440642Y-137113642D01*
X278393023Y-137018404D01*
X278393023Y-136732690D01*
X278440642Y-136637452D01*
X278488261Y-136589833D01*
X278583500Y-136542214D01*
X278726357Y-136542214D01*
X278821595Y-136589833D01*
X278869214Y-136637452D01*
X278916833Y-136732690D01*
X278916833Y-137018404D01*
X278869214Y-137113642D01*
X278821595Y-137161261D01*
X278726357Y-137208880D01*
X278583500Y-137208880D01*
X279345404Y-136542214D02*
X279345404Y-137208880D01*
X279345404Y-136637452D02*
X279393023Y-136589833D01*
X279488261Y-136542214D01*
X279631119Y-136542214D01*
X279726357Y-136589833D01*
X279773976Y-136685071D01*
X279773976Y-137208880D01*
X280107309Y-136542214D02*
X280488261Y-136542214D01*
X280250166Y-136208880D02*
X280250166Y-137066023D01*
X280297785Y-137161261D01*
X280393023Y-137208880D01*
X280488261Y-137208880D01*
X280821595Y-137208880D02*
X280821595Y-136542214D01*
X280821595Y-136732690D02*
X280869214Y-136637452D01*
X280916833Y-136589833D01*
X281012071Y-136542214D01*
X281107309Y-136542214D01*
X281583500Y-137208880D02*
X281488261Y-137161261D01*
X281440642Y-137113642D01*
X281393023Y-137018404D01*
X281393023Y-136732690D01*
X281440642Y-136637452D01*
X281488261Y-136589833D01*
X281583500Y-136542214D01*
X281726357Y-136542214D01*
X281821595Y-136589833D01*
X281869214Y-136637452D01*
X281916833Y-136732690D01*
X281916833Y-137018404D01*
X281869214Y-137113642D01*
X281821595Y-137161261D01*
X281726357Y-137208880D01*
X281583500Y-137208880D01*
X282488261Y-137208880D02*
X282393023Y-137161261D01*
X282345404Y-137066023D01*
X282345404Y-136208880D01*
X266678738Y-137958880D02*
X267250166Y-137958880D01*
X266964452Y-138958880D02*
X266964452Y-137958880D01*
X268012071Y-138958880D02*
X268012071Y-138435071D01*
X267964452Y-138339833D01*
X267869214Y-138292214D01*
X267678738Y-138292214D01*
X267583500Y-138339833D01*
X268012071Y-138911261D02*
X267916833Y-138958880D01*
X267678738Y-138958880D01*
X267583500Y-138911261D01*
X267535880Y-138816023D01*
X267535880Y-138720785D01*
X267583500Y-138625547D01*
X267678738Y-138577928D01*
X267916833Y-138577928D01*
X268012071Y-138530309D01*
X268488261Y-138292214D02*
X268488261Y-138958880D01*
X268488261Y-138387452D02*
X268535880Y-138339833D01*
X268631119Y-138292214D01*
X268773976Y-138292214D01*
X268869214Y-138339833D01*
X268916833Y-138435071D01*
X268916833Y-138958880D01*
X269393023Y-138958880D02*
X269393023Y-137958880D01*
X269488261Y-138577928D02*
X269773976Y-138958880D01*
X269773976Y-138292214D02*
X269393023Y-138673166D01*
X270202547Y-138958880D02*
X270202547Y-138292214D01*
X270202547Y-137958880D02*
X270154928Y-138006500D01*
X270202547Y-138054119D01*
X270250166Y-138006500D01*
X270202547Y-137958880D01*
X270202547Y-138054119D01*
X270631119Y-138911261D02*
X270726357Y-138958880D01*
X270916833Y-138958880D01*
X271012071Y-138911261D01*
X271059690Y-138816023D01*
X271059690Y-138768404D01*
X271012071Y-138673166D01*
X270916833Y-138625547D01*
X270773976Y-138625547D01*
X270678738Y-138577928D01*
X270631119Y-138482690D01*
X270631119Y-138435071D01*
X270678738Y-138339833D01*
X270773976Y-138292214D01*
X270916833Y-138292214D01*
X271012071Y-138339833D01*
X271631119Y-138958880D02*
X271535880Y-138911261D01*
X271488261Y-138863642D01*
X271440642Y-138768404D01*
X271440642Y-138482690D01*
X271488261Y-138387452D01*
X271535880Y-138339833D01*
X271631119Y-138292214D01*
X271773976Y-138292214D01*
X271869214Y-138339833D01*
X271916833Y-138387452D01*
X271964452Y-138482690D01*
X271964452Y-138768404D01*
X271916833Y-138863642D01*
X271869214Y-138911261D01*
X271773976Y-138958880D01*
X271631119Y-138958880D01*
X273154928Y-138958880D02*
X273154928Y-137958880D01*
X273154928Y-138435071D02*
X273726357Y-138435071D01*
X273726357Y-138958880D02*
X273726357Y-137958880D01*
X274202547Y-138863642D02*
X274250166Y-138911261D01*
X274202547Y-138958880D01*
X274154928Y-138911261D01*
X274202547Y-138863642D01*
X274202547Y-138958880D01*
X275440642Y-138958880D02*
X275440642Y-137958880D01*
X275773976Y-138673166D01*
X276107309Y-137958880D01*
X276107309Y-138958880D01*
X276726357Y-138958880D02*
X276631119Y-138911261D01*
X276583500Y-138863642D01*
X276535880Y-138768404D01*
X276535880Y-138482690D01*
X276583500Y-138387452D01*
X276631119Y-138339833D01*
X276726357Y-138292214D01*
X276869214Y-138292214D01*
X276964452Y-138339833D01*
X277012071Y-138387452D01*
X277059690Y-138482690D01*
X277059690Y-138768404D01*
X277012071Y-138863642D01*
X276964452Y-138911261D01*
X276869214Y-138958880D01*
X276726357Y-138958880D01*
X277440642Y-138911261D02*
X277535880Y-138958880D01*
X277726357Y-138958880D01*
X277821595Y-138911261D01*
X277869214Y-138816023D01*
X277869214Y-138768404D01*
X277821595Y-138673166D01*
X277726357Y-138625547D01*
X277583500Y-138625547D01*
X277488261Y-138577928D01*
X277440642Y-138482690D01*
X277440642Y-138435071D01*
X277488261Y-138339833D01*
X277583500Y-138292214D01*
X277726357Y-138292214D01*
X277821595Y-138339833D01*
X278440642Y-138958880D02*
X278345404Y-138911261D01*
X278297785Y-138863642D01*
X278250166Y-138768404D01*
X278250166Y-138482690D01*
X278297785Y-138387452D01*
X278345404Y-138339833D01*
X278440642Y-138292214D01*
X278583500Y-138292214D01*
X278678738Y-138339833D01*
X278726357Y-138387452D01*
X278773976Y-138482690D01*
X278773976Y-138768404D01*
X278726357Y-138863642D01*
X278678738Y-138911261D01*
X278583500Y-138958880D01*
X278440642Y-138958880D01*
X266821595Y-140708880D02*
X266821595Y-139708880D01*
X267393023Y-140708880D01*
X267393023Y-139708880D01*
X267869214Y-140708880D02*
X267869214Y-140042214D01*
X267869214Y-139708880D02*
X267821595Y-139756500D01*
X267869214Y-139804119D01*
X267916833Y-139756500D01*
X267869214Y-139708880D01*
X267869214Y-139804119D01*
X268250166Y-140042214D02*
X268488261Y-140708880D01*
X268726357Y-140042214D01*
X269488261Y-140661261D02*
X269393023Y-140708880D01*
X269202547Y-140708880D01*
X269107309Y-140661261D01*
X269059690Y-140566023D01*
X269059690Y-140185071D01*
X269107309Y-140089833D01*
X269202547Y-140042214D01*
X269393023Y-140042214D01*
X269488261Y-140089833D01*
X269535880Y-140185071D01*
X269535880Y-140280309D01*
X269059690Y-140375547D01*
X269964452Y-140708880D02*
X269964452Y-139708880D01*
X270059690Y-140327928D02*
X270345404Y-140708880D01*
X270345404Y-140042214D02*
X269964452Y-140423166D01*
X272059690Y-139756500D02*
X271964452Y-139708880D01*
X271821595Y-139708880D01*
X271678738Y-139756500D01*
X271583500Y-139851738D01*
X271535880Y-139946976D01*
X271488261Y-140137452D01*
X271488261Y-140280309D01*
X271535880Y-140470785D01*
X271583500Y-140566023D01*
X271678738Y-140661261D01*
X271821595Y-140708880D01*
X271916833Y-140708880D01*
X272059690Y-140661261D01*
X272107309Y-140613642D01*
X272107309Y-140280309D01*
X271916833Y-140280309D01*
X272535880Y-140708880D02*
X272535880Y-139708880D01*
X272964452Y-140708880D02*
X272964452Y-140185071D01*
X272916833Y-140089833D01*
X272821595Y-140042214D01*
X272678738Y-140042214D01*
X272583500Y-140089833D01*
X272535880Y-140137452D01*
X273869214Y-140708880D02*
X273869214Y-140185071D01*
X273821595Y-140089833D01*
X273726357Y-140042214D01*
X273535880Y-140042214D01*
X273440642Y-140089833D01*
X273869214Y-140661261D02*
X273773976Y-140708880D01*
X273535880Y-140708880D01*
X273440642Y-140661261D01*
X273393023Y-140566023D01*
X273393023Y-140470785D01*
X273440642Y-140375547D01*
X273535880Y-140327928D01*
X273773976Y-140327928D01*
X273869214Y-140280309D01*
X274250166Y-140042214D02*
X274773976Y-140042214D01*
X274250166Y-140708880D01*
X274773976Y-140708880D01*
X275154928Y-140708880D02*
X275154928Y-140042214D01*
X275154928Y-139708880D02*
X275107309Y-139756500D01*
X275154928Y-139804119D01*
X275202547Y-139756500D01*
X275154928Y-139708880D01*
X275154928Y-139804119D01*
D11*
X270820000Y-143590000D02*
X271420000Y-143590000D01*
X271120000Y-144190000D02*
X270820000Y-143590000D01*
X271420000Y-143590000D02*
X271120000Y-144190000D01*
X209952000Y-143590000D02*
X209652000Y-144190000D01*
X209652000Y-144190000D02*
X209352000Y-143590000D01*
X209352000Y-143590000D02*
X209952000Y-143590000D01*
X215212635Y-138570000D02*
G75*
G03X215212635Y-138570000I-1750635J0D01*
G01*
X213462000Y-136819365D02*
X213462000Y-136160000D01*
X259182000Y-136819365D02*
X259182000Y-136160000D01*
X260932635Y-138570000D02*
G75*
G03X260932635Y-138570000I-1750635J0D01*
G01*
X271830000Y-125642000D02*
X271830000Y-127457000D01*
X271575000Y-125642000D02*
X271830000Y-125642000D01*
X271575000Y-121782000D02*
X271575000Y-125642000D01*
X271575000Y-117922000D02*
X271830000Y-117922000D01*
X271575000Y-121782000D02*
X271575000Y-117922000D01*
X282095000Y-125642000D02*
X281840000Y-125642000D01*
X282095000Y-121782000D02*
X282095000Y-125642000D01*
X282095000Y-117922000D02*
X281840000Y-117922000D01*
X282095000Y-121782000D02*
X282095000Y-117922000D01*
X274655000Y-98038000D02*
X276105000Y-98038000D01*
X272055000Y-100638000D02*
X274655000Y-98038000D01*
X271255000Y-100638000D02*
X272055000Y-100638000D01*
X271255000Y-108938000D02*
X271255000Y-100638000D01*
X272055000Y-108938000D02*
X271255000Y-108938000D01*
X274655000Y-111538000D02*
X272055000Y-108938000D01*
X276105000Y-111538000D02*
X274655000Y-111538000D01*
X280105000Y-111538000D02*
X282205000Y-111538000D01*
X280105000Y-98038000D02*
X282205000Y-98038000D01*
X282155000Y-111538000D02*
G75*
G03X283705000Y-110088000I50000J1500000D01*
G01*
X282155000Y-98038000D02*
G75*
G02X283705000Y-99488000I50000J-1500000D01*
G01*
X283293671Y-100297339D02*
G75*
G03X283305000Y-109288000I3711329J-4490661D01*
G01*
X283689160Y-110202615D02*
G75*
G03X283305000Y-109288000I-984160J124615D01*
G01*
X283689160Y-99373385D02*
G75*
G02X283305000Y-100288000I-984160J-124615D01*
G01*
X267480922Y-120206000D02*
X267998078Y-120206000D01*
X267480922Y-118786000D02*
X267998078Y-118786000D01*
X267480922Y-117920000D02*
X267998078Y-117920000D01*
X267480922Y-116500000D02*
X267998078Y-116500000D01*
X267998078Y-121072000D02*
X267480922Y-121072000D01*
X267998078Y-122492000D02*
X267480922Y-122492000D01*
X267998078Y-125644000D02*
X267480922Y-125644000D01*
X267998078Y-127064000D02*
X267480922Y-127064000D01*
X271060000Y-132002000D02*
X271060000Y-130672000D01*
X272390000Y-132002000D02*
X271060000Y-132002000D01*
X273660000Y-132002000D02*
X273660000Y-129342000D01*
X273660000Y-129342000D02*
X276260000Y-129342000D01*
X273660000Y-132002000D02*
X276260000Y-132002000D01*
X276260000Y-132002000D02*
X276260000Y-129342000D01*
X266123078Y-123358000D02*
X265605922Y-123358000D01*
X266123078Y-124778000D02*
X265605922Y-124778000D01*
X251562000Y-136819365D02*
X251562000Y-136160000D01*
X253312635Y-138570000D02*
G75*
G03X253312635Y-138570000I-1750635J0D01*
G01*
X243942000Y-136819365D02*
X243942000Y-136160000D01*
X245692635Y-138570000D02*
G75*
G03X245692635Y-138570000I-1750635J0D01*
G01*
X236322000Y-136819365D02*
X236322000Y-136160000D01*
X238072635Y-138570000D02*
G75*
G03X238072635Y-138570000I-1750635J0D01*
G01*
X228702000Y-136819365D02*
X228702000Y-136160000D01*
X230452635Y-138570000D02*
G75*
G03X230452635Y-138570000I-1750635J0D01*
G01*
X221082000Y-136819365D02*
X221082000Y-136160000D01*
X222832635Y-138570000D02*
G75*
G03X222832635Y-138570000I-1750635J0D01*
G01*
X207592635Y-138570000D02*
G75*
G03X207592635Y-138570000I-1750635J0D01*
G01*
X205842000Y-136819365D02*
X205842000Y-136160000D01*
X225892000Y-109300000D02*
G75*
G02X223892000Y-109300000I-1000000J0D01*
G01*
X223892000Y-109300000D02*
X222242000Y-109300000D01*
X222242000Y-109300000D02*
X222242000Y-117040000D01*
X222242000Y-117040000D02*
X227542000Y-117040000D01*
X227542000Y-117040000D02*
X227542000Y-109300000D01*
X227542000Y-109300000D02*
X225892000Y-109300000D01*
X206520922Y-106895000D02*
X207038078Y-106895000D01*
X206520922Y-105475000D02*
X207038078Y-105475000D01*
X206520922Y-120865000D02*
X207038078Y-120865000D01*
X206520922Y-119445000D02*
X207038078Y-119445000D01*
X221760922Y-105475000D02*
X222278078Y-105475000D01*
X221760922Y-106895000D02*
X222278078Y-106895000D01*
X221760922Y-120865000D02*
X222278078Y-120865000D01*
X221760922Y-119445000D02*
X222278078Y-119445000D01*
X237000922Y-105475000D02*
X237518078Y-105475000D01*
X237000922Y-106895000D02*
X237518078Y-106895000D01*
X237000922Y-119445000D02*
X237518078Y-119445000D01*
X237000922Y-120865000D02*
X237518078Y-120865000D01*
X252240922Y-106895000D02*
X252758078Y-106895000D01*
X252240922Y-105475000D02*
X252758078Y-105475000D01*
X252240922Y-119445000D02*
X252758078Y-119445000D01*
X252240922Y-120865000D02*
X252758078Y-120865000D01*
X212302000Y-109300000D02*
X210652000Y-109300000D01*
X212302000Y-117040000D02*
X212302000Y-109300000D01*
X207002000Y-117040000D02*
X212302000Y-117040000D01*
X207002000Y-109300000D02*
X207002000Y-117040000D01*
X208652000Y-109300000D02*
X207002000Y-109300000D01*
X210652000Y-109300000D02*
G75*
G02X208652000Y-109300000I-1000000J0D01*
G01*
X210652000Y-123270000D02*
G75*
G02X208652000Y-123270000I-1000000J0D01*
G01*
X208652000Y-123270000D02*
X207002000Y-123270000D01*
X207002000Y-123270000D02*
X207002000Y-131010000D01*
X207002000Y-131010000D02*
X212302000Y-131010000D01*
X212302000Y-131010000D02*
X212302000Y-123270000D01*
X212302000Y-123270000D02*
X210652000Y-123270000D01*
X227542000Y-123270000D02*
X225892000Y-123270000D01*
X227542000Y-131010000D02*
X227542000Y-123270000D01*
X222242000Y-131010000D02*
X227542000Y-131010000D01*
X222242000Y-123270000D02*
X222242000Y-131010000D01*
X223892000Y-123270000D02*
X222242000Y-123270000D01*
X225892000Y-123270000D02*
G75*
G02X223892000Y-123270000I-1000000J0D01*
G01*
X241132000Y-109300000D02*
G75*
G02X239132000Y-109300000I-1000000J0D01*
G01*
X239132000Y-109300000D02*
X237482000Y-109300000D01*
X237482000Y-109300000D02*
X237482000Y-117040000D01*
X237482000Y-117040000D02*
X242782000Y-117040000D01*
X242782000Y-117040000D02*
X242782000Y-109300000D01*
X242782000Y-109300000D02*
X241132000Y-109300000D01*
X242782000Y-123270000D02*
X241132000Y-123270000D01*
X242782000Y-131010000D02*
X242782000Y-123270000D01*
X237482000Y-131010000D02*
X242782000Y-131010000D01*
X237482000Y-123270000D02*
X237482000Y-131010000D01*
X239132000Y-123270000D02*
X237482000Y-123270000D01*
X241132000Y-123270000D02*
G75*
G02X239132000Y-123270000I-1000000J0D01*
G01*
X256372000Y-109300000D02*
G75*
G02X254372000Y-109300000I-1000000J0D01*
G01*
X254372000Y-109300000D02*
X252722000Y-109300000D01*
X252722000Y-109300000D02*
X252722000Y-117040000D01*
X252722000Y-117040000D02*
X258022000Y-117040000D01*
X258022000Y-117040000D02*
X258022000Y-109300000D01*
X258022000Y-109300000D02*
X256372000Y-109300000D01*
X258022000Y-123270000D02*
X256372000Y-123270000D01*
X258022000Y-131010000D02*
X258022000Y-123270000D01*
X252722000Y-131010000D02*
X258022000Y-131010000D01*
X252722000Y-123270000D02*
X252722000Y-131010000D01*
X254372000Y-123270000D02*
X252722000Y-123270000D01*
X256372000Y-123270000D02*
G75*
G02X254372000Y-123270000I-1000000J0D01*
G01*
D12*
X274596666Y-142642380D02*
X274596666Y-143356666D01*
X274549047Y-143499523D01*
X274453809Y-143594761D01*
X274310952Y-143642380D01*
X274215714Y-143642380D01*
X275025238Y-142737619D02*
X275072857Y-142690000D01*
X275168095Y-142642380D01*
X275406190Y-142642380D01*
X275501428Y-142690000D01*
X275549047Y-142737619D01*
X275596666Y-142832857D01*
X275596666Y-142928095D01*
X275549047Y-143070952D01*
X274977619Y-143642380D01*
X275596666Y-143642380D01*
X232178666Y-142642380D02*
X232178666Y-143356666D01*
X232131047Y-143499523D01*
X232035809Y-143594761D01*
X231892952Y-143642380D01*
X231797714Y-143642380D01*
X233178666Y-143642380D02*
X232607238Y-143642380D01*
X232892952Y-143642380D02*
X232892952Y-142642380D01*
X232797714Y-142785238D01*
X232702476Y-142880476D01*
X232607238Y-142928095D01*
X216665015Y-137403095D02*
X215665015Y-137403095D01*
X215665015Y-137165000D01*
X215712635Y-137022142D01*
X215807873Y-136926904D01*
X215903111Y-136879285D01*
X216093587Y-136831666D01*
X216236444Y-136831666D01*
X216426920Y-136879285D01*
X216522158Y-136926904D01*
X216617396Y-137022142D01*
X216665015Y-137165000D01*
X216665015Y-137403095D01*
X215760254Y-136450714D02*
X215712635Y-136403095D01*
X215665015Y-136307857D01*
X215665015Y-136069761D01*
X215712635Y-135974523D01*
X215760254Y-135926904D01*
X215855492Y-135879285D01*
X215950730Y-135879285D01*
X216093587Y-135926904D01*
X216665015Y-136498333D01*
X216665015Y-135879285D01*
X212814380Y-136821904D02*
X211814380Y-136821904D01*
X212814380Y-136250476D02*
X212242952Y-136679047D01*
X211814380Y-136250476D02*
X212385809Y-136821904D01*
X262385015Y-137403095D02*
X261385015Y-137403095D01*
X261385015Y-137165000D01*
X261432635Y-137022142D01*
X261527873Y-136926904D01*
X261623111Y-136879285D01*
X261813587Y-136831666D01*
X261956444Y-136831666D01*
X262146920Y-136879285D01*
X262242158Y-136926904D01*
X262337396Y-137022142D01*
X262385015Y-137165000D01*
X262385015Y-137403095D01*
X261813587Y-136260238D02*
X261765968Y-136355476D01*
X261718349Y-136403095D01*
X261623111Y-136450714D01*
X261575492Y-136450714D01*
X261480254Y-136403095D01*
X261432635Y-136355476D01*
X261385015Y-136260238D01*
X261385015Y-136069761D01*
X261432635Y-135974523D01*
X261480254Y-135926904D01*
X261575492Y-135879285D01*
X261623111Y-135879285D01*
X261718349Y-135926904D01*
X261765968Y-135974523D01*
X261813587Y-136069761D01*
X261813587Y-136260238D01*
X261861206Y-136355476D01*
X261908825Y-136403095D01*
X262004063Y-136450714D01*
X262194539Y-136450714D01*
X262289777Y-136403095D01*
X262337396Y-136355476D01*
X262385015Y-136260238D01*
X262385015Y-136069761D01*
X262337396Y-135974523D01*
X262289777Y-135926904D01*
X262194539Y-135879285D01*
X262004063Y-135879285D01*
X261908825Y-135926904D01*
X261861206Y-135974523D01*
X261813587Y-136069761D01*
X258534380Y-136821904D02*
X257534380Y-136821904D01*
X258534380Y-136250476D02*
X257962952Y-136679047D01*
X257534380Y-136250476D02*
X258105809Y-136821904D01*
X270187380Y-122543904D02*
X270996904Y-122543904D01*
X271092142Y-122496285D01*
X271139761Y-122448666D01*
X271187380Y-122353428D01*
X271187380Y-122162952D01*
X271139761Y-122067714D01*
X271092142Y-122020095D01*
X270996904Y-121972476D01*
X270187380Y-121972476D01*
X271187380Y-121448666D02*
X271187380Y-121258190D01*
X271139761Y-121162952D01*
X271092142Y-121115333D01*
X270949285Y-121020095D01*
X270758809Y-120972476D01*
X270377857Y-120972476D01*
X270282619Y-121020095D01*
X270235000Y-121067714D01*
X270187380Y-121162952D01*
X270187380Y-121353428D01*
X270235000Y-121448666D01*
X270282619Y-121496285D01*
X270377857Y-121543904D01*
X270615952Y-121543904D01*
X270711190Y-121496285D01*
X270758809Y-121448666D01*
X270806428Y-121353428D01*
X270806428Y-121162952D01*
X270758809Y-121067714D01*
X270711190Y-121020095D01*
X270615952Y-120972476D01*
X270033571Y-105573714D02*
X270081190Y-105430857D01*
X270128809Y-105383238D01*
X270224047Y-105335619D01*
X270366904Y-105335619D01*
X270462142Y-105383238D01*
X270509761Y-105430857D01*
X270557380Y-105526095D01*
X270557380Y-105907047D01*
X269557380Y-105907047D01*
X269557380Y-105573714D01*
X269605000Y-105478476D01*
X269652619Y-105430857D01*
X269747857Y-105383238D01*
X269843095Y-105383238D01*
X269938333Y-105430857D01*
X269985952Y-105478476D01*
X270033571Y-105573714D01*
X270033571Y-105907047D01*
X269557380Y-105049904D02*
X269557380Y-104478476D01*
X270557380Y-104764190D02*
X269557380Y-104764190D01*
X270557380Y-103621333D02*
X270557380Y-104192761D01*
X270557380Y-103907047D02*
X269557380Y-103907047D01*
X269700238Y-104002285D01*
X269795476Y-104097523D01*
X269843095Y-104192761D01*
X263825380Y-120138857D02*
X263349190Y-120472190D01*
X263825380Y-120710285D02*
X262825380Y-120710285D01*
X262825380Y-120329333D01*
X262873000Y-120234095D01*
X262920619Y-120186476D01*
X263015857Y-120138857D01*
X263158714Y-120138857D01*
X263253952Y-120186476D01*
X263301571Y-120234095D01*
X263349190Y-120329333D01*
X263349190Y-120710285D01*
X263825380Y-119186476D02*
X263825380Y-119757904D01*
X263825380Y-119472190D02*
X262825380Y-119472190D01*
X262968238Y-119567428D01*
X263063476Y-119662666D01*
X263111095Y-119757904D01*
X262920619Y-118805523D02*
X262873000Y-118757904D01*
X262825380Y-118662666D01*
X262825380Y-118424571D01*
X262873000Y-118329333D01*
X262920619Y-118281714D01*
X263015857Y-118234095D01*
X263111095Y-118234095D01*
X263253952Y-118281714D01*
X263825380Y-118853142D01*
X263825380Y-118234095D01*
X265700380Y-117852857D02*
X265224190Y-118186190D01*
X265700380Y-118424285D02*
X264700380Y-118424285D01*
X264700380Y-118043333D01*
X264748000Y-117948095D01*
X264795619Y-117900476D01*
X264890857Y-117852857D01*
X265033714Y-117852857D01*
X265128952Y-117900476D01*
X265176571Y-117948095D01*
X265224190Y-118043333D01*
X265224190Y-118424285D01*
X265700380Y-116900476D02*
X265700380Y-117471904D01*
X265700380Y-117186190D02*
X264700380Y-117186190D01*
X264843238Y-117281428D01*
X264938476Y-117376666D01*
X264986095Y-117471904D01*
X265700380Y-115948095D02*
X265700380Y-116519523D01*
X265700380Y-116233809D02*
X264700380Y-116233809D01*
X264843238Y-116329047D01*
X264938476Y-116424285D01*
X264986095Y-116519523D01*
X265700380Y-122424857D02*
X265224190Y-122758190D01*
X265700380Y-122996285D02*
X264700380Y-122996285D01*
X264700380Y-122615333D01*
X264748000Y-122520095D01*
X264795619Y-122472476D01*
X264890857Y-122424857D01*
X265033714Y-122424857D01*
X265128952Y-122472476D01*
X265176571Y-122520095D01*
X265224190Y-122615333D01*
X265224190Y-122996285D01*
X265700380Y-121472476D02*
X265700380Y-122043904D01*
X265700380Y-121758190D02*
X264700380Y-121758190D01*
X264843238Y-121853428D01*
X264938476Y-121948666D01*
X264986095Y-122043904D01*
X264700380Y-120853428D02*
X264700380Y-120758190D01*
X264748000Y-120662952D01*
X264795619Y-120615333D01*
X264890857Y-120567714D01*
X265081333Y-120520095D01*
X265319428Y-120520095D01*
X265509904Y-120567714D01*
X265605142Y-120615333D01*
X265652761Y-120662952D01*
X265700380Y-120758190D01*
X265700380Y-120853428D01*
X265652761Y-120948666D01*
X265605142Y-120996285D01*
X265509904Y-121043904D01*
X265319428Y-121091523D01*
X265081333Y-121091523D01*
X264890857Y-121043904D01*
X264795619Y-120996285D01*
X264748000Y-120948666D01*
X264700380Y-120853428D01*
X265700380Y-126520666D02*
X265224190Y-126854000D01*
X265700380Y-127092095D02*
X264700380Y-127092095D01*
X264700380Y-126711142D01*
X264748000Y-126615904D01*
X264795619Y-126568285D01*
X264890857Y-126520666D01*
X265033714Y-126520666D01*
X265128952Y-126568285D01*
X265176571Y-126615904D01*
X265224190Y-126711142D01*
X265224190Y-127092095D01*
X265700380Y-126044476D02*
X265700380Y-125854000D01*
X265652761Y-125758761D01*
X265605142Y-125711142D01*
X265462285Y-125615904D01*
X265271809Y-125568285D01*
X264890857Y-125568285D01*
X264795619Y-125615904D01*
X264748000Y-125663523D01*
X264700380Y-125758761D01*
X264700380Y-125949238D01*
X264748000Y-126044476D01*
X264795619Y-126092095D01*
X264890857Y-126139714D01*
X265128952Y-126139714D01*
X265224190Y-126092095D01*
X265271809Y-126044476D01*
X265319428Y-125949238D01*
X265319428Y-125758761D01*
X265271809Y-125663523D01*
X265224190Y-125615904D01*
X265128952Y-125568285D01*
X269512380Y-131005333D02*
X270226666Y-131005333D01*
X270369523Y-131052952D01*
X270464761Y-131148190D01*
X270512380Y-131291047D01*
X270512380Y-131386285D01*
X269512380Y-130624380D02*
X269512380Y-130005333D01*
X269893333Y-130338666D01*
X269893333Y-130195809D01*
X269940952Y-130100571D01*
X269988571Y-130052952D01*
X270083809Y-130005333D01*
X270321904Y-130005333D01*
X270417142Y-130052952D01*
X270464761Y-130100571D01*
X270512380Y-130195809D01*
X270512380Y-130481523D01*
X270464761Y-130576761D01*
X270417142Y-130624380D01*
X263730142Y-124234666D02*
X263777761Y-124282285D01*
X263825380Y-124425142D01*
X263825380Y-124520380D01*
X263777761Y-124663238D01*
X263682523Y-124758476D01*
X263587285Y-124806095D01*
X263396809Y-124853714D01*
X263253952Y-124853714D01*
X263063476Y-124806095D01*
X262968238Y-124758476D01*
X262873000Y-124663238D01*
X262825380Y-124520380D01*
X262825380Y-124425142D01*
X262873000Y-124282285D01*
X262920619Y-124234666D01*
X263825380Y-123282285D02*
X263825380Y-123853714D01*
X263825380Y-123568000D02*
X262825380Y-123568000D01*
X262968238Y-123663238D01*
X263063476Y-123758476D01*
X263111095Y-123853714D01*
X254765015Y-137403095D02*
X253765015Y-137403095D01*
X253765015Y-137165000D01*
X253812635Y-137022142D01*
X253907873Y-136926904D01*
X254003111Y-136879285D01*
X254193587Y-136831666D01*
X254336444Y-136831666D01*
X254526920Y-136879285D01*
X254622158Y-136926904D01*
X254717396Y-137022142D01*
X254765015Y-137165000D01*
X254765015Y-137403095D01*
X253765015Y-136498333D02*
X253765015Y-135831666D01*
X254765015Y-136260238D01*
X250914380Y-136821904D02*
X249914380Y-136821904D01*
X250914380Y-136250476D02*
X250342952Y-136679047D01*
X249914380Y-136250476D02*
X250485809Y-136821904D01*
X247145015Y-137403095D02*
X246145015Y-137403095D01*
X246145015Y-137165000D01*
X246192635Y-137022142D01*
X246287873Y-136926904D01*
X246383111Y-136879285D01*
X246573587Y-136831666D01*
X246716444Y-136831666D01*
X246906920Y-136879285D01*
X247002158Y-136926904D01*
X247097396Y-137022142D01*
X247145015Y-137165000D01*
X247145015Y-137403095D01*
X246145015Y-135974523D02*
X246145015Y-136165000D01*
X246192635Y-136260238D01*
X246240254Y-136307857D01*
X246383111Y-136403095D01*
X246573587Y-136450714D01*
X246954539Y-136450714D01*
X247049777Y-136403095D01*
X247097396Y-136355476D01*
X247145015Y-136260238D01*
X247145015Y-136069761D01*
X247097396Y-135974523D01*
X247049777Y-135926904D01*
X246954539Y-135879285D01*
X246716444Y-135879285D01*
X246621206Y-135926904D01*
X246573587Y-135974523D01*
X246525968Y-136069761D01*
X246525968Y-136260238D01*
X246573587Y-136355476D01*
X246621206Y-136403095D01*
X246716444Y-136450714D01*
X243294380Y-136821904D02*
X242294380Y-136821904D01*
X243294380Y-136250476D02*
X242722952Y-136679047D01*
X242294380Y-136250476D02*
X242865809Y-136821904D01*
X239525015Y-137403095D02*
X238525015Y-137403095D01*
X238525015Y-137165000D01*
X238572635Y-137022142D01*
X238667873Y-136926904D01*
X238763111Y-136879285D01*
X238953587Y-136831666D01*
X239096444Y-136831666D01*
X239286920Y-136879285D01*
X239382158Y-136926904D01*
X239477396Y-137022142D01*
X239525015Y-137165000D01*
X239525015Y-137403095D01*
X238525015Y-135926904D02*
X238525015Y-136403095D01*
X239001206Y-136450714D01*
X238953587Y-136403095D01*
X238905968Y-136307857D01*
X238905968Y-136069761D01*
X238953587Y-135974523D01*
X239001206Y-135926904D01*
X239096444Y-135879285D01*
X239334539Y-135879285D01*
X239429777Y-135926904D01*
X239477396Y-135974523D01*
X239525015Y-136069761D01*
X239525015Y-136307857D01*
X239477396Y-136403095D01*
X239429777Y-136450714D01*
X235674380Y-136821904D02*
X234674380Y-136821904D01*
X235674380Y-136250476D02*
X235102952Y-136679047D01*
X234674380Y-136250476D02*
X235245809Y-136821904D01*
X231905015Y-137403095D02*
X230905015Y-137403095D01*
X230905015Y-137165000D01*
X230952635Y-137022142D01*
X231047873Y-136926904D01*
X231143111Y-136879285D01*
X231333587Y-136831666D01*
X231476444Y-136831666D01*
X231666920Y-136879285D01*
X231762158Y-136926904D01*
X231857396Y-137022142D01*
X231905015Y-137165000D01*
X231905015Y-137403095D01*
X231238349Y-135974523D02*
X231905015Y-135974523D01*
X230857396Y-136212619D02*
X231571682Y-136450714D01*
X231571682Y-135831666D01*
X228054380Y-136821904D02*
X227054380Y-136821904D01*
X228054380Y-136250476D02*
X227482952Y-136679047D01*
X227054380Y-136250476D02*
X227625809Y-136821904D01*
X224285015Y-137403095D02*
X223285015Y-137403095D01*
X223285015Y-137165000D01*
X223332635Y-137022142D01*
X223427873Y-136926904D01*
X223523111Y-136879285D01*
X223713587Y-136831666D01*
X223856444Y-136831666D01*
X224046920Y-136879285D01*
X224142158Y-136926904D01*
X224237396Y-137022142D01*
X224285015Y-137165000D01*
X224285015Y-137403095D01*
X223285015Y-136498333D02*
X223285015Y-135879285D01*
X223665968Y-136212619D01*
X223665968Y-136069761D01*
X223713587Y-135974523D01*
X223761206Y-135926904D01*
X223856444Y-135879285D01*
X224094539Y-135879285D01*
X224189777Y-135926904D01*
X224237396Y-135974523D01*
X224285015Y-136069761D01*
X224285015Y-136355476D01*
X224237396Y-136450714D01*
X224189777Y-136498333D01*
X220434380Y-136821904D02*
X219434380Y-136821904D01*
X220434380Y-136250476D02*
X219862952Y-136679047D01*
X219434380Y-136250476D02*
X220005809Y-136821904D01*
X209045015Y-137403095D02*
X208045015Y-137403095D01*
X208045015Y-137165000D01*
X208092635Y-137022142D01*
X208187873Y-136926904D01*
X208283111Y-136879285D01*
X208473587Y-136831666D01*
X208616444Y-136831666D01*
X208806920Y-136879285D01*
X208902158Y-136926904D01*
X208997396Y-137022142D01*
X209045015Y-137165000D01*
X209045015Y-137403095D01*
X209045015Y-135879285D02*
X209045015Y-136450714D01*
X209045015Y-136165000D02*
X208045015Y-136165000D01*
X208187873Y-136260238D01*
X208283111Y-136355476D01*
X208330730Y-136450714D01*
X205194380Y-136821904D02*
X204194380Y-136821904D01*
X205194380Y-136250476D02*
X204622952Y-136679047D01*
X204194380Y-136250476D02*
X204765809Y-136821904D01*
X224130095Y-107752380D02*
X224130095Y-108561904D01*
X224177714Y-108657142D01*
X224225333Y-108704761D01*
X224320571Y-108752380D01*
X224511047Y-108752380D01*
X224606285Y-108704761D01*
X224653904Y-108657142D01*
X224701523Y-108561904D01*
X224701523Y-107752380D01*
X225082476Y-107752380D02*
X225701523Y-107752380D01*
X225368190Y-108133333D01*
X225511047Y-108133333D01*
X225606285Y-108180952D01*
X225653904Y-108228571D01*
X225701523Y-108323809D01*
X225701523Y-108561904D01*
X225653904Y-108657142D01*
X225606285Y-108704761D01*
X225511047Y-108752380D01*
X225225333Y-108752380D01*
X225130095Y-108704761D01*
X225082476Y-108657142D01*
X206612833Y-104987380D02*
X206279500Y-104511190D01*
X206041404Y-104987380D02*
X206041404Y-103987380D01*
X206422357Y-103987380D01*
X206517595Y-104035000D01*
X206565214Y-104082619D01*
X206612833Y-104177857D01*
X206612833Y-104320714D01*
X206565214Y-104415952D01*
X206517595Y-104463571D01*
X206422357Y-104511190D01*
X206041404Y-104511190D01*
X207565214Y-104987380D02*
X206993785Y-104987380D01*
X207279500Y-104987380D02*
X207279500Y-103987380D01*
X207184261Y-104130238D01*
X207089023Y-104225476D01*
X206993785Y-104273095D01*
X206612833Y-118957380D02*
X206279500Y-118481190D01*
X206041404Y-118957380D02*
X206041404Y-117957380D01*
X206422357Y-117957380D01*
X206517595Y-118005000D01*
X206565214Y-118052619D01*
X206612833Y-118147857D01*
X206612833Y-118290714D01*
X206565214Y-118385952D01*
X206517595Y-118433571D01*
X206422357Y-118481190D01*
X206041404Y-118481190D01*
X206993785Y-118052619D02*
X207041404Y-118005000D01*
X207136642Y-117957380D01*
X207374738Y-117957380D01*
X207469976Y-118005000D01*
X207517595Y-118052619D01*
X207565214Y-118147857D01*
X207565214Y-118243095D01*
X207517595Y-118385952D01*
X206946166Y-118957380D01*
X207565214Y-118957380D01*
X221852833Y-104987380D02*
X221519500Y-104511190D01*
X221281404Y-104987380D02*
X221281404Y-103987380D01*
X221662357Y-103987380D01*
X221757595Y-104035000D01*
X221805214Y-104082619D01*
X221852833Y-104177857D01*
X221852833Y-104320714D01*
X221805214Y-104415952D01*
X221757595Y-104463571D01*
X221662357Y-104511190D01*
X221281404Y-104511190D01*
X222186166Y-103987380D02*
X222805214Y-103987380D01*
X222471880Y-104368333D01*
X222614738Y-104368333D01*
X222709976Y-104415952D01*
X222757595Y-104463571D01*
X222805214Y-104558809D01*
X222805214Y-104796904D01*
X222757595Y-104892142D01*
X222709976Y-104939761D01*
X222614738Y-104987380D01*
X222329023Y-104987380D01*
X222233785Y-104939761D01*
X222186166Y-104892142D01*
X221852833Y-118957380D02*
X221519500Y-118481190D01*
X221281404Y-118957380D02*
X221281404Y-117957380D01*
X221662357Y-117957380D01*
X221757595Y-118005000D01*
X221805214Y-118052619D01*
X221852833Y-118147857D01*
X221852833Y-118290714D01*
X221805214Y-118385952D01*
X221757595Y-118433571D01*
X221662357Y-118481190D01*
X221281404Y-118481190D01*
X222709976Y-118290714D02*
X222709976Y-118957380D01*
X222471880Y-117909761D02*
X222233785Y-118624047D01*
X222852833Y-118624047D01*
X237092833Y-104987380D02*
X236759500Y-104511190D01*
X236521404Y-104987380D02*
X236521404Y-103987380D01*
X236902357Y-103987380D01*
X236997595Y-104035000D01*
X237045214Y-104082619D01*
X237092833Y-104177857D01*
X237092833Y-104320714D01*
X237045214Y-104415952D01*
X236997595Y-104463571D01*
X236902357Y-104511190D01*
X236521404Y-104511190D01*
X237997595Y-103987380D02*
X237521404Y-103987380D01*
X237473785Y-104463571D01*
X237521404Y-104415952D01*
X237616642Y-104368333D01*
X237854738Y-104368333D01*
X237949976Y-104415952D01*
X237997595Y-104463571D01*
X238045214Y-104558809D01*
X238045214Y-104796904D01*
X237997595Y-104892142D01*
X237949976Y-104939761D01*
X237854738Y-104987380D01*
X237616642Y-104987380D01*
X237521404Y-104939761D01*
X237473785Y-104892142D01*
X237092833Y-118957380D02*
X236759500Y-118481190D01*
X236521404Y-118957380D02*
X236521404Y-117957380D01*
X236902357Y-117957380D01*
X236997595Y-118005000D01*
X237045214Y-118052619D01*
X237092833Y-118147857D01*
X237092833Y-118290714D01*
X237045214Y-118385952D01*
X236997595Y-118433571D01*
X236902357Y-118481190D01*
X236521404Y-118481190D01*
X237949976Y-117957380D02*
X237759500Y-117957380D01*
X237664261Y-118005000D01*
X237616642Y-118052619D01*
X237521404Y-118195476D01*
X237473785Y-118385952D01*
X237473785Y-118766904D01*
X237521404Y-118862142D01*
X237569023Y-118909761D01*
X237664261Y-118957380D01*
X237854738Y-118957380D01*
X237949976Y-118909761D01*
X237997595Y-118862142D01*
X238045214Y-118766904D01*
X238045214Y-118528809D01*
X237997595Y-118433571D01*
X237949976Y-118385952D01*
X237854738Y-118338333D01*
X237664261Y-118338333D01*
X237569023Y-118385952D01*
X237521404Y-118433571D01*
X237473785Y-118528809D01*
X252332833Y-104987380D02*
X251999500Y-104511190D01*
X251761404Y-104987380D02*
X251761404Y-103987380D01*
X252142357Y-103987380D01*
X252237595Y-104035000D01*
X252285214Y-104082619D01*
X252332833Y-104177857D01*
X252332833Y-104320714D01*
X252285214Y-104415952D01*
X252237595Y-104463571D01*
X252142357Y-104511190D01*
X251761404Y-104511190D01*
X252666166Y-103987380D02*
X253332833Y-103987380D01*
X252904261Y-104987380D01*
X252332833Y-118957380D02*
X251999500Y-118481190D01*
X251761404Y-118957380D02*
X251761404Y-117957380D01*
X252142357Y-117957380D01*
X252237595Y-118005000D01*
X252285214Y-118052619D01*
X252332833Y-118147857D01*
X252332833Y-118290714D01*
X252285214Y-118385952D01*
X252237595Y-118433571D01*
X252142357Y-118481190D01*
X251761404Y-118481190D01*
X252904261Y-118385952D02*
X252809023Y-118338333D01*
X252761404Y-118290714D01*
X252713785Y-118195476D01*
X252713785Y-118147857D01*
X252761404Y-118052619D01*
X252809023Y-118005000D01*
X252904261Y-117957380D01*
X253094738Y-117957380D01*
X253189976Y-118005000D01*
X253237595Y-118052619D01*
X253285214Y-118147857D01*
X253285214Y-118195476D01*
X253237595Y-118290714D01*
X253189976Y-118338333D01*
X253094738Y-118385952D01*
X252904261Y-118385952D01*
X252809023Y-118433571D01*
X252761404Y-118481190D01*
X252713785Y-118576428D01*
X252713785Y-118766904D01*
X252761404Y-118862142D01*
X252809023Y-118909761D01*
X252904261Y-118957380D01*
X253094738Y-118957380D01*
X253189976Y-118909761D01*
X253237595Y-118862142D01*
X253285214Y-118766904D01*
X253285214Y-118576428D01*
X253237595Y-118481190D01*
X253189976Y-118433571D01*
X253094738Y-118385952D01*
X208890095Y-107752380D02*
X208890095Y-108561904D01*
X208937714Y-108657142D01*
X208985333Y-108704761D01*
X209080571Y-108752380D01*
X209271047Y-108752380D01*
X209366285Y-108704761D01*
X209413904Y-108657142D01*
X209461523Y-108561904D01*
X209461523Y-107752380D01*
X210461523Y-108752380D02*
X209890095Y-108752380D01*
X210175809Y-108752380D02*
X210175809Y-107752380D01*
X210080571Y-107895238D01*
X209985333Y-107990476D01*
X209890095Y-108038095D01*
X208890095Y-121722380D02*
X208890095Y-122531904D01*
X208937714Y-122627142D01*
X208985333Y-122674761D01*
X209080571Y-122722380D01*
X209271047Y-122722380D01*
X209366285Y-122674761D01*
X209413904Y-122627142D01*
X209461523Y-122531904D01*
X209461523Y-121722380D01*
X209890095Y-121817619D02*
X209937714Y-121770000D01*
X210032952Y-121722380D01*
X210271047Y-121722380D01*
X210366285Y-121770000D01*
X210413904Y-121817619D01*
X210461523Y-121912857D01*
X210461523Y-122008095D01*
X210413904Y-122150952D01*
X209842476Y-122722380D01*
X210461523Y-122722380D01*
X224130095Y-121722380D02*
X224130095Y-122531904D01*
X224177714Y-122627142D01*
X224225333Y-122674761D01*
X224320571Y-122722380D01*
X224511047Y-122722380D01*
X224606285Y-122674761D01*
X224653904Y-122627142D01*
X224701523Y-122531904D01*
X224701523Y-121722380D01*
X225606285Y-122055714D02*
X225606285Y-122722380D01*
X225368190Y-121674761D02*
X225130095Y-122389047D01*
X225749142Y-122389047D01*
X239370095Y-107752380D02*
X239370095Y-108561904D01*
X239417714Y-108657142D01*
X239465333Y-108704761D01*
X239560571Y-108752380D01*
X239751047Y-108752380D01*
X239846285Y-108704761D01*
X239893904Y-108657142D01*
X239941523Y-108561904D01*
X239941523Y-107752380D01*
X240893904Y-107752380D02*
X240417714Y-107752380D01*
X240370095Y-108228571D01*
X240417714Y-108180952D01*
X240512952Y-108133333D01*
X240751047Y-108133333D01*
X240846285Y-108180952D01*
X240893904Y-108228571D01*
X240941523Y-108323809D01*
X240941523Y-108561904D01*
X240893904Y-108657142D01*
X240846285Y-108704761D01*
X240751047Y-108752380D01*
X240512952Y-108752380D01*
X240417714Y-108704761D01*
X240370095Y-108657142D01*
X239370095Y-121722380D02*
X239370095Y-122531904D01*
X239417714Y-122627142D01*
X239465333Y-122674761D01*
X239560571Y-122722380D01*
X239751047Y-122722380D01*
X239846285Y-122674761D01*
X239893904Y-122627142D01*
X239941523Y-122531904D01*
X239941523Y-121722380D01*
X240846285Y-121722380D02*
X240655809Y-121722380D01*
X240560571Y-121770000D01*
X240512952Y-121817619D01*
X240417714Y-121960476D01*
X240370095Y-122150952D01*
X240370095Y-122531904D01*
X240417714Y-122627142D01*
X240465333Y-122674761D01*
X240560571Y-122722380D01*
X240751047Y-122722380D01*
X240846285Y-122674761D01*
X240893904Y-122627142D01*
X240941523Y-122531904D01*
X240941523Y-122293809D01*
X240893904Y-122198571D01*
X240846285Y-122150952D01*
X240751047Y-122103333D01*
X240560571Y-122103333D01*
X240465333Y-122150952D01*
X240417714Y-122198571D01*
X240370095Y-122293809D01*
X254610095Y-107752380D02*
X254610095Y-108561904D01*
X254657714Y-108657142D01*
X254705333Y-108704761D01*
X254800571Y-108752380D01*
X254991047Y-108752380D01*
X255086285Y-108704761D01*
X255133904Y-108657142D01*
X255181523Y-108561904D01*
X255181523Y-107752380D01*
X255562476Y-107752380D02*
X256229142Y-107752380D01*
X255800571Y-108752380D01*
X254610095Y-121722380D02*
X254610095Y-122531904D01*
X254657714Y-122627142D01*
X254705333Y-122674761D01*
X254800571Y-122722380D01*
X254991047Y-122722380D01*
X255086285Y-122674761D01*
X255133904Y-122627142D01*
X255181523Y-122531904D01*
X255181523Y-121722380D01*
X255800571Y-122150952D02*
X255705333Y-122103333D01*
X255657714Y-122055714D01*
X255610095Y-121960476D01*
X255610095Y-121912857D01*
X255657714Y-121817619D01*
X255705333Y-121770000D01*
X255800571Y-121722380D01*
X255991047Y-121722380D01*
X256086285Y-121770000D01*
X256133904Y-121817619D01*
X256181523Y-121912857D01*
X256181523Y-121960476D01*
X256133904Y-122055714D01*
X256086285Y-122103333D01*
X255991047Y-122150952D01*
X255800571Y-122150952D01*
X255705333Y-122198571D01*
X255657714Y-122246190D01*
X255610095Y-122341428D01*
X255610095Y-122531904D01*
X255657714Y-122627142D01*
X255705333Y-122674761D01*
X255800571Y-122722380D01*
X255991047Y-122722380D01*
X256086285Y-122674761D01*
X256133904Y-122627142D01*
X256181523Y-122531904D01*
X256181523Y-122341428D01*
X256133904Y-122246190D01*
X256086285Y-122198571D01*
X255991047Y-122150952D01*
M02*
