G04 #@! TF.GenerationSoftware,KiCad,Pcbnew,5.1.2-f72e74a~84~ubuntu19.04.1*
G04 #@! TF.CreationDate,2019-06-29T23:09:38+02:00*
G04 #@! TF.ProjectId,switch-control-hat,73776974-6368-42d6-936f-6e74726f6c2d,rev?*
G04 #@! TF.SameCoordinates,Original*
G04 #@! TF.FileFunction,Soldermask,Bot*
G04 #@! TF.FilePolarity,Negative*
%FSLAX46Y46*%
G04 Gerber Fmt 4.6, Leading zero omitted, Abs format (unit mm)*
G04 Created by KiCad (PCBNEW 5.1.2-f72e74a~84~ubuntu19.04.1) date 2019-06-29 23:09:38*
%MOMM*%
%LPD*%
G04 APERTURE LIST*
%ADD10O,1.800000X3.600000*%
%ADD11C,0.100000*%
%ADD12C,1.800000*%
%ADD13R,2.200000X2.200000*%
%ADD14O,2.200000X2.200000*%
%ADD15O,1.700000X1.700000*%
%ADD16R,1.700000X1.700000*%
%ADD17R,1.600000X1.600000*%
%ADD18O,1.600000X1.600000*%
%ADD19C,2.700000*%
G04 APERTURE END LIST*
D10*
X278740000Y-146190000D03*
X274930000Y-146190000D03*
D11*
G36*
X271794504Y-144391204D02*
G01*
X271818773Y-144394804D01*
X271842571Y-144400765D01*
X271865671Y-144409030D01*
X271887849Y-144419520D01*
X271908893Y-144432133D01*
X271928598Y-144446747D01*
X271946777Y-144463223D01*
X271963253Y-144481402D01*
X271977867Y-144501107D01*
X271990480Y-144522151D01*
X272000970Y-144544329D01*
X272009235Y-144567429D01*
X272015196Y-144591227D01*
X272018796Y-144615496D01*
X272020000Y-144640000D01*
X272020000Y-147740000D01*
X272018796Y-147764504D01*
X272015196Y-147788773D01*
X272009235Y-147812571D01*
X272000970Y-147835671D01*
X271990480Y-147857849D01*
X271977867Y-147878893D01*
X271963253Y-147898598D01*
X271946777Y-147916777D01*
X271928598Y-147933253D01*
X271908893Y-147947867D01*
X271887849Y-147960480D01*
X271865671Y-147970970D01*
X271842571Y-147979235D01*
X271818773Y-147985196D01*
X271794504Y-147988796D01*
X271770000Y-147990000D01*
X270470000Y-147990000D01*
X270445496Y-147988796D01*
X270421227Y-147985196D01*
X270397429Y-147979235D01*
X270374329Y-147970970D01*
X270352151Y-147960480D01*
X270331107Y-147947867D01*
X270311402Y-147933253D01*
X270293223Y-147916777D01*
X270276747Y-147898598D01*
X270262133Y-147878893D01*
X270249520Y-147857849D01*
X270239030Y-147835671D01*
X270230765Y-147812571D01*
X270224804Y-147788773D01*
X270221204Y-147764504D01*
X270220000Y-147740000D01*
X270220000Y-144640000D01*
X270221204Y-144615496D01*
X270224804Y-144591227D01*
X270230765Y-144567429D01*
X270239030Y-144544329D01*
X270249520Y-144522151D01*
X270262133Y-144501107D01*
X270276747Y-144481402D01*
X270293223Y-144463223D01*
X270311402Y-144446747D01*
X270331107Y-144432133D01*
X270352151Y-144419520D01*
X270374329Y-144409030D01*
X270397429Y-144400765D01*
X270421227Y-144394804D01*
X270445496Y-144391204D01*
X270470000Y-144390000D01*
X271770000Y-144390000D01*
X271794504Y-144391204D01*
X271794504Y-144391204D01*
G37*
D12*
X271120000Y-146190000D03*
D11*
G36*
X210326504Y-144391204D02*
G01*
X210350773Y-144394804D01*
X210374571Y-144400765D01*
X210397671Y-144409030D01*
X210419849Y-144419520D01*
X210440893Y-144432133D01*
X210460598Y-144446747D01*
X210478777Y-144463223D01*
X210495253Y-144481402D01*
X210509867Y-144501107D01*
X210522480Y-144522151D01*
X210532970Y-144544329D01*
X210541235Y-144567429D01*
X210547196Y-144591227D01*
X210550796Y-144615496D01*
X210552000Y-144640000D01*
X210552000Y-147740000D01*
X210550796Y-147764504D01*
X210547196Y-147788773D01*
X210541235Y-147812571D01*
X210532970Y-147835671D01*
X210522480Y-147857849D01*
X210509867Y-147878893D01*
X210495253Y-147898598D01*
X210478777Y-147916777D01*
X210460598Y-147933253D01*
X210440893Y-147947867D01*
X210419849Y-147960480D01*
X210397671Y-147970970D01*
X210374571Y-147979235D01*
X210350773Y-147985196D01*
X210326504Y-147988796D01*
X210302000Y-147990000D01*
X209002000Y-147990000D01*
X208977496Y-147988796D01*
X208953227Y-147985196D01*
X208929429Y-147979235D01*
X208906329Y-147970970D01*
X208884151Y-147960480D01*
X208863107Y-147947867D01*
X208843402Y-147933253D01*
X208825223Y-147916777D01*
X208808747Y-147898598D01*
X208794133Y-147878893D01*
X208781520Y-147857849D01*
X208771030Y-147835671D01*
X208762765Y-147812571D01*
X208756804Y-147788773D01*
X208753204Y-147764504D01*
X208752000Y-147740000D01*
X208752000Y-144640000D01*
X208753204Y-144615496D01*
X208756804Y-144591227D01*
X208762765Y-144567429D01*
X208771030Y-144544329D01*
X208781520Y-144522151D01*
X208794133Y-144501107D01*
X208808747Y-144481402D01*
X208825223Y-144463223D01*
X208843402Y-144446747D01*
X208863107Y-144432133D01*
X208884151Y-144419520D01*
X208906329Y-144409030D01*
X208929429Y-144400765D01*
X208953227Y-144394804D01*
X208977496Y-144391204D01*
X209002000Y-144390000D01*
X210302000Y-144390000D01*
X210326504Y-144391204D01*
X210326504Y-144391204D01*
G37*
D12*
X209652000Y-146190000D03*
D10*
X213462000Y-146190000D03*
X217272000Y-146190000D03*
X221082000Y-146190000D03*
X224892000Y-146190000D03*
X228702000Y-146190000D03*
X232512000Y-146190000D03*
X236322000Y-146190000D03*
X240132000Y-146190000D03*
X243942000Y-146190000D03*
X247752000Y-146190000D03*
X251562000Y-146190000D03*
X255372000Y-146190000D03*
D13*
X213462000Y-134760000D03*
D14*
X213462000Y-138570000D03*
X259182000Y-138570000D03*
D13*
X259182000Y-134760000D03*
D15*
X274930000Y-130672000D03*
D16*
X272390000Y-130672000D03*
D14*
X251562000Y-138570000D03*
D13*
X251562000Y-134760000D03*
D14*
X243942000Y-138570000D03*
D13*
X243942000Y-134760000D03*
D14*
X236322000Y-138570000D03*
D13*
X236322000Y-134760000D03*
D14*
X228702000Y-138570000D03*
D13*
X228702000Y-134760000D03*
D14*
X221082000Y-138570000D03*
D13*
X221082000Y-134760000D03*
X205842000Y-134760000D03*
D14*
X205842000Y-138570000D03*
D17*
X221082000Y-110630000D03*
D18*
X228702000Y-115710000D03*
X221082000Y-113170000D03*
X228702000Y-113170000D03*
X221082000Y-115710000D03*
X228702000Y-110630000D03*
D16*
X208370000Y-98770000D03*
D15*
X208370000Y-96230000D03*
X210910000Y-98770000D03*
X210910000Y-96230000D03*
X213450000Y-98770000D03*
X213450000Y-96230000D03*
X215990000Y-98770000D03*
X215990000Y-96230000D03*
X218530000Y-98770000D03*
X218530000Y-96230000D03*
X221070000Y-98770000D03*
X221070000Y-96230000D03*
X223610000Y-98770000D03*
X223610000Y-96230000D03*
X226150000Y-98770000D03*
X226150000Y-96230000D03*
X228690000Y-98770000D03*
X228690000Y-96230000D03*
X231230000Y-98770000D03*
X231230000Y-96230000D03*
X233770000Y-98770000D03*
X233770000Y-96230000D03*
X236310000Y-98770000D03*
X236310000Y-96230000D03*
X238850000Y-98770000D03*
X238850000Y-96230000D03*
X241390000Y-98770000D03*
X241390000Y-96230000D03*
X243930000Y-98770000D03*
X243930000Y-96230000D03*
X246470000Y-98770000D03*
X246470000Y-96230000D03*
X249010000Y-98770000D03*
X249010000Y-96230000D03*
X251550000Y-98770000D03*
X251550000Y-96230000D03*
X254090000Y-98770000D03*
X254090000Y-96230000D03*
X256630000Y-98770000D03*
X256630000Y-96230000D03*
D19*
X261500000Y-146500000D03*
X203500000Y-146500000D03*
X261500000Y-97500000D03*
X203500000Y-97500000D03*
D18*
X213462000Y-110630000D03*
X205842000Y-115710000D03*
X213462000Y-113170000D03*
X205842000Y-113170000D03*
X213462000Y-115710000D03*
D17*
X205842000Y-110630000D03*
X205842000Y-124600000D03*
D18*
X213462000Y-129680000D03*
X205842000Y-127140000D03*
X213462000Y-127140000D03*
X205842000Y-129680000D03*
X213462000Y-124600000D03*
X228702000Y-124600000D03*
X221082000Y-129680000D03*
X228702000Y-127140000D03*
X221082000Y-127140000D03*
X228702000Y-129680000D03*
D17*
X221082000Y-124600000D03*
X236322000Y-110630000D03*
D18*
X243942000Y-115710000D03*
X236322000Y-113170000D03*
X243942000Y-113170000D03*
X236322000Y-115710000D03*
X243942000Y-110630000D03*
X243942000Y-124600000D03*
X236322000Y-129680000D03*
X243942000Y-127140000D03*
X236322000Y-127140000D03*
X243942000Y-129680000D03*
D17*
X236322000Y-124600000D03*
X251562000Y-110630000D03*
D18*
X259182000Y-115710000D03*
X251562000Y-113170000D03*
X259182000Y-113170000D03*
X251562000Y-115710000D03*
X259182000Y-110630000D03*
X259182000Y-124600000D03*
X251562000Y-129680000D03*
X259182000Y-127140000D03*
X251562000Y-127140000D03*
X259182000Y-129680000D03*
D17*
X251562000Y-124600000D03*
M02*
